<svg xmlns="http://www.w3.org/2000/svg" viewBox="0 0 97.36 97.36"><title>bot_drizzle</title><g id="Layer_2" data-name="Layer 2"><g id="OBJECTS"><path d="M3.36,97.36h0A3.35,3.35,0,0,1,0,94V78.56A3.36,3.36,0,0,1,3.36,75.2H15.44a3.35,3.35,0,0,0,3.36-3.36V59.76a3.35,3.35,0,0,1,3.36-3.36H34.24A3.35,3.35,0,0,0,37.6,53V41A3.35,3.35,0,0,1,41,37.6H53a3.35,3.35,0,0,0,3.36-3.36V22.16a3.35,3.35,0,0,1,3.36-3.36H71.84a3.35,3.35,0,0,0,3.36-3.36V3.36A3.35,3.35,0,0,1,78.56,0H94a3.35,3.35,0,0,1,3.36,3.36h0A3.35,3.35,0,0,1,94,6.71H85.27a3.36,3.36,0,0,0-3.35,3.36V22.16a3.36,3.36,0,0,1-3.36,3.35H66.47a3.35,3.35,0,0,0-3.35,3.35V41a3.37,3.37,0,0,1-3.36,3.36H47.67a3.35,3.35,0,0,0-3.35,3.35V59.76A3.37,3.37,0,0,1,41,63.12H28.87a3.36,3.36,0,0,0-3.36,3.35V78.56a3.36,3.36,0,0,1-3.35,3.36H10.07a3.36,3.36,0,0,0-3.36,3.35V94A3.35,3.35,0,0,1,3.36,97.36Z" style="fill:#f50057"/></g></g></svg>