<svg xmlns="http://www.w3.org/2000/svg" xmlns:xlink="http://www.w3.org/1999/xlink" viewBox="0 0 56.15 50.87"><defs><linearGradient id="linear-gradient" x1="12.92" y1="37.5" x2="41.6" y2="8.83" gradientUnits="userSpaceOnUse"><stop offset="0.01" stop-color="#ff0068"/><stop offset="1" stop-color="#ffc107"/></linearGradient></defs><title>bottom_h</title><g id="Layer_2" data-name="Layer 2"><g id="OBJECTS"><g id="ELEMENT"><g id="ELEMENT-2" data-name="ELEMENT"><path d="M46.35,11.91,34.12,24.15a5.44,5.44,0,0,1-7.67,0h0a5.42,5.42,0,0,1,0-7.67L33.13,9.8a5.42,5.42,0,0,0,0-7.67l-.54-.54a5.42,5.42,0,0,0-7.67,0l-23.33,23a5.42,5.42,0,0,0,0,7.67l.54.53a5.42,5.42,0,0,0,7.67,0L13.62,29a5.42,5.42,0,0,1,7.67,0h0a5.42,5.42,0,0,1,0,7.67l-4.44,4.45a5.42,5.42,0,0,0,0,7.67l.54.53a5.42,5.42,0,0,0,7.67,0l29.5-29.16a5.42,5.42,0,0,0,0-7.67L54,11.91A5.44,5.44,0,0,0,46.35,11.91Z" style="fill:url(#linear-gradient)"/></g></g></g></g></svg>