<svg xmlns="http://www.w3.org/2000/svg" xmlns:xlink="http://www.w3.org/1999/xlink" viewBox="0 0 123.85 123.85"><defs><linearGradient id="linear-gradient" y1="61.93" x2="123.85" y2="61.93" gradientUnits="userSpaceOnUse"><stop offset="0" stop-color="#441066" stop-opacity="0"/><stop offset="1" stop-color="#a9008d"/></linearGradient></defs><title>left_drizzle</title><g id="Layer_2" data-name="Layer 2"><g id="OBJECTS"><path d="M4.27,123.85h0A4.27,4.27,0,0,1,0,119.58V99.94a4.28,4.28,0,0,1,4.27-4.28H19.65a4.27,4.27,0,0,0,4.27-4.27V76a4.27,4.27,0,0,1,4.27-4.27H43.56a4.27,4.27,0,0,0,4.27-4.27V52.1a4.27,4.27,0,0,1,4.27-4.27H67.48a4.27,4.27,0,0,0,4.27-4.27V28.19A4.27,4.27,0,0,1,76,23.92H91.39a4.27,4.27,0,0,0,4.27-4.27V4.27A4.28,4.28,0,0,1,99.94,0h19.64a4.27,4.27,0,0,1,4.27,4.27h0a4.27,4.27,0,0,1-4.27,4.27h-11.1a4.27,4.27,0,0,0-4.27,4.27V28.19a4.27,4.27,0,0,1-4.27,4.27H84.56a4.27,4.27,0,0,0-4.27,4.27V52.1A4.27,4.27,0,0,1,76,56.37H60.64a4.28,4.28,0,0,0-4.27,4.27V76a4.27,4.27,0,0,1-4.27,4.27H36.73a4.27,4.27,0,0,0-4.27,4.27V99.94a4.27,4.27,0,0,1-4.27,4.27H12.81a4.27,4.27,0,0,0-4.27,4.27v11.1A4.27,4.27,0,0,1,4.27,123.85Z" style="fill:url(#linear-gradient)"/></g></g></svg>