<svg xmlns="http://www.w3.org/2000/svg" viewBox="0 0 109.65 90.2"><title>tilted_points</title><g id="Layer_2" data-name="Layer 2"><g id="OBJECTS"><path d="M4.72,3.71A2.38,2.38,0,1,1,4.08.41,2.37,2.37,0,0,1,4.72,3.71Z" style="fill:#f50057"/><path d="M17.79,12.54a2.38,2.38,0,1,1-.64-3.3A2.38,2.38,0,0,1,17.79,12.54Z" style="fill:#f50057"/><path d="M30.85,21.37a2.38,2.38,0,1,1-.64-3.31A2.37,2.37,0,0,1,30.85,21.37Z" style="fill:#f50057"/><path d="M43.92,30.2a2.38,2.38,0,1,1-.64-3.31A2.39,2.39,0,0,1,43.92,30.2Z" style="fill:#f50057"/><path d="M57,39a2.38,2.38,0,1,1-.64-3.31A2.38,2.38,0,0,1,57,39Z" style="fill:#f50057"/><path d="M70.05,47.85a2.38,2.38,0,1,1-.64-3.3A2.38,2.38,0,0,1,70.05,47.85Z" style="fill:#f50057"/><path d="M83.11,56.68a2.38,2.38,0,1,1-.64-3.31A2.37,2.37,0,0,1,83.11,56.68Z" style="fill:#f50057"/><path d="M96.18,65.51a2.38,2.38,0,1,1-.64-3.31A2.39,2.39,0,0,1,96.18,65.51Z" style="fill:#f50057"/><path d="M109.24,74.34A2.38,2.38,0,1,1,108.6,71,2.38,2.38,0,0,1,109.24,74.34Z" style="fill:#f50057"/><path d="M4.35,18.53a2.38,2.38,0,1,1-.64-3.31A2.37,2.37,0,0,1,4.35,18.53Z" style="fill:#f50057"/><path d="M17.42,27.36a2.38,2.38,0,1,1-.64-3.31A2.39,2.39,0,0,1,17.42,27.36Z" style="fill:#f50057"/><path d="M30.48,36.19a2.38,2.38,0,1,1-.64-3.31A2.38,2.38,0,0,1,30.48,36.19Z" style="fill:#f50057"/><path d="M43.55,45a2.38,2.38,0,1,1-.64-3.3A2.38,2.38,0,0,1,43.55,45Z" style="fill:#f50057"/><path d="M56.61,53.84A2.38,2.38,0,1,1,56,50.53,2.37,2.37,0,0,1,56.61,53.84Z" style="fill:#f50057"/><path d="M69.68,62.67A2.38,2.38,0,1,1,69,59.36,2.39,2.39,0,0,1,69.68,62.67Z" style="fill:#f50057"/><path d="M82.74,71.5a2.38,2.38,0,1,1-.64-3.31A2.38,2.38,0,0,1,82.74,71.5Z" style="fill:#f50057"/><path d="M95.81,80.32a2.38,2.38,0,1,1-.64-3.3A2.38,2.38,0,0,1,95.81,80.32Z" style="fill:#f50057"/><path d="M108.87,89.15a2.38,2.38,0,1,1-.64-3.3A2.37,2.37,0,0,1,108.87,89.15Z" style="fill:#f50057"/></g></g></svg>