<svg xmlns="http://www.w3.org/2000/svg" viewBox="0 0 138.89 17.25"><title>top_points</title><g id="Layer_2" data-name="Layer 2"><g id="OBJECTS"><path d="M4.76,2.38A2.38,2.38,0,1,1,2.38,0,2.37,2.37,0,0,1,4.76,2.38Z" style="fill:#f50057"/><path d="M20.53,2.38A2.38,2.38,0,1,1,18.15,0,2.38,2.38,0,0,1,20.53,2.38Z" style="fill:#f50057"/><path d="M36.3,2.38A2.38,2.38,0,1,1,33.92,0,2.38,2.38,0,0,1,36.3,2.38Z" style="fill:#f50057"/><path d="M52.07,2.38A2.39,2.39,0,1,1,49.68,0,2.38,2.38,0,0,1,52.07,2.38Z" style="fill:#f50057"/><path d="M67.83,2.38A2.38,2.38,0,1,1,65.45,0,2.37,2.37,0,0,1,67.83,2.38Z" style="fill:#f50057"/><path d="M83.6,2.38A2.38,2.38,0,1,1,81.22,0,2.38,2.38,0,0,1,83.6,2.38Z" style="fill:#f50057"/><path d="M99.37,2.38A2.38,2.38,0,1,1,97,0,2.38,2.38,0,0,1,99.37,2.38Z" style="fill:#f50057"/><path d="M115.14,2.38A2.39,2.39,0,1,1,112.75,0,2.38,2.38,0,0,1,115.14,2.38Z" style="fill:#f50057"/><path d="M130.9,2.38A2.38,2.38,0,1,1,128.52,0,2.37,2.37,0,0,1,130.9,2.38Z" style="fill:#f50057"/><path d="M12.75,14.86a2.38,2.38,0,1,1-2.38-2.38A2.39,2.39,0,0,1,12.75,14.86Z" style="fill:#f50057"/><path d="M28.52,14.86a2.38,2.38,0,1,1-2.38-2.38A2.39,2.39,0,0,1,28.52,14.86Z" style="fill:#f50057"/><path d="M44.29,14.86a2.39,2.39,0,1,1-2.39-2.38A2.39,2.39,0,0,1,44.29,14.86Z" style="fill:#f50057"/><path d="M60.05,14.86a2.38,2.38,0,1,1-2.38-2.38A2.38,2.38,0,0,1,60.05,14.86Z" style="fill:#f50057"/><path d="M75.82,14.86a2.38,2.38,0,1,1-2.38-2.38A2.38,2.38,0,0,1,75.82,14.86Z" style="fill:#f50057"/><path d="M91.59,14.86a2.38,2.38,0,1,1-2.38-2.38A2.39,2.39,0,0,1,91.59,14.86Z" style="fill:#f50057"/><path d="M107.36,14.86A2.39,2.39,0,1,1,105,12.48,2.39,2.39,0,0,1,107.36,14.86Z" style="fill:#f50057"/><path d="M123.12,14.86a2.38,2.38,0,1,1-2.38-2.38A2.38,2.38,0,0,1,123.12,14.86Z" style="fill:#f50057"/><path d="M138.89,14.86a2.38,2.38,0,1,1-2.38-2.38A2.38,2.38,0,0,1,138.89,14.86Z" style="fill:#f50057"/></g></g></svg>