<svg id="Layer_1" data-name="Layer 1" xmlns="http://www.w3.org/2000/svg" viewBox="0 0 20.31 29.5"><title>golf_hole</title><g id="Icons"><g id="_Group_" data-name="&lt;Group&gt;"><ellipse id="_Path_" data-name="&lt;Path&gt;" cx="5.8" cy="27.4" rx="5.3" ry="1.6" style="fill:#2ecc71;stroke:#020202;stroke-linecap:round;stroke-linejoin:round"/><path id="_Path_2" data-name="&lt;Path&gt;" d="M5.8.5A1.11,1.11,0,0,0,4.7,1.6V28.1a.9.9,0,0,0,.9.9H6a.9.9,0,0,0,.9-.9V1.6A1.11,1.11,0,0,0,5.8.5Z" style="fill:#daedf7;stroke:#020202;stroke-linecap:round;stroke-linejoin:round"/><path id="_Path_3" data-name="&lt;Path&gt;" d="M19.5,11.1,14.3,8.7a3.57,3.57,0,0,1-1.9-2.1A2.8,2.8,0,0,0,10.6,4L6.9,2.6V14.3l2.8-1a3.2,3.2,0,0,1,2.7.3,3.24,3.24,0,0,0,4.3.5l2.9-2A.61.61,0,0,0,19.5,11.1Z" style="fill:#ff6242;stroke:#020202;stroke-linecap:round;stroke-linejoin:round"/><path id="_Path_4" data-name="&lt;Path&gt;" d="M12.4,13.5V6.6" style="fill:#ff6242;stroke:#020202;stroke-linecap:round;stroke-linejoin:round"/></g></g></svg>