<svg id="Layer_1" data-name="Layer 1" xmlns="http://www.w3.org/2000/svg" viewBox="0 0 42.68 71.4"><title>golf_ball</title><ellipse cx="21.34" cy="21.38" rx="20.59" ry="20.63" style="fill:#f2f2f2;stroke:#020202;stroke-linecap:round;stroke-linejoin:round;stroke-width:1.5px"/><path d="M28.35,8.05a2.6,2.6,0,0,1-2,.75A2.54,2.54,0,0,1,24.43,8m0,5.09a2.61,2.61,0,0,1-2,.75,2.61,2.61,0,0,1-1.95-.76m11.94,0a2.61,2.61,0,0,1-2,.75,2.57,2.57,0,0,1-1.95-.76m-.2,4.14a2.61,2.61,0,0,1-2,.74,2.54,2.54,0,0,1-1.95-.76" style="fill:none;stroke:#020202;stroke-linecap:round;stroke-linejoin:round"/></svg>