<svg id="Layer_1" data-name="Layer 1" xmlns="http://www.w3.org/2000/svg" viewBox="0 0 15.96 5.85"><title>funfuelfavicon</title><path d="M3.87,7.53H1.92v.6H3.66v1.6H1.92v1.82H0V5.86H3.87Z" transform="translate(-0.01 -5.86)" style="fill:#f17464"/><path d="M9.06,11.05a2.72,2.72,0,0,1-1.91.66,2.72,2.72,0,0,1-1.91-.66,2.31,2.31,0,0,1-.72-1.77V5.86h2V9.28a.65.65,0,0,0,.19.5.68.68,0,0,0,1,0,.69.69,0,0,0,.19-.5V5.86h2V9.28A2.31,2.31,0,0,1,9.06,11.05Z" transform="translate(-0.01 -5.86)" style="fill:#f17464"/><path d="M14.16,5.86H16v5.69H14.42l-2-2.69v2.69H10.61V5.86h1.6l1.95,2.58Z" transform="translate(-0.01 -5.86)" style="fill:#f17464"/></svg>