<svg id="Layer_1" data-name="Layer 1" xmlns="http://www.w3.org/2000/svg" viewBox="0 0 48.86 62.52"><title>prize</title><path d="M45,43V60.09a2,2,0,0,1-2,2,2,2,0,0,1-.76-.13l-8.84-3.4a4.08,4.08,0,0,0-2.88,0L21.72,62a2,2,0,0,1-2.59-1.15,2,2,0,0,1-.13-.76V43Z" transform="translate(-7.57 -0.57)" style="fill:#f27486"/><path d="M33.26,2l3.33,2.7a2,2,0,0,0,1.57.42l4.24-.67a2,2,0,0,1,2.18,1.26l1.54,4a2,2,0,0,0,1.15,1.15l4,1.54a2,2,0,0,1,1.26,2.18l-.67,4.24a2,2,0,0,0,.42,1.57L55,23.74a2,2,0,0,1,0,2.52l-2.7,3.33a2,2,0,0,0-.42,1.57l.67,4.24a2,2,0,0,1-1.26,2.18l-4,1.54a2,2,0,0,0-1.15,1.15l-1.54,4a2,2,0,0,1-2.18,1.26l-4.24-.67a2,2,0,0,0-1.57.42L33.26,48a2,2,0,0,1-2.52,0l-3.33-2.7a2,2,0,0,0-1.57-.42l-4.24.67a2,2,0,0,1-2.18-1.26l-1.54-4a2,2,0,0,0-1.15-1.15l-4-1.54a2,2,0,0,1-1.26-2.18l.67-4.24a2,2,0,0,0-.42-1.57L9,26.26a2,2,0,0,1,0-2.52l2.7-3.33a2,2,0,0,0,.42-1.57l-.67-4.24a2,2,0,0,1,1.26-2.18l4-1.54a2,2,0,0,0,1.15-1.15l1.54-4a2,2,0,0,1,2.2-1.26l4.24.67a2,2,0,0,0,1.57-.42L30.74,2A2,2,0,0,1,33.26,2Z" transform="translate(-7.57 -0.57)" style="fill:#ffdb78"/><path d="M45,43.18v5l-.42,1.09a2,2,0,0,1-2.18,1.26l-4.24-.67a2,2,0,0,0-1.57.42L33.26,53a2,2,0,0,1-2.52,0l-3.33-2.7a2,2,0,0,0-1.57-.42l-4.24.67a2,2,0,0,1-2.18-1.26L19,48.18v-5l.42,1.09a2,2,0,0,0,2.18,1.26l4.24-.67a2,2,0,0,1,1.57.42L30.74,48a2,2,0,0,0,2.52,0l3.33-2.7a2,2,0,0,1,1.57-.42l4.24.67a2,2,0,0,0,2.18-1.26Z" transform="translate(-7.57 -0.57)" style="fill:#e0678f"/><path d="M45,25a13,13,0,0,1-24.69,5.69A13.36,13.36,0,0,1,19,25,13,13,0,0,1,32,12a13.36,13.36,0,0,1,5.69,1.31A13,13,0,0,1,45,25Z" transform="translate(-7.57 -0.57)" style="fill:#f9e3ae"/><path d="M45,25A13,13,0,0,1,27.73,37.28L44.28,20.73A12.94,12.94,0,0,1,45,25Zm-2-7L25,36a12.41,12.41,0,0,1-3.16-2.84L40.13,14.87A12.4,12.4,0,0,1,43,18Zm-5.31-4.69L20.31,30.69a12.88,12.88,0,0,1-1.17-3.83L33.86,12.14A12.88,12.88,0,0,1,37.69,13.31Z" transform="translate(-7.57 -0.57)" style="fill:#ffe4a6"/><path d="M37.66,20.76,36.42,23l-2.26,1.24,2.26,1.24,1.24,2.27L38.9,25.5l2.26-1.24L38.9,23Zm-9.92-4-.85,1.56-1.57.85,1.57.86.85,1.56L28.6,20l1.56-.86-1.56-.85Zm.07,11.7-.58,1.07-1.07.58,1.07.58.58,1.07.58-1.07,1.07-.58-1.07-.58Z" transform="translate(-7.57 -0.57)" style="fill:#fff8f8"/><path d="M55.76,26.89a3,3,0,0,0,0-3.78l-2.7-3.33a1,1,0,0,1-.21-.79l.67-4.24a3,3,0,0,0-1.89-3.27l-4-1.54a1,1,0,0,1-.58-.58l-1.54-4a3,3,0,0,0-3.27-1.89L38,4.15a1,1,0,0,1-.79-.21l-3.33-2.7h0a3,3,0,0,0-3.78,0l-3.33,2.7a1,1,0,0,1-.79.21l-4.24-.67a3,3,0,0,0-3.27,1.89l-1.54,4a1,1,0,0,1-.58.58l-4,1.54a3,3,0,0,0-1.89,3.27L11.15,19a1,1,0,0,1-.21.79l-2.7,3.33a3,3,0,0,0,0,3.78l2.7,3.33a1,1,0,0,1,.21.79l-.67,4.24a3,3,0,0,0,1.89,3.27l4,1.54a1,1,0,0,1,.58.58L18,43.36V60.09a3,3,0,0,0,3,3,3,3,0,0,0,1.08-.2l8.85-3.4a3,3,0,0,1,2.15,0l8.85,3.4a3,3,0,0,0,3.87-1.73,3,3,0,0,0,.2-1.07V43.36l1-2.74a1,1,0,0,1,.58-.58l4-1.54a3,3,0,0,0,1.89-3.27L52.85,31a1,1,0,0,1,.21-.79Zm-12.19,34a1,1,0,0,1-.92.11L33.8,57.6a5,5,0,0,0-3.59,0L21.36,61a1,1,0,0,1-1.29-.57,1,1,0,0,1-.07-.34V46.25a3,3,0,0,0,1.76.27L26,45.85a1,1,0,0,1,.79.21l3.33,2.7a3,3,0,0,0,3.78,0l3.33-2.7a1,1,0,0,1,.79-.21l4.24.67A3,3,0,0,0,44,46.25V60.09a1,1,0,0,1-.43.82ZM51.5,29a3,3,0,0,0-.63,2.36l.67,4.24a1,1,0,0,1-.63,1.09l-4,1.54A3,3,0,0,0,45.18,40l-1.54,4a1,1,0,0,1-1.09.63l-4.24-.67A3,3,0,0,0,36,44.5l-3.33,2.7a1,1,0,0,1-1.26,0L28,44.5a3,3,0,0,0-2.36-.63l-4.24.67a1,1,0,0,1-1.09-.63l-1.54-4A3,3,0,0,0,17,38.18l-4-1.54a1,1,0,0,1-.63-1.09l.67-4.24A3,3,0,0,0,12.5,29L9.8,25.63a1,1,0,0,1,0-1.26L12.5,21a3,3,0,0,0,.63-2.36l-.67-4.24a1,1,0,0,1,.63-1.09l4-1.54A3,3,0,0,0,18.82,10l1.54-4a1,1,0,0,1,1.09-.63l4.24.67A3,3,0,0,0,28,5.5l3.33-2.7a1,1,0,0,1,1.26,0L36,5.5a3,3,0,0,0,2.36.63l4.24-.67a1,1,0,0,1,1.09.63l1.54,4A3,3,0,0,0,47,11.82l4,1.54a1,1,0,0,1,.63,1.09l-.67,4.24A3,3,0,0,0,51.5,21l2.7,3.33a1,1,0,0,1,0,1.26Z" transform="translate(-7.57 -0.57)" style="fill:#020202"/><path d="M33.34,11.06a14,14,0,0,0-15.28,12.6c0,.44-.06.89-.06,1.34a1,1,0,0,0,2,0A12,12,0,0,1,32,13a10.93,10.93,0,0,1,1.15.06,1,1,0,0,0,.2-2Zm9.31,6.41a1,1,0,0,0-.34,1.37,12.07,12.07,0,0,1,.83,10.66,1,1,0,1,0,1.86.75,14.08,14.08,0,0,0-1-12.43A1,1,0,0,0,42.65,17.47Zm-2.24-1.39a1,1,0,0,0,.65-1.76,13.35,13.35,0,0,0-2.51-1.7,1,1,0,0,0-.94,1.77,12.15,12.15,0,0,1,2.15,1.46A1,1,0,0,0,40.41,16.08Zm.78,16.7a1,1,0,0,0-1.41,1.41l1.41,1.41a1,1,0,0,0,1.41-1.41Zm-18.38,0L21.4,34.19a1,1,0,0,0,1.3,1.52.57.57,0,0,0,.11-.11l1.41-1.41a1,1,0,0,0-1.41-1.41ZM32,36a1,1,0,0,0-1,1v2a1,1,0,0,0,2,0V37A1,1,0,0,0,32,36Zm-4.3-.87a1,1,0,0,0-1.31.53l-.78,1.84a1,1,0,1,0,1.81.85l0-.07.78-1.84A1,1,0,0,0,27.7,35.13Zm-5.9-6a1,1,0,0,0-1.3-.55l-1.85.75a1,1,0,0,0,.64,1.9l.11,0,1.85-.75A1,1,0,0,0,21.8,29.12Zm15.62,6.63a1,1,0,1,0-1.9.64l0,.11.75,1.85a1,1,0,0,0,1.9-.64l0-.11Z" transform="translate(-7.57 -0.57)" style="fill:#020202"/></svg>