<svg id="Layer_1" data-name="Layer 1" xmlns="http://www.w3.org/2000/svg" viewBox="0 0 62.04 56.01"><title>trophy</title><path d="M37,45H29L15.84,26.16,12.43,7.36A2,2,0,0,1,14,5a2.19,2.19,0,0,1,.36,0H51.61a2,2,0,0,1,2,2,2.43,2.43,0,0,1,0,.38L50.22,26Z" transform="translate(-1.99 -3.99)" style="fill:#ffdb78"/><path d="M51.61,5H43l-.42,11.16A60,60,0,0,1,38.7,35.25L35,45h2L50.22,26,53.58,7.35a2,2,0,0,0-2-2.35Z" transform="translate(-1.99 -3.99)" style="fill:#f6c46c"/><path d="M13,5H53V9H13Z" transform="translate(-1.99 -3.99)" style="fill:#fad191"/><path d="M17,55H49a2,2,0,0,1,2,2h0a2,2,0,0,1-2,2H17a2,2,0,0,1-2-2h0A2,2,0,0,1,17,55Z" transform="translate(-1.99 -3.99)" style="fill:#ffdb78"/><path d="M19,45H47V55H19Z" transform="translate(-1.99 -3.99)" style="fill:#f27486"/><path d="M50.24,26.89a1,1,0,0,0,.3.05h.18C54,26.34,59.92,25,61.94,23a7,7,0,0,0-7.71-11.4l.43-4.32A3,3,0,0,0,52,4H14.33a3,3,0,0,0-3,3c0,.1,0,.2,0,.3l.43,4.32A7,7,0,0,0,4.06,23c2,2,7.91,3.32,11.23,3.91h.18a1,1,0,0,0,.3-.05,41.53,41.53,0,0,0,3.87,6.51L27.38,44H21a3,3,0,0,0-3,3v7H17a3,3,0,0,0,0,6H49a3,3,0,0,0,0-6H48V47a3,3,0,0,0-3-3H38.62l7.74-10.6A41.13,41.13,0,0,0,50.24,26.89ZM60.53,14.5a5,5,0,0,1,0,7.07l0,0c-1.3,1.3-5.55,2.48-9.37,3.2A40.87,40.87,0,0,0,54,14h.09A5,5,0,0,1,60.53,14.5ZM5.47,21.61A5,5,0,0,1,11.94,14H12a40.89,40.89,0,0,0,2.81,10.82C11,24.08,6.77,22.91,5.47,21.61ZM49,56a1,1,0,0,1,0,2H17a1,1,0,0,1,0-2Zm-3-9v7H20V47a1,1,0,0,1,1-1H45A1,1,0,0,1,46,47Zm-9.85-3h-6.3l-8.6-11.78A39,39,0,0,1,13.92,13l-.3-3H41a1,1,0,0,0,0-2H13.43l-.09-.91A1,1,0,0,1,14.23,6H51.67a1,1,0,0,1,1,1,.4.4,0,0,1,0,.11l-.59,6a39,39,0,0,1-7.32,19.18Z" transform="translate(-1.99 -3.99)" style="fill:#020202"/><path d="M49,8H45a1,1,0,0,0,0,2h4a1,1,0,0,0,0-2ZM23,52a1,1,0,0,0,1-1V49a1,1,0,0,0-2,0v2A1,1,0,0,0,23,52Zm5,0a1,1,0,0,0,1-1V49a1,1,0,0,0-2,0v2A1,1,0,0,0,28,52Zm5,0a1,1,0,0,0,1-1V49a1,1,0,0,0-2,0v2A1,1,0,0,0,33,52Zm5,0a1,1,0,0,0,1-1V49a1,1,0,0,0-2,0v2A1,1,0,0,0,38,52Zm5,0a1,1,0,0,0,1-1V49a1,1,0,0,0-2,0v2A1,1,0,0,0,43,52ZM36,30H34V15a1,1,0,0,0-1.7-.71l-3,3a1,1,0,0,0,1.4,1.42L32,17.42V30H30a1,1,0,0,0-1,1,.91.91,0,0,0,.81,1H36a1,1,0,0,0,0-2Z" transform="translate(-1.99 -3.99)" style="fill:#020202"/></svg>