<svg id="Layer_1" data-name="Layer 1" xmlns="http://www.w3.org/2000/svg" viewBox="0 0 60 48.02"><title>crown</title><path d="M7,51H57a2,2,0,0,1,2,2h0a2,2,0,0,1-2,2H7a2,2,0,0,1-2-2H5A2,2,0,0,1,7,51Z" transform="translate(-2 -7.98)" style="fill:#ffdb78"/><path d="M9,41,5,19,21.94,31,32,12,42,31,59,19,55,41Z" transform="translate(-2 -7.98)" style="fill:#ffe4a6"/><path d="M32,12,42,31,59,19,55,41H32Z" transform="translate(-2 -7.98)" style="fill:#ffdb78"/><path d="M32,35.6l-3.49-3.49L32,26l3.49,6.11Z" transform="translate(-2 -7.98)" style="fill:#e0678f"/><path d="M32,35.6V26l3.49,6.11Z" transform="translate(-2 -7.98)" style="fill:#f27486"/><path d="M9,41H55v9H9Z" transform="translate(-2 -7.98)" style="fill:#ffdb78"/><path d="M59,16a2,2,0,1,0,2,2A2,2,0,0,0,59,16ZM5,16a2,2,0,1,0,2,2A2,2,0,0,0,5,16ZM32,9a2,2,0,1,0,2,2A2,2,0,0,0,32,9Z" transform="translate(-2 -7.98)" style="fill:#ffdb78"/><path d="M22,44a1,1,0,0,0-1,1v2a1,1,0,0,0,2,0V45A1,1,0,0,0,22,44Zm-5,0a1,1,0,0,0-1,1v2a1,1,0,0,0,2,0V45A1,1,0,0,0,17,44Zm-5,0a1,1,0,0,0-1,1v2a1,1,0,0,0,2,0V45A1,1,0,0,0,12,44Zm15,0a1,1,0,0,0-1,1v2a1,1,0,0,0,2,0V45A1,1,0,0,0,27,44Zm5,0a1,1,0,0,0-1,1v2a1,1,0,0,0,2,0V45A1,1,0,0,0,32,44Zm5,0a1,1,0,0,0-1,1v2a1,1,0,0,0,2,0V45A1,1,0,0,0,37,44Zm5,0a1,1,0,0,0-1,1v2a1,1,0,0,0,2,0V45A1,1,0,0,0,42,44Zm5,0a1,1,0,0,0-1,1v2a1,1,0,0,0,2,0V45A1,1,0,0,0,47,44Zm5,0a1,1,0,0,0-1,1v2a1,1,0,0,0,2,0V45A1,1,0,0,0,52,44Z" transform="translate(-2 -7.98)" style="fill:#020202"/><path d="M59.67,20.92A3,3,0,1,0,56,18a2.91,2.91,0,0,0,.46,1.57l-14.1,10L33.84,13.35a3,3,0,1,0-4.21-.52,3.2,3.2,0,0,0,.52.52L21.59,29.53l-14-10A3,3,0,0,0,5,15a3,3,0,0,0-.67,5.92L8,41.09V50H7a3,3,0,0,0,0,6H57a3,3,0,0,0,0-6H56V41.09ZM59,16.79A1.21,1.21,0,1,1,57.79,18h0A1.21,1.21,0,0,1,59,16.79Zm-27-7A1.21,1.21,0,1,1,30.79,11h0A1.21,1.21,0,0,1,32,9.79Zm-27,7A1.21,1.21,0,1,1,3.79,18h0A1.21,1.21,0,0,1,5,16.79ZM58,53a1,1,0,0,1-1,1H7a1,1,0,0,1,0-2H57A1,1,0,0,1,58,53ZM10,50V42H43a1,1,0,0,0,0-2H9.83L6.42,21.23,21.36,31.82a1,1,0,0,0,1.39-.24l.07-.11L32,14.14l9.12,17.32a1,1,0,0,0,1.35.42l.11-.07,15-10.59L54,40.82V50Z" transform="translate(-2 -7.98)" style="fill:#020202"/><path d="M47,42h4a1,1,0,0,0,0-2H47a1,1,0,0,0,0,2ZM32.87,24.5a1,1,0,0,0-1.74,0l-4,7a1,1,0,0,0,.16,1.2l4,4a1,1,0,0,0,1.41,0l4-4a1,1,0,0,0,.16-1.2ZM32,34.59l-2.75-2.75L32,27l2.75,4.82Z" transform="translate(-2 -7.98)" style="fill:#020202"/></svg>