<svg id="Layer_1" data-name="Layer 1" xmlns="http://www.w3.org/2000/svg" viewBox="0 0 54.04 50"><title>chest</title><path d="M6,32l4.34-8.5L6,17H58l-4.34,6.5L58,32Z" transform="translate(-4.96 -6)" style="fill:#6f6f6f"/><path d="M10.3,24,6,17H58l-4.34,7Z" transform="translate(-4.96 -6)" style="fill:#6f6f6f"/><path d="M53.66,25H10.3a1,1,0,0,1-.85-.47l-4.34-7a1,1,0,0,1,1.7-1.06l4,6.53H53.11l4-6.53a1,1,0,1,1,1.7,1.06l-4.34,7A1,1,0,0,1,53.66,25Z" transform="translate(-4.96 -6)"/><path d="M52.22,34a4.33,4.33,0,0,0-4.34-4.33,4.34,4.34,0,0,0-4.34-4.34,4.29,4.29,0,0,0-1.89.46,3.58,3.58,0,0,0-5.08-1.34,2.86,2.86,0,0,0-1.7-.56,2.9,2.9,0,0,0-1.48.42A3.6,3.6,0,0,0,26.26,24a3.33,3.33,0,0,0-.78-.09,3.61,3.61,0,0,0-3.59,3.3,2.82,2.82,0,0,0-1.47-.41,2.89,2.89,0,0,0-2.89,2.89v.07a3.48,3.48,0,0,0-.73-.07,3.61,3.61,0,0,0-3.61,3.61,4.18,4.18,0,0,0,.07.72Z" transform="translate(-4.96 -6)" style="fill:#ffcf48"/><path d="M52,35H13.07a1,1,0,0,1-1-.81,4.68,4.68,0,0,1-.09-.91,4.61,4.61,0,0,1,4.46-4.61,3.9,3.9,0,0,1,3.76-2.89,3.84,3.84,0,0,1,.76.07,4.57,4.57,0,0,1,4.3-3h.06a4.6,4.6,0,0,1,8.57.08,3.79,3.79,0,0,1,2.48.33,4.59,4.59,0,0,1,1.89-.41,4.54,4.54,0,0,1,3.53,1.68,5,5,0,0,1,1.52-.24,5.35,5.35,0,0,1,5.26,4.42A5.33,5.33,0,0,1,53,34,1,1,0,0,1,52,35ZM14,33H50.85a3.34,3.34,0,0,0-3.18-2.33,1,1,0,0,1-1-1,3.35,3.35,0,0,0-3.34-3.34,3.29,3.29,0,0,0-1.45.35,1,1,0,0,1-1.32-.42,2.62,2.62,0,0,0-3.66-1,1,1,0,0,1-1.13,0,1.84,1.84,0,0,0-2.06-.1,1,1,0,0,1-1.52-.77A2.58,2.58,0,0,0,29.61,22a2.61,2.61,0,0,0-2.56,2.15,1,1,0,0,1-.43.66,1,1,0,0,1-.77.15,2.46,2.46,0,0,0-.57-.07,2.59,2.59,0,0,0-2.59,2.39,1,1,0,0,1-.54.81,1,1,0,0,1-1,0,1.86,1.86,0,0,0-1-.27,1.89,1.89,0,0,0-1.89,1.85.45.45,0,0,1,0,.11,1,1,0,0,1-1.2,1,3.07,3.07,0,0,0-.53,0A2.6,2.6,0,0,0,14,33Z" transform="translate(-4.96 -6)"/><path d="M58,55H6V32H58Zm0-38S57.82,7,50.78,7H13.22C6,7,6,17,6,17Z" transform="translate(-4.96 -6)" style="fill:#e57a50"/><path d="M58,56H6a1,1,0,0,1-1-1V32a1,1,0,0,1,1-1H58a1,1,0,0,1,1,1V55A1,1,0,0,1,58,56ZM7,54H57V33H7ZM58,18H54a1,1,0,0,1,0-2h2.93c-.24-2.37-1.33-8-6.15-8H13.22c-5,0-6,5.65-6.17,8H42a1,1,0,0,1,0,2H6a1,1,0,0,1-1-1C5,13.19,6.72,6,13.22,6H50.78c6.34,0,8.15,7.18,8.22,11a1,1,0,0,1-1,1Zm-8,0H46a1,1,0,0,1,0-2h4a1,1,0,0,1,0,2Z" transform="translate(-4.96 -6)"/><path d="M58,40H6a1,1,0,0,1,0-2H58a1,1,0,0,1,0,2Z" transform="translate(-4.96 -6)"/><path d="M37,32v5.5a5.5,5.5,0,0,1-11,0V32ZM6,55h9a9,9,0,0,0-9-9Zm52-9a9,9,0,0,0-9,9h9ZM31.5,11A5.79,5.79,0,0,0,26,17H37A5.78,5.78,0,0,0,31.5,11Z" transform="translate(-4.96 -6)" style="fill:#ffa95b"/><path d="M58,56H49a1,1,0,0,1-1-1A10,10,0,0,1,58,45a1,1,0,0,1,1,1v9A1,1,0,0,1,58,56Zm-7.94-2H57V47.06A8,8,0,0,0,50.06,54ZM15,56H6a1,1,0,0,1-1-1V46a1,1,0,0,1,1-1A10,10,0,0,1,16,55,1,1,0,0,1,15,56ZM7,54h6.94A8,8,0,0,0,7,47.06ZM31.5,44A6.51,6.51,0,0,1,25,37.5V32a1,1,0,0,1,1-1H37a1,1,0,0,1,1,1v5.5A6.51,6.51,0,0,1,31.5,44ZM27,33v4.5a4.5,4.5,0,0,0,9,0V33ZM37,18H26a1,1,0,0,1-1-1,6.77,6.77,0,0,1,6.5-7A6.77,6.77,0,0,1,38,17,1,1,0,0,1,37,18Zm-9.91-2h8.82a4.66,4.66,0,0,0-4.41-4A4.66,4.66,0,0,0,27.09,16Z" transform="translate(-4.96 -6)"/><path d="M6,33a.91.91,0,0,1-.45-.11,1,1,0,0,1-.44-1.34l4.07-8-4-6a1,1,0,0,1,1.66-1.11l4.34,6.5a1,1,0,0,1,.06,1l-4.34,8.5A1,1,0,0,1,6,33Z" transform="translate(-4.96 -6)"/><path d="M58,33a1,1,0,0,1-.89-.55L52.77,24a1,1,0,0,1,.06-1l4.34-6.5a1,1,0,0,1,1.66,1.11l-4,6,4.07,8a1,1,0,0,1-.44,1.34A.91.91,0,0,1,58,33Z" transform="translate(-4.96 -6)"/><path d="M31.5,40h0A1.59,1.59,0,0,1,30,38.33V36.67A1.59,1.59,0,0,1,31.5,35h0A1.59,1.59,0,0,1,33,36.67v1.66A1.59,1.59,0,0,1,31.5,40Z" transform="translate(-4.96 -6)"/><path d="M22,46a1,1,0,0,0-1,1v2a1,1,0,0,0,2,0V47A1,1,0,0,0,22,46Zm-5,0a1,1,0,0,0-1,1v2a1,1,0,0,0,2,0V47A1,1,0,0,0,17,46Zm10,0a1,1,0,0,0-1,1v2a1,1,0,0,0,2,0V47A1,1,0,0,0,27,46Zm5,0a1,1,0,0,0-1,1v2a1,1,0,0,0,2,0V47A1,1,0,0,0,32,46Zm5,0a1,1,0,0,0-1,1v2a1,1,0,0,0,2,0V47A1,1,0,0,0,37,46Zm5,0a1,1,0,0,0-1,1v2a1,1,0,0,0,2,0V47A1,1,0,0,0,42,46Zm5,0a1,1,0,0,0-1,1v2a1,1,0,0,0,2,0V47A1,1,0,0,0,47,46Z" transform="translate(-4.96 -6)"/></svg>