<svg id="Layer_1" data-name="Layer 1" xmlns="http://www.w3.org/2000/svg" xmlns:xlink="http://www.w3.org/1999/xlink" viewBox="0 0 46 46"><defs><linearGradient id="linear-gradient" x1="32" y1="1065.62" x2="32" y2="1023.12" gradientTransform="translate(0 -1014)" gradientUnits="userSpaceOnUse"><stop offset="0" stop-color="#e3714d"/><stop offset="0.25" stop-color="#e4754e"/><stop offset="1" stop-color="#e77b50"/></linearGradient><linearGradient id="linear-gradient-2" x1="32" y1="1087.94" x2="32" y2="1038.12" gradientTransform="translate(0 -1014)" gradientUnits="userSpaceOnUse"><stop offset="0" stop-color="#a4a4a4"/><stop offset="0.63" stop-color="#7f7f7f"/><stop offset="1" stop-color="#6f6f6f"/></linearGradient><linearGradient id="linear-gradient-3" x1="31.99" y1="1069.81" x2="31.99" y2="1036.53" gradientTransform="translate(0 -1014)" gradientUnits="userSpaceOnUse"><stop offset="0" stop-color="#feaa53"/><stop offset="0.61" stop-color="#ffcd49"/><stop offset="1" stop-color="#ffde44"/></linearGradient><linearGradient id="linear-gradient-4" x1="32" y1="1038.28" x2="32" y2="1023.05" gradientTransform="translate(0 -1014)" gradientUnits="userSpaceOnUse"><stop offset="0" stop-color="#ffa241"/><stop offset="0.93" stop-color="#ffaf6c"/><stop offset="1" stop-color="#ffb070"/></linearGradient><linearGradient id="linear-gradient-5" x1="32" y1="1070.06" x2="32" y2="1050.91" xlink:href="#linear-gradient-4"/><linearGradient id="linear-gradient-6" x1="32" y1="1086.91" x2="32" y2="1055.14" xlink:href="#linear-gradient-2"/><linearGradient id="linear-gradient-7" x1="13.5" y1="1075.21" x2="13.5" y2="1055.78" xlink:href="#linear-gradient-4"/><linearGradient id="linear-gradient-8" x1="50.5" y1="1075.21" x2="50.5" y2="1055.78" xlink:href="#linear-gradient-4"/></defs><title>chest</title><path d="M55,37.59V52a3,3,0,0,1-3,3H12a3,3,0,0,1-3-3V37.6a11.33,11.33,0,0,1,1.16-4.92l1.95-3.89a4,4,0,0,0,0-3.58l-1.87-3.73A7,7,0,0,1,9.53,19a7.07,7.07,0,0,1,.27-2.66l.49-1.64A8,8,0,0,1,18,9h28.1a8,8,0,0,1,7.66,5.7l.49,1.64A6.86,6.86,0,0,1,54.46,19a7.1,7.1,0,0,1-.71,2.49l-1.85,3.7a4,4,0,0,0,0,3.58l2,3.91A11.33,11.33,0,0,1,55,37.59Z" transform="translate(-9 -9)" style="fill:url(#linear-gradient)"/><path d="M55,37.59V39H9V37.6a11.33,11.33,0,0,1,1.16-4.92l1.95-3.89a4,4,0,0,0,0-3.58l-1.87-3.73A7,7,0,0,1,9.53,19H54.46a7.1,7.1,0,0,1-.71,2.49l-1.85,3.7a4,4,0,0,0,0,3.58l2,3.91A11.33,11.33,0,0,1,55,37.59Z" transform="translate(-9 -9)" style="fill:url(#linear-gradient-2)"/><path d="M51,39H13a5,5,0,0,1,3.21-4.66A3.49,3.49,0,0,1,19.5,32a4.4,4.4,0,0,1,.51,0,.09.09,0,0,1,0,0,3,3,0,0,1,4.37-2.66A4,4,0,0,1,28,27l.18,0a3,3,0,0,1,5.66,0,6,6,0,0,1,3.75,2.08A3.39,3.39,0,0,1,38.5,29a3.5,3.5,0,0,1,3.27,2.27A3,3,0,0,1,43,31a3,3,0,0,1,3,3v0A5.49,5.49,0,0,1,51,39Z" transform="translate(-9 -9)" style="fill:url(#linear-gradient-3)"/><path d="M32,13h0a6,6,0,0,1,6,6H26A6,6,0,0,1,32,13Z" transform="translate(-9 -9)" style="fill:url(#linear-gradient-4)"/><path d="M32,52h0a6,6,0,0,1-6-6V39H38v7A6,6,0,0,1,32,52Z" transform="translate(-9 -9)" style="fill:url(#linear-gradient-5)"/><path d="M35,45a3,3,0,1,0-4,2.82V49a1,1,0,0,0,2,0V47.82A3,3,0,0,0,35,45Z" transform="translate(-9 -9)" style="fill:url(#linear-gradient-6)"/><path d="M18,55H12a3,3,0,0,1-3-3V46A9,9,0,0,1,18,55Z" transform="translate(-9 -9)" style="fill:url(#linear-gradient-7)"/><path d="M55,46v6a3,3,0,0,1-3,3H46A9,9,0,0,1,55,46Z" transform="translate(-9 -9)" style="fill:url(#linear-gradient-8)"/></svg>