<svg xmlns="http://www.w3.org/2000/svg" viewBox="0 0 48 48" width="48px" height="48px"><path fill="#ff7bac" d="M17.417,6.5C14.973,5.184,11.005,4,7.008,4c-0.083,3,0.468,7.699,2.998,11"/><path fill="#424242" d="M10.006,16c-0.301,0-0.598-0.135-0.795-0.392c-3.157-4.12-3.25-9.948-3.203-11.636 C6.023,3.431,6.466,3,7.008,3c4.439,0,8.532,1.353,10.883,2.62c0.486,0.262,0.668,0.869,0.406,1.354 c-0.262,0.486-0.868,0.667-1.354,0.406c-1.871-1.008-5.246-2.17-8.936-2.355c0.052,2.164,0.478,6.346,2.792,9.366 c0.336,0.438,0.252,1.066-0.186,1.402C10.432,15.933,10.218,16,10.006,16z"/><path fill="#ff7bac" d="M31,6.5C33.346,5.184,37.155,4,40.992,4c0.08,3-0.449,7.699-2.878,11"/><path fill="#424242" d="M38.114,16c-0.206,0-0.413-0.063-0.592-0.194c-0.445-0.328-0.54-0.953-0.213-1.398 c2.225-3.023,2.634-7.211,2.685-9.38c-3.513,0.191-6.722,1.345-8.504,2.345c-0.481,0.271-1.09,0.1-1.361-0.383 c-0.271-0.481-0.099-1.091,0.383-1.361C32.774,4.357,36.717,3,40.993,3c0.542,0,0.985,0.432,1,0.974 c0.045,1.685-0.044,7.504-3.072,11.619C38.724,15.859,38.421,16,38.114,16z"/><path fill="#424242" d="M44,35c-1.376-1.835-2.538-4.723-3.397-7.794c-0.154-1.196-0.286-2.449-0.388-3.767 c0.8,0.739,1.719,1.294,2.784,1.56c-1.828-2.742-2.726-5.673-3.012-8.368C39.789,13.112,38.104,4,26,4c0,0-1-1-4-1 C12.223,3,9.234,11.483,8.353,15.69l-0.019-0.023C7.784,19.665,4,24,4,33c0.859-2.291,2.131-4.492,3.442-6.482 C6.575,33.036,5,37.471,5,44h9c0,0,0-23.3,0-23.7c0.1-6.4,4-8.3,10-8.3s9.9,0.8,10,7.3v1c0,0.4,0,23.7,0,23.7h9 c0-3.146-0.607-6.297-1.274-9.898C42.395,34.535,43.141,34.857,44,35z"/><path fill="#424242" d="M13 33H35V44H13z"/><path fill="#ffb74d" d="M24 36L19 36 19 44 29 44 29 36z"/><path fill="#ffd180" d="M35,13L24,9l-11,4c0,0.8-1,7.2-1,9l1,9.5c0,0.3,0.11,0.7,0.22,1c1.43,2.3,4.51,4.9,6.38,6.1 c3.19,2,5.17,1.9,8.36-0.1c1.76-1.2,4.84-3.8,6.6-6c0.22-0.3,0.44-0.7,0.44-1.2l1-9.3C36,22,35,13.8,35,13z"/><path fill="#424242" d="M13.188,20.125c2.308-2.31,4.917-4.773,6.358-7.792c0.228,2.006-0.219,4.888-1.228,6.667 c3.189-1.366,5.609-3.399,7.37-6c-0.478,2.898-1.688,7-3.159,9c4.334-1.024,8.295-4.926,9.423-8c0.849,1.522,1.13,2.636,1.053,5 c2.995-3,3.917-6.161,3.488-10.563H16.541L12,13L13.188,20.125z"/><path fill="#efebe9" d="M26.98,23.802c0,0,0.96-2.468,3.514-2.474c1.383,0.001,2.583-0.305,3.723,0.645 c0.22,3.036-1.714,4.814-3.38,4.778C28.992,26.669,27.33,25.073,26.98,23.802z"/><path fill="#fbc02d" d="M27.958,23.02c0,1.437,0.992,2.325,2.269,2.325c1.277,0,2.519-0.888,2.519-2.325 c0-0.359,0-0.898-0.319-1.257c-0.638-0.718-0.976-0.292-2.093-0.472l-1.167,0.313C28.377,21.959,27.958,21.763,27.958,23.02z"/><path fill="#424242" d="M34.791,23.176c-1.857-1.094-4.819-2.43-7.748,0.285c2.056-3.686,6.182-2.394,7.938-1.229 C34.961,22.547,34.791,23.176,34.791,23.176z"/><path fill="#424242" d="M34.092,22.031c0.027,1.273-0.374,4.055-2.758,4.656c2.157,0.019,3.327-1.938,3.625-4.347 C34.617,21.883,34.092,22.031,34.092,22.031z"/><path fill="#efebe9" d="M20.981,23.802c0,0-0.96-2.468-3.514-2.474c-1.383,0.001-2.583-0.305-3.723,0.645 c-0.22,3.036,1.714,4.814,3.38,4.778C18.968,26.669,20.631,25.073,20.981,23.802z"/><path fill="#fbc02d" d="M18.794,21.604l-1.167-0.313c-1.117,0.18-1.455-0.247-2.093,0.472 c-0.319,0.359-0.319,0.898-0.319,1.257c0,1.437,1.242,2.325,2.519,2.325c1.277,0,2.269-0.888,2.269-2.325 C20.003,21.763,19.583,21.959,18.794,21.604z"/><path fill="#424242" d="M13.169,23.176c1.857-1.094,4.819-2.43,7.748,0.285c-2.056-3.686-6.182-2.394-7.938-1.229 C13,22.547,13.169,23.176,13.169,23.176z"/><path fill="#424242" d="M13.868,22.031c-0.027,1.273,0.374,4.055,2.758,4.656c-2.157,0.019-3.327-1.938-3.625-4.347 C13.343,21.883,13.868,22.031,13.868,22.031z"/><path fill="none" stroke="#d68600" stroke-linecap="round" stroke-miterlimit="10" d="M19.896,33.688 c0.188,0.333,0.426,0.367,0.587,0.391c2.226,0.338,4.524,0.335,6.888,0.014c0.209-0.028,0.484-0.218,0.671-0.426"/><path fill="#424242" d="M30.422 25L30 23.643 30 22 31 22 31 23.656zM17.422 25L17 23.643 17 22 18 22 18 23.656z"/><path fill="#efebe9" d="M29 24A1 1 0 1 0 29 26 1 1 0 1 0 29 24zM16 24A1 1 0 1 0 16 26 1 1 0 1 0 16 24z"/><path fill="#424242" d="M36 29h-6c.719.563 3.228 1 5.566 1 .162 0 .304-.004.434-.01V29zM36 31h-5c.599.563 2.69 1 4.639 1 .135 0 .253-.004.361-.01V31zM35 33h-3c.359.563 1.614 1 2.783 1 .081 0 .152-.004.217-.01V33zM11 29h6c-.719.563-3.228 1-5.566 1-.162 0-.304-.004-.434-.01V29zM11 31h5c-.599.563-2.69 1-4.639 1-.135 0-.253-.004-.361-.01V31zM12 33h3c-.359.563-1.614 1-2.783 1-.081 0-.152-.004-.217-.01V33z"/></svg>