<svg xmlns="http://www.w3.org/2000/svg" viewBox="0 0 48 48" width="48px" height="48px"><path fill="#FFCA28" d="M34,36c0,0.553-0.447,1-1,1H16c-0.553,0-1-0.447-1-1l0,0c0-0.553,0.447-1,1-1h17C33.553,35,34,35.447,34,36L34,36z"/><path fill="#455A64" d="M37 43H12v-2c0-2.209 1.791-4 4-4h17c2.209 0 4 1.791 4 4V43zM25 10V5c0 0-4 1-5 5"/><path fill="#455A64" d="M17,35c0-6-4-7-4-15c0-10,9-11,10-11s3,0,5,1l1,2c0,0,5,4,6,7l-3.057,2.118C31.943,21.118,26,18,24,19s8,9,8,16"/><path fill="#455A64" d="M27 15A3 2.5 0 1 0 27 20A3 2.5 0 1 0 27 15Z"/></svg>