<svg xmlns="http://www.w3.org/2000/svg" viewBox="0 0 48 48" width="48px" height="48px"><path fill="#ef6c00" d="M19,13c0,0-6.951-7-14.951-7c0,0-1,10,6,16S19,13,19,13z"/><path fill="#ef9a9a" d="M15,19c0-3-4-10-11-13c0,0-1,11,7,17C11,23,15,24,15,19z"/><path fill="#ef6c00" d="M28.96,13c0,0,6.951-7,14.951-7c0,0,1,10-6,16S28.96,13,28.96,13z"/><path fill="#ef9a9a" d="M32.96,19c0-3,4-10,11-13c0,0,1,11-7,17C36.96,23,32.96,24,32.96,19z"/><path fill="#ef6c00" d="M39,26c0,0,0-16-15-16S9,26,9,26c-1,0-4,0-4,4c0,10,14,14,19,14s19-4,19-14C43,26,40,26,39,26z"/><path fill="#fff" d="M23,23.5c0,3.038-2,5.5-6,5.5c-2.761,0-4-2.462-4-5.5s2-5.5,6-5.5c1,1,2,2,3.001,1.559 C22.679,20.558,23,21.955,23,23.5z"/><path fill="#2e7d32" d="M19 20A2 3 0 1 0 19 26A2 3 0 1 0 19 20Z"/><path fill="#212121" d="M19 22A1 1 0 1 0 19 24A1 1 0 1 0 19 22Z"/><path fill="#fff" d="M25,24c0,2.761,1.8,5,5.4,5c2.485,0,3.6-2.239,3.6-5s-1.8-5-5.4-5C26.115,19,25,21.239,25,24z"/><path fill="#2e7d32" d="M29 21A2 3 0 1 0 29 27A2 3 0 1 0 29 21Z"/><path fill="#212121" d="M29 23A1 1 0 1 0 29 25A1 1 0 1 0 29 23Z"/><path fill="#3e2723" d="M22 19c-3 0-5-5-8-5 1 1 1 2 1 2s-1-1-3-1-3 3-3 3 1-1 2-1c-1 1-1 2-1 2s2-1 4-1 4 2 7 2c1 0 2-1 2-1H22zM26 19c3 0 5-5 8-5-1 1-1 2-1 2s1-1 3-1 3 3 3 3-1-1-2-1c1 1 1 2 1 2s-2-1-4-1-4 2-7 2c-1 0-2-1-2-1H26z"/><path fill="#ffcc80" d="M24,44c-9,0-17-8-17-14c0-1.375,1.028-1.865,2-1.982c0,0,1.08,0.016,2,0.2c5,1,9,3.783,13,3.783 s8-2.783,13-3.783c0.92-0.184,2-0.2,2-0.2c0.972,0.117,2,0.608,2,1.982C41,36,33,44,24,44z"/><path fill="#fff" d="M24,34c-7,0-12-3-12-3v5c0,0,4,5,12,5s12-5,12-5v-5C36,31,31,34,24,34z"/><path fill="#3e2723" d="M27 30c0 2-2 3-3 3s-3-1-3-3c0-1 0-2 3-2S27 29 27 30zM12 31v5c0 0 0-2 2-2C12 33 12 31 12 31zM36 31v5c0 0 0-2-2-2C36 33 36 31 36 31z"/><path fill="#eceff1" d="M24,37c-5.944,0-8.994-2.351-10-3c-0.71,0-1.159,0.256-1.455,0.582C13.877,35.895,17.688,39,24,39 s10.123-3.105,11.455-4.418C35.159,34.256,34.71,34,34,34C32.994,34.649,29.944,37,24,37z"/><path fill="#3e2723" d="M24,16c1,0,1-1,1-1c1-4,7-8,7-8s-5.286-0.571-7,2c0-2.571,3-5,3-5s-5,0-8,5c0-1,1-3,1-3s-3,1.429-3,4 c0,2,1.143,2.143,1.143,2.143C23,12.143,22,16,24,16z"/></svg>