<svg xmlns="http://www.w3.org/2000/svg" viewBox="0 0 48 48" width="48px" height="48px"><path fill="#e64a19" d="M14.2 14.5c-.2-.4-.5-.7-.7-.9-.2.2-.4.4-.7.6C12 14.8 8.2 8.1 9.6 7.1c2.3-1.6 4.6-2.8 6.6-3.1C16.2 4 17.5 8.8 14.2 14.5M9.6 16.9c-1.1.9-2.2 1.9-3.1 2.7-.4.4-5.1-4.7-4.2-5.8 1-1.1 2.1-2.3 3.3-3.5C5.6 10.3 9.4 12.6 9.6 16.9M15.4 16.7c.5 1.1.8 1.9 1.1 2.9C20 17 23 15.8 23 15.8c0-.1-.1-.4-.2-.8-.1-.6-.7-2.8-1.5-5.1L15.4 16.7z"/><path fill="#e0e0e0" d="M21.4 10.4c-1.4 2.6-3.9 5-6 6.4-.1-.3-.3-.5-.4-.8s-.3-.5-.4-.8c-.1-.2-.3-.5-.4-.7 1-2 2.5-5.5 1.9-10.4.1 0 .4 0 .4 0C18.6 4 20.3 7.3 21.4 10.4zM12.8 14.2c-.8.7-2 1.7-3.2 2.7-.8-2.7-2.2-4.8-4-6.5 1.2-1.2 2.6-2.3 3.9-3.2C11.8 9.1 12.5 12.3 12.8 14.2zM6.5 19.6c-.4.4-.8.8-1.2 1.1C5.2 20.9 4.9 21 4.7 21 3.1 21 1 20 0 17.5 0 17.3 0 17 .1 16.8c.5-.9 1.2-1.9 2.2-3C4.6 15.5 5.9 17.8 6.5 19.6z"/><path fill="#ffb74d" d="M15.8,36l-1.1,0.6c0,0-4.4,3.3-6.3-0.4c-1.7-3.2,2.1-5,2.5-5.2l1.5,0l-1.4-2H8.3 c-0.5,0-1,0.3-1.4,0.7c-1.1,1.5-3,5.1-1.1,9c1.1,2.2,6.7,4.2,11.1-1L15.8,36z"/><path fill="#ffcc80" d="M47,23.4C47,34.8,38.4,44,27.8,44c-5,0-9.5-2-12.9-5.3c-2.9-2.8-5-6.6-5.9-10.8c0,0,2.2-5.8,8.7-10.2 c4.2-2.8,10.2-4.9,18.4-4.6c0.6,0,1.2,0.1,1.8,0.1c2.2,0.2,4.6,0.5,7.1,1.1c1,2.1,1.6,4.3,1.8,6.7c0,0,0,0,0,0 C47,21.8,47,22.6,47,23.4z"/><g><path fill="#212121" d="M26 8.3L24 7.7C25.4 3.1 31.7 3 32 3l0 2C32 5 26.9 5.1 26 8.3zM44.3 6.7C42.2 4.4 40.8 4 40 4c-.8 0-1.2.5-1.2.5l-1.6-1.2c.1-.1 1-1.2 2.7-1.3 1.8-.1 3.8 1 5.8 3.3L44.3 6.7z"/></g><g><path fill="#fafafa" d="M45 23.4L45 23.4c-3.3 4.3-7.4 2.5-9.1.2-.1-.1 3.1-8.4 3.7-8.3 1.3.2 2.7.4 4.1.7.7 1.6 1.1 3.3 1.3 5v0l0 .1C45 21.9 45 22.6 45 23.4zM37.6 15.1c-.3 2.3-.7 4.9-1.3 6.2-2.1 4.6-6.8 8-12 7.6-1.9-.1-4-.8-5.5-2.1-.2-.1-.6-.5-.6-.5.9-3.4 1.2-5.8 1.5-7.7 4.1-2.5 9-3.8 14.6-3.8.6 0 1.1 0 1.7 0C36.5 15.1 37.2 15.1 37.6 15.1z"/></g><g><path fill="#212121" d="M39 32.5c0 0 .3 1.8-7.5 1.8l-7.6.2c0 0 .9 1.5 1.8 4.6 0 0-3.8-6.1-4.4-7.3s.4-.8 1.1 0 1 1.6 1 1.6S31.9 31.3 39 32.5zM40 19c0 2.8-1.3 5-3 5-.4 0-.8-.1-1.1-.4-.2-.2-.3-.4-.4-.6.3-.5.6-1.1.9-1.6.1-.2.1-.3.2-.5.5-1.4.8-3.7 1-5.6.1 0 .2 0 .2 0 .6.1 1.3.1 1.9.2C39.9 16.8 40 18.3 40 19zM21.8 21.9c0 2.5-1.3 4.5-2.9 5-.2-.1-.6-.5-.6-.5-.2-.2-.3-.3-.5-.5-.1-.1-.3-.3-.4-.5-.2-.2-.3-.5-.5-.7-.2-.3-.3-.6-.4-1-.1-.2-.1-.3-.2-.5 0-.1-.2-.6-.2-.8 0-.2-.1-.4-.1-.6 0-.1 0-.2 0-.3.8-.8 1.8-1.5 2.8-2.2.9-.6 1.7-1.1 2.6-1.5C21.7 19.4 21.8 21.1 21.8 21.9z"/></g><path fill="#e64a19" d="M36.6,26.9c0,0,5.4-5,5.4-1.9v1.6c0,0,0.3,1.3-2.3,1.9c-2.6,0.5-3.1,0.8-3.6,0 C36,28.5,35.8,27.7,36.6,26.9z"/></svg>