<svg xmlns="http://www.w3.org/2000/svg" viewBox="0 0 48 48" width="48px" height="48px"><path fill="#9FA8DA" d="M38.635,5.711L33.047,8l-4.221,4.239c0.162,0.178,0.267,0.409,0.267,0.669c0,0.553-0.447,1-1,1c-0.258,0-0.487-0.104-0.664-0.264l-1.597,1.604c0.157,0.178,0.261,0.404,0.261,0.66c0,0.553-0.447,1-1,1c-0.254,0-0.479-0.102-0.655-0.258l-1.599,1.607c0.152,0.176,0.254,0.398,0.254,0.65c0,0.553-0.447,1-1,1c-0.25,0-0.471-0.101-0.646-0.252l-2.944,2.96l0.637,0.789L4.314,38.034c-0.394,0.393-0.394,1.029,0,1.423l4.268,4.268c0.395,0.393,1.03,0.393,1.424,0L24.83,29.097l0.711,0.712c0,0,0.073-0.074,0.788-0.789c-0.786-0.786-0.862-1.982-0.076-2.77l-0.712-0.711c0,0-0.711-0.711-0.003-1.419c1.781-1.782,6.554-6.553,9.963-9.964C38.365,11.293,38.998,7.174,38.635,5.711z"/><path fill="#455A64" d="M12.731,42.437c-0.786,0.786-2.061,0.786-2.846,0l-4.27-4.268c-0.785-0.786-0.785-2.061,0-2.847l12.466-12.284l7.115,7.114L12.731,42.437z"/><path fill="#CFD8DC" d="M17.093 29.908A1 1 0 1 0 17.093 31.908 1 1 0 1 0 17.093 29.908zM12.001 35A1 1 0 1 0 12.001 37 1 1 0 1 0 12.001 35z"/><path fill="#37474F" d="M27.093,32.654c-0.394,0.394-1.03,0.394-1.423,0L15.412,22.339c-0.393-0.393-0.393-1.029,0-1.423l0.712-0.711c0.393-0.394,1.029-0.394,1.422,0L27.804,30.52c0.394,0.394,0.394,1.03,0,1.423L27.093,32.654z"/><g><path fill="#C5CAE9" d="M42.812 4l-4.177 1.711c.363 1.463-.27 5.582-3.134 8.445-3.409 3.411-8.182 8.182-9.963 9.964-.708.708.003 1.419.003 1.419l.712.711c.786-.784 2.061-.784 2.845 0 4.616-4.615 8.328-8.328 10.157-10.155C44.234 11.114 42.812 4 42.812 4zM24.8 20.201l-1.999-1.999c.181.181.292.431.292.706 0 .553-.447 1-1 1-.275 0-.525-.111-.706-.292l1.999 1.999c.195.195.451.293.707.293s.512-.098.707-.293C25.19 21.225 25.19 20.592 24.8 20.201zM27.8 17.201l-1.999-1.999c.181.181.292.431.292.706 0 .553-.447 1-1 1-.275 0-.525-.111-.706-.292l1.999 1.999c.195.195.451.293.707.293s.512-.098.707-.293C28.19 18.225 28.19 17.592 27.8 17.201zM30.8 14.201l-1.999-1.999c.181.181.292.431.292.706 0 .553-.447 1-1 1-.275 0-.525-.111-.706-.292l1.999 1.999c.195.195.451.293.707.293s.512-.098.707-.293C31.19 15.225 31.19 14.592 30.8 14.201z"/></g></svg>