<svg xmlns="http://www.w3.org/2000/svg" viewBox="0 0 48 48" width="48px" height="48px"><path fill="#ef5350" d="M24,5C13,5,4,14,4,30c0,7,2,11,2,11c1-6,2-8,2-8c0,11,6,12,6,12c-1-2-1-6-1-8 c2.204,2.274,6.011,3,10.5,3c3.714,0,8.039-1.042,10.329-2.688C33.612,39.017,33.119,41.321,32,43c0,0,3,0,7-7c0,0,0,4-2,9 c0,0,10-8,10-16C47,18,39,5,24,5z"/><path fill="#eee" d="M27.5 18A5.5 4 0 1 0 27.5 26 5.5 4 0 1 0 27.5 18zM6.5 20A4.5 3.5 0 1 0 6.5 27 4.5 3.5 0 1 0 6.5 20z"/><path fill="#424242" d="M33 22c0 1.42-1.02 2.67-2.56 3.38C30.33 25.18 30.2 25 30 25c-2.21 0-4-1.34-4-3s1.79-3 4-3c.04 0 .07 0 .11.01C30.04 19.16 30 19.33 30 19.5c0 .83.9 1.5 2 1.5.28 0 .54-.04.78-.12C32.92 21.24 33 21.61 33 22zM7 23.5C7 24.88 5.66 26 4 26c-.25 0-.5-.03-.73-.08C2.48 25.3 2 24.44 2 23.5c0-.56.17-1.09.47-1.55C2.91 22.58 3.66 23 4.5 23c.79 0 1.49-.37 1.95-.94C6.8 22.46 7 22.96 7 23.5z"/><path fill="#ffe0b2" d="M31,25c-4,0-5,0.849-5,0.849C24,24,19,22,14.5,22c-2.331,0-4.257,1.416-4.487,3.686 c-2.093-0.225-3.842,0.941-4,2.231c-0.164,1.342,1.488,2.692,3.691,3.014c0.148,0.022,0.29,0.025,0.434,0.037 C11.015,34.319,17.338,36,21,36c6,0,10-4,14-5c1.657,0,3-1.119,3-2.5S36,25,31,25z"/><path fill="#ffcc80" d="M19,33c-5.375,0-8.651-4.084-8.949-7.032c-0.056-0.549,0.345-1.04,0.895-1.096 c0.561-0.054,1.04,0.346,1.096,0.895C12.22,27.535,14.512,31,19,31c3.315,0,5.633-0.959,7.676-1.806C28.223,28.553,29.559,28,31,28 c0.553,0,1,0.448,1,1s-0.447,1-1,1c-1.044,0-2.209,0.483-3.559,1.042C25.335,31.914,22.714,33,19,33z"/><path fill="#424242" d="M13.99,25.938c-0.134,0.792-1.581,1.238-3.233,0.996c-1.651-0.242-2.881-1.08-2.747-1.872 c0.134-0.792,1.581-1.238,3.233-0.996C12.894,24.308,14.124,25.146,13.99,25.938z"/></svg>