<svg xmlns="http://www.w3.org/2000/svg" viewBox="0 0 48 48" width="48px" height="48px"><rect width="8.485" height="11.314" x="26.757" y="11.343" fill="#b3e5fc" transform="rotate(-45.001 31 17)"/><path fill="#b3e5fc" d="M39,19c-0.256,0-0.512-0.098-0.707-0.293l-9-9c-0.391-0.391-0.391-1.023,0-1.414 s1.023-0.391,1.414,0l9,9c0.391,0.391,0.391,1.023,0,1.414C39.512,18.902,39.256,19,39,19z"/><circle cx="21" cy="28" r="16" fill="#b3e5fc"/><polygon fill="#29b6f6" points="8,16 7,9 8,2 9,9"/><polygon fill="#29b6f6" points="3,9 8,8 13,9 8,10"/><polygon fill="#29b6f6" points="40,45 39,40 40,35 41,40"/><polygon fill="#29b6f6" points="35,40 40,39 45,40 40,41"/><path fill="#29b6f6" d="M33,32.658C31.126,37.539,26.431,41,20.935,41C13.791,41,8,35.153,8,27.941 c0-2.406,0.645-4.661,1.769-6.597C9.796,21.367,9.533,29,16,29c3.696,0,4.38-2,9-2C31.467,27,33,32.658,33,32.658z"/><polygon fill="#a1887f" points="30.834,11.248 36.752,17.166 38.448,16.034 31.966,9.552"/><circle cx="23" cy="31" r="1" fill="#b3e5fc"/><circle cx="20" cy="37" r="1" fill="#b3e5fc"/><circle cx="15" cy="33" r="1" fill="#b3e5fc"/><circle cx="18" cy="22" r="1" fill="#29b6f6"/><circle cx="27" cy="23" r="1" fill="#29b6f6"/><circle cx="23" cy="18" r="1" fill="#29b6f6"/><circle cx="27" cy="35" r="1" fill="#b3e5fc"/><polygon fill="#795548" points="38.448,16.034 43,13 35,5 31.966,9.552"/><polygon fill="#a1887f" points="30.834,11.248 29,14 34,19 36.752,17.166"/></svg>