<svg xmlns="http://www.w3.org/2000/svg" viewBox="0 0 48 48" width="48px" height="48px"><path fill="#26A69A" d="M8 37H11V40H8zM11 19H14V22H11zM14 22H17V28H14zM17 28H20V31H17zM20 31H26V34H20zM26 34H29V37H26z"/><g><path fill="#37474F" d="M11 31H14V34H11zM14 34H17V37H14z"/></g><g><path fill="#004D40" d="M14 28H17V31H14zM8 16L8 22 11 22 11 19 14 19 14 16zM14 19H17V22H14zM17 22H20V28H17zM11 22H14V28H11zM20 28H26V31H20zM20 34H26V37H20zM26 31H29V34H26zM29 34L29 37 26 37 26 40 32 40 32 34zM17 31H20V34H17zM11 37L11 40 8 40 8 37 11 37 11 34 5 34 5 43 14 43 14 37z"/></g><path fill="#4DD0E1" d="M20 28L20 22 23 22 23 19 26 19 26 16 29 16 29 13 32 13 32 10 35 10 35 7 41 7 41 13 38 13 38 16 35 16 35 19 32 19 32 22 29 22 29 25 26 25 26 28z"/><g><path fill="#B76648" d="M11 34H14V37H11zM14 31H17V34H14z"/></g><g><path fill="#00BCD4" d="M20 19H23V22H20zM26 13H29V16H26zM23 16H26V19H23zM29 10H32V13H29zM32 7H35V10H32zM35 4L35 7 41 7 41 13 44 13 44 4zM26 25H29V28H26zM32 19H35V22H32zM29 22H32V25H29zM35 16H38V19H35zM38 13H41V16H38zM20 25H23V28H20zM26 19H29V22H26zM23 22H26V25H23zM29 16H32V19H29z"/><path fill="#00BCD4" d="M35 10H38V13H35zM32 13H35V16H32zM38 7H41V10H38z"/></g></svg>