<svg xmlns="http://www.w3.org/2000/svg" viewBox="0 0 48 48" width="48px" height="48px"><path fill="#B76648" d="M8 37H11V40H8zM11 34H14V37H11zM23 22H26V25H23zM26 19H29V22H26zM38 7H41V10H38zM35 10H38V13H35zM29 16H32V19H29zM14 31H17V34H14zM17 28H20V31H17zM20 25H23V28H20z"/><g><path fill="#37474F" d="M11 37H14V40H11zM14 34H17V37H14zM29 19H32V22H29zM26 22H29V25H26zM32 16H35V19H32zM8 40L8 37 5 37 5 43 11 43 11 40zM8 34H11V37H8zM11 31H14V34H11zM23 19H26V22H23zM26 16H29V19H26zM29 13H32V16H29zM35 7H38V10H35zM38 10H41V13H38zM20 28H23V31H20zM17 31H20V34H17zM23 25H26V28H23zM14 28H17V31H14zM17 25H20V28H17zM20 22H23V25H20z"/></g><g><path fill="#00BCD4" d="M17 10H29V13H17zM14 7H17V10H14zM17 4H32V7H17zM32 7H35V10H32zM38 13H41V16H38zM35 19H38V31H35zM41 16H44V31H41zM38 31H41V34H38z"/></g><path fill="#4DD0E1" d="M17 7L17 10 29 10 29 13 32 13 32 16 35 16 35 19 38 19 38 31 41 31 41 16 38 16 38 13 35 13 35 10 32 10 32 7z"/></svg>