<svg xmlns="http://www.w3.org/2000/svg" viewBox="0 0 48 48" width="48px" height="48px"><path fill="#f57c00" d="M30,13h13V9c0-2.209-1.791-4-4-4h-9V13z"/><path fill="#ffb74d" d="M39,5H15c-2.209,0-4,1.791-4,4v18l3,1l-3,1v10c0,2.209,1.791,4,4,4h16c2.209,0,4-1.791,4-4v-4l-4-1l4-1V22l-2-1l2-1v-1l-5-1l5-1V9C35,6.791,36.791,5,39,5z"/><path fill="#f57c00" d="M31,43H9c-2.209,0-4-1.791-4-4v-3h22v3C27,41.209,28.791,43,31,43z"/><path fill="#fb8c00" d="M17 14H29V16H17zM17 19H25V21H17zM17 24H29V26H17zM17 29H25V31H17z"/></svg>