<svg xmlns="http://www.w3.org/2000/svg" viewBox="0 0 48 48" width="48px" height="48px"><path fill="#ff3d00" d="M42.947,24c0,10.465-8.483,18.947-18.947,18.947S5.053,34.465,5.053,24S13.535,5.053,24,5.053S42.947,13.535,42.947,24z"/><path fill="#fff" d="M29.263,24c0-2.907-2.356-5.263-5.263-5.263S18.737,21.093,18.737,24H5.053c0,10.465,8.483,18.947,18.947,18.947S42.947,34.465,42.947,24H29.263z"/><path fill="#cfd8dc" d="M38,24c0,8.836-6.06,16.303-14.012,18.947c0.004,0,0.008,0,0.012,0c10.465,0,18.947-8.483,18.947-18.947H38z"/><path fill="#dd2c00" d="M38,24h4.947c0-10.465-8.483-18.947-18.947-18.947c-0.004,0-0.008,0-0.008,0C31.94,7.697,38,15.164,38,24z"/><path fill="#37474f" d="M24,6c9.926,0,18,8.074,18,18s-8.074,18-18,18S6,33.926,6,24S14.074,6,24,6 M24,4C12.956,4,4,12.956,4,24s8.956,20,20,20s20-8.956,20-20S35.044,4,24,4z"/><path fill="#37474f" d="M5.053 23h13.684v2H5.053V23zM29.263 23h13.684v2H29.263V23z"/><path fill="#37474f" d="M24,20c2.207,0,4,1.793,4,4s-1.793,4-4,4s-4-1.793-4-4S21.793,20,24,20 M24,18c-3.313,0-6,2.688-6,6s2.687,6,6,6c3.312,0,6-2.688,6-6S27.312,18,24,18z"/><path fill="#37474f" d="M26,24c0,1.105-0.895,2-2,2s-2-0.895-2-2s0.895-2,2-2S26,22.895,26,24z"/></svg>