<svg xmlns="http://www.w3.org/2000/svg" viewBox="0 0 48 48" width="48px" height="48px"><g data-name="Pubg Helmet"><path fill="#f4987f" d="M35,36l-1.9,2.63A10.887,10.887,0,0,1,18,42.38a11.048,11.048,0,0,1-4.01-4.39L13,36c.89.31,2.09-.22,3,0a28.939,28.939,0,0,0,5,1c.94.08,2.05,0,3,0C27.5,37,31.58,37.11,35,36Z"/><path fill="#a0a0a0" d="M37,19H19l-1,1H17l-2-1H11c.02-.34.09-1.67.14-2s.09-.67.16-1,.14-.67.24-1a13.358,13.358,0,0,1,9.98-9.74A11.924,11.924,0,0,1,24,5a11.637,11.637,0,0,1,2.13.19c.12.02.23.04.35.07a11.792,11.792,0,0,1,1.76.5c.12.05.25.09.37.15a3.489,3.489,0,0,1,.44.2A13.676,13.676,0,0,1,36.7,16c.07.33.12.66.16,1S36.98,18.66,37,19Z"/><path fill="#a0a0a0" d="M38.02,18a1,1,0,0,1,1,1V29.95a6.651,6.651,0,0,1-3.05,5.81h-.01a5.749,5.749,0,0,1-.8.36c-.01,0-.02.01-.03.01A34.218,34.218,0,0,1,24,38c-.95,0-1.9-.04-2.84-.12a32.646,32.646,0,0,1-5.35-.89c-.99-.24-1.97-.53-2.94-.86-.13-.05-.26-.1-.39-.16a3.4,3.4,0,0,1-.68-.36,5.727,5.727,0,0,1-1.74-1.79,7.345,7.345,0,0,1-1.08-3.87V19a1,1,0,0,1,1-1h4.98L17,19l.96-.44,1.2-.56Z"/><path fill="#757575" d="M9,23H9V19H9a2,2,0,0,0-2,2H7A2,2,0,0,0,9,23Z"/><path fill="#757575" d="M39,23h0V19h0a2,2,0,0,1,2,2h0A2,2,0,0,1,39,23Z"/><path fill="#757575" d="M38.02,18V28.95a6.651,6.651,0,0,1-3.05,5.81h-.01a5.749,5.749,0,0,1-.8.36c-.01,0-.02.01-.03.01A34.218,34.218,0,0,1,23,37a32.1,32.1,0,0,1-4.04-.25A19.975,19.975,0,0,0,28.71,29a19.644,19.644,0,0,0,2.66-6A20.088,20.088,0,0,0,32,18Z"/><path fill="#757575" d="M28.92,6.25,26.55,9,28,12,25.58,9.28a.345.345,0,0,1-.08-.29l.03-.15.6-3.65a3.114,3.114,0,0,0,.34.02.09.09,0,0,1,.01.05,11.792,11.792,0,0,1,1.76.5c.12.05.25.09.37.15a3.489,3.489,0,0,1,.44.2Z"/><polygon fill="#a0a0a0" points="26 30 28 34 29 31 30 32 32 30 26 30"/><polygon fill="#a0a0a0" points="28 30 30 33 32 31 36 31 35 24 34.5 27 30 29 28 30"/><polygon fill="#2c0201" points="27 29 28 32 29 30 30 31 32 29 27 29"/><path fill="#757575" d="M36.86,17H19.16L17,18l-2.04-1H11.14c.04-.34.09-.67.16-1s.14-.67.24-1H27.73a2,2,0,0,0,1.63-.82,6.508,6.508,0,0,0-.44-7.93c-.09-.11-.19-.22-.29-.32l-.02-.02a3.489,3.489,0,0,1,.44.2A13.676,13.676,0,0,1,36.7,16C36.77,16.33,36.82,16.66,36.86,17Z"/><rect width="20" height="6" x="14" y="23" fill="#ff9101"/><path fill="#ea1f5e" d="M34,23v6H28.71c.22-.33.42-.66.61-1a19.076,19.076,0,0,0,2.05-5Z"/><rect width="21" height="7" x="13.5" y="22.5" fill="none" stroke="#2c0201" stroke-miterlimit="10" rx="1"/><path fill="#757575" d="M26.48,5.26c-.12-.03-.23-.05-.35-.07A11.637,11.637,0,0,0,24,5a11.924,11.924,0,0,0-2.48.26,2.488,2.488,0,0,1,4.95-.05A.09.09,0,0,1,26.48,5.26Z"/><path fill="#f4ecea" d="M21.7,7.24A12.973,12.973,0,0,0,16.63,14H13.75A11.028,11.028,0,0,1,21.7,7.24Z"/><path fill="#ffe2a9" d="M19,29H16a27.77,27.77,0,0,1,0-5h3A26.878,26.878,0,0,0,19,29Z"/></g></svg>