<svg xmlns="http://www.w3.org/2000/svg" viewBox="0 0 48 48" width="48px" height="48px"><path fill="#5d4037" d="M16.9 34.3c0 0-1.1.9-1.6 1.2 0 0-1.5 6.2-5.5 9.3-.8.6-1.4-.2-1.4-.2L4.2 39C3.9 38.6 4 38 4.4 37.6l8.7-6.7c.4-.3 1.9-.9 2.2-.4L16.9 34.3zM21.2 33c-.1 0-.3 0-.4 0-.8-.1-1.4-.5-1.9-1l-.5-.6c-.8-1-1.3-1.7-1.2-2.5.1-.8.8-1.3 1.8-2.1l.2-.1c2.3-1.7 3-1.8 4.8.5l.4.6c.5.7.7 1.5.5 2.4-.2.8-.7 1.6-1.4 2.1C22.9 32.7 22 33 21.2 33zM19.3 29.1c.1.2.4.6.7 1l.5.6c.1.2.4.3.5.3.4.1.9-.1 1.3-.4.3-.3.6-.6.7-1 0-.2.1-.5-.1-.7l0 0-.4-.6c-.3-.4-.6-.7-.7-.9-.3.1-.8.5-1.3.9l-.2.1C20 28.6 19.5 28.9 19.3 29.1z"/><path fill="#37474f" d="M23.7,15.2l-7.9,6.1l-1,2l-1.6,1.2l-2.4-3.2l1.6-1.2l2.2-0.4l7.9-6.1l1-2l1.6-1.2l2.4,3.2l-1.6,1.2 L23.7,15.2z"/><path fill="#9fa8da" d="M18,25.9L44,5.4L42.2,3c0,0-24.4,19.3-25.2,19.9s-0.2,1.4-0.2,1.4L18,25.9z"/><path fill="#546e7a" d="M15.4 19.1l1.6-1.2 4.3 5.5-1.6 1.2L15.4 19.1zM20.1 15.4l1.6-1.2 4.3 5.5L24.4 21 20.1 15.4z"/><path fill="#795548" d="M17.7,28.7c0.7,0.9,1.1,1.6,2,1l17-14c2.4-1.8,0.7-5.6,0.7-5.6S36.8,9.2,36,9.8 c-0.8,0.6-18.6,15.2-18.6,15.2L17.7,28.7z"/><path fill="#795548" d="M19.6,36l-2.4,1.8c-4.9-6.3-0.6-12.2,0.2-12.8l3.1,4C20.4,29.2,15.9,31.3,19.6,36z"/><path fill="#3e2723" d="M17.7,26.5c-0.1,0.5,0.3,1.1,0.9,1.1c0.3,0,0.5,0,0.7-0.2s0.3-0.4,0.4-0.7c0.2-1.8-0.5-2.8-0.6-2.9 l-1.6,1.2C17.5,25.2,17.8,25.7,17.7,26.5z"/></svg>