<svg xmlns="http://www.w3.org/2000/svg" viewBox="0 0 48 48" width="48px" height="48px"><path fill="#827717" d="M39,10.4L37.6,9l6-6L45,4.4L39,10.4z"/><path fill="#827717" d="M33.7,16.4c2.1-0.7,5.2-2.4,6.4-3.5s2.5-6,3.9-7.4l-1.4-1.4c-1.4,1.4-6.3,2.7-7.4,3.9 s-2.8,4.2-3.5,6.4L33.7,16.4z"/><path fill="#827717" d="M33.7,16.4L33,18.6L29.4,15l2.1-0.7h2.1V16.4z"/><path fill="#63590d" d="M39.3,13.5c0.3-0.2,0.6-0.4,0.8-0.6c0.2-0.2,0.4-0.5,0.6-0.8l-4.7-4.7c-0.3,0.2-0.6,0.4-0.8,0.6 c-0.2,0.2-0.4,0.5-0.6,0.8L39.3,13.5z"/><path fill="#37474f" d="M28.9 17.5c.4.4.4 1 0 1.4-.4.4-1 .4-1.4 0l-4.2-4.2c-.4-.4-.4-1 0-1.4s1-.4 1.4 0L28.9 17.5zM22.5 24.7c.4.4.4 1 0 1.4l-1.4 1.4c-.4.4-1 .4-1.4 0l-1.4-1.4c-.4-.4-.4-1 0-1.4l1.4-1.4c.4-.4 1-.4 1.4 0L22.5 24.7z"/><path fill="#37474f" d="M29.4 17.8c.4.4.4 1 0 1.4l-1.3 1.3c-.4.4-1 .4-1.4 0l-1.4-1.4c-.4-.4-.4-1 0-1.4l1.3-1.3c.4-.4 1-.4 1.4 0L29.4 17.8zM4.7 38.4l4.9-2.1 2.1 2.1-2.1 4.9L4.7 38.4zM34.7 30.6c.4.4.4 1 0 1.4L34 32.7c-.4.4-1 .4-1.4 0l-7.8-7.8c-.4-.4-.4-1 0-1.4l.7-.7c.4-.4 1-.4 1.4 0L34.7 30.6zM26.6 35.7c.4.4 1 .4 1.4 0l.7-.7c.4-.4.4-1 0-1.4l-5.7-5.7c-.4-.4-1-.4-1.4 0l-.7.7c-.4.4-.4 1 0 1.4L26.6 35.7z"/><path fill="#37474f" d="M30.7,27.2l-1.4-1.4l1.4-1.4c0.6-0.6,0.2-1.2,0-1.4l-1.4-1.4l1.4-1.4l1.4,1.4c0.9,0.9,1.6,2.7,0,4.2 L30.7,27.2z"/><path fill="#546e7a" d="M9.7 43.3c.4.4.4 1 0 1.4s-1 .4-1.4 0l-4.9-4.9c-.4-.4-.4-1 0-1.4s1-.4 1.4 0L9.7 43.3zM21.2 30.3L31.6 20l.7-2.1-2.1-2.1L28 16.4 17.7 26.8 21.2 30.3z"/><path fill="#c68632" d="M11.8,38.4c0,0,1.4-1.4,2.1-2.1c0.7-0.7,2.8-1.4,3.5-2.1s3.8-3.8,3.8-3.8l-3.5-3.5 c0,0-3.1,3.1-3.8,3.8c-0.7,0.7-1.4,2.8-2.1,3.5s-2.1,2.1-2.1,2.1L11.8,38.4z"/></svg>