<svg xmlns="http://www.w3.org/2000/svg" viewBox="0 0 48 48" width="48px" height="48px"><path fill="#ffa726" d="M8,42c-1.1,0-2-0.9-2-2v-8c0-1.1,0.9-2,2-2h8c1.1,0,2,0.9,2,2v8c0,1.1-0.9,2-2,2H8z"/><path fill="#616161" d="M16,31c0.6,0,1,0.4,1,1v8c0,0.6-0.4,1-1,1H8c-0.6,0-1-0.4-1-1v-8c0-0.6,0.4-1,1-1H16 M16,29H8c-1.7,0-3,1.3-3,3v8c0,1.7,1.3,3,3,3h8c1.7,0,3-1.3,3-3v-8C19,30.3,17.7,29,16,29L16,29z"/><path fill="#fff" d="M20,42c-1.1,0-2-0.9-2-2v-8c0-1.1,0.9-2,2-2h8c1.1,0,2,0.9,2,2v8c0,1.1-0.9,2-2,2H20z"/><path fill="#616161" d="M28,31c0.6,0,1,0.4,1,1v8c0,0.6-0.4,1-1,1h-8c-0.6,0-1-0.4-1-1v-8c0-0.6,0.4-1,1-1H28 M28,29h-8c-1.7,0-3,1.3-3,3v8c0,1.7,1.3,3,3,3h8c1.7,0,3-1.3,3-3v-8C31,30.3,29.7,29,28,29L28,29z"/><path fill="#82b1ff" d="M32,42c-1.1,0-2-0.9-2-2v-8c0-1.1,0.9-2,2-2h8c1.1,0,2,0.9,2,2v8c0,1.1-0.9,2-2,2H32z"/><path fill="#616161" d="M40,31c0.6,0,1,0.4,1,1v8c0,0.6-0.4,1-1,1h-8c-0.6,0-1-0.4-1-1v-8c0-0.6,0.4-1,1-1H40 M40,29h-8c-1.7,0-3,1.3-3,3v8c0,1.7,1.3,3,3,3h8c1.7,0,3-1.3,3-3v-8C43,30.3,41.7,29,40,29L40,29z"/><path fill="#8bc34a" d="M8,30c-1.1,0-2-0.9-2-2v-8c0-1.1,0.9-2,2-2h8c1.1,0,2,0.9,2,2v8c0,1.1-0.9,2-2,2H8z"/><path fill="#616161" d="M16,19c0.6,0,1,0.4,1,1v8c0,0.6-0.4,1-1,1H8c-0.6,0-1-0.4-1-1v-8c0-0.6,0.4-1,1-1H16 M16,17H8c-1.7,0-3,1.3-3,3v8c0,1.7,1.3,3,3,3h8c1.7,0,3-1.3,3-3v-8C19,18.3,17.7,17,16,17L16,17z"/><path fill="#ffee58" d="M20,30c-1.1,0-2-0.9-2-2v-8c0-1.1,0.9-2,2-2h8c1.1,0,2,0.9,2,2v8c0,1.1-0.9,2-2,2H20z"/><path fill="#616161" d="M28,19c0.6,0,1,0.4,1,1v8c0,0.6-0.4,1-1,1h-8c-0.6,0-1-0.4-1-1v-8c0-0.6,0.4-1,1-1H28 M28,17h-8c-1.7,0-3,1.3-3,3v8c0,1.7,1.3,3,3,3h8c1.7,0,3-1.3,3-3v-8C31,18.3,29.7,17,28,17L28,17z"/><g><path fill="#f4511e" d="M32,30c-1.1,0-2-0.9-2-2v-8c0-1.1,0.9-2,2-2h8c1.1,0,2,0.9,2,2v8c0,1.1-0.9,2-2,2H32z"/><path fill="#616161" d="M40,19c0.6,0,1,0.4,1,1v8c0,0.6-0.4,1-1,1h-8c-0.6,0-1-0.4-1-1v-8c0-0.6,0.4-1,1-1H40 M40,17h-8c-1.7,0-3,1.3-3,3v8c0,1.7,1.3,3,3,3h8c1.7,0,3-1.3,3-3v-8C43,18.3,41.7,17,40,17L40,17z"/></g><g><path fill="#f4511e" d="M8,18c-1.1,0-2-0.9-2-2V8c0-1.1,0.9-2,2-2h8c1.1,0,2,0.9,2,2v8c0,1.1-0.9,2-2,2H8z"/><path fill="#616161" d="M16,7c0.6,0,1,0.4,1,1v8c0,0.6-0.4,1-1,1H8c-0.6,0-1-0.4-1-1V8c0-0.6,0.4-1,1-1H16 M16,5H8C6.3,5,5,6.3,5,8v8c0,1.7,1.3,3,3,3h8c1.7,0,3-1.3,3-3V8C19,6.3,17.7,5,16,5L16,5z"/></g><g><path fill="#82b1ff" d="M20,18c-1.1,0-2-0.9-2-2V8c0-1.1,0.9-2,2-2h8c1.1,0,2,0.9,2,2v8c0,1.1-0.9,2-2,2H20z"/><path fill="#616161" d="M28,7c0.6,0,1,0.4,1,1v8c0,0.6-0.4,1-1,1h-8c-0.6,0-1-0.4-1-1V8c0-0.6,0.4-1,1-1H28 M28,5h-8c-1.7,0-3,1.3-3,3v8c0,1.7,1.3,3,3,3h8c1.7,0,3-1.3,3-3V8C31,6.3,29.7,5,28,5L28,5z"/></g><g><path fill="#fff" d="M32,18c-1.1,0-2-0.9-2-2V8c0-1.1,0.9-2,2-2h8c1.1,0,2,0.9,2,2v8c0,1.1-0.9,2-2,2H32z"/><path fill="#616161" d="M40,7c0.6,0,1,0.4,1,1v8c0,0.6-0.4,1-1,1h-8c-0.6,0-1-0.4-1-1V8c0-0.6,0.4-1,1-1H40 M40,5h-8c-1.7,0-3,1.3-3,3v8c0,1.7,1.3,3,3,3h8c1.7,0,3-1.3,3-3V8C43,6.3,41.7,5,40,5L40,5z"/></g></svg>