<svg xmlns="http://www.w3.org/2000/svg" viewBox="0 0 48 48" width="48px" height="48px"><path fill="#757575" d="M32.125,33.249C25.62,30.482,24,27,24,27l2.914-3.176c1,2,3.734,4.176,7.336,4.176h0.875L33,33.599 L32.125,33.249z"/><path fill="#757575" d="M10.686 16.132H36.394V18.132H10.686z" transform="rotate(-45.001 23.54 17.132)"/><path fill="#616161" d="M31.332 4.623H33.332V12.041H31.332z" transform="rotate(-45.001 32.332 8.332)"/><path fill="#616161" d="M13.332 22.623H15.332V30.041H13.332z" transform="rotate(-45.001 14.331 26.332)"/><path fill="#757575" d="M32.421 8.664H40.906V10.664H32.421z" transform="rotate(-45.001 36.664 9.664)"/><path fill="#c69451" d="M36.578,13.993L32.336,9.75c0,0-20.326,20.326-21.02,21.02C10.043,32.043,9.5,33.607,9.5,33.607 l2.76,1.883l4.713-1.892L36.578,13.993z"/><path fill="#616161" d="M40 4L37.912 6.998 39.326 8.413 42.328 6.328z"/><path fill="#c68632" d="M28,24v-1.429l1-1L28.429,21h-1.686L12.26,35.49L9.5,33.607L8,35c-1.118,0-2.586,1.586-2.586,1.586 l5.416,5.416C10.832,42,12,40.875,12,39v-1.25l1.375-1.5l0.487-0.204c0.751-0.314,1.434-0.771,2.01-1.347l2.414-2.414l2.836,2.836 l2.711-2.711l0,0l0.002-0.002l0.287-0.287c0.422-0.422,0.702-0.948,0.818-1.52l0.08,0.098c0.483,0.483,1.296,0.351,1.602-0.26 l2.274-4.757c0.193-0.385,0.117-0.85-0.187-1.154L28,24z M22.553,30.842c-0.4,0.359-0.621,0.447-0.843,0.447 c-0.267,0-0.518-0.104-0.707-0.293l-0.715-0.715l1.703-1.703l0.715,0.715C22.896,29.482,23,29.733,23,30 C23,30.221,22.912,30.443,22.553,30.842z"/><path fill="#616161" d="M13.145 29.184H15.145V35.184H13.145z" transform="rotate(-45.001 14.144 32.184)"/><path fill="#616161" d="M24.895,37.553c0,0-0.067-0.121-0.202-0.333c-0.485-0.758-1.38-2.454-1.571-4.098l-2.129-2.129L19,33 c0,0,0.729,4.023,2.105,6.447C21.281,39.798,21.634,40,22.001,40c0.15,0,0.303-0.034,0.446-0.105l2-1 C24.941,38.647,25.142,38.047,24.895,37.553z"/><path fill="#616161" d="M30.939 29.494H37.67V31.495H30.939z" transform="rotate(-68.199 34.303 30.494)"/><path fill="#616161" d="M6.707 36.05H8.707V44.535H6.707z" transform="rotate(-45.009 7.707 40.295)"/><path fill="#a36f29" d="M13.375 36.25L12 37.75 8 35 9.5 33.607z"/><path fill="#616161" d="M28.742,19l-1.414-1.414l2.965-2.965c0.391-0.391,1.024-0.391,1.414,0l0,0 C31.903,14.816,32,15.072,32,15.328c0,0.256-0.098,0.512-0.293,0.707L28.742,19z"/></svg>