<svg xmlns="http://www.w3.org/2000/svg" viewBox="0 0 48 48" width="48px" height="48px"><path fill="#ffc107" d="M20 0L20 5 26 4z"/><path fill="#ffc107" d="M29 0L29 5 23 4zM4 4L11 11 0 12 11 16 1 22 13 21 8 27 21 22 21 8zM44 4L37 11 48 12 37 16 47 22 35 21 40 27 27 22 27 8z"/><path fill="#895e51" d="M30,47l0-11c5-3,4.729-7.688,3-10c2.132-1.702,5-4.688,5-8c0-3.414-1.936-5.86-4.772-7.209 C30,9,19,9,15.772,10.791C12.936,12.14,11,14.586,11,18c0,3.313,2.868,6.298,5,8c-2,2-2,7,3,10l0,11H30z"/><path fill="#5b3f37" d="M24 41c-1-3-2-5-4-7s-4.313-2.813-5.156-3.906C15 33 17.5 35.042 19 36 20.192 36.761 23 39 24 41zM16.094 12.563C16.094 12.563 17 18 21 22s4.292 3.833 6 6c-.417-2.417-2-5-3-7s-1-5-1-5L16.094 12.563zM16.594 26.5c0 0 6.406 4.5 8.406 8.5 0-4-5-8-6-9s-6.938-4.406-7.938-7.188C11.063 21.031 13.479 24.042 16.594 26.5zM27.542 30.813C27.542 30.813 30 34 30 36c1.771-.958 2.458-2.042 2.458-2.042S30.542 31.813 27.542 30.813zM33 26c-.479-.604-1.708-2.042-4-3 2 0 5 .25 6 1.125C34.292 25 33 26 33 26z"/><path fill="#ffc107" d="M11 0L15 7 18 8 22 5zM38 0L34 7 31 8 27 5z"/><path fill="#5b3f37" d="M24.5 5A8.5 8.5 0 1 0 24.5 22A8.5 8.5 0 1 0 24.5 5Z"/><path fill="#00acc1" d="M24.5 3A8.5 8.5 0 1 0 24.5 20A8.5 8.5 0 1 0 24.5 3Z"/><path fill="#fff" d="M20,12.5c-0.552,0-1-0.448-1-1C19,8.467,21.467,6,24.5,6c0.553,0,1,0.448,1,1s-0.447,1-1,1 C22.57,8,21,9.57,21,11.5C21,12.052,20.552,12.5,20,12.5z"/></svg>