<svg xmlns="http://www.w3.org/2000/svg" viewBox="0 0 48 48" width="48px" height="48px"><path fill="#c5cae9" d="M43 5L17.963 30.037 15.817 27.891 34.416 6.431z"/><path fill="#9fa8da" d="M43 5L17.963 30.037 20.109 32.183 41.569 13.584z"/><path fill="#ffb300" d="M19.751 36.117l-7.869-7.869c-.593-.593-.593-1.553 0-2.146l0 0c.593-.593 1.553-.593 2.146 0l7.869 7.869c.593.593.593 1.553 0 2.146l0 0C21.305 36.71 20.344 36.71 19.751 36.117zM10.452 42.556l-5.007-5.007c-.593-.593-.593-1.553 0-2.146l0 0c.593-.593 1.553-.593 2.146 0l5.007 5.007c.593.593.593 1.553 0 2.146h0C12.005 43.148 11.044 43.148 10.452 42.556z"/><path fill="#ef6c00" d="M10.365 29.925H13.4V38.018H10.365z" transform="rotate(45.001 11.883 33.971)"/><path fill="#d44b00" d="M12.511 32.071H15.546V40.164H12.511z" transform="rotate(45.001 14.029 36.118)"/></svg>