<?xml version="1.0" encoding="UTF-8"?><svg xmlns="http://www.w3.org/2000/svg" xmlns:xlink="http://www.w3.org/1999/xlink" version="1.1" id="Layer_1" x="0px" y="0px" viewBox="0 0 24 24" xml:space="preserve"><path fill="#303C42" d="M24 12c0-6.617-5.383-12-12-12S0 5.383 0 12c0 3.268 1.42 5.694 4.202 7.23C4.754 23.104 6.44 24 12 24c5.405 0 7.152-.838 7.752-4.443C22.564 18.103 24 15.569 24 12z"/><path fill="#F2F2F2" d="M22.909 13.375A6.006 6.006 0 0 1 21 9c0-.852.184-1.69.534-2.462A10.92 10.92 0 0 1 23 12c0 .484-.036.937-.091 1.375z"/><circle fill="#F2F2F2" cx="12" cy="7" r="5"/><path fill="#F2F2F2" d="M2.466 6.538C2.816 7.31 3 8.148 3 9a6.007 6.007 0 0 1-1.887 4.353A8.783 8.783 0 0 1 1 12c0-1.989.539-3.85 1.466-5.462z"/><path fill="#FEE4D0" d="M12 23c-5.854 0-6.608-.95-6.93-4.98C6.508 16.461 9.14 15.5 12 15.5s5.491.961 6.93 2.52C18.609 22.05 17.855 23 12 23z"/><path fill="#D32F2F" d="M19.903 18.327c.014-.147.03-.288.041-.443a.504.504 0 0 0-.118-.362C18.236 15.658 15.236 14.5 12 14.5s-6.235 1.158-7.826 3.022a.504.504 0 0 0-.118.362c.002.036.006.067.01.102-1.343-.897-2.238-2.084-2.697-3.54A7.008 7.008 0 0 0 4 9c0-1.2-.325-2.37-.915-3.418a10.98 10.98 0 0 1 8.302-4.55A6.008 6.008 0 0 0 6 7c0 3.309 2.691 6 6 6s6-2.691 6-6a6.008 6.008 0 0 0-5.387-5.969 10.98 10.98 0 0 1 8.302 4.551A6.962 6.962 0 0 0 20 9a7.003 7.003 0 0 0 2.691 5.495c-.438 1.657-1.36 2.927-2.788 3.832z"/><path fill="#F2F2F2" d="M22.909 13.375A6.006 6.006 0 0 1 21 9c0-.852.184-1.69.534-2.462A10.92 10.92 0 0 1 23 12c0 .484-.036.937-.091 1.375z"/><path fill="#D32F2F" d="M19.903 18.327c.014-.147.03-.288.041-.443a.504.504 0 0 0-.118-.362C18.236 15.658 15.236 14.5 12 14.5s-6.235 1.158-7.826 3.022a.504.504 0 0 0-.118.362c.002.036.006.067.01.102-1.343-.897-2.238-2.084-2.697-3.54A7.008 7.008 0 0 0 4 9c0-1.2-.325-2.37-.915-3.418a10.98 10.98 0 0 1 8.302-4.55A6.008 6.008 0 0 0 6 7c0 3.309 2.691 6 6 6s6-2.691 6-6a6.008 6.008 0 0 0-5.387-5.969 10.98 10.98 0 0 1 8.302 4.551A6.962 6.962 0 0 0 20 9a7.003 7.003 0 0 0 2.691 5.495c-.438 1.657-1.36 2.927-2.788 3.832z"/><linearGradient id="SVGID_1_" gradientUnits="userSpaceOnUse" x1="8.5331745" y1="14.5502071" x2="16.7871456" y2="22.8041782"><stop offset="0" stop-color="#000" stop-opacity="0.1"/><stop offset="1" stop-color="#000" stop-opacity="0"/></linearGradient><path fill="url(#SVGID_1_)" d="M12 23c5.854 0 6.608-.95 6.93-4.98-1.439-1.559-4.07-2.52-6.93-2.52s-5.491.961-6.93 2.52l4.928 4.928A33.7 33.7 0 0 0 12 23z"/><path fill="#303C42" d="M9.25 17c-.39 0-.75.242-.75 2s.36 2 .75 2 .75-.242.75-2-.36-2-.75-2z"/><path fill="#303C42" d="M14.75 21c.39 0 .75-.242.75-2s-.36-2-.75-2-.75.242-.75 2 .36 2 .75 2z"/><linearGradient id="SVGID_2_" gradientUnits="userSpaceOnUse" x1="1.020444" y1="7.1527424" x2="22.6441307" y2="17.2360325"><stop offset="0" stop-color="#FFF" stop-opacity="0.2"/><stop offset="1" stop-color="#FFF" stop-opacity="0"/></linearGradient><path fill="url(#SVGID_2_)" d="M24 12c0-6.617-5.383-12-12-12S0 5.383 0 12c0 3.268 1.42 5.694 4.202 7.23C4.754 23.104 6.44 24 12 24c5.405 0 7.152-.838 7.752-4.443C22.564 18.103 24 15.569 24 12z"/><path opacity="0.1" d="M1.113 13.353c.18-.17.345-.354.502-.544-.201-.072-.393-.153-.589-.231.02.264.048.523.087.775z"/><path opacity="0.1" d="M21.05 9.73a6.02 6.02 0 0 0 1.859 3.645c.055-.438.091-.891.091-1.375 0-1.326-.258-2.587-.692-3.764A9.273 9.273 0 0 1 21.05 9.73z"/><path opacity="0.1" d="M2.62 13.13a7.07 7.07 0 0 1-1.251 1.316c.459 1.456 1.354 2.643 2.696 3.54l-.01-.102a.504.504 0 0 1 .119-.362C5.764 15.658 8.764 14.5 12 14.5s6.235 1.158 7.826 3.022c.085.101.128.23.118.362-.011.155-.027.296-.04.443 1.428-.905 2.349-2.175 2.787-3.832a7.036 7.036 0 0 1-2.52-3.992C17.462 12.635 13.35 14 8.75 14c-2.188 0-4.26-.317-6.13-.87z"/><metadata><rdf:RDF xmlns:rdf="http://www.w3.org/1999/02/22-rdf-syntax-ns#" xmlns:rdfs="http://www.w3.org/2000/01/rdf-schema#" xmlns:dc="http://purl.org/dc/elements/1.1/"><rdf:Description about="https://iconscout.com/legal#licenses" dc:title="video,game,play,toad,mushroom,mario" dc:description="video,game,play,toad,mushroom,mario" dc:publisher="Iconscout" dc:date="2017-08-16" dc:format="image/svg+xml" dc:language="en"><dc:creator><rdf:Bag><rdf:li>Those Icons</rdf:li></rdf:Bag></dc:creator></rdf:Description></rdf:RDF></metadata></svg>