<svg xmlns="http://www.w3.org/2000/svg" viewBox="0 0 48 48" width="48px" height="48px"><path fill="#FFD600" d="M14,24L24,6l10,18H14z M24,42l10-18l10,18H24z M4,42l10-18l10,18H4z"/><path fill="#FFB300" d="M34,24l-3.4-2H17.4L14,24 M24,42l3.4-2h13.2l3.4,2 M4,42l3.4-2h13.2l3.4,2"/><path fill="#FBC02D" d="M24,6v3.9L30.6,22l3.4,2 M44,42l-3.4-2L34,27.9V24 M24,42l-3.4-2L14,27.9V24"/><path fill="#FFEE58" d="M14,24l3.4-2L24,9.9V6L14,24z M34,24v3.9L27.4,40L24,42L34,24z M14,24v3.9L7.4,40L4,42L14,24z"/></svg>