<svg xmlns="http://www.w3.org/2000/svg" viewBox="0 0 48 48" width="48px" height="48px"><path fill="#b39ddb" d="M46,30l-4-3l3-4l-4-1l3-4l-5-1l-2-3l-6,3V5l-2,10l-5-4l-5,4L17,4v13l-6-3l-2,3l-5,1l3,4l-4,1l3,4 l-4,3l2,3l-2,3l4,2v4h7c3,1.8,6.9,3,11,3s8-1.2,11-3h7v-4l4-2l-2-3L46,30z"/><path fill="#5e35b1" d="M15,21c0-0.2-0.3-15-8-15V4c9.6,0,10,16.3,10,17L15,21z"/><path fill="#5e35b1" d="M9 6c0 1.1-.9 2-2 2S5 7.1 5 6s.9-2 2-2S9 4.9 9 6zM33 21l-2 0c0-.7.4-17 10-17v2C33.3 6 33 20.9 33 21z"/><path fill="#7e57c2" d="M42,42v-4l4-2l-2-3l2-3l-4-3l3-4l-7-2l-2-3l-4,1L31,5l-4,13l-3-3l-3,3L17,4l-1,15l-4-1l-2,3l-7,2 l3,4l-4,3l2,3l-2,3l4,2v4h7c3,1.8,6.9,3,11,3s8-1.2,11-3H42z"/><path fill="#5e35b1" d="M6 27l-4 3 2 3-2 3 4 2v4h7C6.9 37.7 6 27 6 27zM42 27l4 3-2 3 2 3-4 2v4h-7C41.1 37.7 42 27 42 27z"/><path fill="#ff5252" d="M36,31c0,2.2-1.8,4-4,4s-4-1.8-4-4s1.8-4,4-4S36,28.8,36,31z"/><path fill="#fff" d="M31,30c0,0.6-0.4,1-1,1s-1-0.4-1-1s0.4-1,1-1S31,29.4,31,30z"/><path fill="#ff5252" d="M20,31c0,2.2-1.8,4-4,4s-4-1.8-4-4s1.8-4,4-4S20,28.8,20,31z"/><path fill="#fff" d="M15,30c0,0.6-0.4,1-1,1s-1-0.4-1-1s0.4-1,1-1S15,29.4,15,30z"/><path fill="#ff5252" d="M27.2,35c-0.7-0.6-1.9-1-3.2-1s-2.5,0.4-3.2,1l-0.7,2c0.4,1.1,2,2,3.9,2s3.6-0.9,3.9-2L27.2,35z"/><path fill="#fff" d="M18 41c0 0 1.6-3 3-3 0 0 1 0 1-1.5 0-1.5-1-1.5-1-1.5C18 35 18 41 18 41zM30 41c0 0-1.6-3-3-3 0 0-1 0-1-1.5 0-1.5 1-1.5 1-1.5C30 35 30 41 30 41z"/><path fill="#5e35b1" d="M43,6c0,1.1-0.9,2-2,2s-2-0.9-2-2s0.9-2,2-2S43,4.9,43,6z"/></svg>