<?xml version="1.0" encoding="UTF-8"?><svg xmlns="http://www.w3.org/2000/svg" xmlns:xlink="http://www.w3.org/1999/xlink" version="1.1" id="Layer_1" x="0px" y="0px" viewBox="0 0 24 24" xml:space="preserve"><path fill="#303C42" d="M19.985 19.55c-.188-2.92-2.188-5.05-3.985-5.05-.344 0-.676.095-.996.225v-1.693C15.167 12.52 16 9.72 16 6c0-4.093-4.773-6-8-6-3.23 0-7 1.44-7 5.5 0 3.352 2.35 6.304 3.349 7.405-.396.316-.849.842-.849 1.595 0 1.02.872 2.039 2.525 2.375-.01.04-.025.08-.025.125v2.5c0 4.175 3.827 4.5 5 4.5 2.607 0 4.023-.796 4.776-1.782C16.468 24 18.306 24 19.5 24c1.742 0 3.5-.619 3.5-2 0-1.199-1.778-2.216-3.015-2.45z"/><path fill="#FFF" d="M5.317 11.625c-.09.08-.312.232-.573.202a14.493 14.493 0 0 1-1.69-2.508C3.167 7.006 3.814 7 4.094 7c.728 0 1.055.292 1.055.5a.5.5 0 1 0 1 0c0-.015.068-1.5 1.575-1.5.778 0 1.573.297 1.573 2.5 0 1.985-.75 3.5-1.055 3.5-.502 0-1.268-.979-1.629-1.64a.5.5 0 1 0-.93.146c-.091.476-.267 1.013-.365 1.12z"/><path fill="#FDD1B0" d="M19.5 23c-1.543 0-3 0-3-2.5a.5.5 0 0 0-.451-.498.485.485 0 0 0-.54.4C15.166 22.126 13.648 23 11 23c-1.494 0-4-.455-4-3.5V17c0-.005-.003-.009-.003-.014.071.003.134.014.207.014 2.31 0 2.969-1.14 3.036-1.27a.494.494 0 0 0-.205-.66.507.507 0 0 0-.677.188c-.017.03-.46.742-2.154.742-1.757 0-2.704-.773-2.704-1.5 0-.657.826-1.04.832-1.043a.5.5 0 0 0 .29-.37.496.496 0 0 0-.122-.41 1.91 1.91 0 0 0 .48-.303c.15-.133.275-.353.375-.594.463.59 1.135 1.22 1.886 1.22 1.402 0 2.055-2.685 2.055-4.5 0-2.322-.866-3.5-2.573-3.5-1.208 0-1.91.65-2.267 1.338C5.127 6.132 4.675 6 4.093 6c-1.014 0-1.517.683-1.776 1.539A7.108 7.108 0 0 1 2 5.5C2 1.217 6.998 1 8 1c2.193 0 7 1.259 7 5 0 3.862-.96 6.765-.97 6.793a.493.493 0 0 0-.026.16v2.35A7.878 7.878 0 0 0 12.6 16.7a.5.5 0 0 0 .8.6c.376-.5 1.58-1.8 2.6-1.8 1.224 0 3 1.753 3 4.5a.5.5 0 0 0 .5.5c.861 0 2.5.896 2.5 1.5 0 .551-1.121 1-2.5 1z"/><path opacity="0.1" d="M12 22c-1.494 0-4-.455-4-3.5v-1.55c-.24.032-.505.05-.796.05-.073 0-.136-.011-.207-.014 0 .005.003.01.003.014v2.5c0 3.045 2.506 3.5 4 3.5 2.117 0 3.499-.569 4.149-1.674-.756.447-1.806.674-3.149.674z"/><path fill="#303C42" d="M9.918 3.507l-3 .5a.5.5 0 1 0 .164.986l3-.5a.5.5 0 1 0-.164-.986z"/><path fill="#303C42" d="M4.5 4h-1a.5.5 0 1 0 0 1h1a.5.5 0 1 0 0-1z"/><path fill="#303C42" d="M4.75 8.5C4.26 8.5 4 9.019 4 10s.26 1.5.75 1.5.75-.519.75-1.5-.26-1.5-.75-1.5z"/><path fill="#303C42" d="M8 11c.58 0 1-.63 1-1.5S8.58 8 8 8s-1 .63-1 1.5.42 1.5 1 1.5z"/><path opacity="0.1" d="M19.5 20.5a.5.5 0 0 1-.5-.5c0-2.747-1.776-4.5-3-4.5-.162 0-.328.041-.495.098 1.075.367 2.341 1.825 2.482 4.017.03.455.364.833.813.918C19.892 20.739 21 21.56 21 22c0 .513-.976.933-2.223.989.235.01.478.011.723.011 1.379 0 2.5-.449 2.5-1 0-.604-1.639-1.5-2.5-1.5z"/><path opacity="0.1" d="M14 6c0 3.562-.791 6.23-.95 6.73a.995.995 0 0 0-.046.302v1.693a1 1 0 0 0 .441.83c.052.034.11.054.166.078.125-.111.25-.223.393-.33v-2.35c0-.054.009-.108.026-.16.01-.028.97-2.93.97-6.793 0-3.741-4.807-5-7-5a9.08 9.08 0 0 0-.53.017C9.983 1.187 14 2.683 14 6z"/><linearGradient id="SVGID_1_" gradientUnits="userSpaceOnUse" x1="-0.3817457" y1="7.2253165" x2="24.6098137" y2="18.8790722"><stop offset="0" stop-color="#FFF" stop-opacity="0.2"/><stop offset="1" stop-color="#FFF" stop-opacity="0"/></linearGradient><path fill="url(#SVGID_1_)" d="M19.985 19.55c-.188-2.92-2.188-5.05-3.985-5.05-.344 0-.676.095-.996.225v-1.693C15.167 12.52 16 9.72 16 6c0-4.093-4.773-6-8-6-3.23 0-7 1.44-7 5.5 0 3.352 2.35 6.304 3.349 7.405-.396.316-.849.842-.849 1.595 0 1.02.872 2.039 2.525 2.375-.01.04-.025.08-.025.125v2.5c0 4.175 3.827 4.5 5 4.5 2.607 0 4.023-.796 4.776-1.782C16.468 24 18.306 24 19.5 24c1.742 0 3.5-.619 3.5-2 0-1.199-1.778-2.216-3.015-2.45z"/><metadata><rdf:RDF xmlns:rdf="http://www.w3.org/1999/02/22-rdf-syntax-ns#" xmlns:rdfs="http://www.w3.org/2000/01/rdf-schema#" xmlns:dc="http://purl.org/dc/elements/1.1/"><rdf:Description about="https://iconscout.com/legal#licenses" dc:title="video,game,play,worms,armagedon" dc:description="video,game,play,worms,armagedon" dc:publisher="Iconscout" dc:date="2017-08-16" dc:format="image/svg+xml" dc:language="en"><dc:creator><rdf:Bag><rdf:li>Those Icons</rdf:li></rdf:Bag></dc:creator></rdf:Description></rdf:RDF></metadata></svg>