<svg id="Layer_1" data-name="Layer 1" xmlns="http://www.w3.org/2000/svg" viewBox="0 0 397.88 81.17"><title>band</title><g id="layer1"><g id="g16575"><path id="path13258" d="M30.64,0a2.85,2.85,0,0,0-3,2.71V18H3A2.74,2.74,0,0,0,.19,21.69l2.37,5.77H19.78v5.41h-15L7,38.28H19.78v5.41H9.23l2.43,5.91L.19,77.51A2.75,2.75,0,0,0,3,81.17H50.4a2.85,2.85,0,0,0,3-2.71V63.13H344.52V78.79c0,.08,0,.15,0,.23v.09a.58.58,0,0,0,.07.21c0,.08.07.17.11.25a1.41,1.41,0,0,0,.13.24A2,2,0,0,0,345,80l0,0a1.24,1.24,0,0,0,.18.22l.18.18,0,0,.2.15.2.12s.06,0,.07,0l.22.12.23.09h.08l.25.07a.59.59,0,0,0,.22,0H347c.08,0,.16,0,.25,0h47.64a2.75,2.75,0,0,0,2.78-3.66l-2.28-5.55h-22V66.53h19.79L391,61.11H373.39V55.7h15.34l-2.51-6.12,11.47-27.91A2.74,2.74,0,0,0,394.94,18h-24.7V2.71a2.85,2.85,0,0,0-3-2.7H30.64Z" style="fill:#020202"/><path id="path13260" d="M33.6,5.41H364.28V57.72H33.6Z" style="fill:#a5422c"/><path id="path13262" d="M7.26,23.45H27.67v37a2.67,2.67,0,0,0,.89,1.92l14.7,13.42h-36L17.62,50.55a2.5,2.5,0,0,0,0-1.9Z" style="fill:#a5422c"/><path id="path13264" d="M370.21,23.45h20.43l-10.35,25.2a2.5,2.5,0,0,0,0,1.9l10.35,25.21h-36l14.7-13.42,0,0,.16-.18.18-.22,0,0s0,0,.05-.08a.6.6,0,0,0,.09-.15,2.12,2.12,0,0,0,.11-.21v0a1,1,0,0,0,.08-.22v0a1.11,1.11,0,0,0,.07-.22v-.11s0-.11,0-.17V23.45Z" style="fill:#a5422c"/><path id="path13266" d="M37.79,63.13h9.65v8.8Z" style="fill:#d85639"/><path id="path13268" d="M350.45,63.13h9.64l-9.64,8.8Z" style="fill:#d85639"/><path id="path16559" d="M37.55,8.57H360.33v46H37.55Z" style="fill:#d85639"/><path id="path16561" d="M9.53,25.48l9.55,23.24a2.33,2.33,0,0,1,0,1.76L9.53,73.73H41L28.56,62.34a2.67,2.67,0,0,1-.89-1.92V25.48Z" style="fill:#d85639"/><path id="path16569" d="M388.36,25.48l-9.55,23.24a2.24,2.24,0,0,0,0,1.76l9.55,23.25H356.85l12.47-11.39a2.63,2.63,0,0,0,.89-1.92V25.48Z" style="fill:#d85639"/><path id="path16571" d="M38.88,64.12h7.46v6.81Z" style="fill:#d85639"/><path id="path16573" d="M359,64.13h-7.46v6.8Z" style="fill:#d85639"/></g></g></svg>