<svg xmlns="http://www.w3.org/2000/svg" viewBox="0 0 1101.49 769.96"><title>board</title><g style="isolation:isolate"><g id="Layer_2" data-name="Layer 2"><g id="Layer_1-2" data-name="Layer 1"><rect id="_Rectangle_" data-name="&lt;Rectangle&gt;" x="5" y="5" width="1091.49" height="759.96" rx="16" ry="16" style="fill:#546672"/><path id="_Path_" data-name="&lt;Path&gt;" d="M1080.49,753H21A16,16,0,0,1,5,737V749a16,16,0,0,0,16,16H1080.49a16,16,0,0,0,16-16V737A16,16,0,0,1,1080.49,753Z" style="fill:#546672;opacity:0.68;mix-blend-mode:overlay"/><path id="_Path_2" data-name="&lt;Path&gt;" d="M1080.49,4H21A16,16,0,0,0,5,20v9A16,16,0,0,1,21,13H1080.49a16,16,0,0,1,16,16V20A16,16,0,0,0,1080.49,4Z" style="fill:#546672;opacity:0.81;mix-blend-mode:screen"/><rect id="_Rectangle_2" data-name="&lt;Rectangle&gt;" x="231.9" y="-190.3" width="637.69" height="1058.35" rx="9.26" ry="9.26" transform="translate(889.62 -211.87) rotate(90)" style="fill:#1d2f3d"/><rect id="_Rectangle_3" data-name="&lt;Rectangle&gt;" x="5" y="5" width="1091.49" height="759.96" rx="16" ry="16" style="fill:none;stroke:#020202;stroke-linecap:round;stroke-linejoin:round;stroke-width:10px"/><ellipse id="_Path_3" data-name="&lt;Path&gt;" cx="550.75" cy="747.6" rx="7.5" ry="7.64" style="fill:#d1e3ed;opacity:0.13"/><ellipse id="_Path_4" data-name="&lt;Path&gt;" cx="550.75" cy="747.6" rx="6.44" ry="6.56" style="fill:#1d2f3d"/></g></g></g></svg>