<svg xmlns="http://www.w3.org/2000/svg" viewBox="0 0 17 29.02"><title>Lock</title><g id="Layer_2" data-name="Layer 2"><g id="Layer_1-2" data-name="Layer 1"><path d="M5.09.63A7.07,7.07,0,0,1,8,0H9a7,7,0,0,1,7,7v5.52a.5.5,0,0,1-.5.5h-2a.5.5,0,0,1-.5-.5V7A4,4,0,0,0,9,3H8a4,4,0,0,0-2.26.7A3.51,3.51,0,0,1,5,2.19,3.54,3.54,0,0,1,5.09.63Z" style="fill:#ffe07d"/><path d="M4.22,5.68A4.11,4.11,0,0,0,4,7v5.52a.5.5,0,0,1-.5.5h-2a.5.5,0,0,1-.5-.5V7a7.2,7.2,0,0,1,.12-1.32" style="fill:#ffe07d"/><path d="M17,12.52v13.8A2.7,2.7,0,0,1,14.3,29H2.7A2.7,2.7,0,0,1,0,26.32H0V12.52A.5.5,0,0,1,.5,12h16A.5.5,0,0,1,17,12.52Z" style="fill:#ffe07d"/><path d="M17,12.52v13.8A2.7,2.7,0,0,1,14.3,29H8.5V12h8A.5.5,0,0,1,17,12.52Z" style="fill:#ffc269"/><rect y="12.02" width="17" height="4.2" rx="0.5" ry="0.5" style="fill:#6f6571"/><path d="M11,19.32a2.49,2.49,0,0,1-1,2v2.2a1.5,1.5,0,0,1-3,0V21.31a2.5,2.5,0,0,1,1.5-4.49,2.38,2.38,0,0,1,1.57.56A2.48,2.48,0,0,1,11,19.32Z" style="fill:#6f6571"/><path d="M16,7v5.52a.5.5,0,0,1-.5.5h-2a.5.5,0,0,1-.5-.5V7A4,4,0,0,0,9,3H8.5V0H9A7,7,0,0,1,16,7Z" style="fill:#ffc269"/><path d="M17,12.52v3.2a.5.5,0,0,1-.5.5h-8V12h8A.5.5,0,0,1,17,12.52Zm-6,6.8a2.49,2.49,0,0,1-1,2v2.2A1.5,1.5,0,0,1,8.5,25v-8.2a2.38,2.38,0,0,1,1.57.56A2.48,2.48,0,0,1,11,19.32Z" style="fill:#606060"/></g></g></svg>