<svg xmlns="http://www.w3.org/2000/svg" viewBox="0 0 140.58 91.52"><title>rules</title><g id="Layer_2" data-name="Layer 2"><g id="Layer_1-2" data-name="Layer 1"><path d="M32.51,31.6l-3.24-6.84H27.54V31.6H19.19V6.4H31A10.05,10.05,0,0,1,38.16,9a9.06,9.06,0,0,1,2.77,6.91,7.87,7.87,0,0,1-3.49,6.84l4.39,8.82Zm-5-18v4.79h2.05a2.74,2.74,0,0,0,1.95-.68,2.29,2.29,0,0,0,.72-1.73A2.46,2.46,0,0,0,32,14.72a2.06,2.06,0,0,0-.92-.85,3.22,3.22,0,0,0-1.44-.31Z" transform="translate(0 -4.68)" style="fill:#f2f2f2;stroke:#020202;stroke-miterlimit:10;stroke-width:2px"/><path d="M64,29.37a12,12,0,0,1-8.46,2.95,12,12,0,0,1-8.46-2.95,10.19,10.19,0,0,1-3.2-7.85V6.4h8.71V21.56a3.06,3.06,0,0,0,.81,2.21,3.13,3.13,0,0,0,4.29,0,3.06,3.06,0,0,0,.81-2.21V6.4h8.71V21.52A10.16,10.16,0,0,1,64,29.37Z" transform="translate(0 -4.68)" style="fill:#f2f2f2;stroke:#020202;stroke-miterlimit:10;stroke-width:2px"/><path d="M79.42,24H87.8V31.6h-17V6.4h8.57Z" transform="translate(0 -4.68)" style="fill:#f2f2f2;stroke:#020202;stroke-miterlimit:10;stroke-width:2px"/><path d="M98.6,24.83h9.15V31.6H90.32V6.4h17.25v6.77h-9V15.9h8v6.2h-8Z" transform="translate(0 -4.68)" style="fill:#f2f2f2;stroke:#020202;stroke-miterlimit:10;stroke-width:2px"/><path d="M120.53,32.32q-5,0-7.76-2.3A7.87,7.87,0,0,1,110,23.61h8.82a1.75,1.75,0,0,0,.47,1.29,1.67,1.67,0,0,0,1.26.47A1.72,1.72,0,0,0,121.7,25a1.26,1.26,0,0,0,.45-1,1.39,1.39,0,0,0-.25-.81,2.23,2.23,0,0,0-.92-.63c-.45-.19-.81-.33-1.1-.42l-1.51-.41c-.7-.17-1.22-.3-1.57-.4s-.86-.26-1.53-.5a7.74,7.74,0,0,1-1.56-.72,11.55,11.55,0,0,1-1.3-1,4.84,4.84,0,0,1-1.13-1.35,7.88,7.88,0,0,1-.69-1.76,8.8,8.8,0,0,1-.29-2.31A7.14,7.14,0,0,1,113,7.8q2.64-2.12,7.4-2.12t7.29,2.18a7.42,7.42,0,0,1,2.61,6h-8.5c0-1-.47-1.51-1.4-1.51s-1.37.38-1.37,1.15a1.36,1.36,0,0,0,.88,1.26,17.38,17.38,0,0,0,2.94,1l1.89.52c.44.13,1,.35,1.81.65a7,7,0,0,1,1.84,1,12.44,12.44,0,0,1,1.4,1.35,5,5,0,0,1,1.07,1.92,9.13,9.13,0,0,1,.34,2.54,7.65,7.65,0,0,1-2.81,6.3C126.47,31.56,123.86,32.32,120.53,32.32Z" transform="translate(0 -4.68)" style="fill:#f2f2f2;stroke:#020202;stroke-miterlimit:10;stroke-width:2px"/><path d="M19.28,38.39h97.43a23.87,23.87,0,0,1,23.87,23.87v0a23.87,23.87,0,0,1-23.87,23.87H19.28a0,0,0,0,1,0,0V38.39A0,0,0,0,1,19.28,38.39Z" style="fill:#bc4d50"/><path d="M9,48.67H78.38A18.27,18.27,0,0,1,96.65,66.94h0A18.27,18.27,0,0,1,78.38,85.2H9Z" transform="translate(0 -4.68)" style="fill:#ffd2a1"/><path d="M78.38,90.81H5.6a5.61,5.61,0,0,1,0-11.21H78.38a12.67,12.67,0,1,0,0-25.33H5.6a5.6,5.6,0,1,1,0-11.2H78.38a23.87,23.87,0,0,1,0,47.74Z" transform="translate(0 -4.68)" style="fill:#e06955"/><path d="M5.6,43.07A5.61,5.61,0,0,0,.12,49.84a5.69,5.69,0,0,0,5.63,4.43H44.49A5.54,5.54,0,0,0,50,48.12V48a5.55,5.55,0,0,0-5.51-4.94Z" transform="translate(0 -4.68)" style="fill:#ec8757"/><path d="M59.35,50.39l0,.11a5.55,5.55,0,0,0,5.25,3.77H71.4A5.56,5.56,0,0,0,76.8,50l0-.12a5.53,5.53,0,0,0-5.4-6.8H64.61A5.55,5.55,0,0,0,59.35,50.39Z" transform="translate(0 -4.68)" style="fill:#ec8757"/><path d="M111.06,78.33l0,.07a4,4,0,0,0,3.74,2.69h4.81a4,4,0,0,0,3.84-3l0-.08a3.94,3.94,0,0,0-3.84-4.84H114.8A4,4,0,0,0,111.06,78.33Z" transform="translate(0 -4.68)" style="fill:#a34550"/><path d="M62.7,96,51.34,91.39a2.52,2.52,0,0,0-1.87,0L38.11,96a2.48,2.48,0,0,1-3.42-2.3V68.46A2.49,2.49,0,0,1,37.17,66H63.63a2.49,2.49,0,0,1,2.49,2.49V93.71A2.48,2.48,0,0,1,62.7,96Z" transform="translate(0 -4.68)" style="fill:#f1a043"/><path d="M63.64,66H37.17a2.48,2.48,0,0,0-2.48,2.48h0a2.48,2.48,0,0,0,2.48,2.49H63.64a2.48,2.48,0,0,0,2.48-2.49h0A2.48,2.48,0,0,0,63.64,66Z" transform="translate(0 -4.68)" style="fill:#e4813f"/></g></g></svg>