<svg xmlns="http://www.w3.org/2000/svg" viewBox="0 0 973.79 273.78"><title>table</title><g style="isolation:isolate"><g id="Layer_2" data-name="Layer 2"><g id="Layer_1-2" data-name="Layer 1"><line id="_Path_" data-name="&lt;Path&gt;" x1="868.15" y1="268.78" x2="895.97" y2="268.78" style="fill:none;stroke:#020202;stroke-linecap:round;stroke-linejoin:round;stroke-width:10px"/><line id="_Path_2" data-name="&lt;Path&gt;" x1="414.87" y1="268.78" x2="968.79" y2="268.78" style="fill:none;stroke:#020202;stroke-linecap:round;stroke-linejoin:round;stroke-width:10px"/><line id="_Path_3" data-name="&lt;Path&gt;" x1="376.48" y1="268.78" x2="397.81" y2="268.78" style="fill:none;stroke:#020202;stroke-linecap:round;stroke-linejoin:round;stroke-width:10px"/><line id="_Path_4" data-name="&lt;Path&gt;" x1="5" y1="268.78" x2="357.38" y2="268.78" style="fill:none;stroke:#020202;stroke-linecap:round;stroke-linejoin:round;stroke-width:10px"/><rect id="_Rectangle_" data-name="&lt;Rectangle&gt;" x="755.76" y="242.03" width="40.06" height="26.71" style="fill:none;stroke:#020202;stroke-linecap:round;stroke-linejoin:round;stroke-width:10px"/><rect id="_Rectangle_2" data-name="&lt;Rectangle&gt;" x="755.76" y="242.03" width="40.06" height="26.71" style="fill:#1d2f3d;stroke:#020202;stroke-miterlimit:10"/><rect id="_Rectangle_3" data-name="&lt;Rectangle&gt;" x="190.46" y="242.03" width="40.06" height="26.71" style="fill:none;stroke:#020202;stroke-linecap:round;stroke-linejoin:round;stroke-width:10px"/><rect id="_Rectangle_4" data-name="&lt;Rectangle&gt;" x="190.46" y="242.03" width="40.06" height="26.71" style="fill:#1d2f3d;stroke:#020202;stroke-miterlimit:10"/><rect id="_Rectangle_5" data-name="&lt;Rectangle&gt;" x="143.63" y="210.87" width="699.02" height="31.16" style="fill:#e7e0d0;stroke:#020202;stroke-miterlimit:10"/><rect id="_Rectangle_6" data-name="&lt;Rectangle&gt;" x="143.63" y="210.87" width="699.02" height="31.16" style="fill:none;stroke:#020202;stroke-linecap:round;stroke-linejoin:round;stroke-width:10px"/><rect id="_Rectangle_7" data-name="&lt;Rectangle&gt;" x="143.63" y="48.4" width="699.02" height="20.03" style="fill:#e7e0d0;stroke:#020202;stroke-miterlimit:10"/><rect id="_Rectangle_8" data-name="&lt;Rectangle&gt;" x="143.63" y="48.4" width="699.02" height="20.03" style="fill:none;stroke:#020202;stroke-linecap:round;stroke-linejoin:round;stroke-width:10px"/><rect id="_Rectangle_9" data-name="&lt;Rectangle&gt;" x="493.14" y="68.43" width="333.84" height="142.44" style="fill:#e7e0d0;stroke:#020202;stroke-miterlimit:10"/><rect id="_Rectangle_10" data-name="&lt;Rectangle&gt;" x="493.14" y="68.43" width="333.84" height="142.44" style="fill:none;stroke:#020202;stroke-linecap:round;stroke-linejoin:round;stroke-width:10px"/><polygon id="_Path_5" data-name="&lt;Path&gt;" points="826.98 68.43 525.16 68.43 493.14 68.43 493.14 97.24 493.14 210.87 525.16 210.87 525.16 97.24 826.98 97.24 826.98 68.43" style="fill:#1d2f3d;stroke:#020202;stroke-miterlimit:10;opacity:0.23"/><rect id="_Rectangle_11" data-name="&lt;Rectangle&gt;" x="159.3" y="68.43" width="333.84" height="71.22" style="fill:#fe615a;stroke:#020202;stroke-miterlimit:10"/><rect id="_Rectangle_12" data-name="&lt;Rectangle&gt;" x="159.3" y="68.43" width="333.84" height="71.22" style="fill:#ef4d4d;stroke:#020202;stroke-miterlimit:10"/><rect id="_Rectangle_13" data-name="&lt;Rectangle&gt;" x="159.3" y="128.93" width="333.84" height="10.71" style="fill:#1d2f3d;stroke:#020202;stroke-miterlimit:10;opacity:0.23"/><rect id="_Rectangle_14" data-name="&lt;Rectangle&gt;" x="159.3" y="68.43" width="333.84" height="24.15" style="fill:#1d2f3d;stroke:#020202;stroke-miterlimit:10;opacity:0.23"/><rect id="_Rectangle_15" data-name="&lt;Rectangle&gt;" x="159.3" y="68.43" width="333.84" height="71.22" style="fill:none;stroke:#020202;stroke-linecap:round;stroke-linejoin:round;stroke-width:10px"/><rect id="_Rectangle_16" data-name="&lt;Rectangle&gt;" x="159.3" y="139.65" width="333.84" height="71.22" style="fill:#ef4d4d;stroke:#020202;stroke-miterlimit:10"/><rect id="_Rectangle_17" data-name="&lt;Rectangle&gt;" x="159.3" y="200.77" width="333.84" height="10.71" style="fill:#1d2f3d;stroke:#020202;stroke-miterlimit:10;opacity:0.23"/><rect id="_Rectangle_18" data-name="&lt;Rectangle&gt;" x="159.3" y="139.78" width="333.84" height="10.71" style="fill:#1d2f3d;stroke:#020202;stroke-miterlimit:10;mix-blend-mode:screen"/><rect id="_Rectangle_19" data-name="&lt;Rectangle&gt;" x="159.3" y="139.65" width="333.84" height="71.22" style="fill:none;stroke:#020202;stroke-linecap:round;stroke-linejoin:round;stroke-width:10px"/><rect id="_Rectangle_20" data-name="&lt;Rectangle&gt;" x="159.3" y="68.43" width="15.58" height="142.44" style="fill:#e7e0d0;stroke:#020202;stroke-miterlimit:10"/><rect id="_Rectangle_21" data-name="&lt;Rectangle&gt;" x="159.3" y="68.43" width="15.58" height="142.44" style="fill:none;stroke:#020202;stroke-linecap:round;stroke-linejoin:round;stroke-width:10px"/><rect id="_Rectangle_22" data-name="&lt;Rectangle&gt;" x="485.35" y="68.43" width="15.58" height="142.44" style="fill:#e7e0d0;stroke:#020202;stroke-miterlimit:10"/><rect id="_Rectangle_23" data-name="&lt;Rectangle&gt;" x="485.35" y="68.43" width="15.58" height="142.44" style="fill:none;stroke:#020202;stroke-linecap:round;stroke-linejoin:round;stroke-width:10px"/><rect id="_Rectangle_24" data-name="&lt;Rectangle&gt;" x="814.27" y="68.43" width="15.58" height="142.44" style="fill:none;stroke:#020202;stroke-linecap:round;stroke-linejoin:round;stroke-width:10px"/><rect id="_Rectangle_25" data-name="&lt;Rectangle&gt;" x="615.41" y="5" width="180.41" height="43.4" style="fill:#938f8f;stroke:#020202;stroke-miterlimit:10"/><rect id="_Rectangle_26" data-name="&lt;Rectangle&gt;" x="615.41" y="39.17" width="180.41" height="9.23" style="fill:#938f8f;stroke:#020202;stroke-miterlimit:10;opacity:0.5700000000000001;mix-blend-mode:multiply"/><rect id="_Rectangle_27" data-name="&lt;Rectangle&gt;" x="615.41" y="5" width="180.41" height="9.32" style="fill:#aaa;stroke:#020202;stroke-miterlimit:10;opacity:0.55;mix-blend-mode:screen"/><rect id="_Rectangle_28" data-name="&lt;Rectangle&gt;" x="615.41" y="5" width="180.41" height="43.4" style="fill:none;stroke:#020202;stroke-linecap:round;stroke-linejoin:round;stroke-width:10px"/><line id="_Path_6" data-name="&lt;Path&gt;" x1="690.03" y1="22.25" x2="761.53" y2="22.25" style="fill:none;stroke:#020202;stroke-linecap:round;stroke-linejoin:round;stroke-width:4px"/><line id="_Path_7" data-name="&lt;Path&gt;" x1="690.03" y1="31.15" x2="725.78" y2="31.15" style="fill:none;stroke:#020202;stroke-linecap:round;stroke-linejoin:round;stroke-width:4px"/><circle id="_Path_8" data-name="&lt;Path&gt;" cx="650.19" cy="26.7" r="7.79" style="fill:#e7e0d0;stroke:#020202;stroke-miterlimit:10"/><circle id="_Path_9" data-name="&lt;Path&gt;" cx="650.19" cy="26.7" r="7.79" style="fill:none;stroke:#020202;stroke-linecap:round;stroke-linejoin:round;stroke-width:4px"/><circle id="_Path_10" data-name="&lt;Path&gt;" cx="570.23" cy="125.06" r="14.72" style="fill:#61ba4f;stroke:#020202;stroke-miterlimit:10"/><circle id="_Path_11" data-name="&lt;Path&gt;" cx="570.23" cy="125.06" r="14.72" style="fill:none;stroke:#020202;stroke-linecap:round;stroke-linejoin:round;stroke-width:10px"/><path id="_Path_12" data-name="&lt;Path&gt;" d="M557.78,101.93c-3.77-6.26-11-6.26-14.81,0-4.92,8.2-8,19.83-8,32.73,0,18.52,6.35,34.42,15.41,41.31,9-6.89,15.4-22.79,15.4-41.31C565.78,121.76,562.7,110.13,557.78,101.93Z" style="fill:#61ba4f;stroke:#020202;stroke-miterlimit:10"/><path id="_Path_13" data-name="&lt;Path&gt;" d="M557.78,101.93c-3.77-6.26-11-6.26-14.81,0-4.92,8.2-8,19.83-8,32.73,0,18.52,6.35,34.42,15.41,41.31,9-6.89,15.4-22.79,15.4-41.31C565.78,121.76,562.7,110.13,557.78,101.93Z" style="fill:none;stroke:#020202;stroke-linecap:round;stroke-linejoin:round;stroke-width:10px"/><polygon id="_Path_14" data-name="&lt;Path&gt;" points="569.72 210.87 531.03 210.87 525.16 162.76 575.59 162.76 569.72 210.87" style="fill:#ffea87;stroke:#020202;stroke-miterlimit:10"/><polygon id="_Path_15" data-name="&lt;Path&gt;" points="525.16 162.76 531.03 210.87 550.89 210.87 548.78 162.76 525.16 162.76" style="fill:#3d3d3d;stroke:#020202;stroke-miterlimit:10;opacity:0.26;mix-blend-mode:multiply"/><polygon id="_Path_16" data-name="&lt;Path&gt;" points="569.72 210.87 531.03 210.87 525.16 162.76 575.59 162.76 569.72 210.87" style="fill:none;stroke:#020202;stroke-linecap:round;stroke-linejoin:round;stroke-width:10px"/><rect id="_Rectangle_29" data-name="&lt;Rectangle&gt;" x="792.01" y="96.29" width="22.26" height="114.58" style="fill:#ff6259;stroke:#020202;stroke-miterlimit:10"/><rect id="_Rectangle_30" data-name="&lt;Rectangle&gt;" x="792.01" y="96.29" width="22.26" height="114.58" style="fill:none;stroke:#020202;stroke-linecap:round;stroke-linejoin:round;stroke-width:10px"/><rect id="_Rectangle_31" data-name="&lt;Rectangle&gt;" x="766.42" y="104.04" width="25.59" height="106.83" style="fill:#f7b363;stroke:#020202;stroke-miterlimit:10"/><rect id="_Rectangle_32" data-name="&lt;Rectangle&gt;" x="766.42" y="104.04" width="25.59" height="106.83" style="fill:none;stroke:#020202;stroke-linecap:round;stroke-linejoin:round;stroke-width:10px"/><rect id="_Rectangle_33" data-name="&lt;Rectangle&gt;" x="725.64" y="106.84" width="19.29" height="101.22" transform="translate(139.32 -301.09) rotate(25.49)" style="fill:#0ac4dd;stroke:#020202;stroke-miterlimit:10"/><rect id="_Rectangle_34" data-name="&lt;Rectangle&gt;" x="725.64" y="106.84" width="19.29" height="101.22" transform="translate(139.32 -301.09) rotate(25.49)" style="fill:none;stroke:#020202;stroke-linecap:round;stroke-linejoin:round;stroke-width:10px"/><rect id="_Rectangle_35" data-name="&lt;Rectangle&gt;" x="590.11" y="190.66" width="99.86" height="20.2" style="fill:#f7b363;stroke:#020202;stroke-miterlimit:10"/><rect id="_Rectangle_36" data-name="&lt;Rectangle&gt;" x="590.11" y="190.66" width="99.86" height="20.2" style="fill:none;stroke:#020202;stroke-linecap:round;stroke-linejoin:round;stroke-width:10px"/><rect id="_Rectangle_37" data-name="&lt;Rectangle&gt;" x="602.12" y="170.85" width="94.86" height="20.2" style="fill:#8bb572;stroke:#020202;stroke-miterlimit:10"/><rect id="_Rectangle_38" data-name="&lt;Rectangle&gt;" x="602.12" y="169.74" width="94.86" height="20.2" style="fill:none;stroke:#020202;stroke-linecap:round;stroke-linejoin:round;stroke-width:10px"/><rect id="_Rectangle_39" data-name="&lt;Rectangle&gt;" x="27.21" y="100.57" width="90.13" height="160.76" style="fill:#976b50;stroke:#020202;stroke-miterlimit:10"/><rect id="_Rectangle_40" data-name="&lt;Rectangle&gt;" x="27.21" y="100.57" width="90.13" height="160.76" style="fill:#976b50;stroke:#020202;stroke-miterlimit:10"/><rect id="_Rectangle_41" data-name="&lt;Rectangle&gt;" x="27.21" y="248.56" width="90.13" height="12.77" style="fill:#976b50;stroke:#020202;stroke-miterlimit:10;opacity:0.41000000000000003;mix-blend-mode:multiply"/><rect id="_Rectangle_42" data-name="&lt;Rectangle&gt;" x="27.21" y="100.57" width="90.13" height="160.76" style="fill:none;stroke:#020202;stroke-linecap:round;stroke-linejoin:round;stroke-width:10px"/><circle id="_Path_17" data-name="&lt;Path&gt;" cx="71.18" cy="218.59" r="16.47" style="fill:#e7e0d0;stroke:#020202;stroke-miterlimit:10"/><circle id="_Path_18" data-name="&lt;Path&gt;" cx="71.18" cy="218.59" r="5.44" style="fill:#1d2f3d;stroke:#020202;stroke-miterlimit:10"/><circle id="_Path_19" data-name="&lt;Path&gt;" cx="71.18" cy="218.59" r="16.47" style="fill:none;stroke:#020202;stroke-linecap:round;stroke-linejoin:round;stroke-width:8px"/><rect id="_Rectangle_43" data-name="&lt;Rectangle&gt;" x="814.27" y="68.43" width="15.58" height="142.44" style="fill:#e7e0d0;stroke:#020202;stroke-miterlimit:10"/><rect id="_Rectangle_44" data-name="&lt;Rectangle&gt;" x="814.27" y="68.43" width="15.58" height="142.44" style="fill:none;stroke:#020202;stroke-linecap:round;stroke-linejoin:round;stroke-width:10px"/><circle id="_Path_20" data-name="&lt;Path&gt;" cx="326.22" cy="103.8" r="15.86" style="fill:#e7e0d0;stroke:#020202;stroke-miterlimit:10"/><circle id="_Path_21" data-name="&lt;Path&gt;" cx="326.22" cy="103.8" r="15.86" style="fill:none;stroke:#020202;stroke-linecap:round;stroke-linejoin:round;stroke-width:10px"/><circle id="_Path_22" data-name="&lt;Path&gt;" cx="326.22" cy="175.26" r="15.86" style="fill:#e7e0d0;stroke:#020202;stroke-miterlimit:10"/><circle id="_Path_23" data-name="&lt;Path&gt;" cx="326.22" cy="175.26" r="15.86" style="fill:none;stroke:#020202;stroke-linecap:round;stroke-linejoin:round;stroke-width:10px"/><line id="_Path_24" data-name="&lt;Path&gt;" x1="792.01" y1="127.82" x2="814.27" y2="127.82" style="fill:none;stroke:#020202;stroke-linecap:round;stroke-linejoin:round;stroke-width:10px"/><line id="_Path_25" data-name="&lt;Path&gt;" x1="766.42" y1="139.65" x2="792.01" y2="139.65" style="fill:none;stroke:#020202;stroke-linecap:round;stroke-linejoin:round;stroke-width:10px"/><line id="_Path_26" data-name="&lt;Path&gt;" x1="736.76" y1="131.95" x2="754.17" y2="140.25" style="fill:none;stroke:#020202;stroke-linecap:round;stroke-linejoin:round;stroke-width:10px"/><line id="_Path_27" data-name="&lt;Path&gt;" x1="622.29" y1="169.74" x2="622.29" y2="189.94" style="fill:none;stroke:#020202;stroke-linecap:round;stroke-linejoin:round;stroke-width:10px"/><line id="_Path_28" data-name="&lt;Path&gt;" x1="660.06" y1="191.05" x2="660.06" y2="210.87" style="fill:none;stroke:#020202;stroke-linecap:round;stroke-linejoin:round;stroke-width:10px"/><rect id="_Rectangle_45" data-name="&lt;Rectangle&gt;" x="866.28" y="99.46" width="90.13" height="160.76" style="fill:#976b50;stroke:#020202;stroke-miterlimit:10"/><rect id="_Rectangle_46" data-name="&lt;Rectangle&gt;" x="866.28" y="99.46" width="90.13" height="160.76" style="fill:#976b50;stroke:#020202;stroke-miterlimit:10"/><rect id="_Rectangle_47" data-name="&lt;Rectangle&gt;" x="866.28" y="247.45" width="90.13" height="12.77" style="fill:#976b50;stroke:#020202;stroke-miterlimit:10;opacity:0.41000000000000003;mix-blend-mode:multiply"/><rect id="_Rectangle_48" data-name="&lt;Rectangle&gt;" x="866.28" y="99.46" width="90.13" height="160.76" style="fill:none;stroke:#020202;stroke-linecap:round;stroke-linejoin:round;stroke-width:10px"/><circle id="_Path_29" data-name="&lt;Path&gt;" cx="910.26" cy="217.47" r="16.47" style="fill:#e7e0d0;stroke:#020202;stroke-miterlimit:10"/><circle id="_Path_30" data-name="&lt;Path&gt;" cx="910.26" cy="217.47" r="5.44" style="fill:#1d2f3d;stroke:#020202;stroke-miterlimit:10"/><circle id="_Path_31" data-name="&lt;Path&gt;" cx="910.26" cy="217.47" r="16.47" style="fill:none;stroke:#020202;stroke-linecap:round;stroke-linejoin:round;stroke-width:8px"/></g></g></g></svg>