<svg xmlns="http://www.w3.org/2000/svg" xmlns:xlink="http://www.w3.org/1999/xlink" viewBox="0 0 344 264"><defs><radialGradient id="radial-gradient" cx="172" cy="132" r="423.69" gradientUnits="userSpaceOnUse"><stop offset="0" stop-color="#004f6f"/><stop offset="0.06" stop-color="#004767"/><stop offset="0.33" stop-color="#002944"/><stop offset="0.58" stop-color="#00122b"/><stop offset="0.81" stop-color="#00051c"/><stop offset="1" stop-color="#000017"/></radialGradient><radialGradient id="radial-gradient-2" cx="165.68" cy="132" r="125" gradientUnits="userSpaceOnUse"><stop offset="0" stop-color="#fff"/><stop offset="0.04" stop-color="#fbfbfb" stop-opacity="0.87"/><stop offset="0.1" stop-color="#f5f5f6" stop-opacity="0.69"/><stop offset="0.17" stop-color="#f0f0f1" stop-opacity="0.52"/><stop offset="0.24" stop-color="#ebebed" stop-opacity="0.38"/><stop offset="0.31" stop-color="#e7e7ea" stop-opacity="0.26"/><stop offset="0.39" stop-color="#e4e4e7" stop-opacity="0.17"/><stop offset="0.49" stop-color="#e2e2e5" stop-opacity="0.09"/><stop offset="0.59" stop-color="#e0e0e3" stop-opacity="0.04"/><stop offset="0.73" stop-color="#dfdfe2" stop-opacity="0.01"/><stop offset="1" stop-color="#dfdfe2" stop-opacity="0"/></radialGradient><radialGradient id="radial-gradient-3" cx="167.99" cy="136.09" r="222.1" xlink:href="#radial-gradient-2"/><radialGradient id="radial-gradient-4" cx="174.09" cy="134.06" r="215.2" xlink:href="#radial-gradient-2"/><radialGradient id="radial-gradient-5" cx="202.1" cy="134.56" r="178.81" xlink:href="#radial-gradient-2"/><radialGradient id="radial-gradient-6" cx="167.83" cy="139.66" r="222.49" xlink:href="#radial-gradient-2"/><radialGradient id="radial-gradient-7" cx="191.53" cy="134.52" r="192.72" xlink:href="#radial-gradient-2"/><radialGradient id="radial-gradient-8" cx="171.38" cy="134.55" r="218.57" xlink:href="#radial-gradient-2"/><radialGradient id="radial-gradient-9" cx="166.8" cy="134.55" r="225.67" xlink:href="#radial-gradient-2"/><radialGradient id="radial-gradient-10" cx="187.3" cy="134.55" r="245.94" xlink:href="#radial-gradient-2"/><radialGradient id="radial-gradient-11" cx="160.03" cy="134.55" r="198.84" xlink:href="#radial-gradient-2"/><radialGradient id="radial-gradient-12" cx="166.19" cy="134.04" r="211.81" xlink:href="#radial-gradient-2"/><radialGradient id="radial-gradient-13" cx="174.57" cy="137.42" r="221.93" xlink:href="#radial-gradient-2"/><radialGradient id="radial-gradient-14" cx="155" cy="134.51" r="196.63" xlink:href="#radial-gradient-2"/><radialGradient id="radial-gradient-15" cx="174.8" cy="141.14" r="222.38" xlink:href="#radial-gradient-2"/><radialGradient id="radial-gradient-16" cx="161.88" cy="134.51" r="205.97" xlink:href="#radial-gradient-2"/><radialGradient id="radial-gradient-17" cx="171.3" cy="138.02" r="168.79" gradientUnits="userSpaceOnUse"><stop offset="0" stop-color="#fff"/><stop offset="0.03" stop-color="#fff" stop-opacity="0.95"/><stop offset="0.19" stop-color="#fff" stop-opacity="0.7"/><stop offset="0.34" stop-color="#fff" stop-opacity="0.49"/><stop offset="0.5" stop-color="#fff" stop-opacity="0.31"/><stop offset="0.64" stop-color="#fff" stop-opacity="0.18"/><stop offset="0.78" stop-color="#fff" stop-opacity="0.08"/><stop offset="0.9" stop-color="#fff" stop-opacity="0.02"/><stop offset="1" stop-color="#fff" stop-opacity="0"/></radialGradient><radialGradient id="radial-gradient-18" cx="171.3" cy="138.02" r="168.78" xlink:href="#radial-gradient-17"/><radialGradient id="radial-gradient-19" cx="171.3" cy="138.02" r="168.79" xlink:href="#radial-gradient-17"/><radialGradient id="radial-gradient-20" cx="171.3" cy="138.02" r="168.79" xlink:href="#radial-gradient-17"/><radialGradient id="radial-gradient-21" cx="171.3" cy="138.02" r="168.78" xlink:href="#radial-gradient-17"/><radialGradient id="radial-gradient-22" cx="171.3" cy="138.02" r="168.78" xlink:href="#radial-gradient-17"/><radialGradient id="radial-gradient-23" cx="171.3" cy="138.02" r="168.78" xlink:href="#radial-gradient-17"/><radialGradient id="radial-gradient-24" cx="171.3" cy="138.02" r="168.78" xlink:href="#radial-gradient-17"/><radialGradient id="radial-gradient-25" cx="171.3" cy="138.02" r="168.78" xlink:href="#radial-gradient-17"/><radialGradient id="radial-gradient-26" cx="171.3" cy="138.02" r="168.78" xlink:href="#radial-gradient-17"/><radialGradient id="radial-gradient-27" cx="171.3" cy="138.02" r="168.78" xlink:href="#radial-gradient-17"/><radialGradient id="radial-gradient-28" cx="171.3" cy="138.02" r="168.78" xlink:href="#radial-gradient-17"/><radialGradient id="radial-gradient-29" cx="171.3" cy="138.02" r="168.79" xlink:href="#radial-gradient-17"/><radialGradient id="radial-gradient-30" cx="171.3" cy="138.02" r="168.79" xlink:href="#radial-gradient-17"/></defs><title>BlindTEst</title><g style="isolation:isolate"><g id="Background"><rect x="-203" y="-118" width="750" height="500" style="fill:url(#radial-gradient)"/></g><g id="Objects"><circle cx="165.68" cy="132" r="125" style="mix-blend-mode:color-dodge;fill:url(#radial-gradient-2)"/><g style="mix-blend-mode:color-dodge"><path d="M335.55,136.1Z" style="fill:url(#radial-gradient-3)"/><path d="M334.46,134.07c-.16,0-.28,1.67-.32,4.1q-.69-5.32-1.23.16c-.32-.52-1-15.93-1.2-1q-.7-16.62-1.14-.39c-.38-2.62-.51,1.06-.71,1.54q-.41-7.17-.82-.75-.36-2.57-1.26-1.05c-.47-1.54-.69-.81-.64,2.2.05,1.58-.64-9.43-1.22-2.33-.31-.59-1.33-1.23-1.74-.24-.06-2-.31-2.56-.75-1.52-.81-6.54-1,.09-1.78,1.15q-.42-10.53-1.61-3.71c-.66-.47-.93.14-.8,1.82-.39-2.64-1.58-8.78-2.1.3q-.52-11.39-1.19-2.4-.37-.47-.57.33c-.24-1.68-.62-2-1.16-1q-.47-6.12-.94-.64c-.9-15.89-1.14-2.5-2,1.44-.78-24.55-1.56-13.13-2.29-6.29q-1.74-1.25-.53,4.18c-1.32-34.26-4.64,33.41-.65,33.38l.9-13.26q-.81,4.42.59,3.31c1.12,7.93,1.92,23.33,2.16-4.77.89,3.46,1.3,12.66,1.92,1.5q.7,9.06,1.14-.64c.33.53.6.42.81-.34,0,1.34.3,1.76.81,1.27q.9,9.57,1.17-2.94c.71,8.66,2,1.75,2.24-.72.9,3.76,1.87,11.09,2.24-1.9.76.91,1,5.25,1.62,1.28.49,2.13.81,1.61.94-1.58.22.43,1.39,1,1.67.48.77,7.78,1.2-5.4,1.18-2.94q-.36,3.65.55,2.41c.6,1.39,1,1.15,1.37-.72q.52,6.36.81-.64c.26.62.44,2.54.7.7q.78,19.18,1.18,0c.54,13.18.75,0,1.17-.64.39,3.6.8,3.73,1.21.4C334.62,159.24,335.51,134.05,334.46,134.07Z" style="fill:url(#radial-gradient-4)"/><path d="M339.81,137.51c-.15,0-.26.83-.31,2q-.66-2.72-1.14.27-.51-6.69-1.07-.68c-.63-16-.14,20.78,0,3.22q.65,5.39,1-.61c.32,2.06.71,2.22,1.15.49C339.85,149.92,340.76,137.5,339.81,137.51Z" style="fill:url(#radial-gradient-5)"/><path d="M343.23,139.67Z" style="fill:url(#radial-gradient-6)"/><path d="M342.79,139.12c-.07,0-.12.45-.14,1.11q-.3-1.5-.51.15-.22-3.69-.47-.38-.21-4.25-.45-.62c-.9-4.52-.78,7.88,0,3.34.23,2.53.37,2.21.44-.94q.3,3,.46-.34.21,1.71.51.27C342.82,146,343.21,139.11,342.79,139.12Z" style="fill:url(#radial-gradient-7)"/><path d="M290.5,119c-.73,0-1.33,4.77-1.57,11.71-.37-.19-.52.13-.47,1A110.58,110.58,0,0,0,287,110.53a81.47,81.47,0,0,0-1,17q-2.35-22.61-3.9,1.61c2.86,15.05-.83-24-2.14-24,.15,0-8.54,26.66-1.66,15.95a180,180,0,0,0-2.08-32.06,239.76,239.76,0,0,0-1.47,39.2q-1.38-16-2.36.46c-.42-8.18-.52-25.55-2.09-3-1-13.29-2.45-5.73-2.72,2.52a97.57,97.57,0,0,0-1.54-21.39A71.42,71.42,0,0,0,265,124a148.64,148.64,0,0,0-1.53-25.13,121.77,121.77,0,0,0-1,21.77q-2.43-7.26-2.1,7.66c.19,10.12-1.08-36.67-2.29-16.2q-.82-7.64-1.66-15.26a91.69,91.69,0,0,0-1.53,27.39,97.31,97.31,0,0,0-2-23.8,133.24,133.24,0,0,0-1.57,29.74q-2-25.18-4-2.22c0,1.21-1.3-33.89-2.12-8q-2.55-5-.71,10.54-2.12-23-3.38,2-.06-1.17-.36-.54a54.59,54.59,0,0,0-1.8-17c2.69,0-12,24-1.53,16.19-1.31-25.16-1.5-3.4-3.5.35q-.36-17.82-1.86-6.29-1.4-1.38-1,3.06c-.38-3.94-1.73-15.66-2.48.47q-.5-19.24-1.39-4.07c-.22-.43-.41-.37-.56.18-.73-10.5-.68-4.23-1.47-1.31q-.48-10.34-1.11-1.09L223,110.32a76.09,76.09,0,0,1-1.29,14.48,131.45,131.45,0,0,0-1.22-22.7A113.32,113.32,0,0,1,219,114.16q-2.47-2.59-.67,7a102.45,102.45,0,0,0-1.15-19.1c-.2,0-2.43,30-2.81,32.14a94.57,94.57,0,0,0-1.35-21.66q-.6,7.07-1.22,14.15-2.4-19.1-4.26,1.88a86.16,86.16,0,0,0-2-24.73,63.44,63.44,0,0,0-1.92,19.82,131.44,131.44,0,0,0-1.94-29.06c-2.35,0-2,61.71-2,43,6.87,16-2.76-35.26-2.37-35.26a63.85,63.85,0,0,0-2,19.74c-.53-.38-.72.16-.56,1.61A264.28,264.28,0,0,0,193.31,88,192.8,192.8,0,0,0,192,116.75a50.66,50.66,0,0,0-2.27-18.43,60.83,60.83,0,0,0-2.37,21.09c.57,4.51-.08-40.54-2.24-40.54.33,0-11.2,46.58-2.16,26.91,0,2.81-.1-54.16-2.08-54.16-2.24,0-2.2,69.15-2.19,66.15l-1.38-13.31-1.41,14q-.72-12.18-1.42-24.37c-.87,0-1,18.19-1,19.21a90.94,90.94,0,0,0-1.63-14.45,126.82,126.82,0,0,0-1.62,18.67,234.6,234.6,0,0,0-1.56-36.15,170.87,170.87,0,0,0-1.5,29,356,356,0,0,0-1.51-42.46,289,289,0,0,0-1.45,36.75c-1.8-13.68-2.86,22-2.58,12.9.11,17.32-.85-61.92-2.52-27.4a114.69,114.69,0,0,0-1.78-25.79c-2.4,0-2.19,53.33-2.13,46.21A232.86,232.86,0,0,0,153,70.37c-2.32,0-2.22,52.25-2.2,50.19a65.76,65.76,0,0,0-2.41-22.24,50.66,50.66,0,0,0-2.27,18.43A194.15,194.15,0,0,0,144.82,88c-1.65,0-1.5,47.82-1.49,46.05-.51-.46-.6.21-.26,2a135,135,0,0,0-2.24-33.72,135.49,135.49,0,0,0-2.24,33.9c1.43,15.56-.49-41.63-2.17-41.63a130.83,130.83,0,0,0-1.94,29.06,63.44,63.44,0,0,0-1.92-19.82,86.16,86.16,0,0,0-2,24.73q-1.86-21-4.26-1.88l-1.23-14.15a76.28,76.28,0,0,0-1.31,18.3c-.13-.19-.28-.21-.42,0-.14-3-2.17-28.73-2.42-28.73a103.32,103.32,0,0,0-1.16,19.1q1.81-9.65-.67-7a116,116,0,0,1-1.41-12.06,90.17,90.17,0,0,0-1.12,17.53c0-.9-.12-1.19-.43-.88q-1.26-18.68-2.07,3.66-.63-9.24-1.11,1.09-1-2.62-1.36,1.67c-.14-.89-.36-1.07-.67-.54-.7-17.47-.86,2.9-1.41,3.66-.68-13.68-.63-7-1.89-3.53q-.52-8.26-2-3.1c-.74-1.91-1.09-.85-1.07,3.19-1.43-24.11-2.72-.9-3.32,7.17q-.94-6.51-1.88-13-.78,5.85-1.57,11.71c-.36-.19-.52.13-.47,1,0,1.9-1.48-41.79-2.28-10.33q-.37-3.54-.6.86-2.79-14.46-3.41,7c2.86,15.05-.83-24-2.14-24,.15,0-8.55,26.66-1.66,15.95a180,180,0,0,0-2.08-32.06,238.64,238.64,0,0,0-1.46,39.2q-1.39-16-2.37.46c-.42-8.18-.51-25.55-2.09-3-1-13.29-2.45-5.73-2.72,2.52A97.57,97.57,0,0,0,75,106.82,71.42,71.42,0,0,0,73.88,124a148.64,148.64,0,0,0-1.53-25.13,120.84,120.84,0,0,0-1,21.77q-2.45-7.26-2.11,7.66c.19,10.12-1.08-36.67-2.29-16.2L65.29,96.82a91.36,91.36,0,0,0-1.54,27.39,97.31,97.31,0,0,0-2-23.8,133.24,133.24,0,0,0-1.57,29.74q-2-25.18-4-2.22a81.31,81.31,0,0,0-1.3-17c-1.92,0-1.33,60.35.59,60.33a106.7,106.7,0,0,0,1-20.61q2.64,21.91,3.89-4.22a113.7,113.7,0,0,0,2.08,26.51A84.06,84.06,0,0,0,64,151.45,72,72,0,0,0,66.09,179a66.59,66.59,0,0,0,1.56-22.1c1.61,12.72,1.74-32.24,1.67-16.92q-.24,15.8,2.26,8.45a137,137,0,0,0,1.49,23.79,178,178,0,0,0,1-28.65c1.13,34.19,2.4,4.56,2.54-2.87.58,10.82,2,16.36,2.77,2.19q.5,7.41,1,14.83.15-7.84.86-15.64c.83,5,1.82,17.24,2.53,2.13a130.35,130.35,0,0,0,2.23,35,76.29,76.29,0,0,0,1.58-28,84.27,84.27,0,0,0,1.94,21.45c1.83,0,1.58-22.22,1.65-25q.06,20,3.17,9.93.54,8.2.88-1.79.63,7.54,1.25,15.09c1.32,0,1.17-27.11,1.21-28a53.45,53.45,0,0,0,2.07,19q.81-6.33,1.61-12.66c-.19,1.33,0,1.84.47,1.54q1.22,24.93,2.89,5.34.89,4.95,1.29-1.94c.41,1.74.83,1.82,1.27.22.65,3.87,1.59,8.29,2.19-3.49q.45,21.12,1.42,4.94c.69.89,1,.17.94-2.15.22,1.27.54,1.46,1,.59.64,1.69.71,19.3,1.37,1q.6,15.54,1.75,3.6a111.58,111.58,0,0,1,1.74,18.62,116,116,0,0,1,1.27-15.92c.33,2.32.63,2.26.88-.16q.54,8,1.09,16.08c.8,0,2.35-28.67,1.54-24.6q.85,4.81.91-3.45c.13.34.3.41.51.23q.6,6.53,1.19,13,.61-7,1.22-13.92c-.2,2.74.11,3.65.91,2.72.79,3.12,1.58,3.1,2.35-.07q2.49,3,1.09-6.62c-7.82-9.27,3.23,19.34,1.93,19.34a54.82,54.82,0,0,0,1.86-17.88,157.8,157.8,0,0,0,2,33.09c1.51,0,3.39-45.24,2.21-33.63a109.44,109.44,0,0,0,2.2,29,119.44,119.44,0,0,0,2.22-30.8c0,1.23.24,45.88,1.77,45.88a257.31,257.31,0,0,0,1.42-34.79,44.12,44.12,0,0,0,2.19,16.77A72.57,72.57,0,0,0,150.88,148c0-2,0,44.79,2.16,44.79a200.44,200.44,0,0,0,2.05-36.24c-.06-10.46-.6,46.59,2.19,46.59,2.25,0,2.15-42.15,2.1-37.29,1.76,21.45,2.43-54.81,2.17-28.54-.29-10.95.7,27.86,2.57,14.31a330.63,330.63,0,0,0,1.49,40.19c1.6,0,1.56-50.51,1.55-48.35a147,147,0,0,0,1.46,26.11c1.56,0,1.49-27.12,1.57-30.91q.34,10.65,1.61,21.24,1.17-8.72,1.64-17.51a187.1,187.1,0,0,0,1,25.06c1,0,1.13-24.16,1.32-28.71a64,64,0,0,0,1.51,17.85l1.33-11.9c0-1-.61,59.16,2.24,59.16s2.25-57.4,2.19-47.3a200.44,200.44,0,0,0,2.05,36.24c2.16,0,2.18-46.8,2.16-44.79a72.3,72.3,0,0,0,2.45,23.83,44.32,44.32,0,0,0,2.19-16.77,255.69,255.69,0,0,0,1.42,34.79c1.85,0,1.51-44.87,1.49-54.67,1.37,8.79-1.07,39.59,2.5,39.59a99.78,99.78,0,0,0,2.17-27.17c.09.16.18.16.26,0a149.34,149.34,0,0,0,2,31.77,126.48,126.48,0,0,0,1.93-28.31q.75,6.59,1.93,13.1a155.14,155.14,0,0,1,2.18-18c8.5,15.91-3.35,3.88,4-.1a66.82,66.82,0,0,0,1.28,16.65q.63-7.26,1.24-14.52c.73,6.58,3.06,29.31,2.92,29.31a128.52,128.52,0,0,0,1.21-22.36q-1.35,7.8.67,5.58a154.27,154.27,0,0,1,1.36,16.78c1.07,0,1.57-24.71,1.47-23.72q-1,15.19,1.33,9.54,1,3.22.92-3.39.94,8.16,1.11-5.41c1,23,.86,3.55,1.92,1.29q1,16.18,1.42-4.94c.81,16,2.46,1.88,2.65-1.18-.15,1.4.06,2,.62,1.71q1.41,15.78,2-4.87c1.87,3.24,2.61,22,3.56.32-20-8.06,8.29,18.17,1.93,18.24.62,0,4.07-27.78,1.57-19.06,0,0,2.2,31.44,3.56,7.81q.15,12.24.89,4.83.57,6.28,1.15,12.55a106.7,106.7,0,0,0,1-20.61q2.29,20.67,3.79-1.7c-.36-3.61.62,24,2.18,24a84.06,84.06,0,0,0,1.53-21.49A72,72,0,0,0,257.23,179a66.32,66.32,0,0,0,1.55-22.1c1.62,12.72,1.75-32.24,1.68-16.92q-.24,15.8,2.26,8.45a137,137,0,0,0,1.49,23.79,178,178,0,0,0,1-28.65c1.13,34.19,2.39,4.56,2.53-2.87.59,10.82,2,16.36,2.78,2.19q.49,7.41,1,14.83.26-8.52.95-17,1,19.36,2.44,3.51a130.35,130.35,0,0,0,2.23,35,76.29,76.29,0,0,0,1.58-28,84.27,84.27,0,0,0,1.94,21.45,113.32,113.32,0,0,0,1.57-26.54q1.75,26.1,4,4.14a105.81,105.81,0,0,0,1.41,20.59c1.53,0,.91-35,.94-32.39.16.69.09,23.45,2.34,23.43,2.87,0,2.45-42.94-.42-42.91Z" style="fill:url(#radial-gradient-8)"/><path d="M303.9,124.91c-.46,0-.82,3.43-1,8.39q-2.12-11.3-3.59,1.15-.92-7.32-1.84-14.63-.75,5.88-1.51,11.75a55.2,55.2,0,0,0-1.81-17.19c-2.62,0-2.13,50.23.49,50.2a66.47,66.47,0,0,0,1.5-19.61q2.08,22.4,3.22-2.51,1.52,12.84,3.6,2C304.06,174.24,307.31,124.87,303.9,124.91Z" style="fill:url(#radial-gradient-9)"/><path d="M51.59,119.46c-2.88,0-2.46,42.93.42,42.9s2.45-42.93-.42-42.9Z" style="fill:url(#radial-gradient-10)"/><path d="M47.81,114.92c-.77,0-1.34,7.23-1.47,17.23L44.6,120.43,43,135.09q-1.71-12.41-3.61-1.08c-1.41-29.66-.39,45.77.16,11.18q2.29,10.77,3.56-2.1,1.62,24.89,3.27,2.45a66.4,66.4,0,0,0,1.88,19.59c2.62,0,2.13-50.23-.49-50.21Z" style="fill:url(#radial-gradient-11)"/><path d="M35.81,130.35q-1.22-22-1.94.44c.73-3.64.53-5-.61-4.17-.87-6.82-1.87-18.23-2.17,6.33-.95-3.92-1.46-17.3-2.05-1.4-.38-3.64-.69-3.43-.93.66-.55-1-.93-.69-1.14,1-.14-.52-.33-.63-.57-.32q-.86-9-1.15,2.43c-.69-9.07-1.76-2.9-2.1-.26.09-1.69-.19-2.29-.84-1.81Q21,126.46,20.77,137c-.81-1-1.11-7.66-1.8-1.11-.46-1-.7-.52-.71,1.53-.44-1-1.44-.32-1.74.28-.72-7.09-1.2,3.93-1.17,2.35q0-4.51-.69-2.19c-.62-1-1-.64-1.24,1.08-.26-5-1-16.78-1.18-1.6-3.37-6.36,3-6.41-1.2,2.08-.45-3.45-.85-3.43-1.22.06-.6-16.43-.09,24.36.07,5.47q.77,5.1,1.23-.67c5.65,8.79-3.17,7.09,1.17,1.56.44,18.25,1,5.1,1.19-.82q.54,2.79,1.38.7.95,1.2.51-2.43c-.07-2.46.62,10.71,1.24,2.92.28.53,1.44-.08,1.66-.51q.29,4.77,1,1.56c.72,3.95.85-.38,1.59-1.31.63,13,1.45,5.63,2.28,1.85.25,2.47,1.71,9.35,2.25.68q.51,12.5,1.23,2.91c.52.48.78.06.78-1.28.23.75.5.86.83.32q.61,9.69,1.15.62c.83,11.14,1.06,1.94,1.88-1.54.79,28.09,1.29,12.68,2.25,4.72,1,.73,1.13-.38.53-3.31q.59,6.61,1.16,13.23c1,0,2.26-30.7.64-33.79C35.55,123.83,36.52,131.7,35.81,130.35Z" style="fill:url(#radial-gradient-12)"/><path d="M8.37,137.43Z" style="fill:url(#radial-gradient-13)"/><path d="M7.17,136.34c-.25,0-.43,1.74-.48,4.15q-.69-6-1.05.71c-.36-2-.74-2.07-1.15-.26-.49-8.18-.19,12.09,0,2.7q.72,2.58,1.14-.51.5,6,1,.59C7.14,158.17,8.65,136.33,7.17,136.34Z" style="fill:url(#radial-gradient-14)"/><path d="M.77,141.15Z" style="fill:url(#radial-gradient-15)"/><path d="M3.17,140c-.16,0-.31.34-.4.88q-.31-3.63-.44.62c-.21-2.2-.36-2.07-.47.39-.16-1.09-.33-1.14-.51-.14-.22-4.49-.07,6.64,0,1.48.22,1,.39.86.51-.28q.22,3.32.46.33.2,4.72.46.93c.65,3.27,1.63-4.23.37-4.21Z" style="fill:url(#radial-gradient-16)"/></g><path d="M335.55,141.35c-.33,0-.58,1.12-.55,2.5s.32,2.5.66,2.5.58-1.12.55-2.5S335.89,141.35,335.55,141.35Z" style="fill:url(#radial-gradient-17)"/><path d="M334.46,140.37c-.16,0-.28.81-.32,2-.14-.76-.38-1.27-.64-1.27s-.49.55-.59,1.35l0,0c-.1-1.86-.37-3.25-.66-3.25s-.46,1.16-.51,2.78c-.12-2.36-.39-4.07-.65-4.07s-.45,1.62-.49,3.88c-.08-.28-.18-.45-.29-.45s-.32.48-.39,1.16l0,0c-.09-1.07-.26-1.82-.45-1.82s-.31.59-.37,1.46c-.2-.47-.48-.77-.79-.77a.68.68,0,0,0-.47.26c-.07-.19-.16-.3-.24-.3s-.36.57-.4,1.37c-.09-1.17-.27-2-.48-2h0a.32.32,0,0,0-.24-.19c-.2,0-.38.41-.49,1.07a.61.61,0,0,0-.41-.18.45.45,0,0,0-.16,0,.73.73,0,0,0-1.17,0c-.14-.58-.32-.94-.51-.94s-.17.07-.24.21c-.21-.8-.49-1.3-.8-1.3s-.67.71-.83,1.78l-.15.07c-.2-1.77-.57-3-1-3-.25,0-.46.46-.63,1.21a.28.28,0,0,0-.15,0c-.26,0-.49.35-.65.92-.2-.64-.44-1-.7-1.1-.18-.61-.39-1-.61-1s-.63.88-.79,2.23c-.17-1.83-.43-3.05-.7-3.05s-.38.72-.49,1.88a.37.37,0,0,0-.22-.08.51.51,0,0,0-.35.24c-.21-.47-.46-.74-.73-.74a.58.58,0,0,0-.43.27c-.15-1-.34-1.56-.52-1.56s-.31.47-.42,1.25c-.25-2.08-.62-3.46-1-3.46s-.76,1.6-.91,3.95a2.09,2.09,0,0,0-.1.21c-.25-3.83-.7-6.5-1.17-6.5-.26,0-.49.89-.65,2.38-.18.1-.34.48-.47,1.08h0c-.22,0-.39.78-.51,2-.26-3.27-.67-5.47-1.09-5.47s-.73,2.12-.86,5.27c-.68.66-1.15,2.6-1.1,4.88s.55,4.07,1.22,4.79c.25,3.92.71,6.67,1.18,6.67s.8-2.63.9-6.41c.15,1,.34,1.62.53,1.62l.06,0a2.67,2.67,0,0,0,.29.7c.25,2.5.6,4.1,1,4.1s.84-3,.91-7.11a2.79,2.79,0,0,0,.2.31c.24,1.77.58,2.91.94,2.91s.6-1,.78-2.49c.16,1.3.38,2.12.6,2.11s.43-.94.54-2.42a.51.51,0,0,0,.34.16.62.62,0,0,0,.47-.32c.18.43.39.68.61.68a.32.32,0,0,0,.2-.07c.16,1.21.37,2,.58,2s.51-1.37.59-3.38c.21,1.25.52,2.06.85,2.06.17,0,.33-.22.46-.59h.06c.37,0,.68-.72.87-1.83.15.31.33.49.51.49h0c.21,1.16.51,1.91.83,1.91s.76-1.38.88-3.32l.21.09c.21.8.49,1.31.8,1.31s.45-.29.61-.78c.12.37.26.59.41.59s.42-.54.53-1.35a.77.77,0,0,0,.53.23.6.6,0,0,0,.27-.06.67.67,0,0,0,.47.24.61.61,0,0,0,.4-.18c.13.68.33,1.11.54,1.11s.18-.09.26-.25.36-1,.38-2.29c.09.73.26,1.24.44,1.24a.13.13,0,0,0,.11-.07.8.8,0,0,0,.61.43c.31,0,.58-.31.76-.78.1.88.26,1.46.42,1.46s.34-.73.39-1.77a.27.27,0,0,0,.12.09c.09.39.21.63.33.63s.19-.14.25-.38c.12,2.66.4,4.65.69,4.64s.49-2,.49-4.63c.13,1.47.36,2.5.61,2.5s.45-1.16.51-2.78l0,0c.13.81.38,1.36.65,1.36s.45-.47.56-1.16c.09,1.39.26,2.4.43,2.4s.37-1.58.34-3.52S334.68,140.37,334.46,140.37Z" style="fill:url(#radial-gradient-18)"/><path d="M339.81,142c-.15,0-.26.4-.31,1-.12-.37-.33-.62-.57-.62s-.48.31-.57.76c-.07-1-.31-1.7-.58-1.7s-.43.57-.49,1.37c-.09-1.17-.32-2-.56-2s-.52,1.32-.49,2.93.31,2.92.61,2.92.46-1,.49-2.28c.1.72.3,1.23.53,1.23s.45-.65.49-1.53c.11.48.35.81.62.81s.42-.23.53-.57c.06.68.21,1.18.37,1.18s.35-.78.33-1.73S340,142,339.81,142Z" style="fill:url(#radial-gradient-19)"/><path d="M343.23,143.08c-.14,0-.24.3-.23.68s.12.68.25.67.24-.3.23-.67S343.36,143.08,343.23,143.08Z" style="fill:url(#radial-gradient-20)"/><path d="M342.65,143.35c0-.21-.15-.34-.25-.34s-.22.17-.26.41c0-.53-.14-.93-.26-.93s-.19.31-.21.75c-.05-.64-.15-1.1-.25-1.1s-.17.32-.2.8c-.11-.26-.26-.42-.42-.42-.31,0-.54.55-.53,1.23s.27,1.23.58,1.23c.16,0,.31-.16.4-.42.05.48.14.8.23.8s.2-.54.21-1.26c.05.4.14.68.24.68s.2-.36.22-.84c0,.26.15.44.27.44s.19-.12.24-.31c0,.38.09.65.16.65s.16-.43.15-1-.09-.95-.18-.95S342.67,143,342.65,143.35Z" style="fill:url(#radial-gradient-21)"/><path d="M290.5,133.08c-.73,0-1.33,2.3-1.57,5.66h-.07c-.16,0-.3.18-.4.48-.28-5.93-.85-10.23-1.42-10.23s-.86,3.37-1,8.24c-.44-3.15-1.2-5.28-2-5.27s-1.6,2.48-1.88,6.05l-.05-.11c-.34-7.87-1.17-11.5-2.09-11.5-.76,0-1.37,2-1.56,7.67a.31.31,0,0,0-.1.05c-.47-9.09-1.28-15.51-2.08-15.51s-1.49,8.1-1.47,19c-.27-2.27-.74-3.81-1.25-3.8s-.93,1.63-1.11,4a13.08,13.08,0,0,0-.54-2.8c-.21-2.54-.51-4.18-.8-4.18s-.56,2-.66,5q0,.25-.09.54a9.21,9.21,0,0,0-.8-2.86c-.2-.81-.43-1.28-.66-1.28s-.54.73-.73,1.94a15.88,15.88,0,0,0-.53,3.42c-.24-5.89-.88-10.35-1.54-10.35s-1,3.46-1.09,8.3c-.32-7.06-.93-12.16-1.53-12.16s-.93,4.33-1,10.54c-.23-.57-.48-.89-.75-.89-.65,0-1.16,1.89-1.35,4.59-.23-5.89-.87-10.35-1.53-10.35-.31,0-.57.94-.76,2.51-.44-4.84-1-7.38-1.66-7.38-.84,0-1.48,3.44-1.53,13.25-.4-6.72-1.2-11.52-2-11.51s-1.58,6.21-1.57,14.39c-.42-3.75-1.25-6.37-2.17-6.37s-1.49,2.14-1.81,5.29c-.3-4.87-.8-8.22-1.3-8.22s-.64,1.67-.82,4.36c0,0,0-.08-.08-.08-.27,0-.51,2.09-.63,5.18-.39-3.19-1.05-5.34-1.77-5.34s-1.4,2.6-1.61,6.3c-.07-.23-.15-.36-.24-.36s-.08,0-.12.09c-.33-4.78-1-8.23-1.8-8.22s-1.3,3.25-1.46,7.82h-.07c-.32-3-1-5.17-1.68-5.17s-1,1.29-1.29,3.3a12.84,12.84,0,0,0-.36,1.91,1,1,0,0,0-.17.13c-.2-3-.61-5.08-1.09-5.08-.29,0-.56.76-.77,2a.29.29,0,0,0-.18-.08c-.3,0-.58.59-.79,1.56-.22-1.09-.5-1.78-.8-1.87-.2-1-.44-1.65-.7-1.65-.41,0-.76,1.48-1,3.75-.16-3.09-.44-5.15-.76-5.15s-.47,1.21-.63,3.17a.36.36,0,0,0-.25-.13c-.11,0-.21.08-.31.22-.23-1.61-.51-2.58-.79-2.58s-.43.66-.58,1.79c0,.05-.07.1-.1.16-.16-1.64-.36-2.63-.58-2.63s-.38.78-.53,2.1c-.24-3.52-.64-5.85-1.11-5.85s-.93,2.69-1.16,6.66a2.84,2.84,0,0,0-.13.35c-.21-6.46-.68-11-1.22-11-.32,0-.61,1.5-.83,4a3.74,3.74,0,0,0-.59,1.82h0c-.25,0-.48,1.31-.65,3.41-.22-5.51-.66-9.23-1.15-9.23s-.91,3.56-1.15,8.89c-.66.9-1.18,3.21-1.35,6.09a1.92,1.92,0,0,0-.31.56c-.09-5.91-.66-10.48-1.35-10.48-.54,0-1,2.8-1.22,6.85-.41-2.63-1.18-4.39-2.07-4.39s-1.82,2.18-2.19,5.3c-.17-6.8-1-12-2-12s-1.63,4-1.92,9.58c-.27-8.16-1-14-1.94-14-1.13,0-2,9.18-2,20.5v.29a.26.26,0,0,0-.13-.08c0-9.43-1-17-2.24-17-.87,0-1.63,3.88-2,9.55a.11.11,0,0,0-.08,0c-.18,0-.35.3-.48.81-.19-10-.76-17.27-1.43-17.27s-1.1,5.67-1.34,13.89c-.46-5.32-1.3-8.91-2.27-8.91s-1.95,4.17-2.37,10.2c0-.06,0-.12-.05-.18-.21-13.29-1.11-19.43-2.19-19.43-.9,0-1.67,3.42-2,12.93a.28.28,0,0,0-.13.09c-.33-15.35-1.14-26.2-2.08-26.2s-1.95,13.65-2.19,32c-.27-3.85-.79-6.44-1.38-6.44s-1.15,2.75-1.41,6.79a32.11,32.11,0,0,0-.57-4.72c-.2-4.3-.51-7.07-.85-7.07s-.72,3.35-.9,8.38c0,.29-.08.59-.12.91a22.14,22.14,0,0,0-.87-4.83c-.22-1.37-.48-2.15-.76-2.15s-.66,1.22-.91,3.26a39.36,39.36,0,0,0-.71,5.76c-.13-9.94-.78-17.48-1.56-17.48s-1.28,5.83-1.5,14c-.21-11.94-.81-20.54-1.51-20.54s-1.21,7.3-1.45,17.77c-.26-1-.56-1.5-.88-1.5-.76,0-1.42,3.19-1.7,7.74-.14-9.94-.78-17.48-1.57-17.48-.35,0-.68,1.58-.95,4.23-.41-8.18-1.05-12.48-1.78-12.48-1,0-1.83,5.79-2.13,22.36-.31-11.35-1.14-19.45-2.11-19.45s-2,10.47-2.2,24.28c-.41-6.33-1.33-10.76-2.41-10.76s-1.82,3.59-2.27,8.91c-.24-8.22-.75-13.89-1.34-13.89-.78,0-1.42,9.77-1.49,22.27h0c-.11,0-.19.38-.25,1C143,132.24,142,125,140.83,125s-2.17,7.24-2.24,16.39a3.24,3.24,0,0,0-.13-.5c-.05-10.92-.94-19.63-2-19.63-.91,0-1.67,5.89-1.94,14-.29-5.59-1-9.58-1.92-9.58s-1.84,5.16-2,12c-.37-3.12-1.21-5.3-2.19-5.3s-1.66,1.76-2.07,4.39c-.22-4-.69-6.85-1.23-6.85s-1.15,3.75-1.31,8.86a.46.46,0,0,0-.24-.08.41.41,0,0,0-.18.05,11.72,11.72,0,0,0-1.28-5c-.23-5.33-.65-8.89-1.14-8.89s-.93,3.72-1.16,9.23c-.16-2.1-.39-3.41-.65-3.41h0a3.77,3.77,0,0,0-.58-1.82c-.23-2.51-.51-4-.83-4-.47,0-.89,3.38-1.12,8.47-.11-.29-.22-.46-.34-.46a.18.18,0,0,0-.09,0c-.24-2.51-.58-4.08-1-4.08s-.88,2.33-1.11,5.85c-.15-1.32-.33-2.1-.53-2.1s-.42,1-.58,2.63c-.16-.29-.34-.45-.52-.45s-.6.46-.84,1.26c-.14-.26-.28-.4-.43-.4a.36.36,0,0,0-.24.13c-.16-2-.39-3.17-.63-3.17s-.59,2-.75,4.92l0,0c-.22-2.15-.57-3.54-1-3.54s-.5.61-.7,1.65a.49.49,0,0,0-.23.19c-.34-1.48-.78-2.39-1.24-2.39-.27,0-.53.32-.74.89-.11-.22-.22-.34-.33-.34-.28,0-.54.7-.74,1.88-.38-3.07-.93-5.07-1.51-5.06s-1.24,2.93-1.43,7.13a4.06,4.06,0,0,0-.38,1.4c-.37-3.71-1.09-6.31-1.88-6.3s-1.33,2.3-1.57,5.66h-.07c-.16,0-.3.18-.4.48C97,133.28,96.47,129,95.91,129c-.39,0-.7,2-.87,5.23-.08-.48-.17-.75-.27-.75s-.23.42-.33,1.16C94,133,93.47,132,92.91,132c-.89,0-1.6,2.48-1.88,6.05l0-.11c-.34-7.87-1.17-11.5-2.09-11.5-.76,0-1.37,2-1.56,7.67l-.1.05C86.76,125,86,118.6,85.15,118.6s-1.49,8.1-1.46,19c-.28-2.27-.75-3.81-1.26-3.8s-.93,1.63-1.11,4a13.08,13.08,0,0,0-.54-2.8c-.21-2.54-.51-4.18-.8-4.18s-.56,2-.66,5l-.09.54a9.21,9.21,0,0,0-.8-2.86c-.2-.81-.42-1.28-.66-1.28s-.54.73-.73,1.94a15.88,15.88,0,0,0-.53,3.42c-.24-5.89-.88-10.35-1.54-10.35s-1,3.46-1.09,8.3c-.32-7.06-.93-12.16-1.53-12.16s-.93,4.33-1,10.54c-.24-.57-.49-.89-.76-.89-.65,0-1.16,1.89-1.35,4.59-.23-5.89-.87-10.35-1.53-10.35-.31,0-.56.94-.76,2.51-.44-4.84-1-7.38-1.65-7.38-.84,0-1.49,3.44-1.54,13.25-.4-6.72-1.2-11.52-2-11.51s-1.58,6.21-1.57,14.39c-.42-3.75-1.25-6.37-2.17-6.37s-1.49,2.14-1.81,5.29c-.3-4.87-.8-8.22-1.3-8.22-.7,0-1.14,6.54-1,14.6s.86,14.58,1.56,14.58,1-4.18,1-10c.45,2.89,1.17,4.8,2,4.79.95,0,1.7-2.84,1.94-6.83.37,7.4,1.21,12.83,2.08,12.82S63.8,154.9,64,148.78c.41,11,1.22,13.34,2.12,13.34s1.44-3.07,1.56-10.69c.18.68.37,1.06.56,1.06.62,0,1.06-3.92,1.11-9.25.28,2.87.89,4.91,1.57,4.91.25,0,.49-.3.69-.82.33,6.73.91,11.51,1.49,11.51s1.06-5.93,1-13.86c.3,4.41.84,7.48,1.38,7.47s1-3.15,1.09-7.65c0-.39.05-.79.07-1.21a20,20,0,0,0,.43,2.58c.27,2.13.65,3.51,1.06,3.5s.63-1,.82-2.64a13,13,0,0,0,.46-2.38c.2,4.17.6,7.18,1,7.17s.64-2.75.7-6.63a9.38,9.38,0,0,0,.16-.93.45.45,0,0,0,.18.27c.26,2.47.76,4.17,1.29,4.17s.86-1.36,1.06-3.41c.32,12.12,1.24,16.94,2.23,16.94s1.61-2.55,1.58-13.56c.42,6.12,1.17,10.38,1.94,10.37s1.37-4.35,1.53-10.57c0-.42.09-.94.12-1.54.43,3.6,1.24,6.09,2.13,6.09.39,0,.74-.47,1-1.29.11,1.11.25,1.77.4,1.77s.36-1,.48-2.63c.31,4.36.78,7.3,1.25,7.3.63,0,1-5.32,1-12.26a6.9,6.9,0,0,0,.21-1.28c.21,5.18,1.1,9.21,2.07,9.2.77,0,1.39-2.52,1.61-6.12.12.48.26.76.42.76h0c.37,4,1,6.67,1.68,6.67.52,0,.95-1.58,1.21-4.09.17.61.35,1,.55,1s.54-.71.74-1.9c.22.42.44.66.68.66s.41-.2.59-.56c.18.53.39.83.6.83l.08,0c.16.63.35,1,.55,1,.39,0,.73-1.36,1-3.48.15,3.39.44,5.7.78,5.7s.48-1.27.64-3.32a.32.32,0,0,0,.23.13c.26,0,.5-.43.71-1.16.17.34.36.53.56.53a.53.53,0,0,0,.39-.25l0,0c.16,2.46.41,4,.69,4s.5-1.38.66-3.57c.24,2.58.59,4.2,1,4.2s.56-.91.77-2.46c.21,1.31.46,2.1.7,2.14.24,4.18.62,6.87,1,6.87s.8-2.71,1-6.92a4.7,4.7,0,0,0,.23-.78c.15.53.3.82.45.82s.31-.33.43-.9c.24,4.7.64,7.78,1.09,7.78s1-4.66,1.23-11.28a4,4,0,0,0,.31-.62c.11.48.24.76.37.75s.43-.94.54-2.42a.51.51,0,0,0,.34.16.37.37,0,0,0,.17-.05c.23,3.76.68,6.3,1.19,6.3s1-2.74,1.22-6.73c.2.87.46,1.41.72,1.41a.26.26,0,0,0,.19-.09c.34.71.74,1.12,1.17,1.12s.83-.42,1.18-1.16a.33.33,0,0,0,.21.12c.43,0,.76-1.38.88-3.32h0c.3,5.47,1,9.34,1.91,9.34s1.54-3.55,1.86-8.64c.21,9.16,1,16,2,16s1.77-6.73,2-15.78c.08,0,.16-.19.22-.48.2,8,1.11,14,2.2,14s2-6.47,2.22-14.9a8.1,8.1,0,0,0,.3,2.06c.12,11.46.73,20.13,1.47,20.13s1.22-7.05,1.42-16.82c.46,4.88,1.27,8.11,2.19,8.11,1.12,0,2.08-4.8,2.45-11.53.26,12.5,1.13,21.67,2.16,21.67s1.7-7.2,2.05-17.54c.23,18.59,1.12,22.54,2.19,22.54s1.77-5.16,2.1-18c.19,1.16.41,1.8.63,1.8.74,0,1.35-6.6,1.54-15.6.26,4.85.94,8.3,1.73,8.3.31,0,.59-.5.84-1.38.23,11.36.81,19.44,1.49,19.44s1.39-10,1.55-23.39c.25,7.45.81,12.63,1.46,12.63s1.21-5.32,1.46-12.92c0-.65.08-1.32.11-2,.1,1.66.26,3.14.45,4.35.27,3.6.69,5.93,1.16,5.93s.78-1.71,1-4.46a30,30,0,0,0,.6-4c.14,7,.54,12.12,1,12.12s.83-4.64,1-11.2c.14-.75.25-1.66.34-2.69.21,5,.8,8.63,1.51,8.63.56,0,1.05-2.29,1.33-5.75.1,20.47,1.06,28.62,2.24,28.62s2-4.3,2.19-22.89c.35,10.34,1.13,17.54,2.05,17.54s1.89-9.17,2.16-21.67c.37,6.73,1.33,11.53,2.45,11.53.92,0,1.73-3.23,2.19-8.11.2,9.77.76,16.82,1.42,16.82s1.42-9.75,1.49-22.23a2.48,2.48,0,0,0,.09-.7,3.38,3.38,0,0,0-.08-.58v-1.12c0-.61,0-1.22,0-1.81a1.33,1.33,0,0,0,.26.5v1.67a5.58,5.58,0,0,0-.11,1.35,6,6,0,0,0,.14,1.28c.2,8.16,1.11,14.35,2.21,14.35s1.92-5.59,2.17-13.14a.27.27,0,0,0,.14.05.21.21,0,0,0,.12-.05c.23,8.83,1,15.36,2,15.36s1.65-5.71,1.93-13.69c.12,1,.28,1.69.44,1.73.38,2.83.9,4.6,1.49,4.6.78,0,1.45-3.09,1.8-7.64a2,2,0,0,0,.38-1.06l.09.07c.43,2.2,1.14,3.64,1.93,3.64s1.4-1.24,1.84-3.19a3.77,3.77,0,0,0,.15-.56h0c.19,4.69.69,8.05,1.28,8.05s1-2.87,1.24-7c.23,1,.55,1.61.89,1.61h.06a1.09,1.09,0,0,0,.38.56,3.93,3.93,0,0,0,.36.74c.2,6.62.67,11.28,1.23,11.28s1-4.45,1.21-10.82c.16,1.71.37,2.74.59,2.74a.1.1,0,0,0,.08,0,5.84,5.84,0,0,0,.32,1.2c.24,4.21.62,6.92,1,6.92s1-4.36,1.21-10.64a4.24,4.24,0,0,0,.26-.84c.24,3,.62,4.93,1,4.93.1,0,.2-.11.29-.31.1.25.2.39.31.39s.46-.75.61-2c.13.84.27,1.32.43,1.32s.52-1.53.68-3.94c.26,2.8.64,4.64,1,4.64s.63-1.53.79-3.93a.44.44,0,0,0,.11-.09c.16,2,.39,3.32.64,3.32s.63-2.31.78-5.7c.22,2.12.57,3.48,1,3.48.2,0,.38-.36.55-1l.07,0c.44,0,.83-1.21,1.07-3.09.18.53.38.84.6.84h0c.22,2,.56,3.23.93,3.23s.94-2.31,1.12-5.58a1,1,0,0,0,.25.14,5.16,5.16,0,0,0,.63,2c.34,1.52.79,2.46,1.26,2.46.65,0,1.18-1.81,1.42-4.48l.09,0c.31,5.08,1.05,8.81,1.84,8.8s1.4-3.88,1.49-9.13c0,0,0,0,.08-.08a2.57,2.57,0,0,0,.15.29c.31,4.38,1.11,7.59,2,7.59.62,0,1.14-1.62,1.43-4.11.13,2.17.33,3.55.55,3.55s.24-.44.34-1.21c.3,3.68.72,6.07,1.15,6.07s.95-4.18,1-10c.45,2.89,1.17,4.8,1.95,4.79s1.54-2.28,1.84-5.61a2.55,2.55,0,0,0,.2.64c.41,6.43,1.19,11,2,11s1.35-4.27,1.53-10.39c.41,11,1.21,13.34,2.12,13.34s1.43-3.07,1.55-10.69c.18.68.37,1.06.57,1.06.62,0,1.06-3.92,1.11-9.25.28,2.87.89,4.91,1.57,4.91.25,0,.48-.3.69-.82.32,6.73.91,11.51,1.49,11.51s1.06-5.93,1-13.86c.3,4.41.84,7.48,1.38,7.47s1-3.15,1.09-7.65c0-.39.05-.79.06-1.21a19.88,19.88,0,0,0,.44,2.58c.27,2.13.65,3.51,1.05,3.5s.64-1,.83-2.64a13,13,0,0,0,.46-2.38c.2,4.17.6,7.18,1,7.17s.64-2.75.7-6.63a15.13,15.13,0,0,0,.25-1.6c.23,3,.78,5.12,1.38,5.11s.86-1.36,1.06-3.41c.32,12.12,1.24,16.94,2.23,16.94s1.61-2.55,1.58-13.56c.42,6.12,1.17,10.38,1.94,10.37s1.5-5.44,1.57-12.84c.4,4,1.26,6.82,2.21,6.82.78,0,1.43-1.92,1.76-4.81.29,5.79.85,10,1.41,10s1.13-6.54,1-14.6l0-1.07a.74.74,0,0,0,.23.3v.66c.12,5.73,1.06,10.38,2.11,10.37s1.81-4.65,1.69-10.38S291.55,133.07,290.5,133.08Z" style="fill:url(#radial-gradient-22)"/><path d="M303.9,135.94c-.46,0-.82,1.66-1,4.06-.38-1.56-1.05-2.6-1.8-2.6s-1.52,1.31-1.79,3.15c-.23-4-1-7.08-1.84-7.07s-1.34,2.37-1.51,5.68c-.33-4.83-1.05-8.32-1.81-8.31-1,0-1.62,5.44-1.48,12.15s1,12.14,2,12.13,1.43-4.06,1.5-9.49c.33,3,1,5.12,1.68,5.12s1.41-2.69,1.54-6.33c.32,2,1.09,3.36,2,3.35.71,0,1.32-.95,1.65-2.37.21,2.85.68,4.9,1.19,4.9s1.09-3.22,1-7.19S304.53,135.94,303.9,135.94Z" style="fill:url(#radial-gradient-23)"/><path d="M51.59,133.3c-1.05,0-1.81,4.66-1.69,10.39S51,154.06,52,154.06s1.8-4.66,1.68-10.39S52.63,133.3,51.59,133.3Z" style="fill:url(#radial-gradient-24)"/><path d="M47.81,131.11c-.77,0-1.34,3.49-1.47,8.33-.31-3.31-1-5.67-1.74-5.67s-1.49,3.06-1.56,7.09c-.35-1.84-1.09-3.13-1.92-3.13s-1.38,1.05-1.69,2.61c-.24-2.4-.67-4.05-1.12-4.05-.64,0-1.09,3.22-1,7.19s.66,7.19,1.3,7.19.9-2.07,1-4.92c.39,1.42,1,2.36,1.74,2.36.87,0,1.58-1.41,1.82-3.37.28,3.64,1,6.31,1.8,6.31s1.26-2.11,1.47-5.13c.28,5.43,1.06,9.48,1.88,9.47s1.62-5.44,1.48-12.15S48.76,131.1,47.81,131.11Z" style="fill:url(#radial-gradient-25)"/><path d="M34.73,133.31c-.42,0-.74,2.2-.86,5.47-.17-1.24-.38-2-.6-2h0c-.16-.6-.33-1-.52-1.07-.22-1.49-.48-2.38-.75-2.38-.46,0-.8,2.68-.9,6.51l-.11-.21c-.24-2.35-.64-3.94-1.07-3.93s-.71,1.38-.87,3.46c-.14-.78-.3-1.24-.47-1.24s-.34.59-.46,1.56a.6.6,0,0,0-.44-.26c-.26,0-.5.27-.7.74a.48.48,0,0,0-.36-.23.37.37,0,0,0-.21.08c-.16-1.16-.36-1.88-.57-1.88s-.48,1.22-.58,3.05c-.21-1.34-.53-2.21-.87-2.21s-.42.36-.58,1c-.25.06-.48.47-.65,1.11-.19-.57-.43-.92-.69-.92a.3.3,0,0,0-.15,0c-.19-.76-.43-1.21-.68-1.21s-.73,1.23-.86,3l-.15-.07c-.2-1.06-.53-1.77-.9-1.77s-.57.51-.75,1.31c-.07-.14-.16-.21-.24-.21s-.36.36-.47,1a.83.83,0,0,0-.61-.31.82.82,0,0,0-.57.28.76.76,0,0,0-.16,0,.58.58,0,0,0-.4.19c-.14-.66-.33-1.07-.54-1.07s-.16.07-.23.2h0c-.2,0-.36.84-.39,2-.08-.8-.26-1.37-.46-1.37s-.16.12-.23.31a.67.67,0,0,0-.48-.25c-.31,0-.58.3-.76.77,0-.17,0-.32-.06-.47-.13-2.21-.38-3.78-.64-3.77s-.42,1.42-.48,3.47a.1.1,0,0,0-.07,0c-.13-1.28-.34-2.14-.56-2.14s-.49,1.34-.52,3.14L11,143c-.14-.74-.38-1.24-.64-1.24s-.47.51-.58,1.27c-.09-1.17-.24-2-.4-2s-.37,1.58-.33,3.52.25,3.51.47,3.51.31-1,.33-2.4c.14.69.37,1.15.62,1.15s.51-.6.61-1.48l0,0c.11,1.68.36,2.89.63,2.89s.4-.87.48-2.15h0c.13,2.48.4,4.29.67,4.29s.48-1.86.49-4.37l0-.32c.2.47.48.77.79.77a.74.74,0,0,0,.59-.43.17.17,0,0,0,.12.06c.18,0,.33-.5.39-1.23.07,1.27.26,2.23.47,2.28s.18.24.27.24.39-.43.5-1.11a.55.55,0,0,0,.4.17.64.64,0,0,0,.46-.24.66.66,0,0,0,.27.06.78.78,0,0,0,.53-.24c.14.82.35,1.35.58,1.35s.28-.22.39-.59c.18.48.4.77.63.77s.58-.52.75-1.32a.67.67,0,0,0,.21-.09c.2,1.94.59,3.31,1,3.31s.58-.75.75-1.92h0c.18,0,.35-.18.49-.49.23,1.1.57,1.82.94,1.82h.06c.15.37.31.58.48.58.33,0,.61-.81.77-2.06.17,2,.44,3.37.73,3.37s.39-.75.5-2a.34.34,0,0,0,.2.08c.22,0,.42-.26.58-.69a.67.67,0,0,0,.49.31.51.51,0,0,0,.34-.16c.16,1.47.39,2.42.63,2.42s.41-.82.52-2.12c.23,1.53.55,2.48.87,2.48s.66-1.14.83-2.92a2.64,2.64,0,0,0,.18-.3c.24,4.14.71,7.09,1.2,7.09s.64-1.6.8-4.1a2.71,2.71,0,0,0,.25-.71l.07,0c.19,0,.35-.61.46-1.62.26,3.77.7,6.4,1.16,6.4s.82-2.77.91-6.69c.64-.72,1.07-2.6,1-4.8s-.59-4.21-1.3-4.86C35.55,135.42,35.14,133.31,34.73,133.31Z" style="fill:url(#radial-gradient-26)"/><path d="M8.37,142c-.34,0-.59,1.12-.56,2.5s.32,2.5.66,2.49.58-1.12.55-2.5S8.7,142,8.37,142Z" style="fill:url(#radial-gradient-27)"/><path d="M7.17,141.47c-.25,0-.43.84-.48,2-.1-.8-.31-1.37-.55-1.37s-.48.74-.5,1.71c-.11-.44-.34-.75-.61-.75s-.44.25-.54.63c-.07-.58-.21-1-.35-1s-.35.78-.33,1.73.2,1.73.4,1.73.29-.49.32-1.18c.12.34.33.57.55.57s.5-.34.59-.82c.08.88.3,1.52.56,1.52s.4-.51.47-1.23c.09,1.3.32,2.28.59,2.28s.52-1.31.49-2.93S7.47,141.47,7.17,141.47Z" style="fill:url(#radial-gradient-28)"/><path d="M.77,143.8c-.14,0-.24.3-.24.67s.13.68.26.68.24-.3.23-.68S.9,143.79.77,143.8Z" style="fill:url(#radial-gradient-29)"/><path d="M3.17,143.21c-.16,0-.31.17-.4.43-.06-.48-.14-.8-.23-.8s-.19.46-.21,1.1c-.05-.44-.14-.75-.25-.75s-.21.41-.22.94c-.05-.24-.15-.41-.27-.41s-.19.14-.24.34c0-.32-.09-.54-.16-.54s-.15.43-.14,1,.09,1,.18,1,.13-.27.14-.65c.06.19.15.31.25.31s.22-.18.26-.45c0,.49.14.84.25.84s.18-.28.21-.68c0,.72.15,1.26.26,1.26s.17-.33.2-.81c.1.26.26.43.42.43s.54-.56.53-1.24S3.47,143.21,3.17,143.21Z" style="fill:url(#radial-gradient-30)"/></g></g></svg>