<svg xmlns="http://www.w3.org/2000/svg" xmlns:xlink="http://www.w3.org/1999/xlink" viewBox="0 0 243.68 243.68"><defs><pattern id="New_Pattern_Swatch_2" data-name="New Pattern Swatch 2" width="243.68" height="243.68" patternTransform="translate(-157.86 72.5)" patternUnits="userSpaceOnUse" viewBox="0 0 243.69 243.69"><rect width="243.68" height="243.68" style="fill:none"/><path d="M129.83,46.66,105.42,36.33h0l-1.92-.81-4.83-2.05h0l-.88-.37L93.12,59.51l7.63,3.23h0l22,9.3a8.59,8.59,0,0,0-3.28,6c-.56,4,1,7.5,3.54,7.85s5-2.6,5.55-6.59c.5-3.58-.74-6.77-2.82-7.64L101,61.23l4.13-23.39L126.84,47a8.57,8.57,0,0,0-3.29,6c-.55,4,1,7.5,3.55,7.85s5-2.59,5.55-6.58C133.15,50.72,131.9,47.53,129.83,46.66Z" style="fill:#231f20"/><path d="M15.15,173.07a8.56,8.56,0,0,0-6.44-2.36c-4,0-7.27,2.12-7.25,4.66s3.31,4.56,7.33,4.52c3.62,0,6.59-1.73,7.15-3.91.15-.6,4.18-16.21,6.62-25.66h0l.28-1.07c.92-3.57,1.55-6,1.55-6h0l.24-.92L0,141.62v8.08l21,.57Z" style="fill:#231f20"/><path d="M239.43,149.59h0l-6,23.12c-1.24-1.43-3.67-2.38-6.44-2.36-4,0-7.27,2.12-7.25,4.66s3.31,4.56,7.33,4.52c3.62,0,6.59-1.73,7.15-3.91l6.71-26,2.71.07v-8.08l-2.18-.06Z" style="fill:#231f20"/><path d="M147.28,20.3c2.47,2.74,5.88,3.69,7.6,2.13s1.12-5-1.35-7.78a7.85,7.85,0,0,0-5.6-2.88L155.55,0h-1.63l-8.44,13C144.35,14.77,145.05,17.83,147.28,20.3Z" style="fill:#231f20"/><path d="M161.33,29.69c-1.12,1.73-.42,4.79,1.8,7.25,2.48,2.74,5.88,3.7,7.61,2.14s1.12-5-1.36-7.78a7.82,7.82,0,0,0-5.59-2.88L175.7,10h0l4.13-6.38L176.29,0H166l8.73,9C169.87,16.5,161.65,29.21,161.33,29.69Z" style="fill:#231f20"/><path d="M138.79,5.63c1.29-1.16,1.27-3.42.14-5.63h-9.77a9.54,9.54,0,0,0,2,3.5C133.66,6.24,137.06,7.19,138.79,5.63Z" style="fill:#231f20"/><path d="M146.25,213.87h0l-.17.27-3.49,5.38h0c-4.86,7.52-12.9,19.93-13.21,20.41a4.54,4.54,0,0,0-.22,3.75h9.77a10.46,10.46,0,0,0-1.49-2.14,7.87,7.87,0,0,0-5.6-2.89l11.73-18.11,15.19,15.68-4.84,7.46h1.63l4.19-6.45,6.25,6.45h10.3l-29.57-30.53Z" style="fill:#231f20"/><path d="M82.71,97.2c2.09-.74,4.17-3,5.32-6,1.67-4.4.78-8.82-2-9.87S79.67,83,78,87.38c-1.5,4-.92,7.91,1.22,9.45l25.46,18.37L94,140.52,71.57,124.31c2.08-.74,4.16-3,5.31-6,1.68-4.4.79-8.82-2-9.87s-6.37,1.65-8,6c-1.5,4-.91,7.92,1.22,9.46l25.26,18.23L82.53,167.82,60.21,151.71c2.09-.74,4.16-3,5.32-6,1.67-4.4.78-8.82-2-9.87s-6.38,1.66-8,6c-1.5,4-.92,7.92,1.21,9.46L88.79,174.5h0l.89.65,23.54-55.93-7.4-5.34Z" style="fill:#231f20"/><path d="M11.54,11.89c-3.4,3.37-4.44,7.83-2.31,10s6.6,1.15,10-2.23c3.06-3,4.19-6.93,2.86-9.26-.19-.32-2.72-4.77-5.93-10.38h-2L19,8.56C16.75,8.37,13.89,9.56,11.54,11.89Z" style="fill:#231f20"/><path d="M.15,31.11,0,30.84v5.61C.85,34.45,1,32.5.15,31.11Z" style="fill:#231f20"/><path d="M4.89,224h0l-2-3.59-1.29-2.26L0,219.54v4.13l1.75-1.61,1.8,3.14L0,228.47v4.12l5.09-4.68,9,15.77h2c-3.32-5.8-7.35-12.86-10.24-17.93Z" style="fill:#231f20"/><path d="M226.65,4.6h0l14.1,24.69c-2.25-.19-5.11,1-7.46,3.32-3.39,3.37-4.43,7.84-2.31,10s6.6,1.15,10-2.22a12.28,12.28,0,0,0,2.7-3.92V30.84c-1.27-2.24-10.27-18-15.69-27.48L231.64,0h-4.48l-.71.65L226.07,0h-2l2.36,4.13Z" style="fill:#231f20"/><path d="M243.68,223.67v-4.13l-21.92,20.18.6,1.05,1.66,2.91h2l-1.42-2.49Z" style="fill:#231f20"/><polygon points="227.16 243.69 231.64 243.69 243.68 232.59 243.68 228.47 227.16 243.69" style="fill:#231f20"/><path d="M.55,99.44c-.32.6.28,1.1.76.47,6.89-9-3.24-10.36.86-20.65.8,7.15,8.56,7.86,4.59,15.26-.32.61.27,1.1.76.48,7-9.09-3.5-10.4,1-21,.77-1.82,0-2.52,0-2.52h0L4.13,74.9,2.19,76.44h0L0,78.18v13.5C1.57,93.68,2.56,95.71.55,99.44Z" style="fill:#231f20"/><path d="M214.91,89.45c-4.27-3.18-9.36-3.57-11.35-.88s-.17,7.45,4.11,10.62c3.84,2.86,8.32,3.44,10.65,1.59l21.31-16.86c.32,3.71,2.47,5.73,4.05,7.76V78.18l-23.87,18.9C219.64,94.58,217.86,91.64,214.91,89.45Z" style="fill:#231f20"/><path d="M192.07,52.71c-1.4-5.07.06-9.89,3.25-10.77s6.92,2.51,8.32,7.58-.06,9.89-3.26,10.77S193.46,57.78,192.07,52.71Zm3.12,3.1c1.57.89,4-.49,5.51-3.08s1.39-5.41-.18-6.31-4.05.49-5.52,3.08S193.61,54.91,195.19,55.81Z" style="fill:#231f20"/><path d="M50.71,194.94c1.81,6.57-.08,12.82-4.22,14s-9-3.26-10.78-9.83.08-12.82,4.22-14S48.9,188.37,50.71,194.94Zm-4-4c-2.05-1.16-5.25.63-7.16,4s-1.8,7,.25,8.18,5.24-.63,7.15-4S48.71,192.08,46.67,190.92Z" style="fill:#231f20"/><path d="M43.21,55c0-4.29,5.53-7.77,12.35-7.77S67.9,50.67,67.9,55s-5.53,7.78-12.34,7.78S43.21,59.26,43.21,55Zm9.34,3c2.73,2.73,6.29,3.6,8,1.94s.79-5.22-1.94-7.95-6.29-3.6-8-1.94S49.82,55.24,52.55,58Z" style="fill:#231f20"/><path d="M206.85,194.17a9.58,9.58,0,0,1,.07,3,9.48,9.48,0,0,1-1.17,3.41,9.78,9.78,0,0,1-4.53,4.2,6.58,6.58,0,0,1-6.25-.19,6.49,6.49,0,0,1-2.87-3.24,4.83,4.83,0,0,1,.13-4.42,4.72,4.72,0,0,1,3.28-2.41,5.5,5.5,0,0,1,3.94.66,4.66,4.66,0,0,1,2.43,3.13,4.77,4.77,0,0,1,0,2.06,4.51,4.51,0,0,0,1.41-1.55,4.9,4.9,0,0,0,.34-4.5,7.18,7.18,0,0,0-3.28-3.49,22.32,22.32,0,0,0-4.48-1.84c-1.35-.39-2.72-.78-4.1-1.16a20.16,20.16,0,0,1-1.61,3.57c-2,3.62-5.48,5.87-10.19,6.68a17.84,17.84,0,0,1-12.17-1.94c-3.24-1.84-5.91-4.93-7.95-9.19a74.22,74.22,0,0,1-3.82-11,44.57,44.57,0,0,1-8-3,30.74,30.74,0,0,1-6.56-4.72,16.29,16.29,0,0,1-4.15-7,3.19,3.19,0,0,1,0-2.45c.9-1.58,3.28-1.91,7.29-1a26.16,26.16,0,0,1,7.12,2.52,27,27,0,0,1,7.75,6.53,23,23,0,0,1,4.43,8.63l6.27,2.06a9.7,9.7,0,0,1,.48-1,9.42,9.42,0,0,1,7.15-4.81,12.91,12.91,0,0,1,8.48,1.66,12,12,0,0,1,4.93,5.09,10.93,10.93,0,0,1,1.11,6.36l5.15,1.58a33,33,0,0,1,5.69,2.46A7.31,7.31,0,0,1,206.85,194.17Zm-51.55-21.4a18.29,18.29,0,0,0-2.28-5.66,13.6,13.6,0,0,0-4.79-5c-2.12-1.2-2.87-.55-3.32.26a1.34,1.34,0,0,0-.19.55c-.1.74.23,2.1,2.42,4.43a23.63,23.63,0,0,0,5.38,4.33A9.82,9.82,0,0,0,155.3,172.77ZM177.68,180l11,3.65c-.15-1.71-2.93-4.23-4.86-5.16A5,5,0,0,0,177.68,180Zm11.24,6.9-12.22-4.08a5,5,0,0,0,2.81,4.67,4.47,4.47,0,0,0,2.49.49c1.42-.17,2.65-.65,3.05-.17s-.23,2-1.8,2.81a8.37,8.37,0,0,1-3,.93,9.21,9.21,0,0,1-5.7-1.21,9.75,9.75,0,0,1-4-4.51,11,11,0,0,1-1-5.32l-4.72-1.62c1.68,7.67,4.77,12.83,9.21,15.35a8.82,8.82,0,0,0,7.72.43,11.33,11.33,0,0,0,7.28-7.77Z" style="fill:#231f20"/><path d="M62,5.23a8.75,8.75,0,0,0,3.63,4.18,8.53,8.53,0,0,0,3,1.16,8.84,8.84,0,0,0,2.67,0,6.56,6.56,0,0,0,4.94-3.12,29.4,29.4,0,0,0,2.37-5L79.46,0H76.59c-.1.29-.19.59-.28.88a20.45,20.45,0,0,1-1.78,4A6.55,6.55,0,0,1,71.3,7.69a4.41,4.41,0,0,1-4-.45,4,4,0,0,1-1.35-1.31A4.29,4.29,0,0,0,67.77,6a4.17,4.17,0,0,0,2.88-2.09A5,5,0,0,0,71.36.41c0-.14-.08-.27-.12-.41H62.16A5.91,5.91,0,0,0,62,5.23Z" style="fill:#231f20"/><path d="M69.3,241.08a4.37,4.37,0,0,0-4-.25,5.84,5.84,0,0,0-3,2.48c-.08.12-.11.25-.18.37h9.08A4.24,4.24,0,0,0,69.3,241.08Z" style="fill:#231f20"/><path d="M80.2,241.55l-.74,2.13H76.59c.29-.91.59-1.83.89-2.76a17.69,17.69,0,0,1-3.16-1.55c-3.19-2-5.11-5.09-5.7-9.34a16,16,0,0,1,2.11-10.86,18.05,18.05,0,0,1,8.48-6.86,66.36,66.36,0,0,1,10-3.1,38.81,38.81,0,0,1,2.9-7.07,27.15,27.15,0,0,1,4.43-5.74,14.64,14.64,0,0,1,6.44-3.52,2.92,2.92,0,0,1,2.2.09c1.39.85,1.61,3,.69,6.57a23.73,23.73,0,0,1-2.48,6.31,24.33,24.33,0,0,1-6.08,6.76,20.58,20.58,0,0,1-7.88,3.72l-2,5.56a7.55,7.55,0,0,1,.9.47,8.41,8.41,0,0,1,4.1,6.55,11.63,11.63,0,0,1-1.73,7.56,10.86,10.86,0,0,1-4.73,4.27A9.72,9.72,0,0,1,80.2,241.55ZM92,208.66a16.3,16.3,0,0,0,5.15-1.87,12,12,0,0,0,4.64-4.15c1.15-1.86.58-2.56-.13-3a1.21,1.21,0,0,0-.49-.18c-.66-.11-1.89.15-4,2a21,21,0,0,0-4,4.69A9.15,9.15,0,0,0,92,208.66Zm-7.11,19.88-3.6,9.78c1.54-.08,3.88-2.5,4.78-4.2A4.48,4.48,0,0,0,84.93,228.54Zm-6.52,9.87,4-10.84A4.48,4.48,0,0,0,78.16,230a4,4,0,0,0-.51,2.22c.1,1.27.5,2.4,0,2.74s-1.78-.27-2.46-1.7a7.53,7.53,0,0,1-.75-2.75,8.31,8.31,0,0,1,1.26-5.08,8.74,8.74,0,0,1,4.17-3.49,9.85,9.85,0,0,1,4.81-.78l1.59-4.19c-6.94,1.28-11.66,3.91-14,7.81a7.86,7.86,0,0,0-.61,6.91A10,10,0,0,0,76,237.32,9.89,9.89,0,0,0,78.41,238.41Z" style="fill:#231f20"/><path d="M141.58,116.89c-1.55-1.8-1.23-5.39.92-8.55,2.38-3.51,6.12-5.13,8.33-3.63s2.06,5.57-.33,9.08c-1.65,2.42-3.94,3.94-5.92,4.16l16.23,18.84,14.85-20.19-18.5-21.47c-1.55-1.8-1.24-5.39.92-8.55,2.39-3.51,6.12-5.13,8.33-3.63s2.06,5.57-.33,9.08c-1.65,2.42-3.94,4-5.92,4.16l17.74,20.59.52.61h0l2.1,2.44h0l1.81,2.09-16.78,22.79-1.81-2.09h0c-.55-.62-1.26-1.45-2.1-2.43h0l-1.81-2.09h0Zm21,22,2.09,2.43,14.86-20.18-2.1-2.43Z" style="fill:#231f20"/></pattern></defs><title>pattern</title><g id="designed_by_freepik" data-name="designed by freepik"><rect width="243.68" height="243.68" style="fill:url(#New_Pattern_Swatch_2)"/></g></svg>