<svg xmlns="http://www.w3.org/2000/svg" xmlns:xlink="http://www.w3.org/1999/xlink" viewBox="0 0 77.8 70.97"><defs><linearGradient id="linear-gradient" x1="205.04" y1="501.85" x2="216.43" y2="490.46" gradientTransform="matrix(0.76, -0.65, -0.65, -0.76, 229.67, 552.88)" gradientUnits="userSpaceOnUse"><stop offset="0" stop-opacity="0.1"/><stop offset="1" stop-opacity="0"/></linearGradient><linearGradient id="linear-gradient-2" x1="158.34" y1="536.43" x2="229.82" y2="503.1" gradientTransform="matrix(0.76, -0.65, -0.65, -0.76, 229.67, 552.88)" gradientUnits="userSpaceOnUse"><stop offset="0" stop-color="#fff" stop-opacity="0.2"/><stop offset="1" stop-color="#fff" stop-opacity="0"/></linearGradient></defs><title>bird</title><g id="Layer_2" data-name="Layer 2"><g id="Ñëîé_1" data-name="Ñëîé 1"><g id="v"><path d="M30.46,3.07C23.41-1,11-.84,7.08,2.53a4.81,4.81,0,0,0-.52,7,7.28,7.28,0,0,0,1.27,1.14C2.05,15.81-1.8,20,.85,23.12c1.48,1.71,4.18,1.64,8.55-.3C6,31,6.41,39.65,9,47.5l-.82-.64a1.64,1.64,0,0,0-2.31.28,1.73,1.73,0,0,0-.35.9l-.17,2.32a1.64,1.64,0,0,0,1,1.65l2.8,1.17-4.3,1.47a1.66,1.66,0,0,0-1,2.11,1.86,1.86,0,0,0,.3.53l2.15,2.5A1.66,1.66,0,0,0,8.61,60l2.5-2.16L10.4,61a1.63,1.63,0,0,0,1.25,2l.24,0,2.32.17A1.65,1.65,0,0,0,16,61.69a.89.89,0,0,0,0-.23l0-.72q.87,1.17,1.8,2.25c10.46,12.16,28.5,10.3,46-4.73,16.44-14.14,18.62-31.47,5.82-46.35C60.87,1.82,44.55-1.82,30.46,3.07Z" style="fill:#020202"/><path d="M59.71,18.19a6.1,6.1,0,0,1,1.17,2,27.54,27.54,0,0,0-5.05,3.59s0-.05,0-.08a1.66,1.66,0,0,0-2.51,2.16h0a1.59,1.59,0,0,0-.45.61c-.17.39-.66,1.6-1.23,3.23A29.69,29.69,0,0,0,45.12,36a6.22,6.22,0,0,1-1.84-1.46,6.49,6.49,0,0,1-1.21-6.26L51.67,25a1.59,1.59,0,0,0,.88-.71l4.63-7.75A6.4,6.4,0,0,1,59.71,18.19Z" style="fill:#fff"/><path d="M52.59,41.52c-.18-2.64.74-7.41,3-13,2.16-.53,8.77-1.83,14.32.64-.61.24-1.21.5-1.8.79C62.14,32.88,55.7,38.59,52.59,41.52Z" style="fill:#fdd835"/><path d="M56.67,29.79a25.78,25.78,0,0,1,12.09-.15c.41-.18.89-.39,1.14-.48-5.55-2.47-12.16-1.17-14.32-.64-2.25,5.59-3.17,10.36-3,13,.34-.33.74-.7,1.16-1.08A41.84,41.84,0,0,1,56.67,29.79Z" style="fill:#fff;opacity:0.200000002980232;isolation:isolate"/><path d="M67.53,34a53,53,0,0,1-1.74,9,47.84,47.84,0,0,1-10.92.85A78.69,78.69,0,0,1,67.53,34Z" style="fill:#fdd835"/><path d="M67.3,36.06c.1-.68.18-1.37.23-2.07A79.28,79.28,0,0,0,54.87,43.9a19.39,19.39,0,0,0,2.36.05A81,81,0,0,1,67.3,36.06Z" style="opacity:0.100000001490116;isolation:isolate"/><path d="M61.56,55.76c-12.11,10.42-30.2,18-41.32,5.08-8.95-10.41-14.17-27.12-5.64-41a1.75,1.75,0,0,0-.22-2.21,1.49,1.49,0,0,0-2-.07c-7.42,4.23-9,3.37-9,3.37-.3-.35-.08-1.91,7.75-8.82a27.45,27.45,0,0,0,12,.16,1.65,1.65,0,0,0-.6-3.25C16.41,10.2,10.9,9.5,9.06,7.36A1.51,1.51,0,0,1,9.23,5C12,2.65,23.44,2.34,29.37,6.24a1.59,1.59,0,0,0,1.45.1l0,.07A36.4,36.4,0,0,1,54.39,6L48.83,20.71,33.09,24a1.67,1.67,0,0,0-1.28,2v0l.9,3.58a1.65,1.65,0,0,0,2,1.19l.12,0,3.59-1.23a9.73,9.73,0,0,0,6.7,10.07A1.64,1.64,0,0,0,47,38.94a28.43,28.43,0,0,1,3-3.52c-.86,3.9-1.16,8,.65,10.16,2.51,2.92,12.57,1.34,16.78.52A1.64,1.64,0,0,0,68.67,45c.28-.92,2.41-8.29,2.15-12.63a11,11,0,0,1,3.34-.88c.11,0,.2-.08.31-.12C74.77,39.71,70.45,48.12,61.56,55.76Z" style="fill:#e53935"/><path d="M74.07,27.77c-4.41-3.12-9.72-3.59-13.8-3.31a29.15,29.15,0,0,1,3.27-1.91,1.65,1.65,0,0,0,.89-1.75A9.87,9.87,0,0,0,62.21,16a9.55,9.55,0,0,0-3.29-2.45l2.55-4.28A24.83,24.83,0,0,1,67,14.06,29.74,29.74,0,0,1,74.07,27.77Z" style="fill:#e53935"/><path d="M38.5,31.47a9.46,9.46,0,0,1,0-2l-1.28.44,1.2-.37a9.54,9.54,0,0,0,.13,1.92Z" style="fill:#fff;opacity:0.200000002980232;isolation:isolate"/><path d="M32.47,24.22s-.07.09-.11.12A1.31,1.31,0,0,0,32.47,24.22Z" style="fill:#fff;opacity:0.200000002980232;isolation:isolate"/><path d="M23,12.35a1.34,1.34,0,0,0,.63-.28,1.87,1.87,0,0,1-.58.24l-1,.13C22.43,12.41,22.75,12.39,23,12.35Z" style="fill:#fff;opacity:0.200000002980232;isolation:isolate"/><path d="M46.67,39.3l0,0a1.63,1.63,0,0,1-1.26.32A1.42,1.42,0,0,0,46.67,39.3Z" style="fill:#fff;opacity:0.200000002980232;isolation:isolate"/><path d="M50,35.42l-.39.43c-.66,3.71-.76,7.64,1,9.73C48.82,43.47,49.12,39.32,50,35.42Z" style="fill:#fff;opacity:0.200000002980232;isolation:isolate"/><circle cx="48.28" cy="30.2" r="1.65" style="fill:#303c42"/><path d="M70.83,32.32C71.08,36.66,69,44,68.67,45a1.64,1.64,0,0,1-1.26,1.15,60.26,60.26,0,0,1-10.17,1.16l11.46.86c4-5.45,6-11.12,5.77-16.8-.11,0-.2.12-.31.12A10.87,10.87,0,0,0,70.83,32.32Z" style="fill:url(#linear-gradient)"/><path d="M22.64,63.2c11.18,9.49,27.64,2.26,38.92-7.44,8.89-7.64,13.21-16,12.91-24.44-.11,0-.2.12-.31.12a10.87,10.87,0,0,0-3.33.88C71.08,36.66,69,44,68.67,45a1.64,1.64,0,0,1-1.26,1.15,53.75,53.75,0,0,1-11.67,1.13,50.74,50.74,0,0,1-4.38,4.25C41.27,60.16,31.09,64.13,22.64,63.2Z" style="opacity:0.100000001490116;isolation:isolate"/><path d="M62.21,16a9.89,9.89,0,0,1,2.22,4.76,1.65,1.65,0,0,1-.55,1.53,1.35,1.35,0,0,1-.22.14c.15.66.27,1.32.36,2a19.36,19.36,0,0,1,10,3.31,29.74,29.74,0,0,0-7-13.71,25.09,25.09,0,0,0-5.57-4.75L59.28,13c.31.44.6.89.88,1.34A9.1,9.1,0,0,1,62.21,16Z" style="opacity:0.100000001490116;isolation:isolate"/><path d="M30.46,3.07C23.41-1,11-.84,7.08,2.53a4.81,4.81,0,0,0-.52,7,7.28,7.28,0,0,0,1.27,1.14C2.05,15.81-1.8,20,.85,23.12c1.48,1.71,4.18,1.64,8.55-.3C6,31,6.41,39.65,9,47.5l-.82-.64a1.64,1.64,0,0,0-2.31.28,1.73,1.73,0,0,0-.35.9l-.17,2.32a1.64,1.64,0,0,0,1,1.65l2.8,1.17-4.3,1.47a1.66,1.66,0,0,0-1,2.11,1.86,1.86,0,0,0,.3.53l2.15,2.5A1.66,1.66,0,0,0,8.61,60l2.5-2.16L10.4,61a1.63,1.63,0,0,0,1.25,2l.24,0,2.32.17A1.65,1.65,0,0,0,16,61.69a.89.89,0,0,0,0-.23l0-.72q.87,1.17,1.8,2.25c10.46,12.16,28.5,10.3,46-4.73,16.44-14.14,18.62-31.47,5.82-46.35C60.87,1.82,44.55-1.82,30.46,3.07Z" style="fill:url(#linear-gradient-2)"/></g></g></g></svg>