<svg id="Layer_1" data-name="Layer 1" xmlns="http://www.w3.org/2000/svg" xmlns:xlink="http://www.w3.org/1999/xlink" viewBox="0 0 54 39.98"><defs><linearGradient id="linear-gradient" x1="32" y1="14" x2="32" y2="53.98" gradientTransform="matrix(1, 0, 0, -1, 0, 66)" gradientUnits="userSpaceOnUse"><stop offset="0" stop-color="#7363de"/><stop offset="0.34" stop-color="#7880e5"/><stop offset="0.78" stop-color="#7da0ec"/></linearGradient></defs><title>discord</title><path d="M51.68,17.8S46.64,13,40.47,12a1.22,1.22,0,0,0-1.36.88v0a1.19,1.19,0,0,0,.83,1.47,22.72,22.72,0,0,1,9.56,5,.16.16,0,0,1-.18.27C44.7,17.47,39.91,16,32,16s-12.69,1.47-17.29,3.67a.16.16,0,0,1-.18-.27,23.67,23.67,0,0,1,9.54-5,1.19,1.19,0,0,0,.83-1.46,1.23,1.23,0,0,0-1.4-.87A23.34,23.34,0,0,0,12.32,17.8S6.26,26.54,5,43.69a2.33,2.33,0,0,0,.62,1.78c5,5.19,11.74,6.29,14.27,6.52a1.8,1.8,0,0,0,1.68-.8,1.85,1.85,0,0,0-.85-2.69,24.57,24.57,0,0,1-7.31-5,.17.17,0,0,1,.21-.26C17.59,45.8,23.32,48,32,48s14.41-2.2,18.37-4.81a.17.17,0,0,1,.21.26,24.45,24.45,0,0,1-7.31,5,1.85,1.85,0,0,0-.85,2.69,1.82,1.82,0,0,0,1.68.8c2.53-.23,9.23-1.33,14.27-6.52A2.33,2.33,0,0,0,59,43.69C57.74,26.54,51.68,17.8,51.68,17.8ZM24.5,40A4.77,4.77,0,0,1,20,35a4.77,4.77,0,0,1,4.5-5A4.77,4.77,0,0,1,29,35,4.77,4.77,0,0,1,24.5,40Zm15,0A4.77,4.77,0,0,1,35,35a4.77,4.77,0,0,1,4.5-5A4.77,4.77,0,0,1,44,35,4.77,4.77,0,0,1,39.5,40Z" transform="translate(-5 -12.02)" style="fill:url(#linear-gradient)"/></svg>