<svg xmlns="http://www.w3.org/2000/svg" viewBox="0 0 58.7 65.34"><title>Pacman</title><g id="Layer_2" data-name="Layer 2"><g id="Ñëîé_1" data-name="Ñëîé 1"><g id="Pacman"><path id="path5769" d="M45.48,3.57C35.25-1.73,23.18.64,18.81,9.08l-7.9,15.24c-.24.47-.44.95-.63,1.43-.09.14-.22.23-.3.37L1.1,43.27c-.95,1.84.13,4.28,2.05,5.28s4.54.47,5.5-1.37l3.68-7.12c2.71-5.23,10-1.05,7.58,3.65L16.11,51c-.95,1.84.14,4.28,2.05,5.28s4.54.47,5.5-1.37l3.79-7.33a4.21,4.21,0,1,1,7.36,4.08l-3.69,7.12c-.95,1.84.14,4.28,2.06,5.27s4.53.47,5.49-1.37l8.88-17.14c.07-.15.07-.31.13-.46.28-.43.55-.87.8-1.34l7.89-15.25c4.37-8.44-.65-19.66-10.89-25Z" style="fill:#8d5fd3;stroke:#000;stroke-linecap:round;stroke-linejoin:round;stroke-width:1.5px"/><ellipse id="circle5771" cx="29.11" cy="17.18" rx="4.17" ry="4.21" transform="translate(0.47 35.13) rotate(-62.62)" style="fill:#ffd42a;stroke:#000;stroke-linecap:round;stroke-linejoin:round;stroke-width:1.5px"/><ellipse id="circle5773" cx="43.2" cy="24.47" rx="4.17" ry="4.21" transform="translate(1.6 51.57) rotate(-62.62)" style="fill:#ffd42a;stroke:#000;stroke-linecap:round;stroke-linejoin:round;stroke-width:1.5px"/></g></g></g></svg>