<svg xmlns="http://www.w3.org/2000/svg" xmlns:xlink="http://www.w3.org/1999/xlink" viewBox="0 0 57.19 60"><defs><linearGradient id="linear-gradient" x1="-25.65" y1="-444.02" x2="-19.7" y2="-449.97" gradientTransform="matrix(0.99, -0.12, -0.12, -0.99, -4.42, -424.32)" gradientUnits="userSpaceOnUse"><stop offset="0" stop-opacity="0.1"/><stop offset="1" stop-opacity="0"/></linearGradient><linearGradient id="linear-gradient-2" x1="-42.59" y1="-450.29" x2="7.77" y2="-473.77" gradientTransform="matrix(0.99, -0.12, -0.12, -0.99, -4.42, -424.32)" gradientUnits="userSpaceOnUse"><stop offset="0" stop-color="#fff" stop-opacity="0.2"/><stop offset="1" stop-color="#fff" stop-opacity="0"/></linearGradient></defs><title>Pad</title><g id="Layer_2" data-name="Layer 2"><g id="Ñëîé_1" data-name="Ñëîé 1"><g id="Pad"><path d="M51,43.68,35.49,45.52l-.15-1.28a3.89,3.89,0,0,0-3-3.32L29.66,18.64a10.38,10.38,0,1,0-10.31,1.23L22,42.15a3.89,3.89,0,0,0-2.14,3.94L20,47.37l-2.57.31-.16-1.29a1.29,1.29,0,0,0-1.44-1.13l-7.73.92A1.3,1.3,0,0,0,7,47.63l.15,1.28-2.58.31A5.19,5.19,0,0,0,0,55L.5,58.86A1.29,1.29,0,0,0,1.94,60l54.11-6.47a1.3,1.3,0,0,0,1.13-1.44l-.46-3.87A5.19,5.19,0,0,0,51,43.68Z"/><circle cx="23.45" cy="10.38" r="7.78" style="fill:#e53935"/><path d="M26.49,3.25c0,.08,0,.15.05.23a7.79,7.79,0,0,1-6.8,8.65,7.68,7.68,0,0,1-4-.6A7.77,7.77,0,1,0,26.49,3.25Z" style="opacity:0.100000001490116;isolation:isolate"/><path d="M24.68,20.69A10.16,10.16,0,0,0,27.21,20l2.51,21-5.15.61-2.51-21A10.88,10.88,0,0,0,24.68,20.69Z" style="fill:#e53935"/><path d="M22.45,45.78a1.32,1.32,0,0,1,1.14-1.45l7.73-.92a1.3,1.3,0,0,1,1.44,1.13l.15,1.29-10.3,1.24Z" style="fill:#546e7a"/><path d="M54.45,51.1,2.92,57.26l-.31-2.58A2.6,2.6,0,0,1,4.88,51.8l46.38-5.55a2.6,2.6,0,0,1,2.88,2.27Z" style="fill:#546e7a"/><path d="M54.45,51.1,2.92,57.26l-.31-2.58A2.6,2.6,0,0,1,4.88,51.8l46.38-5.55a2.6,2.6,0,0,1,2.88,2.27Z" style="fill:#546e7a"/><path d="M51.26,46.25l-9,1.08a2.6,2.6,0,0,1,2.88,2.27l.31,2.57,9-1.07-.31-2.58A2.6,2.6,0,0,0,51.26,46.25Z" style="opacity:0.100000001490116;isolation:isolate"/><path d="M22.06,20.63l.18,1.51L28,26.67,27.21,20a10.16,10.16,0,0,1-2.53.68A10.88,10.88,0,0,1,22.06,20.63Z" style="fill:url(#linear-gradient)"/><path d="M51,43.68,35.49,45.52l-.15-1.28a3.89,3.89,0,0,0-3-3.32L29.66,18.64a10.38,10.38,0,1,0-10.31,1.23L22,42.15a3.89,3.89,0,0,0-2.14,3.94L20,47.37l-2.57.31-.16-1.29a1.29,1.29,0,0,0-1.44-1.13l-7.73.92A1.3,1.3,0,0,0,7,47.63l.15,1.28-2.58.31A5.19,5.19,0,0,0,0,55L.5,58.86A1.29,1.29,0,0,0,1.94,60l54.11-6.47a1.3,1.3,0,0,0,1.13-1.44l-.46-3.87A5.19,5.19,0,0,0,51,43.68Z" style="fill:url(#linear-gradient-2)"/></g></g></g></svg>