<svg xmlns="http://www.w3.org/2000/svg" xmlns:xlink="http://www.w3.org/1999/xlink" viewBox="0 0 60.12 62.98"><defs><linearGradient id="linear-gradient" x1="21.92" y1="-380.32" x2="57.4" y2="-415.81" gradientTransform="matrix(1, 0, 0, -1, 0, -357.34)" gradientUnits="userSpaceOnUse"><stop offset="0" stop-opacity="0.1"/><stop offset="1" stop-opacity="0"/></linearGradient><linearGradient id="linear-gradient-2" x1="-5.01" y1="-372.48" x2="65.13" y2="-405.19" gradientTransform="matrix(1, 0, 0, -1, 0, -357.34)" gradientUnits="userSpaceOnUse"><stop offset="0" stop-color="#fff" stop-opacity="0.2"/><stop offset="1" stop-color="#fff" stop-opacity="0"/></linearGradient></defs><title>powerup</title><g id="Layer_2" data-name="Layer 2"><g id="Ñëîé_1" data-name="Ñëîé 1"><g id="powerup"><path d="M54.66,0H5.47A5.61,5.61,0,0,0,0,5.73V57.26A5.6,5.6,0,0,0,5.47,63H54.66a5.6,5.6,0,0,0,5.46-5.72V5.73A5.61,5.61,0,0,0,54.66,0Z"/><path d="M57.39,57.26a2.8,2.8,0,0,1-2.73,2.86H5.47a2.8,2.8,0,0,1-2.74-2.86V5.73A2.81,2.81,0,0,1,5.47,2.86H54.66a2.81,2.81,0,0,1,2.73,2.87Z" style="fill:#ffd54f"/><path d="M30.06,11.45A11.21,11.21,0,0,0,19.13,22.9v1.43a1.4,1.4,0,0,0,1.37,1.44H26a1.4,1.4,0,0,0,1.37-1.44V22.9a2.73,2.73,0,1,1,5.46,0v3.31A1.37,1.37,0,0,1,32,27.5a10,10,0,0,0-6,9.28v1.87a1.4,1.4,0,0,0,1.37,1.43h5.46a1.4,1.4,0,0,0,1.37-1.43V36.78a1.39,1.39,0,0,1,.84-1.3,9.94,9.94,0,0,0,6-9.28V22.9A11.21,11.21,0,0,0,30.06,11.45Z"/><path d="M38.26,26.21A7.09,7.09,0,0,1,34,32.82a4.24,4.24,0,0,0-2.55,4v.44H28.69v-.44A7.1,7.1,0,0,1,33,30.16a4.24,4.24,0,0,0,2.56-3.95V22.9a5.48,5.48,0,1,0-10.94,0H21.86a8.42,8.42,0,0,1,8.2-8.59,8.42,8.42,0,0,1,8.2,8.59Z" style="fill:#fff176"/><path d="M32.79,42.94H27.33A1.4,1.4,0,0,0,26,44.38V50.1a1.4,1.4,0,0,0,1.37,1.43h5.46a1.4,1.4,0,0,0,1.37-1.43V44.38A1.4,1.4,0,0,0,32.79,42.94Z"/><path d="M28.69,45.81h2.74v2.86H28.69Z" style="fill:#fff176"/><ellipse cx="8.2" cy="8.59" rx="2.73" ry="2.86"/><ellipse cx="51.92" cy="8.59" rx="2.73" ry="2.86"/><path d="M37.28,14.31l0,0c.1.09.22.17.32.27l-.29-.3Zm.7.74a11.65,11.65,0,0,1,3,7.85v3.31a9.94,9.94,0,0,1-6,9.27,1.4,1.4,0,0,0-.84,1.3v1.87a1.4,1.4,0,0,1-1.37,1.43H27.33a1.36,1.36,0,0,1-.75-.26l3,3.12h3.22a1.4,1.4,0,0,1,1.37,1.44V50.1a1.4,1.4,0,0,1-1.37,1.43H27.33a1.24,1.24,0,0,1-.72-.24L35,60.12H54.66a2.8,2.8,0,0,0,2.73-2.86V35.39ZM32,27.5a1.38,1.38,0,0,0,.84-1.29V22.9a2.73,2.73,0,1,0-5.46,0v1.43A1.4,1.4,0,0,1,26,25.77H20.5a1.36,1.36,0,0,1-1-.41l7.19,7.53A9.7,9.7,0,0,1,32,27.5Z" style="fill:url(#linear-gradient)"/><ellipse cx="8.2" cy="54.4" rx="2.73" ry="2.86"/><ellipse cx="51.92" cy="54.4" rx="2.73" ry="2.86"/><path d="M54.66,0H5.47A5.61,5.61,0,0,0,0,5.73V57.26A5.6,5.6,0,0,0,5.47,63H54.66a5.6,5.6,0,0,0,5.46-5.72V5.73A5.61,5.61,0,0,0,54.66,0Z" style="fill:url(#linear-gradient-2)"/></g></g></g></svg>