<svg xmlns="http://www.w3.org/2000/svg" xmlns:xlink="http://www.w3.org/1999/xlink" viewBox="0 0 63.01 63.01"><defs><linearGradient id="linear-gradient" x1="531.01" y1="-1111.26" x2="531.01" y2="-1052.74" gradientTransform="matrix(0.4, 0.92, 0.92, -0.4, 815.23, -888.56)" gradientUnits="userSpaceOnUse"><stop offset="0" stop-color="#37ab6a"/><stop offset="0.42" stop-color="#39b66f"/><stop offset="1" stop-color="#3ac074"/></linearGradient><linearGradient id="linear-gradient-2" x1="536.55" y1="-1062.93" x2="536.55" y2="-1108" gradientTransform="matrix(0.4, 0.92, 0.92, -0.4, 815.23, -888.56)" gradientUnits="userSpaceOnUse"><stop offset="0" stop-color="#42d778"/><stop offset="0.43" stop-color="#3dca76"/><stop offset="1" stop-color="#34b171"/></linearGradient><linearGradient id="linear-gradient-3" x1="521.83" y1="-1053.18" x2="521.83" y2="-1110.4" xlink:href="#linear-gradient-2"/></defs><title>Puzzl</title><g id="Layer_2" data-name="Layer 2"><g id="Ñëîé_1" data-name="Ñëîé 1"><g id="Puzzl"><path d="M47.7,45.21l5.46-2.4A6,6,0,0,0,56.24,35l-2.4-5.47a2.39,2.39,0,0,1,1.23-3.15l2.19-.95a8.38,8.38,0,0,0,4.3-11h0a8.38,8.38,0,0,0-11-4.3l-2.18,1a2.39,2.39,0,0,1-3.15-1.23l-2.4-5.46A6,6,0,0,0,35,1.25l-5.47,2.4A2.39,2.39,0,0,0,28.25,6.8l1,2.18a8.37,8.37,0,0,1-4.3,11h0a8.36,8.36,0,0,1-11-4.31l-1-2.18a2.39,2.39,0,0,0-3.15-1.23l-5.46,2.4a6,6,0,0,0-3.08,7.86L14.68,53.16a6,6,0,0,0,7.86,3.08L28,53.84a2.39,2.39,0,0,1,3.15,1.23l.95,2.19a8.38,8.38,0,0,0,11,4.3h0a8.38,8.38,0,0,0,4.3-11l-1-2.18A2.39,2.39,0,0,1,47.7,45.21Z" style="stroke:#000;stroke-miterlimit:10;stroke-width:1.5px;fill:url(#linear-gradient)"/><path d="M15.89,47.6h0a4.78,4.78,0,0,1,2.46-6.3h0a4.77,4.77,0,0,1,6.29,2.46h0a4.77,4.77,0,0,1-2.46,6.29h0A4.78,4.78,0,0,1,15.89,47.6Z" style="fill:url(#linear-gradient-2)"/><path d="M14.75,39.22a4.8,4.8,0,0,0,2.46-6.3l-1-2.18a3.58,3.58,0,0,1,6.56-2.88L25,35a5.38,5.38,0,0,0,9.85-4.31,4.18,4.18,0,1,1,7.65-3.36l3.12,7.11a4.78,4.78,0,0,0,6.29,2.46c2.42-1.06,3.11-3.35,2-5.77l-.45-1.46a2.53,2.53,0,0,1,1-3.32L57.12,25a7.64,7.64,0,0,0,4-10.45,7.76,7.76,0,0,0-10.53-4.14l-2.18,1A2.81,2.81,0,0,1,45,10l-.71-1.05-2.2-4.47c-1.33-3-3.81-3.53-6.83-2.21L30.06,4.19c-1.21.53-1.74,1.38-1.21,2.59l1,2.16c1.85,4.23-.57,9.8-4.8,11.65A9.38,9.38,0,0,1,13.31,16l-1.16-2.27c-1.27-1.05-1.53-1-2.65-.41l-4.59,1.9a5.12,5.12,0,0,0-2.69,7.3L8.46,36.76A4.78,4.78,0,0,0,14.75,39.22Z" style="fill:url(#linear-gradient-3)"/></g></g></g></svg>