<svg id="Layer_1" data-name="Layer 1" xmlns="http://www.w3.org/2000/svg" xmlns:xlink="http://www.w3.org/1999/xlink" viewBox="0 0 253.86 38.17"><defs><pattern id="Ripple" data-name="Ripple" width="72" height="72" patternTransform="translate(31.16 71.1)" patternUnits="userSpaceOnUse" viewBox="0 0 72 72"><rect width="72" height="72" style="fill:none"/><path d="M80.4,64.14s1,4.06-2.92,4S73.54,70,74.35,72.43,74.17,77.05,71,77" style="fill:none;stroke:#231f20;stroke-width:0.75px"/><path d="M13.35,15.53s3.79-1.74,4.5,2.08,2.61,3.5,4.82,2.22,4.56-.73,5.14,2.38" style="fill:none;stroke:#231f20;stroke-width:0.75px"/><path d="M66,28.74s-2.6,3.26-5,.17-3.91-1.94-5.31.2-3.74,2.72-5.65.2" style="fill:none;stroke:#231f20;stroke-width:0.75px"/><path d="M39,29.05s-3.82-1.67-1.45-4.74S38.45,20,36,19.24s-3.59-2.92-1.66-5.42" style="fill:none;stroke:#231f20;stroke-width:0.75px"/><path d="M41.14,24.82s4.08-.88,2.36-4.36,0-4.36,2.52-4.67,4.1-2.14,2.7-5" style="fill:none;stroke:#231f20;stroke-width:0.75px"/><path d="M55.12,14.87s4.08-.88,2.36-4.36,0-4.36,2.52-4.66,4.1-2.15,2.7-5" style="fill:none;stroke:#231f20;stroke-width:0.75px"/><path d="M27.39,34.19s3.68-2,1.07-4.84-1.21-4.19,1.15-5.18S33,21,30.83,18.64" style="fill:none;stroke:#231f20;stroke-width:0.75px"/><path d="M10.39,22.94s1.29,4-2.58,4.23S4,29.36,5.05,31.7s.21,4.62-2.94,4.84" style="fill:none;stroke:#231f20;stroke-width:0.75px"/><path d="M7.56,41.16s-2-3.64,1.72-4.64,3.29-2.87,1.85-5-1.09-4.49,2-5.3" style="fill:none;stroke:#231f20;stroke-width:0.75px"/><path d="M20.44,17s1.35-3.95,4.61-1.83,4.33.52,4.93-2,2.6-3.82,5.26-2.09" style="fill:none;stroke:#231f20;stroke-width:0.75px"/><path d="M12.33,44.48S10.57,40.7,14.38,40s3.48-2.63,2.19-4.83S15.8,30.57,18.91,30" style="fill:none;stroke:#231f20;stroke-width:0.75px"/><path d="M24,38.67s-3.43-2.38-.51-4.93,1.68-4-.55-5.28-3-3.55-.58-5.64" style="fill:none;stroke:#231f20;stroke-width:0.75px"/><path d="M11,59.64s.31-4.16,4-2.94,4.32-.6,4.28-3.15,1.55-4.36,4.55-3.36" style="fill:none;stroke:#231f20;stroke-width:0.75px"/><path d="M29.5,52.86s-.38,4.15-4,2.87-4.33.52-4.33,3.07-1.64,4.33-4.62,3.27" style="fill:none;stroke:#231f20;stroke-width:0.75px"/><path d="M19.67,27.31s-4.17.18-3.38-3.62-1.09-4.23-3.62-3.88-4.51-1-3.87-4.14" style="fill:none;stroke:#231f20;stroke-width:0.75px"/><path d="M32.71,28s-1.49,3.89,2.36,4.35,3.66,2.37,2.54,4.66-.44,4.6,2.7,5" style="fill:none;stroke:#231f20;stroke-width:0.75px"/><path d="M3.32,45.67s1.92,3.71,4.82,1.13,4.21-1.15,5.17,1.21,3.15,3.39,5.52,1.29" style="fill:none;stroke:#231f20;stroke-width:0.75px"/><path d="M51,83.38S49.16,79.64,53,78.81,56.36,76.1,55,73.93s-.89-4.54,2.21-5.22" style="fill:none;stroke:#231f20;stroke-width:0.75px"/><path d="M64.56,10S67,13.34,63.44,14.8s-2.9,3.26-1.21,5.17,1.65,4.32-1.29,5.51" style="fill:none;stroke:#231f20;stroke-width:0.75px"/><path d="M60,14.27s-4.09.83-2.41,4.33,0,4.36-2.57,4.64-4.12,2.1-2.75,5" style="fill:none;stroke:#231f20;stroke-width:0.75px"/><path d="M17.08.72s4.16.2,3,3.91.71,4.31,3.26,4.2,4.39,1.44,3.47,4.47" style="fill:none;stroke:#231f20;stroke-width:0.75px"/><path d="M39.44,15.71s-4-1-2.23-4.42.13-4.36-2.4-4.74-4-2.26-2.55-5" style="fill:none;stroke:#231f20;stroke-width:0.75px"/><path d="M18,7.9s-4-1.27-4.22,2.6-2.17,3.78-4.52,2.78-4.62-.18-4.82,3" style="fill:none;stroke:#231f20;stroke-width:0.75px"/><path d="M8.4,64.14s1,4.06-2.92,4S1.54,70,2.35,72.43,2.17,77.05-1,77" style="fill:none;stroke:#231f20;stroke-width:0.75px"/><path d="M70.32,33.48s-2.27,3.5-4.91.65-4.08-1.56-5.26.7-3.46,3.07-5.62.75" style="fill:none;stroke:#231f20;stroke-width:0.75px"/><path d="M50.38,1.6s1,4.06-2.92,4-4,1.86-3.14,4.28S44.15,14.5,41,14.45" style="fill:none;stroke:#231f20;stroke-width:0.75px"/><path d="M43.88,31.8s-1.63-3.83,2.2-4.44,3.57-2.51,2.35-4.75S47.82,18,51,17.53" style="fill:none;stroke:#231f20;stroke-width:0.75px"/><path d="M74.88,33.61s-4.15-.44-2.81-4.08-.45-4.34-3-4.38-4.3-1.69-3.2-4.66" style="fill:none;stroke:#231f20;stroke-width:0.75px"/><path d="M62.12,38.22s3.47-2.32,4.77,1.34S70,42.6,72,41s4.39-1.45,5.45,1.53" style="fill:none;stroke:#231f20;stroke-width:0.75px"/><path d="M71.68,62.73s-.76,4.1-4.29,2.49-4.36.12-4.59,2.66-2,4.16-4.9,2.84" style="fill:none;stroke:#231f20;stroke-width:0.75px"/><path d="M28.78,44s4.13.55,2.7,4.15.33,4.35,2.88,4.46,4.26,1.81,3.09,4.75" style="fill:none;stroke:#231f20;stroke-width:0.75px"/><path d="M14.79,43.43s1.2,4,4.54,2,4.34-.36,4.85,2.14,2.46,3.92,5.18,2.29" style="fill:none;stroke:#231f20;stroke-width:0.75px"/><path d="M1.79,60S3,64,6.33,62s4.34-.36,4.85,2.15,2.46,3.91,5.18,2.29" style="fill:none;stroke:#231f20;stroke-width:0.75px"/><path d="M37.88,69s4.15-.36,2.88-4,.54-4.33,3.1-4.31,4.33-1.61,3.29-4.6" style="fill:none;stroke:#231f20;stroke-width:0.75px"/><path d="M34.49,60.09s3.21,2.66.08,5-2,3.87.09,5.31,2.65,3.79.1,5.66" style="fill:none;stroke:#231f20;stroke-width:0.75px"/><path d="M50.83,63.59s-3.38-2.45-.39-4.93,1.77-4-.42-5.3-2.88-3.62-.44-5.64" style="fill:none;stroke:#231f20;stroke-width:0.75px"/><path d="M55.94,59.43s2.82-3.07,5,.17,3.76,2.22,5.31.18,3.92-2.45,5.65.2" style="fill:none;stroke:#231f20;stroke-width:0.75px"/><path d="M40.17,32.48s4.16.24,3,3.94.67,4.31,3.22,4.23,4.38,1.48,3.43,4.5" style="fill:none;stroke:#231f20;stroke-width:0.75px"/><path d="M31.67,40.41s-.38,4.16,3.45,3.56,4.17,1.31,3.69,3.82.82,4.55,3.94,4.07" style="fill:none;stroke:#231f20;stroke-width:0.75px"/><path d="M19.47,42.71s1.07-4,4.47-2.16,4.35.21,4.77-2.31,2.33-4,5.1-2.46" style="fill:none;stroke:#231f20;stroke-width:0.75px"/><path d="M1.21,13.18s4.16-.22,3-3.93S4.92,5,7.47,5.05,11.86,3.59,10.93.57" style="fill:none;stroke:#231f20;stroke-width:0.75px"/><path d="M35.69,57.65S31.87,56,31.22,59.8s-2.54,3.54-4.78,2.3-4.57-.66-5.1,2.46" style="fill:none;stroke:#231f20;stroke-width:0.75px"/><path d="M83.79,52.82s-1.58-3.86-4.7-1.55-4.3.78-5-1.65S71.21,46,68.67,47.85" style="fill:none;stroke:#231f20;stroke-width:0.75px"/><path d="M67.72,48.84s-1,4-4.44,2.21-4.36-.16-4.75,2.36-2.28,4-5.07,2.52" style="fill:none;stroke:#231f20;stroke-width:0.75px"/><path d="M59.64,60.81s-.13,4.17-3.86,3.11-4.29.78-4.13,3.33-1.37,4.42-4.41,3.55" style="fill:none;stroke:#231f20;stroke-width:0.75px"/><path d="M51.35,47.94s2-3.65,4.86-1,4.17,1.27,5.19-1.07,3.24-3.3,5.55-1.14" style="fill:none;stroke:#231f20;stroke-width:0.75px"/><path d="M41.29,59.08s-2-3.68,1.81-4.61,3.33-2.81,1.93-4.95S44,45,47.09,44.25" style="fill:none;stroke:#231f20;stroke-width:0.75px"/><path d="M62,83.53s-1.29-4,2.58-4.23,3.78-2.19,2.76-4.53-.21-4.62,3-4.84" style="fill:none;stroke:#231f20;stroke-width:0.75px"/><path d="M46.41,34s4.1-.82,3.89,3.06,1.73,4,4.18,3.28,4.61.34,4.45,3.51" style="fill:none;stroke:#231f20;stroke-width:0.75px"/><path d="M66.59,12.82s4.13-.53,3.67,3.32,1.45,4.12,3.94,3.56,4.58.65,4.2,3.79" style="fill:none;stroke:#231f20;stroke-width:0.75px"/><path d="M65.07,53.84s2.41,3.4,4.93.45,4-1.73,5.29.48,3.58,2.93,5.64.52" style="fill:none;stroke:#231f20;stroke-width:0.75px"/><path d="M45.46,62.83s-3.72,1.88-1.18,4.81S45.39,71.86,43,72.8s-3.42,3.11-1.35,5.5" style="fill:none;stroke:#231f20;stroke-width:0.75px"/><path d="M28.23,80.31s-3.57-2.15-.81-4.88,1.43-4.13-.87-5.24-3.18-3.36-.92-5.59" style="fill:none;stroke:#231f20;stroke-width:0.75px"/><path d="M20,65.69s1.2,4-2.68,4.17S13.46,72,14.42,74.32s.1,4.62-3.06,4.76" style="fill:none;stroke:#231f20;stroke-width:0.75px"/><path d="M2.88,33.61s-4.15-.44-2.81-4.08-.45-4.34-3-4.38-4.3-1.69-3.2-4.66" style="fill:none;stroke:#231f20;stroke-width:0.75px"/><path d="M-9.88,38.22s3.47-2.32,4.77,1.34S-2,42.6,0,41s4.39-1.45,5.45,1.53" style="fill:none;stroke:#231f20;stroke-width:0.75px"/><path d="M-.32,62.73s-.76,4.1-4.29,2.49S-9,65.34-9.2,67.88s-2,4.16-4.9,2.84" style="fill:none;stroke:#231f20;stroke-width:0.75px"/><path d="M-16.06,59.43s2.82-3.07,4.95.17,3.76,2.22,5.31.18,3.92-2.45,5.65.2" style="fill:none;stroke:#231f20;stroke-width:0.75px"/><path d="M11.79,52.82S10.21,49,7.09,51.27s-4.3.78-5-1.65S-.79,46-3.33,47.85" style="fill:none;stroke:#231f20;stroke-width:0.75px"/><path d="M-5.41,12.82s4.13-.53,3.67,3.32S-.29,20.26,2.2,19.7s4.58.65,4.2,3.79" style="fill:none;stroke:#231f20;stroke-width:0.75px"/><path d="M-6.93,53.84s2.41,3.4,4.93.45,4-1.73,5.29.48,3.58,2.93,5.64.52" style="fill:none;stroke:#231f20;stroke-width:0.75px"/><path d="M80.4-7.86s1,4.06-2.92,4S73.54-2,74.35.43,74.17,5.05,71,5" style="fill:none;stroke:#231f20;stroke-width:0.75px"/><path d="M51,11.38S49.16,7.64,53,6.81,56.36,4.1,55,1.93s-.89-4.54,2.21-5.22" style="fill:none;stroke:#231f20;stroke-width:0.75px"/><path d="M8.4-7.86s1,4.06-2.92,4S1.54-2,2.35.43,2.17,5.05-1,5" style="fill:none;stroke:#231f20;stroke-width:0.75px"/><path d="M34.49-11.91s3.21,2.66.08,5-2,3.87.09,5.31,2.65,3.79.1,5.66" style="fill:none;stroke:#231f20;stroke-width:0.75px"/><path d="M62,11.53s-1.29-4,2.58-4.23,3.78-2.19,2.76-4.53-.21-4.62,3-4.84" style="fill:none;stroke:#231f20;stroke-width:0.75px"/><path d="M45.46-9.17s-3.72,1.88-1.18,4.81S45.39-.14,43,.8s-3.42,3.11-1.35,5.5" style="fill:none;stroke:#231f20;stroke-width:0.75px"/><path d="M28.23,8.31s-3.57-2.15-.81-4.88,1.43-4.13-.87-5.24-3.18-3.36-.92-5.59" style="fill:none;stroke:#231f20;stroke-width:0.75px"/><path d="M20-6.31s1.2,4-2.68,4.17S13.46,0,14.42,2.32s.1,4.62-3.06,4.76" style="fill:none;stroke:#231f20;stroke-width:0.75px"/></pattern></defs><title>test</title><path id="path16559" d="M0,0H253.86V38.17H0Z" style="fill:url(#Ripple)"/></svg>