<svg id="Layer_1" data-name="Layer 1" xmlns="http://www.w3.org/2000/svg" viewBox="0 0 17 33.3"><title>lock</title><circle cx="8.28" cy="3.53" r="3.53" style="fill:#e6e6e6"/><path d="M4.83,4.28A7.46,7.46,0,0,1,8,3.53H9a7,7,0,0,1,7,7v5.52a.5.5,0,0,1-.5.5h-2a.5.5,0,0,1-.5-.5V10.53a4,4,0,0,0-4-4H8a3.86,3.86,0,0,0-1.23.19A3.59,3.59,0,0,1,5.43,5.61,3.19,3.19,0,0,1,4.83,4.28Z" style="fill:#ffe07d"/><path d="M4,14.54v1.51a.5.5,0,0,1-.5.5h-2a.5.5,0,0,1-.5-.5V14.54Z" style="fill:#ffe07d"/><path d="M17,16.8V30.6a2.7,2.7,0,0,1-2.7,2.7H2.7A2.7,2.7,0,0,1,0,30.6H0V16.8a.5.5,0,0,1,.5-.5h16A.5.5,0,0,1,17,16.8Z" style="fill:#ffe07d"/><path d="M17,16.8V30.6a2.7,2.7,0,0,1-2.7,2.7H8.5v-17h8A.5.5,0,0,1,17,16.8Z" style="fill:#ffc269"/><rect y="16.3" width="17" height="4.2" rx="0.5" ry="0.5" style="fill:#6f6571"/><path d="M11,23.6a2.52,2.52,0,0,1-1,2v2.2a1.5,1.5,0,0,1-3,0V25.59A2.5,2.5,0,0,1,8.5,21.1a2.38,2.38,0,0,1,1.57.56A2.47,2.47,0,0,1,11,23.6Z" style="fill:#6f6571"/><path d="M16,10.53v5.52a.5.5,0,0,1-.5.5h-2a.5.5,0,0,1-.5-.5V10.53a4,4,0,0,0-4-4H8.5v-3H9A7,7,0,0,1,16,10.53Z" style="fill:#ffc269"/><path d="M17,16.8V20a.5.5,0,0,1-.5.5h-8V16.3h8A.5.5,0,0,1,17,16.8Zm-6,6.8a2.52,2.52,0,0,1-1,2v2.2a1.5,1.5,0,0,1-1.5,1.5V21.1a2.38,2.38,0,0,1,1.57.56A2.47,2.47,0,0,1,11,23.6Z" style="fill:#606060"/></svg>