<svg id="Layer_1" data-name="Layer 1" xmlns="http://www.w3.org/2000/svg" viewBox="0 0 74 74"><title>discord2</title><circle cx="37" cy="37" r="37" style="fill:snow"/><path d="M64.33,47.25c-1-9.09-3.13-18-6.14-24.77a3.48,3.48,0,0,0-1.53-1.66A40.07,40.07,0,0,0,45.9,16.88a1.81,1.81,0,0,0-2.15,1.3L43.31,20l.07.65a31.88,31.88,0,0,0-12.76,0l.07-.65-.44-1.8a1.79,1.79,0,0,0-2.15-1.32,40,40,0,0,0-10.76,3.93,3.48,3.48,0,0,0-1.53,1.66c-3,6.79-5.16,15.69-6.14,24.78a3.56,3.56,0,0,0,1.27,3.12,38.65,38.65,0,0,0,11.55,6.71,1.81,1.81,0,0,0,2.27-.91l2.33-4.64v-.27a42.29,42.29,0,0,0,19.82,0v.27l2.33,4.67a1.8,1.8,0,0,0,2.26.9,38.46,38.46,0,0,0,11.56-6.67A3.6,3.6,0,0,0,64.33,47.25ZM28.17,44.77c-2.52,0-4.57-2.65-4.57-5.9s2-5.91,4.57-5.91,4.57,2.64,4.57,5.91S30.69,44.77,28.17,44.77Zm18,0c-2.52,0-4.57-2.65-4.57-5.9S43.67,33,46.19,33s4.57,2.64,4.57,5.91S48.71,44.77,46.19,44.77Z" style="fill:#7289da"/><path d="M28,32.6c-3,0-5.41,2.82-5.41,6.3S25,45.21,28,45.21s5.41-2.83,5.41-6.31S31,32.6,28,32.6Zm0,10.81c-2,0-3.6-2-3.6-4.51S26,34.4,28,34.4s3.6,2,3.6,4.5S30,43.41,28,43.41ZM46,32.6c-3,0-5.41,2.82-5.41,6.3S43,45.21,46,45.21s5.4-2.83,5.4-6.31S49,32.6,46,32.6Zm0,10.81c-2,0-3.6-2-3.6-4.51S44,34.4,46,34.4s3.6,2,3.6,4.5S48,43.41,46,43.41Z" style="fill:#634c70"/><path d="M65.23,47.15a87.26,87.26,0,0,0-6.21-25A4.44,4.44,0,0,0,57.09,20a41.47,41.47,0,0,0-11-4,2.71,2.71,0,0,0-3.21,2l-.38,1.56a32.64,32.64,0,0,0-11,0L31.13,18a2.71,2.71,0,0,0-3.21-2,41.47,41.47,0,0,0-11,4A4.4,4.4,0,0,0,15,22.07,87.88,87.88,0,0,0,8.77,47.15a4.52,4.52,0,0,0,1.59,3.91,39.41,39.41,0,0,0,11.83,6.83,2.39,2.39,0,0,0,.95.17,2.69,2.69,0,0,0,2.43-1.49L27.7,52.3a43.58,43.58,0,0,0,18.61,0l2.13,4.27a2.68,2.68,0,0,0,2.42,1.49,2.63,2.63,0,0,0,1-.17,39.41,39.41,0,0,0,11.83-6.83A4.51,4.51,0,0,0,65.23,47.15Zm-2.71,2.54a37.36,37.36,0,0,1-11.29,6.52.9.9,0,0,1-1.14-.43l-2-3.91a41.5,41.5,0,0,0,6.39-2.27.88.88,0,0,0,.37-1.21A.9.9,0,0,0,53.75,48,40.32,40.32,0,0,1,37,51.51,40.32,40.32,0,0,1,20.25,48a.91.91,0,0,0-1.16.53.9.9,0,0,0,.42,1.11,41.5,41.5,0,0,0,6.39,2.27L24,55.78a.9.9,0,0,1-1.14.43,37.55,37.55,0,0,1-11.29-6.5,2.68,2.68,0,0,1-.95-2.34,85,85,0,0,1,6.07-24.51,2.64,2.64,0,0,1,1.13-1.23A39.5,39.5,0,0,1,28.3,17.78a.9.9,0,0,1,1.08.66l.37,1.48a24.37,24.37,0,0,0-7.67,3,.9.9,0,0,0,1,1.49A27,27,0,0,1,37,20.91c8.59,0,13.85,3.5,13.91,3.54a.89.89,0,0,0,1.25-.25A.91.91,0,0,0,51.94,23a24.37,24.37,0,0,0-7.67-3l.37-1.48a.9.9,0,0,1,1.08-.66,39.43,39.43,0,0,1,10.52,3.85,2.61,2.61,0,0,1,1.14,1.23,85.39,85.39,0,0,1,6.07,24.51,2.69,2.69,0,0,1-1,2.34Z" style="fill:#634c70"/></svg>