<svg id="Layer_1" data-name="Layer 1" xmlns="http://www.w3.org/2000/svg" viewBox="0 0 64 64"><title>discord</title><circle cx="32" cy="32" r="32" style="fill:snow"/><path d="M59.33,42.25c-1-9.09-3.13-18-6.14-24.77a3.48,3.48,0,0,0-1.53-1.66A40.07,40.07,0,0,0,40.9,11.88a1.81,1.81,0,0,0-2.15,1.3L38.31,15l.07.65a31.88,31.88,0,0,0-12.76,0l.07-.65-.44-1.8a1.79,1.79,0,0,0-2.15-1.32,40,40,0,0,0-10.76,3.93,3.48,3.48,0,0,0-1.53,1.66c-3,6.79-5.16,15.69-6.14,24.78a3.56,3.56,0,0,0,1.27,3.12,38.65,38.65,0,0,0,11.55,6.71,1.81,1.81,0,0,0,2.27-.91l2.33-4.64v-.27a42.29,42.29,0,0,0,19.82,0v.27l2.33,4.67a1.8,1.8,0,0,0,2.26.9,38.46,38.46,0,0,0,11.56-6.67A3.6,3.6,0,0,0,59.33,42.25ZM23.17,39.77c-2.52,0-4.57-2.65-4.57-5.9s2-5.91,4.57-5.91,4.57,2.64,4.57,5.91S25.69,39.77,23.17,39.77Zm18,0c-2.52,0-4.57-2.65-4.57-5.9S38.67,28,41.19,28s4.57,2.64,4.57,5.91S43.71,39.77,41.19,39.77Z" transform="translate(0)" style="fill:#7289da"/><path d="M23,27.6c-3,0-5.41,2.82-5.41,6.3S20,40.21,23,40.21s5.41-2.83,5.41-6.31S26,27.6,23,27.6Zm0,10.81c-2,0-3.6-2-3.6-4.51S21,29.4,23,29.4s3.6,2,3.6,4.5S25,38.41,23,38.41ZM41,27.6c-3,0-5.41,2.82-5.41,6.3S38,40.21,41,40.21s5.4-2.83,5.4-6.31S44,27.6,41,27.6Zm0,10.81c-2,0-3.6-2-3.6-4.51S39,29.4,41,29.4s3.6,2,3.6,4.5S43,38.41,41,38.41Z" transform="translate(0)" style="fill:#634c70"/><path d="M60.23,42.15a87.26,87.26,0,0,0-6.21-25A4.44,4.44,0,0,0,52.09,15a41.47,41.47,0,0,0-11-4,2.71,2.71,0,0,0-3.21,2l-.38,1.56a32.64,32.64,0,0,0-11,0L26.13,13a2.71,2.71,0,0,0-3.21-2,41.47,41.47,0,0,0-11,4A4.4,4.4,0,0,0,10,17.07,87.88,87.88,0,0,0,3.77,42.15a4.52,4.52,0,0,0,1.59,3.91,39.41,39.41,0,0,0,11.83,6.83,2.39,2.39,0,0,0,.95.17,2.69,2.69,0,0,0,2.43-1.49L22.7,47.3a43.58,43.58,0,0,0,18.61,0l2.13,4.27a2.68,2.68,0,0,0,2.42,1.49,2.63,2.63,0,0,0,1-.17,39.41,39.41,0,0,0,11.83-6.83A4.51,4.51,0,0,0,60.23,42.15Zm-2.71,2.54a37.36,37.36,0,0,1-11.29,6.52.9.9,0,0,1-1.14-.43l-2-3.91a41.5,41.5,0,0,0,6.39-2.27.88.88,0,0,0,.37-1.21A.9.9,0,0,0,48.75,43,40.32,40.32,0,0,1,32,46.51,40.32,40.32,0,0,1,15.25,43a.91.91,0,0,0-1.16.53.9.9,0,0,0,.42,1.11,41.5,41.5,0,0,0,6.39,2.27L19,50.78a.9.9,0,0,1-1.14.43,37.55,37.55,0,0,1-11.29-6.5,2.68,2.68,0,0,1-.95-2.34,85,85,0,0,1,6.07-24.51,2.64,2.64,0,0,1,1.13-1.23A39.5,39.5,0,0,1,23.3,12.78a.9.9,0,0,1,1.08.66l.37,1.48a24.37,24.37,0,0,0-7.67,3,.9.9,0,0,0,1,1.49A27,27,0,0,1,32,15.91c8.59,0,13.85,3.5,13.91,3.54a.89.89,0,0,0,1.25-.25A.91.91,0,0,0,46.94,18a24.37,24.37,0,0,0-7.67-3l.37-1.48a.9.9,0,0,1,1.08-.66,39.43,39.43,0,0,1,10.52,3.85,2.61,2.61,0,0,1,1.14,1.23,85.39,85.39,0,0,1,6.07,24.51,2.69,2.69,0,0,1-1,2.34Z" transform="translate(0)" style="fill:#634c70"/><path d="M34.41,50.12a34.3,34.3,0,0,1-10.3-.85.9.9,0,0,0-1.13.6.89.89,0,0,0,.6,1.12l.1,0A35.94,35.94,0,0,0,32,52a23.68,23.68,0,0,0,2.53-.09.91.91,0,0,0,.84-1,.9.9,0,0,0-1-.83Zm5.49-.82c-.76.18-1.52.34-2.28.47a.9.9,0,0,0-.83,1,.91.91,0,0,0,1,.83h.15c.8-.14,1.6-.3,2.4-.49a.9.9,0,1,0-.42-1.75ZM32,18.06a.9.9,0,0,0-.9.9v1.59a.9.9,0,0,0,1.8,0V19A.9.9,0,0,0,32,18.06Zm4.28,3.78h.22a.91.91,0,0,0,.9-.7l.37-1.55A.9.9,0,0,0,36,19.17l-.43,1.58a.91.91,0,0,0,.67,1.09ZM40.39,23a.89.89,0,0,0,1.2-.4l.73-1.45a.9.9,0,1,0-1.54-.92l-.06.11L40,21.78A.91.91,0,0,0,40.39,23Zm-13.8-1.82a.91.91,0,0,0,.9.7h.22a.91.91,0,0,0,.7-1.07.11.11,0,0,1,0-.05L28,19.2a.9.9,0,0,0-1.75.42ZM22.4,22.59a.9.9,0,0,0,1.67-.69L24,21.78l-.73-1.45a.9.9,0,0,0-1.66.7.37.37,0,0,0,.05.11Z" transform="translate(0)" style="fill:#634c70"/></svg>