<svg id="Layer_1" data-name="Layer 1" xmlns="http://www.w3.org/2000/svg" viewBox="0 0 64 64"><title>google</title><circle cx="32" cy="32" r="32" style="fill:snow"/><path d="M44.46,46.11a18.49,18.49,0,0,1-28.55-7.87A56.63,56.63,0,0,0,7.64,44.6,28,28,0,0,0,52.26,52Z" transform="translate(0)" style="fill:#34a853"/><path d="M15.91,38.24A18.52,18.52,0,0,1,17.24,22a49.6,49.6,0,0,1-7.82-5.69A28,28,0,0,0,7.64,44.6C11.64,42,11.64,41,15.91,38.24Z" transform="translate(0)" style="fill:#fbbc05"/><path d="M16.87,22.68a18.47,18.47,0,0,1,25-7.46,17.72,17.72,0,0,1,2.15,1.36l6.29-6.28a28,28,0,0,0-39.4,4c-.53.65-1,1.33-1.51,2C11.64,18,13.64,19,16.87,22.68Z" transform="translate(0)" style="fill:#ea4335"/><path d="M59.64,37l-2,7-5,9-7-6,3-5,.44-5H33.64V28h26Z" transform="translate(0)" style="fill:#4285f4"/><path d="M58.64,27.2H35a2,2,0,0,0-2,2v7.22a2,2,0,0,0,2,2h13.6c-1.8,7.24-7.32,11.28-15.74,11.28A17.92,17.92,0,0,1,14.78,32,17.92,17.92,0,0,1,32.84,14.22h0a18.24,18.24,0,0,1,10.43,3.25,2,2,0,0,0,1.17.37,2,2,0,0,0,1.48-.67l4.86-5.48a2,2,0,0,0-.16-2.82l-.14-.12A29.84,29.84,0,0,0,32.85,3C16.59,3,3.36,16,3.36,32S16.59,61,32.85,61c16.62-.08,27.79-11.38,27.79-28.19V29.2A2,2,0,0,0,58.64,27.2ZM32.85,5a27.93,27.93,0,0,1,16.44,5.36l-4.87,5.47a20.24,20.24,0,0,0-27.86,4.65l-5.92-4.41A27.64,27.64,0,0,1,32.85,5ZM9.53,17.71l5.93,4.44a19.23,19.23,0,0,0-1.52,16.32l-6.13,4.6A26.41,26.41,0,0,1,9.53,17.71Zm-.8,27.17,6-4.5A20.11,20.11,0,0,0,32.85,51.7a19.06,19.06,0,0,0,12-3.72l5.57,4.78C46,56.69,40,58.92,32.84,58.92A27.57,27.57,0,0,1,8.73,44.88ZM58.64,32.81c0,7.61-2.47,14-6.77,18.55l-5.51-4.72a16.61,16.61,0,0,0,4.17-7.74,2,2,0,0,0-1.46-2.42,2,2,0,0,0-.48-.06H35V29.2H58.64Z" transform="translate(0)" style="fill:#634c70"/><path d="M17.64,32a1,1,0,0,0,1,1h2a1,1,0,0,0,0-2h-2A1,1,0,0,0,17.64,32Zm2,6.24a.94.94,0,0,0,.37-.07l1.85-.75a1,1,0,0,0-.75-1.85l-1.85.75a1,1,0,0,0-.53,1.31A1,1,0,0,0,19.64,38.24Zm2.93,4.49a1,1,0,0,0,.69-.28l1.44-1.39a1,1,0,0,0,0-1.41,1,1,0,0,0-1.42,0L21.88,41a1,1,0,0,0,.69,1.72Zm5.6-.73a1,1,0,0,0-1.32.51h0L26,44.34a1,1,0,0,0,.51,1.32h0a1,1,0,0,0,.41.09,1,1,0,0,0,.91-.59l.77-1.79A1,1,0,0,0,28.21,42Zm-7-13.57a.94.94,0,0,0,.37.07,1,1,0,0,0,.37-1.93L20,25.82a1,1,0,0,0-.75,1.85ZM24.7,23l-1.44-1.39A1,1,0,0,0,21.88,23l1.44,1.39A1,1,0,1,0,24.71,23h0Zm3.94-2.32-.81-1.83a1,1,0,1,0-1.83.81l.81,1.83a1,1,0,0,0,.91.59,1,1,0,0,0,.41-.09A1,1,0,0,0,28.64,20.63Z" transform="translate(0)" style="fill:#634c70"/></svg>