<svg id="Layer_1" data-name="Layer 1" xmlns="http://www.w3.org/2000/svg" viewBox="0 0 74 74"><title>google2</title><circle cx="37" cy="37" r="37" style="fill:snow"/><path d="M49.46,51.11a18.49,18.49,0,0,1-28.55-7.87,56.63,56.63,0,0,0-8.27,6.36A28,28,0,0,0,57.26,57Z" style="fill:#34a853"/><path d="M20.91,43.24A18.52,18.52,0,0,1,22.24,27a49.6,49.6,0,0,1-7.82-5.69A28,28,0,0,0,12.64,49.6C16.64,47,16.64,46,20.91,43.24Z" style="fill:#fbbc05"/><path d="M21.87,27.68a18.47,18.47,0,0,1,25-7.46,17.72,17.72,0,0,1,2.15,1.36l6.29-6.28a28,28,0,0,0-39.4,4c-.53.65-1,1.33-1.51,2C16.64,23,18.64,24,21.87,27.68Z" style="fill:#ea4335"/><path d="M64.64,42l-2,7-5,9-7-6,3-5,.44-5H38.64V33h26Z" style="fill:#4285f4"/><path d="M63.64,32.2H40a2,2,0,0,0-2,2v7.22a2,2,0,0,0,2,2h13.6c-1.8,7.24-7.32,11.28-15.74,11.28a17.74,17.74,0,1,1,0-35.48h0a18.24,18.24,0,0,1,10.43,3.25,2,2,0,0,0,1.17.37,2,2,0,0,0,1.48-.67l4.86-5.48a2,2,0,0,0-.16-2.82l-.14-.12A29.84,29.84,0,0,0,37.85,8C21.59,8,8.36,21,8.36,37S21.59,66,37.85,66c16.62-.08,27.79-11.38,27.79-28.19V34.2A2,2,0,0,0,63.64,32.2ZM37.85,10a27.93,27.93,0,0,1,16.44,5.36l-4.87,5.47a20.24,20.24,0,0,0-27.86,4.65l-5.92-4.41A27.64,27.64,0,0,1,37.85,10ZM14.53,22.71l5.93,4.44a19.23,19.23,0,0,0-1.52,16.32l-6.13,4.6A26.41,26.41,0,0,1,14.53,22.71Zm-.8,27.17,6-4.5A20.11,20.11,0,0,0,37.85,56.7a19.06,19.06,0,0,0,12-3.72l5.57,4.78C51,61.69,45,63.92,37.84,63.92A27.57,27.57,0,0,1,13.73,49.88ZM63.64,37.81c0,7.61-2.47,14-6.77,18.55l-5.51-4.72a16.61,16.61,0,0,0,4.17-7.74,2,2,0,0,0-1.46-2.42,2,2,0,0,0-.48-.06H40V34.2H63.64Z" style="fill:#634c70"/></svg>