<svg id="Layer_1" data-name="Layer 1" xmlns="http://www.w3.org/2000/svg" viewBox="0 0 400 525"><title>foot</title><line id="_Path_" data-name="&lt;Path&gt;" x1="202.27" y1="514.67" x2="202.27" y2="133.88" style="fill:none;stroke:#020202;stroke-linecap:round;stroke-linejoin:round;stroke-width:14px"/><path id="_Rectangle_" data-name="&lt;Rectangle&gt;" d="M175.77,494h53a26,26,0,0,1,26,26v0a0,0,0,0,1,0,0h-105a0,0,0,0,1,0,0v0a26,26,0,0,1,26-26Z" style="fill:#1ac7ce"/><path id="_Path_2" data-name="&lt;Path&gt;" d="M201.1,494H175.77a26,26,0,0,0-26,26H175.1A26,26,0,0,1,201.1,494Z" style="fill:#31afaf"/><path id="_Rectangle_2" data-name="&lt;Rectangle&gt;" d="M175.77,494h53a26,26,0,0,1,26,26v0a0,0,0,0,1,0,0h-105a0,0,0,0,1,0,0v0a26,26,0,0,1,26-26Z" style="fill:none;stroke:#303030;stroke-linecap:round;stroke-linejoin:round;stroke-width:10px"/><path id="_Rectangle_3" data-name="&lt;Rectangle&gt;" d="M175.77,494h53a26,26,0,0,1,26,26v0a0,0,0,0,1,0,0h-105a0,0,0,0,1,0,0v0a26,26,0,0,1,26-26Z" style="fill:none;stroke:#303030;stroke-linecap:round;stroke-linejoin:round;stroke-width:10px"/><path id="_Rectangle_4" data-name="&lt;Rectangle&gt;" d="M175.77,494h53a26,26,0,0,1,26,26v0a0,0,0,0,1,0,0h-105a0,0,0,0,1,0,0v0a26,26,0,0,1,26-26Z" style="fill:none;stroke:#020202;stroke-linecap:round;stroke-linejoin:round;stroke-width:10px"/></svg>