<svg xmlns="http://www.w3.org/2000/svg" xmlns:xlink="http://www.w3.org/1999/xlink" viewBox="0 0 200.9 353.19"><defs><filter id="luminosity-noclip" x="116.43" y="-8345.51" width="11.9" height="32766" filterUnits="userSpaceOnUse" color-interpolation-filters="sRGB"><feFlood flood-color="#fff" result="bg"/><feBlend in="SourceGraphic" in2="bg"/></filter><mask id="mask" x="116.43" y="-8345.51" width="11.9" height="32766" maskUnits="userSpaceOnUse"><g style="filter:url(#luminosity-noclip)"/></mask><linearGradient id="linear-gradient" x1="133.99" y1="172.41" x2="129.27" y2="187.43" gradientTransform="matrix(0.78, 0.45, -0.38, 0.66, 88.36, 32.35)" gradientUnits="userSpaceOnUse"><stop offset="0"/><stop offset="0.12" stop-color="#090909"/><stop offset="0.32" stop-color="#202020"/><stop offset="0.56" stop-color="#464646"/><stop offset="0.85" stop-color="#7a7a7a"/><stop offset="1" stop-color="#999"/></linearGradient><filter id="luminosity-noclip-2" x="173.16" y="-8345.51" width="17.56" height="32766" filterUnits="userSpaceOnUse" color-interpolation-filters="sRGB"><feFlood flood-color="#fff" result="bg"/><feBlend in="SourceGraphic" in2="bg"/></filter><mask id="mask-2" x="173.16" y="-8345.51" width="17.56" height="32766" maskUnits="userSpaceOnUse"><g style="filter:url(#luminosity-noclip-2)"/></mask><linearGradient id="linear-gradient-2" x1="2014.89" y1="-1507.28" x2="2049.58" y2="-1507.28" gradientTransform="matrix(0, -0.9, 1, 0, 1697.75, 2155.48)" gradientUnits="userSpaceOnUse"><stop offset="0"/><stop offset="1" stop-color="#fff"/></linearGradient><linearGradient id="linear-gradient-3" x1="3724.33" y1="312.63" x2="3754.26" y2="263.38" gradientTransform="matrix(-1, 0, 0, 1, 3823.53, 0)" gradientUnits="userSpaceOnUse"><stop offset="0" stop-color="#f15264"/><stop offset="1" stop-color="#f19764"/></linearGradient><linearGradient id="linear-gradient-4" x1="23.31" y1="214.21" x2="146.09" y2="366.87" gradientUnits="userSpaceOnUse"><stop offset="0" stop-color="#f19764"/><stop offset="1" stop-color="#f15264"/></linearGradient><linearGradient id="linear-gradient-5" x1="50.14" y1="243.76" x2="167.87" y2="401.21" xlink:href="#linear-gradient-4"/><linearGradient id="linear-gradient-6" x1="198.4" y1="317.52" x2="198.4" y2="317.52" xlink:href="#linear-gradient-4"/><linearGradient id="linear-gradient-7" x1="105.01" y1="240.06" x2="87.99" y2="223.04" gradientUnits="userSpaceOnUse"><stop offset="0" stop-color="#d72126"/><stop offset="0.98" stop-color="#e6ba5a"/></linearGradient><linearGradient id="linear-gradient-8" x1="94.76" y1="204.07" x2="77.73" y2="187.05" xlink:href="#linear-gradient-7"/><linearGradient id="linear-gradient-9" x1="138.64" y1="226.48" x2="111.14" y2="198.98" gradientUnits="userSpaceOnUse"><stop offset="0.02" stop-color="#e6ba5a"/><stop offset="1" stop-color="#d72126"/></linearGradient><filter id="luminosity-noclip-3" x="116.43" y="204.17" width="11.9" height="12.08" filterUnits="userSpaceOnUse" color-interpolation-filters="sRGB"><feFlood flood-color="#fff" result="bg"/><feBlend in="SourceGraphic" in2="bg"/></filter><mask id="mask-3" x="116.43" y="204.17" width="11.9" height="12.08" maskUnits="userSpaceOnUse"><g style="mask:url(#mask);filter:url(#luminosity-noclip-3)"><path d="M127.5,213.16a5.91,5.91,0,1,1-2.07-8.22A6,6,0,0,1,127.5,213.16Z" style="mix-blend-mode:multiply;fill:url(#linear-gradient)"/></g></mask><linearGradient id="linear-gradient-10" x1="133.99" y1="172.41" x2="129.27" y2="187.43" gradientTransform="matrix(0.78, 0.45, -0.38, 0.66, 88.36, 32.35)" gradientUnits="userSpaceOnUse"><stop offset="0" stop-color="#fff" stop-opacity="0"/><stop offset="0.09" stop-color="#fff" stop-opacity="0.03"/><stop offset="0.22" stop-color="#fff" stop-opacity="0.12"/><stop offset="0.39" stop-color="#fff" stop-opacity="0.27"/><stop offset="0.59" stop-color="#fff" stop-opacity="0.48"/><stop offset="0.8" stop-color="#fff" stop-opacity="0.74"/><stop offset="1" stop-color="#fff"/></linearGradient><linearGradient id="linear-gradient-11" x1="73.88" y1="354.04" x2="43.78" y2="323.94" gradientTransform="translate(254.08 58.87) rotate(45)" xlink:href="#linear-gradient-3"/><linearGradient id="linear-gradient-12" x1="79.58" y1="282.57" x2="58.83" y2="261.83" gradientTransform="matrix(1, 0, 0, 1, 0, 0)" xlink:href="#linear-gradient-3"/><linearGradient id="linear-gradient-13" x1="176.38" y1="339.86" x2="151.38" y2="314.85" gradientTransform="matrix(1, 0, 0, 1, 0, 0)" xlink:href="#linear-gradient-3"/><filter id="luminosity-noclip-4" x="173.16" y="309.97" width="17.56" height="31.41" filterUnits="userSpaceOnUse" color-interpolation-filters="sRGB"><feFlood flood-color="#fff" result="bg"/><feBlend in="SourceGraphic" in2="bg"/></filter><mask id="mask-4" x="173.16" y="309.97" width="17.56" height="31.41" maskUnits="userSpaceOnUse"><g style="mask:url(#mask-2);filter:url(#luminosity-noclip-4)"><path d="M190.72,311.92c.06,13-4.55,22.52-14.09,29.07a2.32,2.32,0,0,1-3-.37,1.84,1.84,0,0,1,.42-2.74c8.38-5.75,12.43-14.24,12.38-25.94a2.17,2.17,0,0,1,4.32,0Z" style="mix-blend-mode:multiply;fill:url(#linear-gradient-2)"/></g></mask><linearGradient id="linear-gradient-14" x1="2014.89" y1="-1507.28" x2="2049.58" y2="-1507.28" gradientTransform="matrix(0, -0.9, 1, 0, 1697.75, 2155.48)" gradientUnits="userSpaceOnUse"><stop offset="0" stop-color="#fff"/><stop offset="0.2" stop-color="#fff" stop-opacity="0.74"/><stop offset="0.41" stop-color="#fff" stop-opacity="0.48"/><stop offset="0.61" stop-color="#fff" stop-opacity="0.27"/><stop offset="0.78" stop-color="#fff" stop-opacity="0.12"/><stop offset="0.91" stop-color="#fff" stop-opacity="0.03"/><stop offset="1" stop-color="#fff" stop-opacity="0"/></linearGradient><linearGradient id="linear-gradient-15" x1="1469.38" y1="-1708.47" x2="1497.94" y2="-1708.47" gradientTransform="matrix(3.13, 0, 0, 1.44, -4601.03, 2733.23)" xlink:href="#linear-gradient-14"/><linearGradient id="linear-gradient-16" x1="196.38" y1="972.12" x2="204.61" y2="961.84" gradientTransform="translate(252.8 -711.05) rotate(23.29)" xlink:href="#linear-gradient-14"/></defs><title>main_illustration</title><g style="isolation:isolate"><g id="Layer_1" data-name="Layer 1"><path d="M162,37.62v5.79a7.22,7.22,0,0,1-7.22,7.22H120.42a21.5,21.5,0,0,0-21.5,21.5v17c0,14.94,11.63,27.66,26.56,28.18a27.58,27.58,0,0,0,28.57-27.56v-15a9,9,0,0,1,9-9h2.15a11.2,11.2,0,0,0,11.19-11.2V37.62a7.21,7.21,0,0,0-7.21-7.21h0A7.21,7.21,0,0,0,162,37.62Z" style="fill:#e57f39"/><path d="M63.92,71.74H45.74a4.33,4.33,0,0,1-4.33-4.33v-4.6A7,7,0,0,0,35,55.74a6.85,6.85,0,0,0-7.31,6.84V76.79a11,11,0,0,0,11,11h2.74a4.33,4.33,0,0,1,4.33,4.33v7.76c0,8.49,6.95,15.7,15.44,15.54A15.15,15.15,0,0,0,76,100.23V83.86A12.12,12.12,0,0,0,63.92,71.74Z" style="fill:#ffd07d"/><path d="M86.86,105.83h0a6.66,6.66,0,0,1-6.67-6.67V84.81a6.66,6.66,0,0,1,6.67-6.66h0a6.67,6.67,0,0,1,6.67,6.66V99.16A6.67,6.67,0,0,1,86.86,105.83Z" style="fill:#ffd07d"/><path d="M52.55,52.34v2a4.13,4.13,0,0,0,4.13,4.13h0a4.13,4.13,0,0,0,4.13-4.13V37.59a6.1,6.1,0,0,1,6.1-6.1h0A6.1,6.1,0,0,1,73,37.59V72.46A13.09,13.09,0,0,1,59.91,85.55H54.23A13.09,13.09,0,0,1,41.14,72.46h0V52.34a5.71,5.71,0,0,1,5.71-5.7h0A5.7,5.7,0,0,1,52.55,52.34Z" style="fill:#ed913e"/><path d="M115.37,35.29H103.83a5.92,5.92,0,0,1-5.92-5.91V8.51A8.4,8.4,0,0,0,90,0a8.18,8.18,0,0,0-8.42,8.17v21a6.08,6.08,0,0,1-5.33,6.14,5.91,5.91,0,0,1-6.49-5.88V21.24a7.54,7.54,0,0,0-7.1-7.63,7.32,7.32,0,0,0-7.54,7.32V38.11A13.23,13.23,0,0,0,68.35,51.34h0A13.23,13.23,0,0,1,81.58,64.57v4.51A11.83,11.83,0,0,0,93.41,80.9h22A11.83,11.83,0,0,0,127.2,69.08v-22a11.83,11.83,0,0,0-11.83-11.83Z" style="fill:#e57f39"/><path d="M143.59,29.27H123.53a4.78,4.78,0,0,1-4.78-4.77V19.42a7.74,7.74,0,0,0-7.06-7.81,7.58,7.58,0,0,0-8.07,7.55V34.85A12.11,12.11,0,0,0,115.73,47h3a4.78,4.78,0,0,1,4.78,4.78v8.55c0,9.37,7.67,17.33,17,17.16A16.72,16.72,0,0,0,157,60.72V42.65A13.38,13.38,0,0,0,143.59,29.27Z" style="fill:#ed913e"/><path d="M110.8,32.37h17.57a4.19,4.19,0,0,0,4.18-4.19V23.74a6.78,6.78,0,0,1,6.18-6.84,6.62,6.62,0,0,1,7.06,6.61V37.25A10.59,10.59,0,0,1,135.2,47.84h-2.65A4.19,4.19,0,0,0,128.37,52v7.49c0,8.2-6.72,15.17-14.92,15A14.64,14.64,0,0,1,99.09,59.9V44.08A11.71,11.71,0,0,1,110.8,32.37Z" style="fill:#f4a845"/><path d="M115.15,64.72h17.67a4.2,4.2,0,0,0,4.2-4.2V56.05a6.81,6.81,0,0,1,6.22-6.87,6.66,6.66,0,0,1,7.1,6.64V69.63a10.65,10.65,0,0,1-10.65,10.65H137a4.21,4.21,0,0,0-4.2,4.21V92c0,8.25-6.75,15.26-15,15.1a14.72,14.72,0,0,1-14.44-14.71V76.5A11.78,11.78,0,0,1,115.15,64.72Z" style="fill:#ffd07d"/><path d="M93.41,69.14v2.49a5,5,0,0,1-5,5h0a5,5,0,0,1-5-5V51.23A7.41,7.41,0,0,0,76,43.82h0a7.4,7.4,0,0,0-7.4,7.41V93.58a15.9,15.9,0,0,0,15.9,15.9h6.89a15.9,15.9,0,0,0,15.9-15.9h0V69.14a6.93,6.93,0,0,0-6.93-6.93h0A6.92,6.92,0,0,0,93.41,69.14Z" style="fill:#ffbe55"/><path d="M139.43,83.86v5.79a7.21,7.21,0,0,1-7.21,7.22H97.86a21.49,21.49,0,0,0-21.5,21.5v17c0,14.94,11.63,28.84,26.56,28.18,34.75-1.51,34.64-11.37,29.69-26.72L131.49,121a9,9,0,0,1,9-9h2.14a11.2,11.2,0,0,0,11.2-11.2V83.86a7.21,7.21,0,0,0-7.21-7.21h0A7.21,7.21,0,0,0,139.43,83.86Z" style="fill:#ffbe55"/><path d="M95.66,97.39H75.6a4.78,4.78,0,0,1-4.78-4.78V87.54a7.74,7.74,0,0,0-7.06-7.81,7.57,7.57,0,0,0-8.07,7.55V103a12.11,12.11,0,0,0,12.1,12.11h3a4.77,4.77,0,0,1,4.78,4.77v8.56c0,5,.83,12.15,4.34,15.32,3,2.73,8.37,1.91,12.7,1.83A16.72,16.72,0,0,0,109,128.84V110.77A13.38,13.38,0,0,0,95.66,97.39Z" style="fill:#f4a845"/><path d="M126.54,144.08H115a5.92,5.92,0,0,1-5.92-5.92V117.29a8.38,8.38,0,0,0-7.91-8.5A8.17,8.17,0,0,0,92.75,117v21c0,3.09-1.83,5.72-4.84,5.61-3.39-.13-4-2.3-4.14-5.38-.25-5.07-.08-10.67-.18-11.94l.15-10.87a7.53,7.53,0,0,0-7.09-7.63A7.33,7.33,0,0,0,69.1,115l.11,23-2.92,8.9c3.11,7,.21,23.34,2.29,23.92L67.4,179s.86,1.39.86,8.69l1.39,3.77c0,6.53,28.4-1.74,34.93-1.74h22c6.53,0,8.48-5.86,8.48-12.39v-22c0-6.53-2-11.25-8.48-11.25Z" style="fill:#ffd07d"/><path d="M135.44,197.5l-.92-1.28-1-23.29s-.91-10.87-.91-13.26v-4.6a7,7,0,0,0-6.4-7.08,6.86,6.86,0,0,0-7.31,6.84V169c0,2.17-3.1,10.1-9,17.45-10.57,13.17-26.33,27.82-22.44,27.82l6.61,12c-6.5,7.34,11.93,11.91,20,5.81l8.52-6.52c0,8.49,6.95,15.7,15.44,15.54A15.14,15.14,0,0,0,152.89,226v-2.61Z" style="fill:#f4d5aa"/><path d="M66.37,189.36H77.91c.6-.6,3.25-3.25,3.25-6.51V162a8.4,8.4,0,0,1,7.91-8.51,8.16,8.16,0,0,1,8.42,8.16v21a6.08,6.08,0,0,0,5.33,6.14,5.9,5.9,0,0,0,6.49-5.88v-8.14a7.53,7.53,0,0,1,7.1-7.63A7.32,7.32,0,0,1,124,174.4v17.18a13.23,13.23,0,0,1-13.23,13.23h0A13.23,13.23,0,0,0,97.49,218v4.51a11.83,11.83,0,0,1-11.83,11.82h-22a11.82,11.82,0,0,1-11.82-11.82l7.48-17.44c2.41-5,5.92-12.65,6.5-12.67Z" style="fill:#ffdc9e"/><path d="M52.27,221.56l1.34,5.63a4.66,4.66,0,0,0,4.66,4.66h.56a4.8,4.8,0,0,0,4.36-3,9.15,9.15,0,0,1,8.41-5.55h9.68a9.12,9.12,0,0,1,7.19,3.5,13.68,13.68,0,0,0,10.78,5.06h0a14,14,0,0,0,14-14v-2.78a8.18,8.18,0,0,1,7.71-8.29,8,8,0,0,1,8.21,8v29.6a12,12,0,0,1-12.05,12H47.6a12,12,0,0,1-12.05-12" style="fill:#f0e8c7"/><path d="M153.46,227.34s-5.92,5.39-10.77,5.07c-7.72-.51-14-6.28-14-14v-2.79a8.18,8.18,0,0,0-7.71-8.28,8,8,0,0,0-8.21,7.95v29.6a12.05,12.05,0,0,0,12,12.05h47.63" style="fill:#f0e8c7"/><path d="M29,258.05c13,10.24,48.8,17.65,70.94,1.09,33.52-25.07,71.93,0,71.93,0l18.93,30.91a53.71,53.71,0,0,1,7.58,27.51h0a33.13,33.13,0,0,1-33.13,33.13H35.64A33.13,33.13,0,0,1,2.5,317.56v0A53.66,53.66,0,0,1,10.09,290Z" style="fill:url(#linear-gradient-3)"/><path d="M29.23,258.21c13,10.24,48,16.68,70.73.93,35.75-24.77,71.93,0,71.93,0l18.93,30.91a53.71,53.71,0,0,1,7.58,27.51h0a33.13,33.13,0,0,1-33.13,33.13H35.64A33.13,33.13,0,0,1,2.5,317.56v0A53.66,53.66,0,0,1,10.09,290Z" style="fill:none;stroke:#020202;stroke-linecap:round;stroke-miterlimit:10;stroke-width:5px"/><path d="M190.82,290l-50-83.8a46.85,46.85,0,0,1-6.62-24V135.51H66.7v46.7a46.77,46.77,0,0,1-6.61,24l-50,83.86A53.71,53.71,0,0,0,2.5,317.56h0a33.13,33.13,0,0,0,33.14,33.13H165.27a33.13,33.13,0,0,0,33.13-33.13v0A53.75,53.75,0,0,0,190.82,290Z" style="fill:none;stroke:#000;stroke-linecap:round;stroke-miterlimit:10;stroke-width:5px"/><path d="M142.52,132.57a9.93,9.93,0,0,1-7.09,2.94h-70a10,10,0,0,1-10-10,10,10,0,0,1,10-10h70a10,10,0,0,1,10,10A9.93,9.93,0,0,1,142.52,132.57Z" style="fill:#f8f9ff;stroke:#000;stroke-miterlimit:10;opacity:0.35000000000000003;mix-blend-mode:soft-light"/><path d="M135.45,128.84a7.53,7.53,0,0,1-5.36,2.22H64.65a7.58,7.58,0,1,1,0-15.16h65.44a7.58,7.58,0,0,1,5.36,12.94Z" style="fill:#f8f9ff;opacity:0.35000000000000003;mix-blend-mode:soft-light"/><path d="M142.52,132.57a9.93,9.93,0,0,1-7.09,2.94h-70a10,10,0,0,1-10-10,10,10,0,0,1,10-10h70a10,10,0,0,1,10,10A9.93,9.93,0,0,1,142.52,132.57Z" style="fill:none;stroke:#000;stroke-miterlimit:10;stroke-width:5px"/><line x1="132.61" y1="115.45" x2="132.61" y2="126.59" style="fill:none;stroke:#000;stroke-linecap:round;stroke-miterlimit:10;stroke-width:3px"/><line x1="126.86" y1="115.45" x2="126.86" y2="122.79" style="fill:none;stroke:#000;stroke-linecap:round;stroke-miterlimit:10;stroke-width:3px"/><path d="M171.89,258.05c-13,10.24-42.72,44.75-70.95,1.09-26.41-40.85-71.92,0-71.92,0L10.08,290.05A53.71,53.71,0,0,0,2.5,317.56h0a33.13,33.13,0,0,0,33.14,33.13H165.27a33.13,33.13,0,0,0,33.13-33.13v0A53.75,53.75,0,0,0,190.82,290Z" style="fill:url(#linear-gradient-4)"/><path d="M171.89,258.05c-13,10.24-40.72,39-61.44,56.86C73.57,346.63,2.5,303.62,5.39,331.11a33.12,33.12,0,0,0,30.25,19.58H165.27a33.13,33.13,0,0,0,33.13-33.13v0A53.75,53.75,0,0,0,190.82,290Z" style="fill:url(#linear-gradient-5)"/><path d="M171.8,258.12c-13,10.24-39.1,44.68-70.86,1-22-30.18-50.6-15.89-64.16-6.28a41.74,41.74,0,0,0-11.45,12.3L10.08,290.05A53.71,53.71,0,0,0,2.5,317.56h0a33.13,33.13,0,0,0,33.14,33.13H165.27a33.13,33.13,0,0,0,33.13-33.13v0A53.75,53.75,0,0,0,190.82,290Z" style="fill:none;stroke:#020202;stroke-linecap:round;stroke-miterlimit:10;stroke-width:5px"/><path d="M198.4,317.52" style="fill:url(#linear-gradient-6)"/><circle cx="94.88" cy="229.93" r="4.44" style="stroke:#020202;stroke-miterlimit:10;fill:url(#linear-gradient-7)"/><circle cx="94.88" cy="229.93" r="4.44" style="fill:none;stroke:#020202;stroke-miterlimit:10;stroke-width:2px"/><circle cx="84.63" cy="193.94" r="4.44" style="stroke:#020202;stroke-miterlimit:10;fill:url(#linear-gradient-8)"/><circle cx="84.63" cy="193.94" r="4.44" style="fill:none;stroke:#020202;stroke-miterlimit:10;stroke-width:2px"/><circle cx="122.28" cy="210.12" r="7.17" style="stroke:#020202;stroke-miterlimit:10;fill:url(#linear-gradient-9)"/><circle cx="122.28" cy="210.12" r="7.17" style="fill:none;stroke:#020202;stroke-miterlimit:10;stroke-width:2px"/><g style="mask:url(#mask-3)"><path d="M127.5,213.16a5.91,5.91,0,1,1-2.07-8.22A6,6,0,0,1,127.5,213.16Z" style="mix-blend-mode:soft-light;fill:url(#linear-gradient-10)"/></g><circle cx="55.97" cy="336.13" r="7.85" transform="translate(-221.29 138.03) rotate(-45)" style="stroke:#020202;stroke-miterlimit:10;fill:url(#linear-gradient-11)"/><circle cx="55.97" cy="336.13" r="7.85" transform="translate(-221.29 138.03) rotate(-45)" style="fill:none;stroke:#020202;stroke-miterlimit:10;stroke-width:2px"/><path d="M72.64,270.23a5.41,5.41,0,1,1-5.41-5.41A5.41,5.41,0,0,1,72.64,270.23Z" style="stroke:#020202;stroke-miterlimit:10;fill:url(#linear-gradient-12)"/><path d="M72.64,270.23a5.41,5.41,0,1,1-5.41-5.41A5.41,5.41,0,0,1,72.64,270.23Z" style="fill:none;stroke:#020202;stroke-miterlimit:10;stroke-width:2px"/><path d="M168,325a6.52,6.52,0,1,1-6.52-6.52A6.51,6.51,0,0,1,168,325Z" style="stroke:#020202;stroke-miterlimit:10;fill:url(#linear-gradient-13)"/><path d="M168,325a6.52,6.52,0,1,1-6.52-6.52A6.51,6.51,0,0,1,168,325Z" style="fill:none;stroke:#020202;stroke-miterlimit:10;stroke-width:2px"/><path d="M88.68,337.45a1.93,1.93,0,1,1-1.93-1.93A1.93,1.93,0,0,1,88.68,337.45Z" style="fill:#020202"/><path d="M159.81,298.42a1.93,1.93,0,1,1,.77,2.62A1.94,1.94,0,0,1,159.81,298.42Z" style="fill:#020202"/><path d="M127.48,265.6a1.93,1.93,0,1,1,.77,2.62A1.94,1.94,0,0,1,127.48,265.6Z" style="fill:#020202"/><path d="M113.42,306.37a1.93,1.93,0,1,1-1.93-1.93A1.94,1.94,0,0,1,113.42,306.37Z" style="fill:#020202"/><g style="mask:url(#mask-4)"><path d="M190.72,311.92c.06,13-4.55,22.52-14.09,29.07a2.32,2.32,0,0,1-3-.37,1.84,1.84,0,0,1,.42-2.74c8.38-5.75,12.43-14.24,12.38-25.94a2.17,2.17,0,0,1,4.32,0Z" style="mix-blend-mode:overlay;fill:url(#linear-gradient-14)"/></g><path d="M50.06,306.37a1.94,1.94,0,1,1-1.93-1.93A1.94,1.94,0,0,1,50.06,306.37Z" style="fill:#020202"/><ellipse cx="39.69" cy="275.78" rx="44.68" ry="11.24" transform="translate(-210.16 152.46) rotate(-55.54)" style="stroke:#020202;stroke-miterlimit:10;opacity:0.22;mix-blend-mode:overlay;fill:url(#linear-gradient-15)"/><path d="M60.76,259a6.59,6.59,0,1,1-3.45-8.65A6.59,6.59,0,0,1,60.76,259Z" style="opacity:0.22;mix-blend-mode:overlay;fill:url(#linear-gradient-16)"/><line x1="77.23" y1="136.85" x2="77.23" y2="173.82" style="fill:none;stroke:#020202;stroke-linecap:round;stroke-miterlimit:10;stroke-width:3px"/><line x1="77.23" y1="178.97" x2="77.23" y2="184" style="fill:none;stroke:#020202;stroke-linecap:round;stroke-miterlimit:10;stroke-width:3px"/><path d="M33.54,340.17a24.07,24.07,0,0,0,3.73.29" style="fill:none;stroke:#020202;stroke-linecap:round;stroke-miterlimit:10;stroke-width:3px"/><path d="M14.08,308.3a38.73,38.73,0,0,0-.85,8.12h0A23.91,23.91,0,0,0,18.14,331a23.52,23.52,0,0,0,3.38,3.6" style="fill:none;stroke:#020202;stroke-linecap:round;stroke-miterlimit:10;stroke-width:3px"/><line x1="22.11" y1="283.48" x2="33.54" y2="264.67" style="fill:none;stroke:#020202;stroke-linecap:round;stroke-miterlimit:10;stroke-width:3px"/></g></g></svg>