<svg width="225" height="61" xmlns="http://www.w3.org/2000/svg" viewBox="0 0 224.43 37.77"><title>title</title><g id="Layer_2" data-name="Layer 2"><g id="Ñëîé_1" data-name="Ñëîé 1"><path d="M27.5,18.63H15.41v3.73H26.19v9.92H15.41V43.56H3.52V8.3h24Z" transform="translate(-2.77 -7.55)" style="fill:#f17464;stroke:#000;stroke-miterlimit:10;stroke-width:1.5px"/><path d="M59.63,40.44q-4.49,4.13-11.84,4.13T36,40.44a14.2,14.2,0,0,1-4.49-11V8.3H43.66V29.51a4.28,4.28,0,0,0,1.14,3.1,4.39,4.39,0,0,0,6,0,4.27,4.27,0,0,0,1.13-3.1V8.3H64.11V29.46A14.2,14.2,0,0,1,59.63,40.44Z" transform="translate(-2.77 -7.55)" style="fill:#f17464;stroke:#000;stroke-miterlimit:10;stroke-width:1.5px"/><path d="M91.26,8.3h11.18V43.56H92.87L80.43,26.89V43.56H69.25V8.3h9.92l12.09,16Z" transform="translate(-2.77 -7.55)" style="fill:#f17464;stroke:#000;stroke-miterlimit:10;stroke-width:1.5px"/><path d="M132,18.63H119.87v3.73h10.78v9.92H119.87V43.56H108V8.3h24Z" transform="translate(-2.77 -7.55)" style="fill:#fafafa;stroke:#000;stroke-miterlimit:10;stroke-width:1.5px"/><path d="M164.09,40.44q-4.49,4.13-11.83,4.13t-11.84-4.13a14.2,14.2,0,0,1-4.48-11V8.3h12.19V29.51a4.27,4.27,0,0,0,1.13,3.1,4.39,4.39,0,0,0,6,0,4.28,4.28,0,0,0,1.14-3.1V8.3h12.18V29.46A14.2,14.2,0,0,1,164.09,40.44Z" transform="translate(-2.77 -7.55)" style="fill:#fafafa;stroke:#000;stroke-miterlimit:10;stroke-width:1.5px"/><path d="M185.3,34.09h12.79v9.47H173.71V8.3h24.13v9.47H185.3V21.6h11.23v8.67H185.3Z" transform="translate(-2.77 -7.55)" style="fill:#fafafa;stroke:#000;stroke-miterlimit:10;stroke-width:1.5px"/><path d="M214.71,33h11.74V43.56H202.72V8.3h12Z" transform="translate(-2.77 -7.55)" style="fill:#fafafa;stroke:#000;stroke-miterlimit:10;stroke-width:1.5px"/></g></g></svg>