<svg xmlns="http://www.w3.org/2000/svg" viewBox="0 0 103.8 88.92"><title>bplus</title><g id="Layer_2" data-name="Layer 2"><g id="Layer_1-2" data-name="Layer 1"><path d="M6.89,30.92c2.36,9.14,7.8,17.63,12,26l7.07,14c1.82,3.59,3.42,7.18,6.55,9.81,1,.85,2.49-.61,1.47-1.47-3.24-2.7-4.81-6.58-6.67-10.26L20.71,55.87c-4.13-8.16-9.52-16.6-11.82-25.5a1,1,0,0,0-2,.55Z" style="fill:#e02424"/><path d="M56.88,14.87l9.9,20.81c.57,1.2,2.35.15,1.78-1L58.67,13.82c-.57-1.2-2.36-.15-1.79,1Z" style="fill:#e02424"/><path d="M8.66,31.05c7.7-3.19,16.49-4.88,24.78-3.28a17.2,17.2,0,0,1,5.18,1.73c2.51.92,3.23,2.81,2.18,5.64l-1.63,1c-2.88,2.81-8,4.84-11.45,6.91-.83.5-.54,2,.52,1.93a129.14,129.14,0,0,1,15.49-.26c2,.1,7.29-.36,8.78.77l2.31,5.06-1,2.55c-.53,1.2-1.13,2.36-1.75,3.5A51.4,51.4,0,0,1,32.32,76.52a1,1,0,0,0,1,1.79c10-5.74,20.31-15.73,23.44-27.22,1.22-4.45-.63-7.1-5.07-7.8-7.68-1.2-15.78-.95-23.5-.39l.52,1.93,9.82-5.93c1.6-1,4.05-1.84,5.14-3.48,1.81-2.73-.65-5.41-2.86-7-8.92-6.29-23.56-3.21-32.75.61-1.21.5-.68,2.51.55,2Z" style="fill:#e02424"/><path d="M55.63,28.4,72.1,23.25c1.27-.39.73-2.4-.55-2L55.08,26.4c-1.27.4-.73,2.4.55,2Z" style="fill:#e02424"/><path d="M23.24,5.81C4.39,9.61-2.91,30.71,1,47.72c2.45,10.55,8.21,20.53,15,28.87s15,13.23,25.87,12.2c20.86-2,41.91-14.09,53.74-31.42,10.47-15.33,12.49-38.7-3.88-51C81.93-1.07,67.64-.61,56,.93,41.75,2.82,28.09,7.68,14.59,12.52c-1.24.45-.71,2.45.55,2C34.75,7.49,56.3-.54,77.49,2.86,98.07,6.17,106.29,27.66,99.37,46S74.63,77.5,56.62,83.44c-10,3.29-21.7,5.84-31-.51-7.92-5.43-13.74-14.67-18-23.14C2.81,50,0,38.48,3.32,27.77c3-9.72,10.28-17.91,20.47-20,1.3-.26.75-2.26-.55-2Z" style="fill:#e02424"/></g></g></svg>