<svg xmlns="http://www.w3.org/2000/svg" viewBox="0 0 95.09 163.76"><title>fountainpen</title><g id="Layer_2" data-name="Layer 2"><g id="Layer_1-2" data-name="Layer 1"><g id="_Group_" data-name="&lt;Group&gt;"><path id="_Path_" data-name="&lt;Path&gt;" d="M86.35,149.83l2-1a9.79,9.79,0,0,0,4.34-13.16L71.79,94.21l1.08,9.51L78,106.5" style="fill:none;stroke:#2d2d2d;stroke-linecap:round;stroke-linejoin:round;stroke-width:2.731065445272236px"/><path id="_Path_2" data-name="&lt;Path&gt;" d="M74.52,119.37l-13.93,7C45.5,103.94,25.71,58.21,19.49,39.1l9.36-4.72C40.5,50.76,65.47,93.88,74.52,119.37Z" style="fill:#2d2d2d;stroke:#2d2d2d;stroke-linecap:round;stroke-linejoin:round;stroke-width:2.731065445272236px"/><path id="_Path_3" data-name="&lt;Path&gt;" d="M83.65,131.28c6.22,17.28,6.52,29.55,3.74,30.95S74.9,156.1,64.75,140.8c-8.74-13.49-15.49-28-22-42.49l20-10C70.36,102.16,78,116.24,83.65,131.28Z" style="fill:#2d2d2d;stroke:#2d2d2d;stroke-linecap:round;stroke-linejoin:round;stroke-width:2.731065445272236px"/><path id="_Path_4" data-name="&lt;Path&gt;" d="M22.68,16.28C15.2,12.29,6.4,1.5,6.4,1.5S9.86,15,8.59,23.37a.92.92,0,0,0,.49,1A23,23,0,0,1,19.9,38.85l4.24-2.13,4.24-2.14a22.68,22.68,0,0,1-5.21-17.32A.94.94,0,0,0,22.68,16.28Z" style="fill:#2d2d2d;stroke:#2d2d2d;stroke-linecap:round;stroke-linejoin:round;stroke-width:2.731065445272236px"/></g><path id="_Path_5" data-name="&lt;Path&gt;" d="M81.31,149.7l2-1a9.8,9.8,0,0,0,4.35-13.16L66.75,94.08l1.08,9.5,5.11,2.78" style="fill:none;stroke:#1f2120;stroke-linecap:round;stroke-linejoin:round;stroke-width:2.731065445272236px"/><path id="_Path_6" data-name="&lt;Path&gt;" d="M69.48,119.23l-13.93,7C40.46,103.8,20.68,58.07,14.45,39l9.36-4.71C35.46,50.62,60.43,93.74,69.48,119.23Z" style="fill:#ff1a1a"/><path id="_Path_7" data-name="&lt;Path&gt;" d="M23.81,34.25l-1.95,1c10.92,18,35.92,59.85,45,85.33l2.65-1.33C60.43,93.74,35.46,50.62,23.81,34.25Z" style="fill:#ff1a1a;opacity:0.20000000298023224;isolation:isolate"/><path id="_Path_8" data-name="&lt;Path&gt;" d="M63.18,120.68C48.55,98.92,29.25,59.91,19.1,36.58L14.41,39c6.22,19.11,26,64.84,41.09,87.28l13.94-7c-.17-.49-.34-1-.54-1.45C67,118.75,65.1,119.71,63.18,120.68Z" style="fill:#3f4545;opacity:0.6800000071525574;isolation:isolate"/><path id="_Path_9" data-name="&lt;Path&gt;" d="M69.48,119.23l-13.93,7C40.46,103.8,20.68,58.07,14.45,39l9.36-4.71C35.46,50.62,60.43,93.74,69.48,119.23Z" style="fill:none;stroke:#1f2120;stroke-linecap:round;stroke-linejoin:round;stroke-width:2.731065445272236px"/><path id="_Path_10" data-name="&lt;Path&gt;" d="M78.61,131.14c6.22,17.28,6.52,29.55,3.74,31S69.86,156,59.71,140.66c-8.74-13.49-15.48-28-22.05-42.48l20-10.06C65.32,102,73,116.1,78.61,131.14Z" style="fill:#ff1a1a"/><path id="_Path_11" data-name="&lt;Path&gt;" d="M57.59,88.1,54.2,89.81c7.72,13.88,15.38,28,21,43,5.07,14.11,6.22,24.89,4.92,29.13a2.85,2.85,0,0,0,2.2.12c2.8-1.41,2.51-13.69-3.74-30.95C73,116.1,65.32,102,57.59,88.1Z" style="fill:#ff1a1a;opacity:0.20000000298023224;isolation:isolate"/><path id="_Path_12" data-name="&lt;Path&gt;" d="M59.68,140.68a100.74,100.74,0,0,0,10.61,13.54c5.28-4.23-2.58-25.16-15.94-51.68C52.92,99.7,50.48,95.16,49,92.46L37.63,98.19C44.16,112.68,50.94,127.19,59.68,140.68Z" style="fill:#3f4545;opacity:0.6800000071525574;isolation:isolate"/><path id="_Path_13" data-name="&lt;Path&gt;" d="M78.61,131.14c6.22,17.28,6.52,29.55,3.74,31S69.86,156,59.71,140.66c-8.74-13.49-15.48-28-22.05-42.48l20-10.06C65.32,102,73,116.1,78.61,131.14Z" style="fill:none;stroke:#1f2120;stroke-linecap:round;stroke-linejoin:round;stroke-width:2.731065445272236px"/><path id="_Path_14" data-name="&lt;Path&gt;" d="M17.64,16.14C10.16,12.15,1.37,1.37,1.37,1.37S4.82,14.84,3.55,23.24a.92.92,0,0,0,.49,1A23,23,0,0,1,14.86,38.72l4.24-2.14,4.24-2.13a22.71,22.71,0,0,1-5.21-17.33A1,1,0,0,0,17.64,16.14Z" style="fill:#eaeaea"/><path id="_Path_15" data-name="&lt;Path&gt;" d="M17.64,16.14C10.16,12.15,1.37,1.37,1.37,1.37s.81,3.14,1.48,7.35C6,12,10.23,15.86,14.1,17.92a.93.93,0,0,1,.49,1A23.06,23.06,0,0,0,19.8,36.23l3.51-1.77A22.69,22.69,0,0,1,18.1,17.13.89.89,0,0,0,17.64,16.14Z" style="fill:#b5b4b4;opacity:0.3700000047683716;isolation:isolate"/><path id="_Path_16" data-name="&lt;Path&gt;" d="M17.64,16.14C10.16,12.15,1.37,1.37,1.37,1.37S4.82,14.84,3.55,23.24a.92.92,0,0,0,.49,1A23,23,0,0,1,14.86,38.72l4.24-2.14,4.24-2.13a22.71,22.71,0,0,1-5.21-17.33A1,1,0,0,0,17.64,16.14Z" style="fill:none;stroke:#1f2120;stroke-linecap:round;stroke-linejoin:round;stroke-width:2.731065445272236px"/><line id="_Path_17" data-name="&lt;Path&gt;" x1="1.38" y1="1.4" x2="10.24" y2="18.99" style="fill:none;stroke:#1f2120;stroke-linecap:round;stroke-linejoin:round;stroke-width:2.731065445272236px"/><circle id="_Path_18" data-name="&lt;Path&gt;" cx="10.58" cy="19.66" r="2.66" style="fill:#1f2120"/></g></g></svg>