<svg xmlns="http://www.w3.org/2000/svg" viewBox="0 0 71.42 207.54"><title>pen</title><g id="Layer_2" data-name="Layer 2"><g id="Layer_1-2" data-name="Layer 1"><g id="_Group_" data-name="&lt;Group&gt;"><rect id="_Path_" data-name="&lt;Path&gt;" x="-37.13" y="103.04" width="152.44" height="23.59" transform="translate(-81.89 123.8) rotate(-75.44)" style="fill:#2d2d2d;stroke:#2d2d2d;stroke-linecap:round;stroke-linejoin:round;stroke-width:3.4953430084207215px"/><polygon id="_Path_2" data-name="&lt;Path&gt;" points="69.67 44.03 46.83 38.1 67.1 6.98 69.67 44.03" style="fill:#2d2d2d;stroke:#2d2d2d;stroke-linecap:round;stroke-linejoin:round;stroke-width:3.4953430084207215px"/><path id="_Path_3" data-name="&lt;Path&gt;" d="M8.51,185.65l22.83,5.93-2,7.57a8.88,8.88,0,0,1-10.82,6.35L12.9,204a8.88,8.88,0,0,1-6.36-10.82Z" style="fill:#2d2d2d;stroke:#2d2d2d;stroke-linecap:round;stroke-linejoin:round;stroke-width:3.4953430084207215px"/></g><rect id="_Path_4" data-name="&lt;Path&gt;" x="-41.64" y="97.81" width="152.44" height="23.59" transform="translate(-80.2 115.52) rotate(-75.44)" style="fill:#47a942"/><rect id="_Path_5" data-name="&lt;Path&gt;" x="-41.64" y="97.81" width="152.44" height="23.59" transform="translate(-80.2 115.52) rotate(-75.44)" style="fill:none;stroke:#1f2120;stroke-linecap:round;stroke-linejoin:round;stroke-width:3.4953430084207215px"/><rect id="_Path_6" data-name="&lt;Path&gt;" x="-41.64" y="105.24" width="152.44" height="8.74" transform="translate(-80.2 115.52) rotate(-75.44)" style="fill:none;stroke:#1f2120;stroke-linecap:round;stroke-linejoin:round;stroke-width:3.4953430084207215px"/><polygon id="_Path_7" data-name="&lt;Path&gt;" points="65.16 38.8 42.32 32.87 62.59 1.75 65.16 38.8" style="fill:#c4c4c4"/><polygon id="_Path_8" data-name="&lt;Path&gt;" points="65.16 38.8 42.32 32.87 62.59 1.75 65.16 38.8" style="fill:none;stroke:#1f2120;stroke-linecap:round;stroke-linejoin:round;stroke-width:3.4953430084207215px"/><path id="_Path_9" data-name="&lt;Path&gt;" d="M4,180.41l22.84,5.93-2,7.57a8.87,8.87,0,0,1-10.81,6.36L8.39,198.8A8.88,8.88,0,0,1,2,188Z" style="fill:#c4c4c4"/><path id="_Path_10" data-name="&lt;Path&gt;" d="M4,180.41l22.84,5.93-2,7.57a8.87,8.87,0,0,1-10.81,6.36L8.39,198.8A8.88,8.88,0,0,1,2,188Z" style="fill:none;stroke:#1f2120;stroke-linecap:round;stroke-linejoin:round;stroke-width:3.4953430084207215px"/><rect id="_Path_11" data-name="&lt;Path&gt;" x="9.64" y="164.05" width="15.47" height="23.59" transform="translate(-157.2 148.46) rotate(-75.44)" style="fill:#cc0"/><rect id="_Path_12" data-name="&lt;Path&gt;" x="9.64" y="164.05" width="15.47" height="23.59" transform="translate(-157.2 148.46) rotate(-75.44)" style="fill:none;stroke:#1f2120;stroke-linecap:round;stroke-linejoin:round;stroke-width:3.4953430084207215px"/><polygon id="_Path_13" data-name="&lt;Path&gt;" points="62.59 1.75 54.42 14.29 63.63 16.69 62.59 1.75" style="fill:#1f2120"/></g></g></svg>