<svg xmlns="http://www.w3.org/2000/svg" viewBox="0 0 127.45 149.29"><title>pencil</title><g id="Layer_2" data-name="Layer 2"><g id="Layer_1-2" data-name="Layer 1"><g id="_Group_" data-name="&lt;Group&gt;" style="opacity:0.30000001192092896"><rect id="_Path_" data-name="&lt;Path&gt;" x="-8.19" y="95.41" width="97.82" height="17.21" transform="translate(-64.42 66.29) rotate(-48.88)" style="fill:#2d2d2d;stroke:#2d2d2d;stroke-linecap:round;stroke-linejoin:round;stroke-width:3.6911443501204864px"/><rect id="_Path_2" data-name="&lt;Path&gt;" x="61.6" y="31.25" width="65.98" height="22.15" transform="translate(0.5 85.75) rotate(-48.88)" style="fill:#2d2d2d;stroke:#2d2d2d;stroke-linecap:round;stroke-linejoin:round;stroke-width:3.6911443501204864px"/><path id="_Path_3" data-name="&lt;Path&gt;" d="M122.75,23.12l-13-11.32.7-.8a8.64,8.64,0,0,1,12.17-.83h0a8.65,8.65,0,0,1,.83,12.18l-.7.8Z" style="fill:#2d2d2d;stroke:#2d2d2d;stroke-linecap:round;stroke-linejoin:round;stroke-width:3.6911443501204864px"/><line id="_Path_4" data-name="&lt;Path&gt;" x1="96.31" y1="13.76" x2="69.22" y2="44.8" style="fill:none;stroke:#2d2d2d;stroke-linecap:round;stroke-linejoin:round;stroke-width:3.6911443501204864px"/><line id="_Path_5" data-name="&lt;Path&gt;" x1="96.77" y1="22.98" x2="91.94" y2="18.77" style="fill:none;stroke:#2d2d2d;stroke-linecap:round;stroke-linejoin:round;stroke-width:3.6911443501204864px"/><path id="_Path_6" data-name="&lt;Path&gt;" d="M13.51,145.18a6.6,6.6,0,0,1-9.94-8.68Z" style="fill:#2d2d2d;stroke:#2d2d2d;stroke-linecap:round;stroke-linejoin:round;stroke-width:3.6911443501204864px"/></g><g id="_Group_2" data-name="&lt;Group&gt;"><rect id="_Path_7" data-name="&lt;Path&gt;" x="-8.29" y="89.2" width="97.82" height="17.21" transform="translate(-59.77 64.09) rotate(-48.88)" style="fill:#00b3c6"/><rect id="_Path_8" data-name="&lt;Path&gt;" x="-4.13" y="98.29" width="97.82" height="6.27" transform="translate(-61.08 68.46) rotate(-48.88)" style="fill:#00b3c6;opacity:0.5;isolation:isolate"/><rect id="_Path_9" data-name="&lt;Path&gt;" x="-12.44" y="91.09" width="97.82" height="6.18" transform="translate(-58.47 59.72) rotate(-48.88)" style="fill:#00b3c6;opacity:0.3499999940395355;isolation:isolate"/><rect id="_Path_10" data-name="&lt;Path&gt;" x="-8.29" y="89.2" width="97.82" height="17.21" transform="translate(-59.77 64.09) rotate(-48.88)" style="fill:none;stroke:#330e00;stroke-linecap:round;stroke-linejoin:round;stroke-width:3.6911443501204864px"/><rect id="_Path_11" data-name="&lt;Path&gt;" x="61.5" y="25.05" width="65.98" height="22.15" transform="translate(5.14 83.56) rotate(-48.88)" style="fill:#565656"/><rect id="_Path_12" data-name="&lt;Path&gt;" x="55.65" y="27.71" width="65.98" height="6.6" transform="translate(6.99 77.4) rotate(-48.88)" style="fill:#565656;opacity:0.27000001072883606;isolation:isolate"/><rect id="_Path_13" data-name="&lt;Path&gt;" x="67.12" y="37.72" width="65.98" height="6.6" transform="translate(3.37 89.47) rotate(-48.88)" style="fill:#565656;opacity:0.27000001072883606;isolation:isolate"/><rect id="_Path_14" data-name="&lt;Path&gt;" x="61.5" y="25.05" width="65.98" height="22.15" transform="translate(5.14 83.56) rotate(-48.88)" style="fill:none;stroke:#330e00;stroke-linecap:round;stroke-linejoin:round;stroke-width:3.6911443501204864px"/><path id="_Path_15" data-name="&lt;Path&gt;" d="M122.65,16.91l-13-11.32.7-.8A8.63,8.63,0,0,1,122.56,4h0a8.64,8.64,0,0,1,.83,12.17l-.7.8Z" style="fill:#00b3c6"/><path id="_Path_16" data-name="&lt;Path&gt;" d="M122.65,16.91l-13-11.32.7-.8A8.63,8.63,0,0,1,122.56,4h0a8.64,8.64,0,0,1,.83,12.17l-.7.8Z" style="fill:none;stroke:#330e00;stroke-linecap:round;stroke-linejoin:round;stroke-width:3.6911443501204864px"/><line id="_Path_17" data-name="&lt;Path&gt;" x1="96.22" y1="7.55" x2="69.12" y2="38.59" style="fill:none;stroke:#330e00;stroke-linecap:round;stroke-linejoin:round;stroke-width:3.6911443501204864px"/><line id="_Path_18" data-name="&lt;Path&gt;" x1="96.68" y1="16.78" x2="91.85" y2="12.56" style="fill:none;stroke:#330e00;stroke-linecap:round;stroke-linejoin:round;stroke-width:3.6911443501204864px"/><path id="_Path_19" data-name="&lt;Path&gt;" d="M13.41,139a6.59,6.59,0,1,1-9.94-8.67Z" style="fill:#565656"/><path id="_Path_20" data-name="&lt;Path&gt;" d="M13.41,139a6.59,6.59,0,1,1-9.94-8.67Z" style="fill:none;stroke:#330e00;stroke-linecap:round;stroke-linejoin:round;stroke-width:3.6911443501204864px"/></g><line id="_Path_21" data-name="&lt;Path&gt;" x1="36.81" y1="98.77" x2="12.3" y2="126.85" style="fill:none;stroke:#330e00;stroke-linecap:round;stroke-linejoin:round;stroke-width:2.768358262590365px"/><g id="_Group_3" data-name="&lt;Group&gt;"><rect id="_Path_22" data-name="&lt;Path&gt;" x="-8.29" y="89.2" width="97.82" height="17.21" transform="translate(-59.77 64.09) rotate(-48.88)" style="fill:none;stroke:#330e00;stroke-linecap:round;stroke-linejoin:round;stroke-width:3.6911443501204864px"/><rect id="_Path_23" data-name="&lt;Path&gt;" x="61.5" y="25.05" width="65.98" height="22.15" transform="translate(5.14 83.56) rotate(-48.88)" style="fill:none;stroke:#330e00;stroke-linecap:round;stroke-linejoin:round;stroke-width:3.6911443501204864px"/><path id="_Path_24" data-name="&lt;Path&gt;" d="M122.65,16.91l-13-11.32.7-.8A8.63,8.63,0,0,1,122.56,4h0a8.64,8.64,0,0,1,.83,12.17l-.7.8Z" style="fill:none;stroke:#330e00;stroke-linecap:round;stroke-linejoin:round;stroke-width:3.6911443501204864px"/><line id="_Path_25" data-name="&lt;Path&gt;" x1="96.22" y1="7.55" x2="69.12" y2="38.59" style="fill:none;stroke:#330e00;stroke-linecap:round;stroke-linejoin:round;stroke-width:3.6911443501204864px"/><line id="_Path_26" data-name="&lt;Path&gt;" x1="96.68" y1="16.78" x2="91.85" y2="12.56" style="fill:none;stroke:#330e00;stroke-linecap:round;stroke-linejoin:round;stroke-width:3.6911443501204864px"/><path id="_Path_27" data-name="&lt;Path&gt;" d="M13.41,139a6.59,6.59,0,1,1-9.94-8.67Z" style="fill:none;stroke:#330e00;stroke-linecap:round;stroke-linejoin:round;stroke-width:3.6911443501204864px"/></g></g></g></svg>