<svg xmlns="http://www.w3.org/2000/svg" viewBox="0 0 125.74 106.28"><title>rubber</title><g id="Layer_2" data-name="Layer 2"><g id="Layer_1-2" data-name="Layer 1"><g id="_Group_" data-name="&lt;Group&gt;"><path id="_Path_" data-name="&lt;Path&gt;" d="M95.24,102.76,9.17,59.36a7.32,7.32,0,0,1-3.24-9.82L23,15.62a7.33,7.33,0,0,1,9.82-3.24L119,55.82a7.31,7.31,0,0,1,3.23,9.82l-17.1,33.92A7.42,7.42,0,0,1,95.24,102.76Z" style="fill:#2d2d2d;stroke:#2d2d2d;stroke-linecap:round;stroke-linejoin:round;stroke-width:5.465626385025956px"/><path id="_Path_2" data-name="&lt;Path&gt;" d="M74,96.88,16.26,67.75a3.79,3.79,0,0,1-1.67-5L39.11,14.09a3.8,3.8,0,0,1,5-1.67l57.77,29.13a3.8,3.8,0,0,1,1.66,5.05L79.07,95.22A3.73,3.73,0,0,1,74,96.88Z" style="fill:#2d2d2d;stroke:#2d2d2d;stroke-linecap:round;stroke-linejoin:round;stroke-width:5.465626385025956px"/></g><path id="_Path_3" data-name="&lt;Path&gt;" d="M92.83,93.89,6.75,50.49a7.33,7.33,0,0,1-3.24-9.82L20.62,6.75a7.32,7.32,0,0,1,9.82-3.24L116.57,47a7.33,7.33,0,0,1,3.24,9.82l-17.1,33.92A7.42,7.42,0,0,1,92.83,93.89Z" style="fill:#fff"/><path id="_Path_4" data-name="&lt;Path&gt;" d="M76.48,85.65,13,53.66A7.32,7.32,0,0,1,9.8,43.84L26.9,9.92a7.33,7.33,0,0,1,9.82-3.24l63.44,32a7.31,7.31,0,0,1,3.24,9.81L86.3,82.41A7.33,7.33,0,0,1,76.48,85.65Z" style="fill:#bfbfbf"/><path id="_Path_5" data-name="&lt;Path&gt;" d="M92.83,93.89,6.75,50.49a7.33,7.33,0,0,1-3.24-9.82L20.62,6.75a7.32,7.32,0,0,1,9.82-3.24L116.57,47a7.33,7.33,0,0,1,3.24,9.82l-17.1,33.92A7.42,7.42,0,0,1,92.83,93.89Z" style="fill:none;stroke:#340600;stroke-linecap:round;stroke-linejoin:round;stroke-width:5.465626385025956px"/><path id="_Path_6" data-name="&lt;Path&gt;" d="M71.61,88,13.84,58.88a3.78,3.78,0,0,1-1.66-5L36.69,5.22a3.8,3.8,0,0,1,5.05-1.67L99.51,32.68a3.8,3.8,0,0,1,1.67,5L76.66,86.35A3.74,3.74,0,0,1,71.61,88Z" style="fill:#06a0ff"/><path id="_Path_7" data-name="&lt;Path&gt;" d="M71.61,88,13.84,58.88a3.78,3.78,0,0,1-1.66-5l.4-.8a3.79,3.79,0,0,1,5-1.66L75.4,80.51a3.79,3.79,0,0,1,1.66,5l-.4.79A3.74,3.74,0,0,1,71.61,88Z" style="fill:#06a0ff;opacity:0.27000001072883606;isolation:isolate"/><path id="_Path_8" data-name="&lt;Path&gt;" d="M95.33,41,37.56,11.85a3.79,3.79,0,0,1-1.66-5L36.3,6a3.77,3.77,0,0,1,5-1.66L99.11,33.48a3.79,3.79,0,0,1,1.67,5l-.4.8A3.75,3.75,0,0,1,95.33,41Z" style="fill:#06a0ff;opacity:0.3799999952316284;isolation:isolate"/><path id="_Path_9" data-name="&lt;Path&gt;" d="M71.61,88,13.84,58.88a3.78,3.78,0,0,1-1.66-5L36.69,5.22a3.8,3.8,0,0,1,5.05-1.67L99.51,32.68a3.8,3.8,0,0,1,1.67,5L76.66,86.35A3.74,3.74,0,0,1,71.61,88Z" style="fill:none;stroke:#340600;stroke-linecap:round;stroke-linejoin:round;stroke-width:5.465626385025956px"/><line id="_Path_10" data-name="&lt;Path&gt;" x1="42.74" y1="25.71" x2="76.29" y2="42.63" style="fill:none;stroke:#340600;stroke-linecap:round;stroke-linejoin:round;stroke-width:5.465626385025956px;opacity:0.5799999833106995;isolation:isolate"/><line id="_Path_11" data-name="&lt;Path&gt;" x1="37.32" y1="36.45" x2="51.35" y2="43.52" style="fill:none;stroke:#340600;stroke-linecap:round;stroke-linejoin:round;stroke-width:5.465626385025956px;opacity:0.5799999833106995;isolation:isolate"/></g></g></svg>