<svg xmlns="http://www.w3.org/2000/svg" viewBox="0 0 380.84 137.73"><title>rule</title><g id="Layer_2" data-name="Layer 2"><g id="Layer_1-2" data-name="Layer 1"><path id="_Path_" data-name="&lt;Path&gt;" d="M357.84,134.77,18.89,70.72A11.52,11.52,0,0,1,9.72,57.27l6.59-34.88a11.53,11.53,0,0,1,13.45-9.17l339,64a11.52,11.52,0,0,1,9.17,13.45l-6.59,34.88A11.49,11.49,0,0,1,357.84,134.77Z" style="fill:#2d2d2d;stroke:#2d2d2d;stroke-linecap:round;stroke-linejoin:round;stroke-width:5.514735297894958px"/><path id="_Path_2" data-name="&lt;Path&gt;" d="M351.08,124.51l-338.95-64A11.53,11.53,0,0,1,3,47L9.55,12.13A11.53,11.53,0,0,1,23,3L362,67a11.53,11.53,0,0,1,9.17,13.45l-6.59,34.88A11.53,11.53,0,0,1,351.08,124.51Z" style="fill:#ff9e03"/><path id="_Path_3" data-name="&lt;Path&gt;" d="M351.08,124.51l-338.95-64A11.53,11.53,0,0,1,3,47L9.55,12.13A11.53,11.53,0,0,1,23,3L362,67a11.53,11.53,0,0,1,9.17,13.45l-6.59,34.88A11.53,11.53,0,0,1,351.08,124.51Z" style="fill:none;stroke:#340600;stroke-linecap:round;stroke-linejoin:round;stroke-width:5.514735297894958px"/><line id="_Path_4" data-name="&lt;Path&gt;" x1="25.21" y1="33.96" x2="344.51" y2="94.29" style="fill:none;stroke:#340600;stroke-linecap:round;stroke-linejoin:round;stroke-width:6.893419122368698px"/><g id="_Group_" data-name="&lt;Group&gt;"><g id="_Group_2" data-name="&lt;Group&gt;"><line id="_Path_5" data-name="&lt;Path&gt;" x1="349.55" y1="64.66" x2="347.36" y2="76.24" style="fill:none;stroke:#340600;stroke-linejoin:round;stroke-width:2.0680257367106094px"/></g><g id="_Group_3" data-name="&lt;Group&gt;"><line id="_Path_6" data-name="&lt;Path&gt;" x1="318.12" y1="58.72" x2="315.93" y2="70.3" style="fill:none;stroke:#340600;stroke-linejoin:round;stroke-width:2.0680257367106094px"/><line id="_Path_7" data-name="&lt;Path&gt;" x1="326.39" y1="60.28" x2="325.25" y2="66.31" style="fill:none;stroke:#340600;stroke-linejoin:round;stroke-width:2.0680257367106094px"/><line id="_Path_8" data-name="&lt;Path&gt;" x1="341.56" y1="63.15" x2="340.42" y2="69.18" style="fill:none;stroke:#340600;stroke-linejoin:round;stroke-width:2.0680257367106094px"/><line id="_Path_9" data-name="&lt;Path&gt;" x1="333.97" y1="61.71" x2="332.39" y2="70.11" style="fill:none;stroke:#340600;stroke-linejoin:round;stroke-width:2.0680257367106094px"/></g><g id="_Group_4" data-name="&lt;Group&gt;"><line id="_Path_10" data-name="&lt;Path&gt;" x1="286.76" y1="52.79" x2="284.57" y2="64.38" style="fill:none;stroke:#340600;stroke-linejoin:round;stroke-width:2.0680257367106094px"/><line id="_Path_11" data-name="&lt;Path&gt;" x1="295.03" y1="54.36" x2="293.89" y2="60.38" style="fill:none;stroke:#340600;stroke-linejoin:round;stroke-width:2.0680257367106094px"/><line id="_Path_12" data-name="&lt;Path&gt;" x1="310.13" y1="57.21" x2="308.99" y2="63.24" style="fill:none;stroke:#340600;stroke-linejoin:round;stroke-width:2.0680257367106094px"/><line id="_Path_13" data-name="&lt;Path&gt;" x1="302.54" y1="55.78" x2="300.96" y2="64.18" style="fill:none;stroke:#340600;stroke-linejoin:round;stroke-width:2.0680257367106094px"/></g><g id="_Group_5" data-name="&lt;Group&gt;"><line id="_Path_14" data-name="&lt;Path&gt;" x1="255.33" y1="46.86" x2="253.14" y2="58.44" style="fill:none;stroke:#340600;stroke-linejoin:round;stroke-width:2.0680257367106094px"/><line id="_Path_15" data-name="&lt;Path&gt;" x1="263.6" y1="48.42" x2="262.46" y2="54.45" style="fill:none;stroke:#340600;stroke-linejoin:round;stroke-width:2.0680257367106094px"/><line id="_Path_16" data-name="&lt;Path&gt;" x1="278.7" y1="51.27" x2="277.56" y2="57.3" style="fill:none;stroke:#340600;stroke-linejoin:round;stroke-width:2.0680257367106094px"/><line id="_Path_17" data-name="&lt;Path&gt;" x1="271.11" y1="49.84" x2="269.53" y2="58.24" style="fill:none;stroke:#340600;stroke-linejoin:round;stroke-width:2.0680257367106094px"/></g><g id="_Group_6" data-name="&lt;Group&gt;"><line id="_Path_18" data-name="&lt;Path&gt;" x1="223.9" y1="40.92" x2="221.71" y2="52.5" style="fill:none;stroke:#340600;stroke-linejoin:round;stroke-width:2.0680257367106094px"/><line id="_Path_19" data-name="&lt;Path&gt;" x1="232.17" y1="42.48" x2="231.03" y2="48.51" style="fill:none;stroke:#340600;stroke-linejoin:round;stroke-width:2.0680257367106094px"/><line id="_Path_20" data-name="&lt;Path&gt;" x1="247.27" y1="45.33" x2="246.13" y2="51.36" style="fill:none;stroke:#340600;stroke-linejoin:round;stroke-width:2.0680257367106094px"/><line id="_Path_21" data-name="&lt;Path&gt;" x1="239.69" y1="43.9" x2="238.1" y2="52.3" style="fill:none;stroke:#340600;stroke-linejoin:round;stroke-width:2.0680257367106094px"/></g><g id="_Group_7" data-name="&lt;Group&gt;"><line id="_Path_22" data-name="&lt;Path&gt;" x1="192.47" y1="34.98" x2="190.28" y2="46.56" style="fill:none;stroke:#340600;stroke-linejoin:round;stroke-width:2.0680257367106094px"/><line id="_Path_23" data-name="&lt;Path&gt;" x1="200.74" y1="36.54" x2="199.6" y2="42.57" style="fill:none;stroke:#340600;stroke-linejoin:round;stroke-width:2.0680257367106094px"/><line id="_Path_24" data-name="&lt;Path&gt;" x1="215.84" y1="39.39" x2="214.7" y2="45.42" style="fill:none;stroke:#340600;stroke-linejoin:round;stroke-width:2.0680257367106094px"/><line id="_Path_25" data-name="&lt;Path&gt;" x1="208.32" y1="37.97" x2="206.74" y2="46.37" style="fill:none;stroke:#340600;stroke-linejoin:round;stroke-width:2.0680257367106094px"/></g><g id="_Group_8" data-name="&lt;Group&gt;"><line id="_Path_26" data-name="&lt;Path&gt;" x1="161.04" y1="29.04" x2="158.86" y2="40.62" style="fill:none;stroke:#340600;stroke-linejoin:round;stroke-width:2.0680257367106094px"/><line id="_Path_27" data-name="&lt;Path&gt;" x1="169.31" y1="30.6" x2="168.17" y2="36.63" style="fill:none;stroke:#340600;stroke-linejoin:round;stroke-width:2.0680257367106094px"/><line id="_Path_28" data-name="&lt;Path&gt;" x1="184.41" y1="33.46" x2="183.27" y2="39.48" style="fill:none;stroke:#340600;stroke-linejoin:round;stroke-width:2.0680257367106094px"/><line id="_Path_29" data-name="&lt;Path&gt;" x1="176.89" y1="32.04" x2="175.31" y2="40.43" style="fill:none;stroke:#340600;stroke-linejoin:round;stroke-width:2.0680257367106094px"/></g><g id="_Group_9" data-name="&lt;Group&gt;"><line id="_Path_30" data-name="&lt;Path&gt;" x1="129.61" y1="23.1" x2="127.43" y2="34.69" style="fill:none;stroke:#340600;stroke-linejoin:round;stroke-width:2.0680257367106094px"/><line id="_Path_31" data-name="&lt;Path&gt;" x1="137.88" y1="24.66" x2="136.74" y2="30.69" style="fill:none;stroke:#340600;stroke-linejoin:round;stroke-width:2.0680257367106094px"/><line id="_Path_32" data-name="&lt;Path&gt;" x1="152.98" y1="27.52" x2="151.84" y2="33.55" style="fill:none;stroke:#340600;stroke-linejoin:round;stroke-width:2.0680257367106094px"/><line id="_Path_33" data-name="&lt;Path&gt;" x1="145.46" y1="26.1" x2="143.88" y2="34.5" style="fill:none;stroke:#340600;stroke-linejoin:round;stroke-width:2.0680257367106094px"/></g><g id="_Group_10" data-name="&lt;Group&gt;"><line id="_Path_34" data-name="&lt;Path&gt;" x1="98.19" y1="17.16" x2="96" y2="28.75" style="fill:none;stroke:#340600;stroke-linejoin:round;stroke-width:2.0680257367106094px"/><line id="_Path_35" data-name="&lt;Path&gt;" x1="106.45" y1="18.73" x2="105.31" y2="24.75" style="fill:none;stroke:#340600;stroke-linejoin:round;stroke-width:2.0680257367106094px"/><line id="_Path_36" data-name="&lt;Path&gt;" x1="121.62" y1="21.59" x2="120.48" y2="27.62" style="fill:none;stroke:#340600;stroke-linejoin:round;stroke-width:2.0680257367106094px"/><line id="_Path_37" data-name="&lt;Path&gt;" x1="114.04" y1="20.16" x2="112.45" y2="28.56" style="fill:none;stroke:#340600;stroke-linejoin:round;stroke-width:2.0680257367106094px"/></g><g id="_Group_11" data-name="&lt;Group&gt;"><line id="_Path_38" data-name="&lt;Path&gt;" x1="66.76" y1="11.23" x2="64.57" y2="22.81" style="fill:none;stroke:#340600;stroke-linejoin:round;stroke-width:2.0680257367106094px"/><line id="_Path_39" data-name="&lt;Path&gt;" x1="75.02" y1="12.79" x2="73.88" y2="18.82" style="fill:none;stroke:#340600;stroke-linejoin:round;stroke-width:2.0680257367106094px"/><line id="_Path_40" data-name="&lt;Path&gt;" x1="90.19" y1="15.65" x2="89.05" y2="21.68" style="fill:none;stroke:#340600;stroke-linejoin:round;stroke-width:2.0680257367106094px"/><line id="_Path_41" data-name="&lt;Path&gt;" x1="82.61" y1="14.22" x2="81.02" y2="22.62" style="fill:none;stroke:#340600;stroke-linejoin:round;stroke-width:2.0680257367106094px"/></g><g id="_Group_12" data-name="&lt;Group&gt;"><line id="_Path_42" data-name="&lt;Path&gt;" x1="35.33" y1="5.29" x2="33.14" y2="16.87" style="fill:none;stroke:#340600;stroke-linejoin:round;stroke-width:2.0680257367106094px"/><line id="_Path_43" data-name="&lt;Path&gt;" x1="43.59" y1="6.85" x2="42.45" y2="12.88" style="fill:none;stroke:#340600;stroke-linejoin:round;stroke-width:2.0680257367106094px"/><line id="_Path_44" data-name="&lt;Path&gt;" x1="58.76" y1="9.72" x2="57.62" y2="15.74" style="fill:none;stroke:#340600;stroke-linejoin:round;stroke-width:2.0680257367106094px"/><line id="_Path_45" data-name="&lt;Path&gt;" x1="51.18" y1="8.28" x2="49.59" y2="16.68" style="fill:none;stroke:#340600;stroke-linejoin:round;stroke-width:2.0680257367106094px"/></g></g></g></g></svg>