<svg id="Layer_1" data-name="Layer 1" xmlns="http://www.w3.org/2000/svg" viewBox="0 0 80.21 121.5"><title>card_batman</title><g id="card"><rect id="rect5418" x="0.75" y="0.75" width="78.71" height="120" style="fill:#f2f2f2;stroke:#000;stroke-linecap:round;stroke-linejoin:round;stroke-width:1.5px"/></g><path d="M57,80.92,54.92,60.17H25.29L23.21,80.92l-9.78,8.89H66.78Z" style="fill:#263238"/><path d="M57.89,45.36S57.44,32,40.1,32,22.32,45.36,22.32,45.36c0,9.78,3,25.63,4.15,30.82a4.78,4.78,0,0,0,1.78,2.66l8.15,5.78a3.15,3.15,0,0,0,1.78.6h4a2.85,2.85,0,0,0,1.78-.6l8.15-5.78a4.72,4.72,0,0,0,1.77-2.66C54.92,71,57.89,55.14,57.89,45.36Z" style="fill:#455a64"/><path d="M40.1,69.06V58.25l-3-1L34.62,67.43A18,18,0,0,0,40.1,69.06Z" style="fill:#607d8b"/><path d="M53.44,54.25l-10.37,3,2.52,10.22,2.66,14.23L52,79a4.77,4.77,0,0,0,1.78-2.67c.59-3,1.92-9.48,2.81-16.29h0L57,56.47h0l.44-3.56Zm-26.67,0,10.37,3L34.62,67.43,32,81.66,28.25,79a4.77,4.77,0,0,1-1.78-2.67c-.59-3-1.92-9.48-2.81-16.29h0l-.45-3.56h0l-.44-3.56Z" style="fill:#37474f"/><path d="M43.07,57.21l10.37-3s-3,4.44-5.93,4.44A6.48,6.48,0,0,1,43.07,57.21Zm-5.93,0-10.37-3s3,4.44,5.93,4.44A6.48,6.48,0,0,0,37.14,57.21Z" style="fill:#fff"/><path d="M22.32,45.36c0-10.38,3-23.71,3-23.71L29.73,35,23.8,45.36Zm35.57,0c0-10.38-3-23.71-3-23.71L50.48,35,56.4,45.36Z" style="fill:#455a64"/><path d="M30.77,38a15,15,0,0,1,9.33-3,15,15,0,0,1,9.34,3l1.18-3.56C48.11,32.91,44.7,32,40.1,32s-8,.89-10.52,2.37Z" style="fill:#607d8b"/><path d="M28.25,64.62s8.89,4.44,11.85,4.44S52,64.62,52,64.62L49,81.21l-5.18,3.56a2.58,2.58,0,0,1-1.78.59H38a2.58,2.58,0,0,1-1.78-.59l-5-3.7Z" style="fill:#ffb74d"/><path d="M34.77,76l-1.33-2.67A16.7,16.7,0,0,1,40,72a15.92,15.92,0,0,1,6.52,1.33L45.14,76a12.84,12.84,0,0,0-5.33-1A14.12,14.12,0,0,0,34.77,76Z" style="fill:#fb8c00"/></svg>