<svg id="Layer_1" data-name="Layer 1" xmlns="http://www.w3.org/2000/svg" viewBox="0 0 80.21 121.5"><title>card_it</title><g id="card"><rect id="rect5418" x="0.75" y="0.75" width="78.71" height="120" style="fill:#f2f2f2;stroke:#000;stroke-linecap:round;stroke-linejoin:round;stroke-width:1.5px"/></g><path d="M65.07,72.45c0-12.06-11.19-20.34-25-20.34s-25,8.28-25,20.34,11.17,23.4,25,23.4S65.07,84.51,65.07,72.45Z" style="fill:#b0bec5"/><path d="M64.77,75.77a20.69,20.69,0,0,1-1.85,5.77L40.18,74.71ZM40.18,74.71,32,94.43a26,26,0,0,1-6.39-3.24ZM54.73,91.19a25.91,25.91,0,0,1-6.38,3.24L40.18,74.71ZM40.18,74.71,17.29,81.54a19.56,19.56,0,0,1-1.85-5.77Z" style="fill:#78909c"/><path d="M70.69,57.09c3-1,3.74-7,3.74-7-4.53,2.13-7.53,0-9-4.25-5-13.85-21-12.45-21-12.45H35.37A19.73,19.73,0,0,0,15.63,46c-1.64,4.26-4.92,6.39-9.85,4.26,0,0,.76,5.91,4.06,7-1.55.87-2.7,0-3.68-.54A16.23,16.23,0,0,0,22.22,72.45H59.33A15.55,15.55,0,0,0,74.05,56.6C73.18,57.09,72.09,58,70.69,57.09Z" style="fill:#e65100"/><path d="M35.43,42.88s-9.51-8.72,4.75-17.23a4.14,4.14,0,0,0,1.06,4.51,5.39,5.39,0,0,1,2-1.62s.53,3.51,1.72,4.25c6.39,4.26.49,9.58.49,9.58a8.86,8.86,0,0,1-5.34,1.93A7,7,0,0,1,35.43,42.88Z" style="fill:#ef6c00"/><path d="M21.37,50.73c0-5.38,3.58-11.11,9.36-11.11,4,0,7,2.79,9.36,2.79s5.36-2.79,9.36-2.79c5.81,0,9.37,5.73,9.37,11.11a24.93,24.93,0,0,1-3,13.19c-1.34,2.79,0,5.4,0,8.11s-2.19,5.44-2.9,6.8c-2.36,3.51-3.1,10.64-10.63,10.64H37.86c-7.49,0-8.32-7.3-10.45-10.64a13.59,13.59,0,0,1-3-6.74c0-2.68,1.32-5.3,0-8.11A24.89,24.89,0,0,1,21.37,50.73Z" style="fill:#e0e0e0"/><path d="M34.22,79.75c1.79,2.13,1.19,6.7,5.87,6.7S44.2,82,46,79.75C40.18,81.77,40.18,81.77,34.22,79.75Z" style="fill:#d32f2f"/><path d="M49.94,72.28a16.59,16.59,0,0,1-1.49-3.23,5,5,0,0,0-.19-.81l-1.53.25a6.15,6.15,0,0,0,.24,1A18.12,18.12,0,0,0,48.69,73a4.87,4.87,0,0,1,.87,2.44A1.68,1.68,0,0,1,48,77.28h0a3.72,3.72,0,0,0-2.77,1,5.23,5.23,0,0,1-2.13,1.42,9.9,9.9,0,0,1-2.8.52,10,10,0,0,1-2.81-.52,5.42,5.42,0,0,1-2.13-1.4,3.67,3.67,0,0,0-2.77-1A1.63,1.63,0,0,1,31,75.58v-.06a4.5,4.5,0,0,1,.64-2.32,16.19,16.19,0,0,0,1.64-3.71c.08-.33.16-.67.21-1L31.9,68.2a4.89,4.89,0,0,1-.17.83,13.46,13.46,0,0,1-1.49,3.36,6,6,0,0,0-1.06,3.08,3.17,3.17,0,0,0,3,3.36h.16a2.13,2.13,0,0,1,1.91.92,9.33,9.33,0,0,0,6,2.4,9.2,9.2,0,0,0,5.87-2.4A2.31,2.31,0,0,1,48,78.83a3.21,3.21,0,0,0,3.13-3.29v-.05A6.12,6.12,0,0,0,49.94,72.28Z" style="fill:#bf360c"/><path d="M44.43,72.45a5.71,5.71,0,0,1,.28,1.34,1.83,1.83,0,0,1-1.65,2H43a1.73,1.73,0,0,1-.81-.23A2.31,2.31,0,0,1,40,77.13a2.36,2.36,0,0,1-2.13-1.57,1.68,1.68,0,0,1-.78.23,1.86,1.86,0,0,1-1.78-1.93.15.15,0,0,0,0-.07,5.21,5.21,0,0,1,.36-1.34,1.78,1.78,0,0,0,2.13,1c.74-.17,1.62.34,2.34.34s1.62-.51,2.34-.34A1.79,1.79,0,0,0,44.43,72.45ZM32.31,66.07l.38-5.45c.11-1.83.19-3.64.28-5.47.17,1.81.36,3.64.51,5.47l.32,5.45Zm14,0,.38-5.45c.13-1.83.19-3.64.3-5.47.15,1.81.34,3.64.49,5.47l.38,5.45Z" style="fill:#bf360c"/><path d="M52.56,64.79c-2.57,7.92-9.34,2.94-9.34,2.94a9.11,9.11,0,0,0,2.13-1.45,25.3,25.3,0,0,0,3-3.23,11.71,11.71,0,0,1,2.44.19C52.94,63.71,52.56,64.79,52.56,64.79ZM28,64.79c2.85,7.92,10.38,2.94,10.38,2.94a9.69,9.69,0,0,1-2.3-1.45,27.21,27.21,0,0,1-3.3-3.23,14.59,14.59,0,0,0-2.72.19C27.67,63.71,28,64.79,28,64.79Z" style="fill:#212121"/><path d="M49.67,67.05a2.94,2.94,0,0,1-4.14-.34l-.12-.15,1-1a7.19,7.19,0,0,1,1.71-1.34,2.11,2.11,0,0,1,.93-.11,2.31,2.31,0,0,1,1.32.41C51.22,65.2,50.43,66.56,49.67,67.05Zm-18.47,0a3.45,3.45,0,0,0,4.72-.49l-1.12-1a7.76,7.76,0,0,0-1.88-1.34,2.8,2.8,0,0,0-1-.11,2.91,2.91,0,0,0-1.49.41C29.54,65.2,30.35,66.56,31.2,67.05Z" style="fill:#fafafa"/><path d="M49.45,65.2a1.55,1.55,0,0,1-3.06.36,7.34,7.34,0,0,1,1.7-1.34,2.14,2.14,0,0,1,.94-.11A1.61,1.61,0,0,1,49.45,65.2Zm-18,0a1.64,1.64,0,0,0,1.72,1.55h0a1.69,1.69,0,0,0,1.68-1.19A7.91,7.91,0,0,0,33,64.22a2.85,2.85,0,0,0-1-.11A1.54,1.54,0,0,0,31.43,65.2Z" style="fill:#827717"/><path d="M41.67,63.94a11.93,11.93,0,0,0,.64,2.36c.27.77.8,1,1.36.77a6.91,6.91,0,0,0,1.83-1.34c.59-.58,1.17-1.17,1.72-1.81L49,62.05c.66-.62,1.08-1.17,1.85-1.87a3.14,3.14,0,0,1,2.85-.49,3.44,3.44,0,0,1,2,1.78,3.8,3.8,0,0,0-2.13-1,2.3,2.3,0,0,0-1.89.75c-.43.53-1.07,1.34-1.6,2l-1.72,1.94q-.9,1-1.89,1.83A6.34,6.34,0,0,1,44,68.32,1.94,1.94,0,0,1,42.31,68a2.17,2.17,0,0,1-.54-.66,3,3,0,0,1-.21-.72A7.33,7.33,0,0,1,41.67,63.94Zm-2.34,1.55a2.82,2.82,0,0,1,.61,1.22,1,1,0,0,1-.17.89,2,2,0,0,1-.63.53,2.13,2.13,0,0,1-1.6.19,4.43,4.43,0,0,1-1.36-.53,18.77,18.77,0,0,1-4-3.3c-.6-.61-1.21-1.19-1.79-1.83l-.83-1.06a3.14,3.14,0,0,0-.76-.74,3.49,3.49,0,0,0-4.26.53,3.71,3.71,0,0,1,2-1.7,3.62,3.62,0,0,1,2.83.15,4.23,4.23,0,0,1,1.17.85l.91.87c.62.55,1.24,1.15,1.85,1.72a31.27,31.27,0,0,0,3.64,3.26c1.15.91,2.81,1,2.43-1.15Z" style="fill:#212121"/></svg>