<svg id="Layer_1" data-name="Layer 1" xmlns="http://www.w3.org/2000/svg" viewBox="0 0 80.21 121.5"><title>card_joker</title><g id="card"><rect id="rect5418" x="0.75" y="0.75" width="78.71" height="120" style="fill:#f2f2f2;stroke:#000;stroke-linecap:round;stroke-linejoin:round;stroke-width:1.5px"/></g><g id="Joker"><path d="M55.42,62.42s4.28-6.58,6.33-6.58c.86,0,.42,2.59.42,4s-1.47,3.13-1.47,4v4.88a6.16,6.16,0,0,1-5.28,4.8Zm-30.92,0s-4.31-6.58-6.36-6.58c-.84,0-.42,2.59-.42,4s1.5,3.13,1.5,4v4.88a6.11,6.11,0,0,0,5.28,4.8Z" style="fill:#a4a4a4"/><path d="M22.4,60.72a45.58,45.58,0,0,1-8-23.9C19.22,36.82,27.19,24,40,24S60.7,36.82,65.48,36.82a45.58,45.58,0,0,1-8,23.9Z" style="fill:#388e3c"/><path d="M57.51,47.85v-.63a8.87,8.87,0,0,0-6.36-7.1,8.34,8.34,0,0,0-2-.24c-4.4,0-9.18,4.79-9.18,4.79s-4.79-4.79-9.19-4.79a8.34,8.34,0,0,0-2,.24,8.86,8.86,0,0,0-6.34,7.1v.63a7,7,0,0,0,1.6,4.8l-1.6,1.6V67s.44.78.92,1.69c11,21.62,11.06,25.43,11.06,25.43H45.57s.12-3.81,11.06-25.43c.48-.91.94-1.69.94-1.69V54.25L56,52.65A6.9,6.9,0,0,0,57.51,47.85Z" style="fill:#e0e0e0"/><path d="M57.51,67v9.66a3.82,3.82,0,0,1-1,2.41c-1.81,2-5.78,6.2-7,8a76.55,76.55,0,0,0-4,7.2C45.51,87.46,57.07,67.74,57.51,67ZM22.4,67v9.66a3.69,3.69,0,0,0,1,2.41c1.81,2,5.78,6.2,7,8a78.8,78.8,0,0,1,4.09,7.22C34.38,87.44,22.82,67.74,22.4,67ZM55.89,52.75l1.62,1.6v8a12.65,12.65,0,0,0-6.4-1.6l-5.46,3h-2l5.86-7.79h1.59V40.12a8.87,8.87,0,0,1,6.36,7.1v.63A6.92,6.92,0,0,1,55.89,52.75ZM24,52.75l-1.6,1.6v8a12.61,12.61,0,0,1,6.38-1.6l5.42,2.91h2l-5.88-7.79H28.74V40.12a8.86,8.86,0,0,0-6.34,7.1v.63a7,7,0,0,0,1.6,4.9Z" style="fill:#bdbdbd"/><path d="M42.94,63.35a6.23,6.23,0,0,0,4.15,2,6,6,0,0,0,5.62-4,17.86,17.86,0,0,0-5.54-.64A17.62,17.62,0,0,1,42.94,63.35Zm-5.85,0a6.33,6.33,0,0,1-4.21,2,6,6,0,0,1-5.69-4,18.39,18.39,0,0,1,5.61-.8A17.87,17.87,0,0,0,37.09,63.35Z"/><path d="M50.87,62.22a4.93,4.93,0,0,1-3.7,2A4,4,0,0,1,43.94,63a5.51,5.51,0,0,1,1.71-1,6.07,6.07,0,0,1,1.52-.22,7.39,7.39,0,0,1,1.33.12A21.26,21.26,0,0,0,50.87,62.22Zm-21.81,0a5,5,0,0,0,3.74,2A4.16,4.16,0,0,0,36.07,63a5.49,5.49,0,0,0-1.73-1,6.16,6.16,0,0,0-1.54-.22,7.7,7.7,0,0,0-1.35.12A21.33,21.33,0,0,1,29.06,62.22Z" style="fill:#fbc02d"/><path d="M48.6,62.46a1.53,1.53,0,0,1-3,0,1.48,1.48,0,0,1,0-.42,6.07,6.07,0,0,1,1.52-.22,7.39,7.39,0,0,1,1.33.12A1.2,1.2,0,0,1,48.6,62.46Zm-17.25,0a1.54,1.54,0,0,0,3,0h0a1,1,0,0,0,0-.42,6.16,6.16,0,0,0-1.54-.22,7.7,7.7,0,0,0-1.35.12A1.17,1.17,0,0,0,31.35,62.46ZM43.44,77.82A6.6,6.6,0,0,0,40,79.05a6.67,6.67,0,0,0-3.43-1.23c-1.77,0-5.58.24-10.92-5,0,0,6.87,11.71,11.78,14.4a4.81,4.81,0,0,0,2.51.48,4.92,4.92,0,0,0,2.53-.48c4.88-2.63,11.65-14.4,11.65-14.4C48.88,78.06,45.22,77.82,43.44,77.82Z" style="fill:#b71c1c"/><path d="M49.52,78.18a44.59,44.59,0,0,1-4.58,4.94,9.75,9.75,0,0,1-3.33,2,5.15,5.15,0,0,1-1.65.28,5.33,5.33,0,0,1-1.68-.28,9.93,9.93,0,0,1-3.32-2,44.68,44.68,0,0,1-4.59-4.94A38.78,38.78,0,0,0,40,80.65,38.12,38.12,0,0,0,49.52,78.18Z" style="fill:#ffe082"/><path d="M44.46,71.42A9.17,9.17,0,0,1,41.55,66V62.22H38.36V66a9.11,9.11,0,0,1-2.91,5.38,1,1,0,0,0-.28.68c0,1,4.39,2.61,4.79,2.61s4.78-1.63,4.78-2.61A1,1,0,0,0,44.46,71.42Z" style="fill:#bdbdbd"/><path d="M44.46,71.42A9.17,9.17,0,0,1,41.55,66V62.22H38.36V66a9.11,9.11,0,0,1-2.91,5.38,1,1,0,0,0-.28.68c0,1,4.39,2.61,4.79,2.61s4.78-1.63,4.78-2.61A1,1,0,0,0,44.46,71.42Z" style="fill:#bdbdbd"/><path d="M41.55,63.81C46.93,60.62,48,54.25,52,54.25S56,59,56,59a4.92,4.92,0,0,0-3.58-1.59C50.16,57.44,46,63.81,41.55,63.81Zm-3.25,0c-5.36-3.19-6.45-9.56-10.38-9.56s-4,4.78-4,4.78a4.92,4.92,0,0,1,3.58-1.59C29.82,57.44,33.84,63.81,38.3,63.81Z" style="fill:#388e3c"/><path d="M43.94,71.24a.82.82,0,0,0-.8.84v0a.84.84,0,0,1-.79.88h0a.82.82,0,0,1-.8-.84v-10H38.36v10a.84.84,0,0,1-.79.88h0a.82.82,0,0,1-.8-.84v0a.83.83,0,0,0-.78-.86h0a.88.88,0,0,0-.8,1,.91.91,0,0,0,.18.47s1.78,2,2.33,2.71,1.68,2.51,1.68,2.51a.77.77,0,0,0,.6.3.71.71,0,0,0,.57-.3s1.24-2,1.68-2.51,2.33-2.69,2.33-2.69a.76.76,0,0,0,.2-.56.82.82,0,0,0-.76-.87Z" style="fill:#eee"/><path d="M38.3,63.81h3.43c2.57,0,5.86-6.37,5.86-6.37s-3.73,4-4.59,3.5,1.3-8.64,1.3-8.64S41.77,60.72,40,60.72s-4.23-8.32-4.23-8.32S37.86,60.62,37,61s-4.78-3.6-4.78-3.6S35.73,63.81,38.3,63.81Z" style="fill:#bdbdbd"/><path d="M38.36,80.43v4.66h0a9.48,9.48,0,0,1-3.13-1.79V79.71A28.34,28.34,0,0,0,38.36,80.43Zm6.38-.72v3.57a9.48,9.48,0,0,1-3.13,1.79h0V80.43A28.34,28.34,0,0,0,44.74,79.71Z" style="fill:#ffecb3"/></g></svg>