<svg id="Layer_1" data-name="Layer 1" xmlns="http://www.w3.org/2000/svg" viewBox="0 0 80.21 121.5"><title>card_heart</title><g id="card"><rect id="rect5418" x="0.75" y="0.75" width="78.71" height="120" style="fill:#f2f2f2;stroke:#000;stroke-linecap:round;stroke-linejoin:round;stroke-width:1.5px"/><path id="path5420" d="M32.44,46.08c3-.24,5.82,1.87,7.64,3.54,3.44-4.64,11.29-4.68,14.77-.09,3.34,3.89,2,9.39-1.83,13.16L40,75.45,26.74,62.53c-3.74-3.61-4.9-11.06-.14-14.48a9.52,9.52,0,0,1,5.84-2Z" style="fill:#f55;stroke:#020202;stroke-linecap:round;stroke-linejoin:round;stroke-width:1.5px"/><path id="path5422" d="M12.26,8.5a4.46,4.46,0,0,1,3.08,1.39,3.92,3.92,0,0,1,5.95,0c1.35,1.53.81,3.7-.73,5.19L15.29,20.1,10,15c-1.51-1.43-2-4.37-.06-5.72a3.9,3.9,0,0,1,2.36-.79Z" style="fill:#f55;stroke:#020202;stroke-linecap:round;stroke-linejoin:round;stroke-width:1.5px"/><path id="path5424" d="M68,113a4.41,4.41,0,0,1-3.08-1.4,3.92,3.92,0,0,1-6,0c-1.35-1.53-.81-3.7.73-5.2l5.27-5,5.33,5.11c1.51,1.43,2,4.37.06,5.72A3.92,3.92,0,0,1,68,113Z" style="fill:#f55;stroke:#020202;stroke-linecap:round;stroke-linejoin:round;stroke-width:1.5px"/></g></svg>