<svg id="Layer_1" data-name="Layer 1" xmlns="http://www.w3.org/2000/svg" viewBox="0 0 80.21 121.5"><title>card_clown</title><g id="card"><rect id="rect5418" x="0.75" y="0.75" width="78.71" height="120" style="fill:#f2f2f2;stroke:#000;stroke-linecap:round;stroke-linejoin:round;stroke-width:1.5px"/></g><path d="M39.62,67a32.31,32.31,0,0,0-1.18-10.54,6.67,6.67,0,0,0-2.6-3.84,4.79,4.79,0,0,0-4.15.1c-3.25,1.59-2.12,6.55-1.14,9.19a15.2,15.2,0,0,0,2.7,4.76A5.32,5.32,0,0,0,34.7,68a1.39,1.39,0,0,0,1.14.17.64.64,0,0,1,.84.37.61.61,0,0,1,0,.18,8.33,8.33,0,0,1,3.18-1.28A.5.5,0,0,1,39.62,67Zm-2.14-2-.16.2v.24a.69.69,0,0,1-.63.55,2,2,0,0,1-1.83-1.73c-.14-.75.12-1.87,1-2a1.51,1.51,0,0,1,.81.16c1.06-.12,1.28,1.85.77,2.49Z" style="fill:#d6e5e5"/><path d="M44.2,69.2c-3.48-1.42-8.93,0-8.59,4.58a.64.64,0,0,1-.52.71,3.15,3.15,0,0,0,.58,1.1h.21a.68.68,0,0,1,.53.71,6,6,0,0,0,1.83,1,9.33,9.33,0,0,0,6.38-.18,3.91,3.91,0,0,0,2.65-3.46A4.66,4.66,0,0,0,44.2,69.2Z" style="fill:#ef4823"/><path d="M54.28,37a38.52,38.52,0,0,0-18.06-2,24.71,24.71,0,0,0-9.84,2.83c-2,1.11-4.9,2.94-5,5.45a13.34,13.34,0,0,1,2.52-.92A44.37,44.37,0,0,1,34.5,40.75,58.13,58.13,0,0,0,41,40.51a45.12,45.12,0,0,1,6.59-.18,29.24,29.24,0,0,1,12,3,14.58,14.58,0,0,1,2,1.2C61,40.75,57.78,38.35,54.28,37Z" style="fill:#3ab37c"/><path d="M58.11,75.88h0a2.82,2.82,0,0,0-.09-.57c-.12-.61-.34-1.53-1-1.85-1.18-.57-2.38.48-3.3,1.07-1.72,1-3.21,2.44-5,3.34A18,18,0,0,1,43,79.41a.59.59,0,0,1-.55-.2,8.94,8.94,0,0,1-7.77-2.38A23.08,23.08,0,0,1,30,73.17a5,5,0,0,0-2.77-1.42,3.3,3.3,0,0,0-2.76,2.13c-1.28,2.75.65,5.7,2.58,7.61a16.3,16.3,0,0,0,7.28,4.07,29.35,29.35,0,0,0,8.75,1,22,22,0,0,0,8.6-2,11.29,11.29,0,0,0,6.28-6.45,6,6,0,0,0,.25-1.58A.63.63,0,0,1,58.11,75.88Zm-5.9,4.55C45.42,84.74,36.47,83.28,29.92,79c-.75-.47-.14-1.73.61-1.24,6,3.94,14.52,5.55,20.91,1.5A.7.7,0,0,1,52.21,80.43ZM61.34,46a11.31,11.31,0,0,0-3.93-2.2A28.67,28.67,0,0,0,51.35,42a73.82,73.82,0,0,0-13.13,0A58.7,58.7,0,0,0,26.1,43.15a18.74,18.74,0,0,0-3.81,1.2,3.84,3.84,0,0,0-1.48,1c-.33.47,0,1.08.24,1.63a5.65,5.65,0,0,1,4.66,0h0c1.59-.23,3.13-.69,4.7-1a27.24,27.24,0,0,1,4.92-.69c3.48-.18,7-.22,10.51-.12a25.25,25.25,0,0,1,7.71,1.26,15.5,15.5,0,0,1,2.93,1.26,4.19,4.19,0,0,1,1.22.91l.22-.14a.76.76,0,0,1,0-.3,2.48,2.48,0,0,1,2.52-1.22,11.89,11.89,0,0,1,1.77.22,3.44,3.44,0,0,0-1-1.16ZM48,33.74a.71.71,0,0,1-.67-1,7.36,7.36,0,0,1,.77-1.06l.1-.1a20.23,20.23,0,0,1-2.9.51c-.39,0-.86-.37-.72-.83s.59-1.71.19-1.87-1.18.3-1.55.63c-.79.73-1.87,2-3,1.2a3.61,3.61,0,0,1-1.1-1.2c-.18-.27-.42-.94-.73-1.08s-.71.79-.77.95a3.84,3.84,0,0,0-.37,1.45.69.69,0,0,1-.64.74.77.77,0,0,1-.34-.07,4.26,4.26,0,0,0-2.94-.22,7.38,7.38,0,0,0,1.07.79,4.08,4.08,0,0,0,1.69.81.8.8,0,0,1,.39.14,44.25,44.25,0,0,1,12.16.39.52.52,0,0,1,.18-.18Z" style="fill:#d6e5e5"/><path d="M26.08,48.79a.91.91,0,0,1,0-.33h-.15a.62.62,0,0,1-.87,0h0c-.88-.83-2.6-.45-3.6-.1s-2.7,1-2.7,2.22c0,.34-.23.77-.62.75a8,8,0,0,0-4.31.67c-1.36.81-1.28,2.07-.71,3.4a.71.71,0,0,1-.48.88.61.61,0,0,1-.13,0,19,19,0,0,0-3.84.33c-.75.16-2.81.57-2.67,1.71,0,.71,1.65.58,2.16.52a16.57,16.57,0,0,0,2.52-.42.69.69,0,0,1,.74.63v0c0,2.07,2.57,2,4.05,1.81a17.39,17.39,0,0,0,2.87-.49c.36-.1.7-.22,1-.35s.48,0,.75,0a2.66,2.66,0,0,0,.69,0c1.2-.24,2.85-.87,2.64-2.38-.18-1.22-.89-2.72.17-3.74s2.21-1.32,2.76-2.4A4.56,4.56,0,0,0,26.08,48.79ZM74.46,59.54a3.18,3.18,0,0,0-2.08-.48c-.79,0-1.69-.13-2-1a1.93,1.93,0,0,1,0-1.3,2.47,2.47,0,0,0,.22-1.28c-.53-1.43-2.86-2.06-4.23-2.1a.72.72,0,0,1-.75-.63,4.1,4.1,0,0,0-2-3.56v.15a.71.71,0,0,1-.57.4H62.7A.75.75,0,0,1,62,49a.66.66,0,0,1,.11-.36L61,48.46c-.56,0-1.4-.18-1.7.41a.58.58,0,0,1-.33.32.81.81,0,0,1,0,.31,8.12,8.12,0,0,0,0,5.9,3.69,3.69,0,0,0,1.12,2,3.89,3.89,0,0,0,2.3.59.71.71,0,0,1,.75.63A3.81,3.81,0,0,0,65.51,62c1.2.55,2.46.48,2.72-1a.68.68,0,0,1,.8-.55.64.64,0,0,1,.18.06,7.31,7.31,0,0,0,3.19,1.18,2.41,2.41,0,0,0,2.24-.63A1.23,1.23,0,0,0,74.46,59.54Z" style="fill:#f6851f"/><path d="M59.12,58.59a4.83,4.83,0,0,1-1.56-2.38A11.66,11.66,0,0,1,57,50.13a.61.61,0,0,1-.41-.43c0-.1-.28-.32-.49-.45A12.66,12.66,0,0,0,55,48.62a21.33,21.33,0,0,0-2.76-1,28.19,28.19,0,0,0-7.87-.94c-3.32,0-6.71,0-10,.21a54.1,54.1,0,0,0-6.91,1.36v.14c.36,1.14.89,2.79.16,3.93a7.12,7.12,0,0,1-1.81,1.78c-.43.29-1.32.68-1.3,1.31a23.42,23.42,0,0,1,.41,2.72,3,3,0,0,1-1.22,2.26,6.12,6.12,0,0,1-2.24,1,32.88,32.88,0,0,0,.36,8.17c.33,1.44.78,2.87,1.22,4.31A5.79,5.79,0,0,1,24.08,72a4,4,0,0,1,3.05-1.73,5.66,5.66,0,0,1,3.09,1.22c1,.73,2,1.61,2.91,2.44l.53.45a5.65,5.65,0,0,1,0-1.3.52.52,0,0,1,.52-.54h.13a5.25,5.25,0,0,1,1.34-2.91,3.8,3.8,0,0,1-2.8-1.22,14,14,0,0,1-3-4c-1.47-3-2.73-7.23-1.18-10.43a5.2,5.2,0,0,1,4.15-2.87,5.31,5.31,0,0,1,5.45,2.34,16.34,16.34,0,0,1,2.24,6.88A44.06,44.06,0,0,1,41,67a.71.71,0,0,1-.12.42,10.7,10.7,0,0,1,1.79,0v-.12a7.37,7.37,0,0,1-.16-1.48V62.15a15.82,15.82,0,0,1,1-4.94,11.92,11.92,0,0,1,2.65-4.48C47.9,51,51,49.4,53.35,50.94a7.88,7.88,0,0,1,2.84,5.9,14.83,14.83,0,0,1-1,7.73,13.52,13.52,0,0,1-6.88,6.93,6.05,6.05,0,0,1,.29,1.75A5,5,0,0,1,47.19,77a10.24,10.24,0,0,0,1.6-.77c1.55-1,3.05-2.15,4.58-3.19A4.8,4.8,0,0,1,57,71.93a2.92,2.92,0,0,1,2,1.65c.37-1.55.41-3.2.69-4.78a54.47,54.47,0,0,0,.67-8.93.71.71,0,0,1,.27-.57A4.66,4.66,0,0,1,59.12,58.59Z" style="fill:#fcbf95"/><path d="M53.8,53.36a3,3,0,0,0-2.24-1.62,5.4,5.4,0,0,0-3.8,1.42A12.55,12.55,0,0,0,44,61.23a25.13,25.13,0,0,0-.14,3.13v1.81a3.21,3.21,0,0,0,0,.62h0a.77.77,0,0,1,0,.93,6.49,6.49,0,0,1,3.84,2.54,11.83,11.83,0,0,0,7.16-10.12A12,12,0,0,0,53.8,53.36ZM49.3,64.69a1.82,1.82,0,0,1-.61.9,2.33,2.33,0,0,1-1,.4.69.69,0,0,1-.71-.45,2.68,2.68,0,0,1-.24-1.18.83.83,0,0,1,.14-.46,1,1,0,0,1,0-.25.86.86,0,0,1,.1-.16c0-.57.23-1.16.88-1.24a1.3,1.3,0,0,1,1.2.83A2.32,2.32,0,0,1,49.3,64.69Z" style="fill:#d6e5e5"/><path d="M74.42,57.9c-.88-.33-2,0-2.75-.31-.3-.12.14-1.07.18-1.28a2.31,2.31,0,0,0-.24-1.69A6.21,6.21,0,0,0,66.83,52,6.74,6.74,0,0,0,66,49.58a5,5,0,0,0-2.26-1.85,4,4,0,0,0-.67-1.63.49.49,0,0,0,0-.24c.1-5.53-4.56-8.89-9.28-10.56a36.73,36.73,0,0,0-3.53-1.07,6.44,6.44,0,0,0,.59-.88.7.7,0,0,0-.34-.94.68.68,0,0,0-.34-.06h-.89a2,2,0,0,0,.57-1.66.66.66,0,0,0-.7-.63h-.05a21.16,21.16,0,0,0-2.95.51,3.29,3.29,0,0,0,0-1.59,1.75,1.75,0,0,0-1.87-1,3.54,3.54,0,0,0-2.08,1.12c-.3.29-.61.57-.93.83s-.35.15-.61,0a11.5,11.5,0,0,1-1-1.58,1.58,1.58,0,0,0-1.83-.57,3.43,3.43,0,0,0-1.87,2.76,5,5,0,0,0-4.17.57.68.68,0,0,0-.18.95h0a9.66,9.66,0,0,0,2,1.75l.22.14a24.79,24.79,0,0,0-8.66,2.87c-2.38,1.4-5.39,3.72-5.1,6.83A.91.91,0,0,0,20,44,3.19,3.19,0,0,0,19.18,45c-.42.88.21,1.49.29,2.34a.19.19,0,0,0,0,.15,4.32,4.32,0,0,0-2.18,2.31,8.28,8.28,0,0,0-4.7,1.06,3.45,3.45,0,0,0-1.32,3.93,17.45,17.45,0,0,0-3.74.51c-1.51.38-3.11,1.17-3.15,2.9s1.62,2,2.78,2a12.3,12.3,0,0,0,2.77-.29c.67,3.6,7.1,2.38,9.62,1.36h.3a36.3,36.3,0,0,0,.31,8c.59,2.72,1.6,5.36,2.22,8a.55.55,0,0,0,.52.45,16,16,0,0,0,7.67,7.72,25.46,25.46,0,0,0,8.14,2,29.11,29.11,0,0,0,9-.45,17.72,17.72,0,0,0,7.73-3.56,9.81,9.81,0,0,0,3.93-7.56,24.29,24.29,0,0,0,1.48-7.06,61.49,61.49,0,0,0,.67-9.09,5.56,5.56,0,0,0,3.32,3.52A3,3,0,0,0,68.9,62c1.82,1,4.44,1.58,6.07.12a2.61,2.61,0,0,0-.55-4.25ZM33.25,31.79a4.23,4.23,0,0,1,2.93.22.71.71,0,0,0,.94-.35.87.87,0,0,0,.06-.32,4.28,4.28,0,0,1,.35-1.45c0-.16.5-1.05.79-.95s.55.81.71,1.08a3.72,3.72,0,0,0,1.1,1.2c1.18.77,2.26-.47,3-1.2.37-.33,1-.82,1.54-.63s-.12,1.62-.2,1.87.33.83.73.83a20.34,20.34,0,0,0,2.89-.51v.1a7.48,7.48,0,0,0-.79,1.06.71.71,0,0,0,.35.94.66.66,0,0,0,.34.06h.77a.77.77,0,0,0-.18.18,44.24,44.24,0,0,0-12.16-.39.62.62,0,0,0-.39-.14,4,4,0,0,1-1.69-.81A7,7,0,0,1,33.25,31.79ZM26.34,37.7a24.4,24.4,0,0,1,9.84-2.84,38.57,38.57,0,0,1,18,2c3.52,1.4,6.75,3.82,7.4,7.58a11.4,11.4,0,0,0-2-1.2,29.82,29.82,0,0,0-12-3c-2.19,0-4.39,0-6.59.18s-4.31.18-6.46.24a45.39,45.39,0,0,0-10.68,1.55,12.67,12.67,0,0,0-2.54.93c0-2.36,3-4.23,5-5.33Zm-5.61,7.75a3.4,3.4,0,0,1,1.5-1A19.42,19.42,0,0,1,26,43.21a57,57,0,0,1,12.14-1.15,72,72,0,0,1,13.13,0,29.85,29.85,0,0,1,6.06,1.77,11.54,11.54,0,0,1,3.93,2.23,4.81,4.81,0,0,1,.95,1.24,15.62,15.62,0,0,0-1.79-.22,2.47,2.47,0,0,0-2.52,1.22.58.58,0,0,0,0,.32.45.45,0,0,0-.22.13,4.15,4.15,0,0,0-1.22-.9,16.26,16.26,0,0,0-2.93-1.28,25.54,25.54,0,0,0-7.71-1.24c-3.49-.12-7,0-10.51.1a27.27,27.27,0,0,0-4.92.71c-1.57.35-3.11.78-4.7,1h0a5.65,5.65,0,0,0-4.66,0C20.73,46.51,20.34,45.9,20.73,45.45ZM20.12,60c-.27,0-.47-.18-.75,0a7.06,7.06,0,0,1-1,.35,15.68,15.68,0,0,1-2.87.57c-1.48.16-4.09.26-4-1.81a.71.71,0,0,0-.73-.69h0a16.38,16.38,0,0,1-2.6.42c-.51,0-2,.19-2.14-.52-.14-1.14,2-1.53,2.67-1.71a20,20,0,0,1,3.94-.33.67.67,0,0,0,.63-.7.78.78,0,0,0,0-.21c-.57-1.33-.63-2.59.71-3.4a7.85,7.85,0,0,1,4.3-.67.7.7,0,0,0,.63-.75c0-1.18,1.83-2,2.74-2.22s2.71-.73,3.6.1a.63.63,0,0,0,.87,0h.15a1.82,1.82,0,0,0,0,.33c.22.75.69,2,.3,2.68-.53,1.08-2,1.59-2.76,2.4s-.35,2.52-.17,3.74-1.44,2.16-2.64,2.4C20.59,60,20.34,60.05,20.12,60Zm37.8,18.1a11.4,11.4,0,0,1-6.22,6.31,22.41,22.41,0,0,1-8.6,2,29,29,0,0,1-8.75-1,16.23,16.23,0,0,1-7.28-4.08c-2-2-3.94-4.84-2.58-7.59a3.33,3.33,0,0,1,2.75-2.14A5.12,5.12,0,0,1,30,73a22.16,22.16,0,0,0,4.74,3.66,9,9,0,0,0,7.77,2.4.61.61,0,0,0,.55.2,18,18,0,0,0,5.75-1.56c1.79-.9,3.26-2.3,5-3.34,1-.57,2.13-1.63,3.31-1.06.63.31.85,1.24,1,1.85a2.13,2.13,0,0,1,.1.57v.11a.56.56,0,0,0,0,.73A6.19,6.19,0,0,1,57.92,78.13Zm-13.78-9a4.62,4.62,0,0,1,3,4.46,3.91,3.91,0,0,1-2.65,3.46,9.22,9.22,0,0,1-6.38.18,6.05,6.05,0,0,1-1.69-.88.67.67,0,0,0-.51-.71h-.24a4.6,4.6,0,0,1-.57-1.1.59.59,0,0,0,.52-.66v0c-.4-4.61,5-6.08,8.53-4.66Zm-8.42-.85a1.44,1.44,0,0,1-1.16-.18,5.63,5.63,0,0,1-1.45-1.26,15.7,15.7,0,0,1-2.7-4.78c-1-2.63-2.08-7.59,1.16-9.18a4.62,4.62,0,0,1,4.13,0,6.48,6.48,0,0,1,2.62,3.6A33,33,0,0,1,39.6,67a.67.67,0,0,0,.16.43,8.45,8.45,0,0,0-3.17,1.28.63.63,0,0,0-.77-.44Zm8.21-1.46h0V64.41a22,22,0,0,1,.14-3A12.57,12.57,0,0,1,47.8,53.3a5.43,5.43,0,0,1,3.8-1.4,3,3,0,0,1,2.26,1.6,12.28,12.28,0,0,1,1.07,6.76,11.84,11.84,0,0,1-7.2,10A6.58,6.58,0,0,0,44,67.7a.77.77,0,0,0,0-1Zm16.41-6.9a50.39,50.39,0,0,1-.67,8.93c-.28,1.57-.32,3.23-.69,4.78A2.87,2.87,0,0,0,57,72a4.8,4.8,0,0,0-3.62,1.08c-1.53,1-3,2.18-4.58,3.19a8.72,8.72,0,0,1-1.6.77,5,5,0,0,0,1.38-3.72,6.05,6.05,0,0,0-.29-1.75,13.48,13.48,0,0,0,6.84-6.81,14.86,14.86,0,0,0,1-7.85A7.88,7.88,0,0,0,53.31,51c-2.32-1.54-5.45,0-7.18,1.79a12.5,12.5,0,0,0-2.65,4.48,15.76,15.76,0,0,0-1,4.94v3.64a8.17,8.17,0,0,0,.16,1.48v.11a13.37,13.37,0,0,0-1.79,0A.66.66,0,0,0,41,67a44.06,44.06,0,0,0-.44-6.69,16.24,16.24,0,0,0-2.24-6.9,5.43,5.43,0,0,0-5.45-2.35A5.3,5.3,0,0,0,28.68,54c-1.55,3.2-.27,7.41,1.18,10.4a14.09,14.09,0,0,0,2.89,4.14,4,4,0,0,0,2.8,1.22,5.3,5.3,0,0,0-1.34,2.89.56.56,0,0,0-.64.48.2.2,0,0,0,0,.07,4.57,4.57,0,0,0,0,1.28L33,74a35.45,35.45,0,0,0-2.91-2.44,5.52,5.52,0,0,0-3-1.34A4.13,4.13,0,0,0,24,71.91a5.8,5.8,0,0,0-1.1,1.83c-.44-1.42-.89-2.83-1.22-4.29a32.82,32.82,0,0,1-.36-8.16,6.77,6.77,0,0,0,2.24-1A3,3,0,0,0,24.82,58c0-.92-.37-1.79-.41-2.73,0-.61.85-1,1.3-1.3a6.77,6.77,0,0,0,1.81-1.77c.73-1.11.18-2.74-.16-3.94v-.12a55.91,55.91,0,0,1,6.91-1.37c3.3-.14,6.67-.14,10.07-.14a28.47,28.47,0,0,1,8,.94,25.41,25.41,0,0,1,2.62,1,9.1,9.1,0,0,1,1.14.63c.21.13.47.35.49.45a.55.55,0,0,0,.41.43,11.66,11.66,0,0,0,.55,6.08,4.72,4.72,0,0,0,1.56,2.38,3.56,3.56,0,0,0,1.49.65.86.86,0,0,0-.27.59Zm14.1,1.34a2.48,2.48,0,0,1-2.22.63A7.48,7.48,0,0,1,69,60.72a.67.67,0,0,0-.92.3.49.49,0,0,0-.06.17c-.28,1.49-1.54,1.53-2.72,1A3.81,3.81,0,0,1,63,58.77a.69.69,0,0,0-.74-.63,3.84,3.84,0,0,1-2.29-.59,3.79,3.79,0,0,1-1.14-2,8.33,8.33,0,0,1,0-5.9.51.51,0,0,0,0-.3.73.73,0,0,0,.34-.31c.29-.61,1.14-.49,1.69-.41a9.32,9.32,0,0,1,1.06.15.77.77,0,0,0,.29,1,.73.73,0,0,0,.32.09h.43a.62.62,0,0,0,.55-.39l.1-.16a4.14,4.14,0,0,1,2,3.56.7.7,0,0,0,.75.63c1.38,0,3.7.67,4.25,2.11.14.37-.12.9-.24,1.28a1.93,1.93,0,0,0,0,1.3c.36.82,1.26.94,2.07,1s1.49,0,2,.45a1.32,1.32,0,0,1,.09,1.46Z" style="fill:#010101"/><path d="M51.37,79.29c-6.4,4-14.88,2.48-20.92-1.5-.75-.51-1.36.75-.61,1.24,6.45,4.25,15.5,5.73,22.29,1.42a.7.7,0,0,0,.2-1A.69.69,0,0,0,51.37,79.29ZM49.06,63a1.32,1.32,0,0,0-1.2-.83c-.65,0-.84.67-.88,1.24a.86.86,0,0,1-.1.16,1,1,0,0,0,0,.25.74.74,0,0,0-.14.46A2.59,2.59,0,0,0,47,65.54a.68.68,0,0,0,.71.45,2,2,0,0,0,1-.4,1.82,1.82,0,0,0,.61-.9A2.32,2.32,0,0,0,49.06,63Zm-12.41-.53a1.51,1.51,0,0,0-.81-.16c-.92,0-1.18,1.16-1,2a2,2,0,0,0,1.83,1.75.69.69,0,0,0,.63-.55v-.26a.46.46,0,0,0,.16-.18C38,64.36,37.77,62.39,36.65,62.51Z" style="fill:#010101"/></svg>