<svg xmlns="http://www.w3.org/2000/svg" xmlns:xlink="http://www.w3.org/1999/xlink" viewBox="0 0 285.39 196.19"><defs><clipPath id="clip-path"><path d="M267.91,49.74,128,15a12.78,12.78,0,0,0-11,2.48,27.69,27.69,0,0,1-24.17,5.39L41.6,10.13,14.41,119.6a10.71,10.71,0,0,0,7.83,13l212,52.66a10.71,10.71,0,0,0,13-7.83L275.75,62.76A10.76,10.76,0,0,0,267.91,49.74Z" style="fill:none"/></clipPath></defs><title>camera</title><g id="Layer_2" data-name="Layer 2"><g id="Layer_1-2" data-name="Layer 1"><path id="_Path_" data-name="&lt;Path&gt;" d="M275.9,57.92,136,23.17a12.73,12.73,0,0,0-11,2.48A27.7,27.7,0,0,1,100.85,31L49.59,18.3,22.39,127.78a10.71,10.71,0,0,0,7.84,13l212,52.67a10.72,10.72,0,0,0,13-7.84L283.73,70.94A10.74,10.74,0,0,0,275.9,57.92Z" style="stroke:#000;stroke-linecap:round;stroke-linejoin:round;stroke-width:2.68575281637912px"/><path id="_Path_2" data-name="&lt;Path&gt;" d="M115.72,28.5,79.23,19.43l1.51-6.08a7.19,7.19,0,0,1,8.68-5.22L112,13.74a7.18,7.18,0,0,1,5.23,8.67Z" style="fill:#c1a7a7"/><path id="_Path_3" data-name="&lt;Path&gt;" d="M115.72,28.5,79.23,19.43l1.51-6.08a7.19,7.19,0,0,1,8.68-5.22L112,13.74a7.18,7.18,0,0,1,5.23,8.67Z" style="fill:none;stroke:#493b3b;stroke-linecap:round;stroke-linejoin:round;stroke-width:2.68575281637912px"/><g id="_Group_" data-name="&lt;Group&gt;"><g id="_Group_2" data-name="&lt;Group&gt;"><line id="_Path_4" data-name="&lt;Path&gt;" x1="116.56" y1="16.39" x2="113.68" y2="27.99" style="fill:none;stroke:#493b3b;stroke-linecap:round;stroke-linejoin:round;stroke-width:1.79050187758608px"/></g><g id="_Group_3" data-name="&lt;Group&gt;"><line id="_Path_5" data-name="&lt;Path&gt;" x1="112.65" y1="15.42" x2="109.77" y2="27.02" style="fill:none;stroke:#493b3b;stroke-linecap:round;stroke-linejoin:round;stroke-width:1.79050187758608px"/></g><g id="_Group_4" data-name="&lt;Group&gt;"><line id="_Path_6" data-name="&lt;Path&gt;" x1="108.74" y1="14.45" x2="105.86" y2="26.05" style="fill:none;stroke:#493b3b;stroke-linecap:round;stroke-linejoin:round;stroke-width:1.79050187758608px"/></g><g id="_Group_5" data-name="&lt;Group&gt;"><line id="_Path_7" data-name="&lt;Path&gt;" x1="104.83" y1="13.48" x2="101.95" y2="25.08" style="fill:none;stroke:#493b3b;stroke-linecap:round;stroke-linejoin:round;stroke-width:1.79050187758608px"/></g><g id="_Group_6" data-name="&lt;Group&gt;"><line id="_Path_8" data-name="&lt;Path&gt;" x1="100.93" y1="12.5" x2="98.04" y2="24.1" style="fill:none;stroke:#493b3b;stroke-linecap:round;stroke-linejoin:round;stroke-width:1.79050187758608px"/></g><g id="_Group_7" data-name="&lt;Group&gt;"><line id="_Path_9" data-name="&lt;Path&gt;" x1="97.02" y1="11.53" x2="94.13" y2="23.13" style="fill:none;stroke:#493b3b;stroke-linecap:round;stroke-linejoin:round;stroke-width:1.79050187758608px"/></g><g id="_Group_8" data-name="&lt;Group&gt;"><line id="_Path_10" data-name="&lt;Path&gt;" x1="93.11" y1="10.56" x2="90.22" y2="22.16" style="fill:none;stroke:#493b3b;stroke-linecap:round;stroke-linejoin:round;stroke-width:1.79050187758608px"/></g><g id="_Group_9" data-name="&lt;Group&gt;"><line id="_Path_11" data-name="&lt;Path&gt;" x1="89.2" y1="9.59" x2="86.31" y2="21.19" style="fill:none;stroke:#493b3b;stroke-linecap:round;stroke-linejoin:round;stroke-width:1.79050187758608px"/></g><g id="_Group_10" data-name="&lt;Group&gt;"><line id="_Path_12" data-name="&lt;Path&gt;" x1="85.29" y1="8.62" x2="82.4" y2="20.22" style="fill:none;stroke:#493b3b;stroke-linecap:round;stroke-linejoin:round;stroke-width:1.79050187758608px"/></g></g><path id="_Path_13" data-name="&lt;Path&gt;" d="M267.91,49.74,128,15a12.78,12.78,0,0,0-11,2.48,27.69,27.69,0,0,1-24.17,5.39L41.6,10.13,14.41,119.6a10.71,10.71,0,0,0,7.83,13l212,52.66a10.71,10.71,0,0,0,13-7.83L275.75,62.76A10.76,10.76,0,0,0,267.91,49.74Z" style="fill:#e2a86d"/><rect id="_Path_14" data-name="&lt;Path&gt;" x="-13.51" y="68.52" width="91.36" height="12.98" transform="translate(-48.38 88.15) rotate(-76.05)" style="fill:#d6975f"/><rect id="_Path_15" data-name="&lt;Path&gt;" x="206.74" y="123.23" width="91.36" height="12.98" transform="translate(65.67 343.43) rotate(-76.05)" style="fill:#d6975f"/><g style="clip-path:url(#clip-path)"><g id="_Group_11" data-name="&lt;Group&gt;"><g id="_Group_12" data-name="&lt;Group&gt;"><g id="_Group_13" data-name="&lt;Group&gt;"><path id="_Path_16" data-name="&lt;Path&gt;" d="M59.7,25.28c20.76,20.42,25,51.23,11.51,73.43-15.93,26.25-48.39,27-50.28,26.94" style="fill:none;stroke:#cc894c;stroke-linecap:round;stroke-linejoin:round;stroke-width:2.68575281637912px"/></g><path id="_Path_17" data-name="&lt;Path&gt;" d="M50.21,100.41c-13.23,8.7-33.59,8.44-48.87-4.53" style="fill:none;stroke:#cc894c;stroke-linecap:round;stroke-linejoin:round;stroke-width:2.68575281637912px"/><path id="_Path_18" data-name="&lt;Path&gt;" d="M24,29.57c25.82,8.76,41.66,29.12,40,48a37,37,0,0,1-6.84,17.53" style="fill:none;stroke:#cc894c;stroke-linecap:round;stroke-linejoin:round;stroke-width:2.68575281637912px"/><path id="_Path_19" data-name="&lt;Path&gt;" d="M13,54.5C25.27,49.7,35.19,51.34,43.14,58c5.56,4.7,11.51,14.39,9.12,20.12C48.1,88.12,27.25,96,12,91.62" style="fill:none;stroke:#cc894c;stroke-linecap:round;stroke-linejoin:round;stroke-width:2.68575281637912px"/><path id="_Path_20" data-name="&lt;Path&gt;" d="M36.89,61.4c1,1.26,6.65,6.63,3.14,14.48-1.15,2.57-10.33,10.39-21.28,5.64" style="fill:none;stroke:#cc894c;stroke-linecap:round;stroke-linejoin:round;stroke-width:2.68575281637912px"/><path id="_Path_21" data-name="&lt;Path&gt;" d="M15.47,66.87c7-2.91,17.07-4.84,19.37,2.78" style="fill:none;stroke:#cc894c;stroke-linecap:round;stroke-linejoin:round;stroke-width:2.68575281637912px"/><path id="_Path_22" data-name="&lt;Path&gt;" d="M3.65,114.44c4.17,1.41,28.59,9.13,48.85-4.47A46.72,46.72,0,0,0,64.37,98.39" style="fill:none;stroke:#cc894c;stroke-linecap:round;stroke-linejoin:round;stroke-width:2.68575281637912px"/><path id="_Path_23" data-name="&lt;Path&gt;" d="M84.46,31.43c1.28,8,5.43,25.89,20.41,37.59C127.43,86.66,166,83.64,196.22,57.81" style="fill:none;stroke:#cc894c;stroke-linecap:round;stroke-linejoin:round;stroke-width:2.68575281637912px"/><path id="_Path_24" data-name="&lt;Path&gt;" d="M105.15,37.26a27.39,27.39,0,0,0,3.94,17.58C115.51,65,126.43,66.9,128.16,67.19" style="fill:none;stroke:#cc894c;stroke-linecap:round;stroke-linejoin:round;stroke-width:2.68575281637912px"/><path id="_Path_25" data-name="&lt;Path&gt;" d="M90.31,118.9c-5.1-5.46-12.62-14.16-8.07-32.49,1.5-6,4.21-9,5.84-9.39,5.67-1.45,17.19,20.46,36.23,30.73,14.8,8,43.52,4.72,88.57-17.53" style="fill:none;stroke:#cc894c;stroke-linecap:round;stroke-linejoin:round;stroke-width:2.68575281637912px"/><path id="_Path_26" data-name="&lt;Path&gt;" d="M230.88,71.26c-14.07-1.65-42.64-2.7-65.28,14.92-1.25.93-14.89,11.66-12.84,15.49,1.36,2.5,21-16.09,50.27-19.29a80.76,80.76,0,0,1,17-.06" style="fill:none;stroke:#cc894c;stroke-linecap:round;stroke-linejoin:round;stroke-width:2.68575281637912px"/><path id="_Path_27" data-name="&lt;Path&gt;" d="M40,143.54c7-14.51,19.14-22.46,29.28-20.4.35.08,8.75,1.89,11.09,8.29,2.79,7.7-4.12,19.73-19.18,27.06" style="fill:none;stroke:#cc894c;stroke-linecap:round;stroke-linejoin:round;stroke-width:2.68575281637912px"/><path id="_Path_28" data-name="&lt;Path&gt;" d="M69.52,115.35A29.54,29.54,0,0,1,93.9,136.58c4,13.77-.78,28-15.79,34.41" style="fill:none;stroke:#cc894c;stroke-linecap:round;stroke-linejoin:round;stroke-width:2.68575281637912px"/><path id="_Path_29" data-name="&lt;Path&gt;" d="M223.71,96.23c-2.4,1.67-13.6,6.45-17.81,7.62-21.9,6.09-23.1-.39-47.43,16.4-13.13,9.05-29.07,35.16-49.25,50.86" style="fill:none;stroke:#cc894c;stroke-linecap:round;stroke-linejoin:round;stroke-width:2.68575281637912px"/><path id="_Path_30" data-name="&lt;Path&gt;" d="M254.78,59.35C251.6,70.65,242.47,81.61,230.67,91" style="fill:none;stroke:#cc894c;stroke-linecap:round;stroke-linejoin:round;stroke-width:2.68575281637912px"/><path id="_Path_31" data-name="&lt;Path&gt;" d="M280.58,94c-4.18-.44-28.85-2.51-47.37,15.21a50.94,50.94,0,0,0-13.8,22.17c-6.09,20.95,3.82,45.69,24.35,63.47" style="fill:none;stroke:#cc894c;stroke-linecap:round;stroke-linejoin:round;stroke-width:2.68575281637912px"/><path id="_Path_32" data-name="&lt;Path&gt;" d="M233.45,149.66c.47,14.46,11.51,28.88,27.55,37.06" style="fill:none;stroke:#cc894c;stroke-linecap:round;stroke-linejoin:round;stroke-width:2.68575281637912px"/><path id="_Path_33" data-name="&lt;Path&gt;" d="M275.08,118.91c-14.63-.87-31.31,4.44-37.64,15.23a28.8,28.8,0,0,0-3,7.1" style="fill:none;stroke:#cc894c;stroke-linecap:round;stroke-linejoin:round;stroke-width:2.68575281637912px"/><path id="_Path_34" data-name="&lt;Path&gt;" d="M154.18,182.28c13.19-29.89,34.44-41,45.36-44.82,11.21-3.91,21,1.29,7.32,16.39-9.67,10.7-7.06,30.07-24.54,37.49" style="fill:none;stroke:#cc894c;stroke-linecap:round;stroke-linejoin:round;stroke-width:2.68575281637912px"/><path id="_Path_35" data-name="&lt;Path&gt;" d="M276.24,133.73c-16.75-1.63-28.29,4.73-29,10.79-.54,5,6.13,11,15,14.8" style="fill:none;stroke:#cc894c;stroke-linecap:round;stroke-linejoin:round;stroke-width:2.68575281637912px"/><path id="_Path_36" data-name="&lt;Path&gt;" d="M206.05,126.67a88.35,88.35,0,0,1,74.51-46.53" style="fill:none;stroke:#cc894c;stroke-linecap:round;stroke-linejoin:round;stroke-width:2.68575281637912px"/><path id="_Path_37" data-name="&lt;Path&gt;" d="M184.64,161.76c1.12-8,5.91-13.2,10.32-13.12.78,0,5.44.75,4,6.7" style="fill:none;stroke:#cc894c;stroke-linecap:round;stroke-linejoin:round;stroke-width:2.68575281637912px"/></g></g></g><g id="_Group_14" data-name="&lt;Group&gt;"><path id="_Path_38" data-name="&lt;Path&gt;" d="M84.94,127.53l24.25-4.21-3.69-21.17-24.25,4.22a10.76,10.76,0,0,0-8.75,12.4h0A10.77,10.77,0,0,0,84.94,127.53Z" style="fill:#e5d6d6"/><path id="_Path_39" data-name="&lt;Path&gt;" d="M84.94,127.53l24.25-4.21-3.69-21.17-24.25,4.22a10.76,10.76,0,0,0-8.75,12.4h0A10.77,10.77,0,0,0,84.94,127.53Z" style="fill:none;stroke:#493b3b;stroke-linecap:round;stroke-linejoin:round;stroke-width:2.68575281637912px"/><circle id="_Path_40" data-name="&lt;Path&gt;" cx="83.1" cy="116.93" r="6.45" transform="translate(-50.41 169.39) rotate(-76.05)" style="fill:#efe6e6"/><circle id="_Path_41" data-name="&lt;Path&gt;" cx="83.1" cy="116.93" r="6.45" transform="translate(-50.41 169.39) rotate(-76.05)" style="fill:none;stroke:#493b3b;stroke-linecap:round;stroke-linejoin:round;stroke-width:1.79050187758608px"/></g><path id="_Path_42" data-name="&lt;Path&gt;" d="M14.86,117.78l-.44,1.78a10.72,10.72,0,0,0,7.83,13l212,52.66a10.72,10.72,0,0,0,13-7.84l.44-1.78Z" style="fill:#e5d6d6"/><path id="_Path_43" data-name="&lt;Path&gt;" d="M153,59.29a51,51,0,0,0-63.07,47.62l-9.21,1.59A10.76,10.76,0,0,0,72,120.9h0a10.76,10.76,0,0,0,12.4,8.75L93.63,128A50.86,50.86,0,1,0,153,59.29Z" style="fill:#2d2d2d;stroke:#2d2d2d;stroke-linecap:round;stroke-linejoin:round;stroke-width:3.58100375517216px;opacity:0.200000002980232;isolation:isolate"/><path id="_Path_44" data-name="&lt;Path&gt;" d="M234.24,185.28l-2.17-.54,3-12.2,12.6,3.13-.44,1.78A10.78,10.78,0,0,1,234.24,185.28Z" style="fill:#dbc8c8"/><path id="_Path_45" data-name="&lt;Path&gt;" d="M22.24,132.62l2.17.54,3-12.21-12.6-3.13-.44,1.78A10.74,10.74,0,0,0,22.24,132.62Z" style="fill:#dbc8c8"/><path id="_Path_46" data-name="&lt;Path&gt;" d="M267.94,49.61,128.06,14.86a12.61,12.61,0,0,0-11,2.53,27.61,27.61,0,0,1-24.18,5.43L41.61,10.09l-4.72,19L269.74,87l6-24.29A10.79,10.79,0,0,0,267.94,49.61Z" style="fill:#e5d6d6"/><rect id="_Path_47" data-name="&lt;Path&gt;" x="35.91" y="14.89" width="19.16" height="12.98" transform="translate(13.78 60.38) rotate(-76.05)" style="fill:#dbc8c8"/><path id="_Path_48" data-name="&lt;Path&gt;" d="M198.11,61.88,52.58,25.72a1.49,1.49,0,0,1-1.08-1.79h0a1.49,1.49,0,0,1,1.79-1.07L198.82,59a1.5,1.5,0,0,1,1.08,1.79h0A1.5,1.5,0,0,1,198.11,61.88Z" style="fill:#c1a7a7"/><path id="_Path_49" data-name="&lt;Path&gt;" d="M267.9,49.6l-2.17-.54-8.64,34.76L269.69,87l6.05-24.33A10.75,10.75,0,0,0,267.9,49.6Z" style="fill:#dbc8c8"/><ellipse id="_Path_50" data-name="&lt;Path&gt;" cx="142.54" cy="101.39" rx="50.94" ry="50.81" transform="translate(9.78 215.28) rotate(-76.05)" style="fill:#e5d6d6"/><circle id="_Path_51" data-name="&lt;Path&gt;" cx="142.54" cy="101.39" r="40.73" transform="translate(-29.94 130.49) rotate(-45)" style="fill:#845b5b"/><path id="_Path_52" data-name="&lt;Path&gt;" d="M150.2,70.55a40.73,40.73,0,0,1,30.53,44.94,35.49,35.49,0,0,0,1.34-4.28A40.73,40.73,0,0,0,103,91.57a35.94,35.94,0,0,0-.82,4.41A40.73,40.73,0,0,1,150.2,70.55Z" style="fill:#704848"/><path id="_Path_53" data-name="&lt;Path&gt;" d="M267.91,49.74,128,15a12.78,12.78,0,0,0-11,2.48,27.69,27.69,0,0,1-24.17,5.39L41.6,10.13,14.41,119.6a10.71,10.71,0,0,0,7.83,13l212,52.66a10.71,10.71,0,0,0,13-7.83L275.75,62.76A10.76,10.76,0,0,0,267.91,49.74Z" style="fill:none;stroke:#493b3b;stroke-linecap:round;stroke-linejoin:round;stroke-width:2.68575281637912px"/><circle id="_Path_54" data-name="&lt;Path&gt;" cx="142.54" cy="101.39" r="45.88" transform="translate(-29.94 130.49) rotate(-45)" style="fill:none;stroke:#493b3b;stroke-linecap:round;stroke-linejoin:round;stroke-width:1.34287640818956px"/><circle id="_Path_55" data-name="&lt;Path&gt;" cx="142.54" cy="101.39" r="40.73" transform="translate(-29.94 130.49) rotate(-45)" style="fill:none;stroke:#493b3b;stroke-linecap:round;stroke-linejoin:round;stroke-width:3.58100375517216px"/><circle id="_Path_56" data-name="&lt;Path&gt;" cx="142.54" cy="101.39" r="27.75" transform="translate(-6.75 192.54) rotate(-66.83)" style="fill:#b57f7f"/><path id="_Path_57" data-name="&lt;Path&gt;" d="M161.09,106c13,3.24,16.42,20.22,5.6,28.14A40.62,40.62,0,0,1,105.87,119C100,106.93,111,93.56,124,96.78Z" style="fill:#fff;opacity:0.340000003576279;isolation:isolate"/><path id="_Path_58" data-name="&lt;Path&gt;" d="M147.07,83.14a27.83,27.83,0,0,1,21,29.2,29.16,29.16,0,0,0,1.42-4.26A27.75,27.75,0,1,0,115.61,94.7a29.47,29.47,0,0,0-.74,4.43A27.78,27.78,0,0,1,147.07,83.14Z" style="fill:#ad6d6d"/><circle id="_Path_59" data-name="&lt;Path&gt;" cx="142.54" cy="101.39" r="27.75" transform="translate(-6.75 192.54) rotate(-66.83)" style="fill:none;stroke:#493b3b;stroke-linecap:round;stroke-linejoin:round;stroke-width:2.68575281637912px"/><circle id="_Path_60" data-name="&lt;Path&gt;" cx="142.55" cy="101.39" r="16.56" transform="translate(-19.43 167.46) rotate(-57.61)" style="fill:#4c3535"/><circle id="_Path_61" data-name="&lt;Path&gt;" cx="142.55" cy="101.39" r="16.56" transform="translate(-19.43 167.46) rotate(-57.61)" style="fill:none;stroke:#493b3b;stroke-linecap:round;stroke-linejoin:round;stroke-width:1.34287640818956px"/><circle id="_Path_62" data-name="&lt;Path&gt;" cx="142.55" cy="101.39" r="10.52" transform="translate(-19.43 167.46) rotate(-57.61)" style="fill:#3f2e2e"/><path id="_Path_63" data-name="&lt;Path&gt;" d="M74.37,18.22,51.65,12.58l1.08-4.35A2.68,2.68,0,0,1,56,6.28l17.51,4.34a2.71,2.71,0,0,1,2,3.26Z" style="fill:#6a4949"/><path id="_Path_64" data-name="&lt;Path&gt;" d="M74.37,18.22,51.65,12.58l1.08-4.35A2.68,2.68,0,0,1,56,6.28l17.51,4.34a2.71,2.71,0,0,1,2,3.26Z" style="fill:none;stroke:#493b3b;stroke-linecap:round;stroke-linejoin:round;stroke-width:2.68575281637912px"/><rect id="_Path_65" data-name="&lt;Path&gt;" x="62.73" y="-2.19" width="5.33" height="16.11" transform="translate(43.93 67.92) rotate(-76.05)" style="fill:none;stroke:#493b3b;stroke-linecap:round;stroke-linejoin:round;stroke-width:2.68575281637912px"/><rect id="_Path_66" data-name="&lt;Path&gt;" x="62.73" y="-2.19" width="5.33" height="16.11" transform="translate(43.93 67.92) rotate(-76.05)" style="fill:#493b3b"/><ellipse id="_Path_67" data-name="&lt;Path&gt;" cx="142.54" cy="101.39" rx="50.94" ry="50.81" transform="translate(9.78 215.28) rotate(-76.05)" style="fill:none;stroke:#493b3b;stroke-linecap:round;stroke-linejoin:round;stroke-width:3.58100375517216px"/><path id="_Path_68" data-name="&lt;Path&gt;" d="M145.08,91.18a10.52,10.52,0,0,0-12.75,7.67l0,.09a8.3,8.3,0,0,1,6.37,0c2.6.88,2.87,1.82,5.61,3.42a12.85,12.85,0,0,0,8.51,1.38A10.52,10.52,0,0,0,145.08,91.18Z" style="fill:#fff;opacity:0.379999995231628;isolation:isolate"/><circle id="_Path_69" data-name="&lt;Path&gt;" cx="142.54" cy="101.39" r="34.02" transform="translate(-6.75 192.54) rotate(-66.83)" style="fill:none;stroke:#493b3b;stroke-linecap:round;stroke-linejoin:round;stroke-width:1.34287640818956px"/><circle id="_Path_70" data-name="&lt;Path&gt;" cx="142.54" cy="101.39" r="40.73" transform="translate(-29.94 130.49) rotate(-45)" style="fill:none;stroke:#493b3b;stroke-linecap:round;stroke-linejoin:round;stroke-width:3.58100375517216px"/><path id="_Path_71" data-name="&lt;Path&gt;" d="M246.92,77.6l-37.23-9.25a5.29,5.29,0,0,1-3.85-6.4l3.69-14.86a5.3,5.3,0,0,1,6.4-3.85l37.23,9.25a5.3,5.3,0,0,1,3.85,6.4l-3.69,14.86A5.29,5.29,0,0,1,246.92,77.6Z" style="fill:#443636"/><path id="_Path_72" data-name="&lt;Path&gt;" d="M246.92,77.6l-37.23-9.25a5.29,5.29,0,0,1-3.85-6.4l3.69-14.86a5.3,5.3,0,0,1,6.4-3.85l37.23,9.25a5.3,5.3,0,0,1,3.85,6.4l-3.69,14.86A5.29,5.29,0,0,1,246.92,77.6Z" style="fill:none;stroke:#493b3b;stroke-linecap:round;stroke-linejoin:round;stroke-width:1.79050187758608px"/><path id="_Path_73" data-name="&lt;Path&gt;" d="M244.31,74.18,213.6,66.55a4.49,4.49,0,0,1-3.27-5.42l2.79-11.21a4.48,4.48,0,0,1,5.42-3.26l30.71,7.63a4.49,4.49,0,0,1,3.27,5.42l-2.78,11.21A4.46,4.46,0,0,1,244.31,74.18Z" style="fill:#845b5b"/><path id="_Path_74" data-name="&lt;Path&gt;" d="M236.8,72.32l15.83-13.23a4.49,4.49,0,0,0-3.38-4.8l-1.39-.35L228.41,70.23l8.39,2.09Z" style="fill:#fff;opacity:0.379999995231628;isolation:isolate"/><polygon id="_Path_75" data-name="&lt;Path&gt;" points="225.24 69.45 244.69 53.16 242.13 52.52 222.68 68.81 225.24 69.45" style="fill:#fff;opacity:0.379999995231628;isolation:isolate"/></g></g></svg>