<svg xmlns="http://www.w3.org/2000/svg" xmlns:xlink="http://www.w3.org/1999/xlink" viewBox="0 0 438 438"><defs><clipPath id="clip-path"><path d="M220.3,144.52l-59.73,2s3,50.83,8.35,59.37c3.74,6,27.72,25.72,36.7,31.12a19.41,19.41,0,0,0,12.79,2.28,12.83,12.83,0,0,1,3.78,0A19.41,19.41,0,0,0,235,237c9-5.4,33-25.16,36.7-31.12,5.37-8.54,8.36-59.37,8.36-59.37Z" style="fill:none"/></clipPath><clipPath id="clip-path-2"><path d="M289.39,142.48a22.61,22.61,0,0,0-9.53,4l-59.56-2-59.73,2h0a22.59,22.59,0,0,0-9.55-4c-6.29-1.28-3.12,22.77-.75,28.68s8.71,13.44,13.44,12.71a1.38,1.38,0,0,0,.27-.08c1.3,10,3,19,4.94,22.1,3.74,6,27.72,25.72,36.7,31.12a19.41,19.41,0,0,0,12.79,2.28,12.83,12.83,0,0,1,3.78,0A19.41,19.41,0,0,0,235,237c9-5.4,33-25.16,36.7-31.12,2-3.15,3.64-12.06,4.94-22l.09,0c4.73.73,11.07-6.79,13.44-12.71S295.69,141.2,289.39,142.48Z" style="fill:none"/></clipPath><clipPath id="clip-path-3"><path d="M289.39,142.48c6.3-1.28,3.13,22.77.76,28.68s-8.71,13.44-13.44,12.71c-3.1-.47-5.12-8.94-4.36-18.62S274.75,145.45,289.39,142.48Zm-138.37,0c-6.29-1.28-3.12,22.77-.75,28.68s8.71,13.44,13.44,12.71c3.1-.47,5.12-8.94,4.36-18.62S165.67,145.45,151,142.48Z" style="fill:none"/></clipPath><clipPath id="clip-path-5"><circle cx="219" cy="253.87" r="165.93" style="fill:none"/></clipPath><linearGradient id="linear-gradient" x1="112.66" y1="412.94" x2="174.71" y2="291.67" gradientUnits="userSpaceOnUse"><stop offset="0" stop-color="#fff"/><stop offset="1"/></linearGradient></defs><title>citizen</title><g style="isolation:isolate"><g id="Objects"><circle cx="219" cy="253.87" r="165.93" style="fill:#f2cb6b"/><path d="M268.45,234.74s-7.63-4.37-6.05-25.82L219,235l-43.4-26.06c1.58,21.45-6,25.82-6,25.82C162.64,280.68,219.39,290,219.39,290S275.36,280.68,268.45,234.74Z" style="fill:#7d9ba5"/><path d="M183.57,261.41c.36-.06,30.79,10,30.79,10l26.43-7.64s19.75-30.95,19.58-31.69c-6.49,9.14-9.7,13.3-33.1,25.81,0,0-7.41,4.67-8.22,2.24s2.1-7.21,3-9.21-1-9.24-1-9.24a22.74,22.74,0,0,0,11.88-.85c5.94-2.24,25.79-19.79,28.52-25.79l-8.73-.33L219,235l-43.4-26.06c1.58,21.45-6,25.82-6,25.82-.09.63-.17,1.25-.24,1.87C175.75,248,183.36,261.44,183.57,261.41Z" style="fill:#1a2b33"/><path d="M151,142.48c-6.29-1.28-3.12,22.77-.75,28.68s8.71,13.44,13.44,12.71c3.1-.47,5.12-8.94,4.36-18.62S165.67,145.45,151,142.48Z" style="fill:#7d9ba5"/><path d="M289.39,142.48c6.3-1.28,3.13,22.77.76,28.68s-8.71,13.44-13.44,12.71c-3.1-.47-5.12-8.94-4.36-18.62S274.75,145.45,289.39,142.48Z" style="fill:#7d9ba5"/><path d="M151,142.48c-6.29-1.28-3.12,22.77-.75,28.68s8.71,13.44,13.44,12.71c3.1-.47,5.12-8.94,4.36-18.62S165.67,145.45,151,142.48Z" style="fill:#7d9ba5"/><path d="M220.3,144.52l-59.73,2s3,50.83,8.35,59.37c3.74,6,27.72,25.72,36.7,31.12a19.41,19.41,0,0,0,12.79,2.28,12.83,12.83,0,0,1,3.78,0A19.41,19.41,0,0,0,235,237c9-5.4,33-25.16,36.7-31.12,5.37-8.54,8.36-59.37,8.36-59.37Z" style="fill:#7d9ba5"/><g style="clip-path:url(#clip-path)"><path d="M279.63,152.05a158.84,158.84,0,0,1-.07,20.7,186,186,0,0,1-2.39,20.56q-.46,2.55-1,5.12a28,28,0,0,1-1.7,5.31,26.36,26.36,0,0,1-2.77,4.88,28.55,28.55,0,0,1-3.62,4.13,74.93,74.93,0,0,1-16.8,12.31c4.77-5,9.51-9.92,13.72-15.13a31.23,31.23,0,0,0,2.8-3.88,26.63,26.63,0,0,0,2-4.21,26.27,26.27,0,0,0,1.24-4.51c.33-1.64.65-3.3.93-5l3.49-20.12C276.65,165.52,277.93,158.78,279.63,152.05Z" style="fill:#f3fdfe"/></g><g style="opacity:0.89;mix-blend-mode:multiply"><g style="clip-path:url(#clip-path-2)"><path d="M283.24,143.66c-7.32,3.57-137.43-8.35-137.43-8.35s-3.92,24.78-2.19,32.19,15.63,26.66,18.26,45.53,31.07,24.78,55.38,28.72,19.15-5.64,19.15-5.64,1.36-2.67-1.34-5.93c-3.17-3.83-16.34.16-21.66-.91-4.42-.9-8-11.64-6.85-12.49s6.47-1.22,16.71-1.41,12.85-5.53,12.85-5.53A50.81,50.81,0,0,1,224,211.71c-3.69,0-23.18-2.73-12.08-6.76s25.81-1.5,28.81-1.12,5.35.09,2.63-1c-1.75-.73-13.19-5-19.81-6.45-.21-4.14-.4-6.32-.4-6.32,3.29.65,7.07-2.3,7.07-2.3,1,.85,4.88-1.33,6.67-2.74s-1.6-5.91-1.6-5.91a5.85,5.85,0,0,1,.38,3.75c-.57,1.78-4.13,2-4.13,2l-2-2.34-2,3.47c-6.57,3.1-8.85-.66-8.85-.66l.5-15.46c.09-2.51,1.61-4.06,5.35-3.75,10,.84,27,1.66,38.76-1.68,14.83-4.23,14.53,8.62,14.53,8.62-.31,3.94-1.16,10.87-1.16,10.87s4.47,2.08,8.79-2.29,6.27-15.39,6.27-15.39,4.61-18.21,4.52-21.67S283.24,143.66,283.24,143.66Z" style="fill:#1a2b33"/><path d="M245.71,197.1c-.9-1.88-1.77-3.68-2.68-5.46s-1.9-3.48-2.94-5.14a51.58,51.58,0,0,0-3.4-4.81c-1.2-1.58-2.62-3-4-4.52a16.34,16.34,0,0,1,5.34,3.26,21.31,21.31,0,0,1,4.06,4.82,24.37,24.37,0,0,1,2.64,5.7A18.87,18.87,0,0,1,245.71,197.1Z" style="fill:#1a2b33"/></g></g><path d="M220.38,184.21c.09.78,1.53.88,2.18.1,1.08-1.3-1-5.86-1.9-5.07C220.22,179.63,220.26,183.28,220.38,184.21Z" style="fill:#f3fdfe"/><polygon points="221.14 191.56 221.8 196.57 220.47 196.57 221.14 191.56" style="fill:#f3fdfe"/><path d="M220.45,209.83c0,.33,1.86.76,4.15.74s4.14-.61,4.14-.94-1.87-.3-4.16-.28S220.45,209.49,220.45,209.83Z" style="fill:#f3fdfe"/><g style="clip-path:url(#clip-path-3)"><path d="M290.33,139.67a40.8,40.8,0,0,1,3.56,12.15,44.56,44.56,0,0,1-.05,12.84,39.58,39.58,0,0,1-1.49,6.33,25.28,25.28,0,0,1-2.81,6,16.94,16.94,0,0,1-4.61,4.86,12.52,12.52,0,0,1-3,1.54,10.32,10.32,0,0,1-3.22.55c3.77-2.07,6-5.26,7.7-8.72A46.09,46.09,0,0,0,290,164a64.52,64.52,0,0,0,1.1-12A87.52,87.52,0,0,0,290.33,139.67Z" style="fill:#86a1ac"/><path d="M150,139.67a87.52,87.52,0,0,0-.79,12.34,65.38,65.38,0,0,0,1.1,12,46.09,46.09,0,0,0,3.58,11.2c1.7,3.46,3.94,6.65,7.7,8.72a10.21,10.21,0,0,1-3.21-.55,12.4,12.4,0,0,1-3-1.54,16.94,16.94,0,0,1-4.61-4.86,25.28,25.28,0,0,1-2.81-6,39.55,39.55,0,0,1-1.48-6.33,44.92,44.92,0,0,1-.06-12.84A41.09,41.09,0,0,1,150,139.67Z" style="fill:#86a1ac"/></g><g style="clip-path:url(#clip-path)"><g style="opacity:0.7000000000000001"><path d="M160.92,151.77c1.43,6.79,2.58,13.59,3.69,20.38s2.19,13.58,3.39,20.3c.31,1.68.61,3.36,1,5,.17.85.32,1.63.54,2.39s.47,1.52.74,2.27a23.53,23.53,0,0,0,2.14,4.29c.43.68.9,1.32,1.4,2s1,1.33,1.56,2a185,185,0,0,0,14.13,14.93A78.64,78.64,0,0,1,173,212.44c-.62-.63-1.22-1.27-1.82-1.92a25.85,25.85,0,0,1-1.72-2.16,27.52,27.52,0,0,1-2.74-4.81,27.2,27.2,0,0,1-1-2.61c-.28-.9-.48-1.8-.67-2.64-.39-1.71-.72-3.42-1-5.14-1.23-6.85-2-13.74-2.54-20.64A194,194,0,0,1,160.92,151.77Z" style="fill:#86a1ac"/></g></g><path d="M291.66,79.52c22.78-5.25,39.55-1.75,39.55,14.27,0,54.07-85.48,67.08-112.21,67.08s-112.21-13-112.21-67.08c0-16,16.77-19.52,39.55-14.27a455.79,455.79,0,0,0,72.33,6.14A469.64,469.64,0,0,0,291.66,79.52Z" style="fill:#263a45"/><path d="M281.45,142.48a131.27,131.27,0,0,1-15.08,5.14c-5.13,1.41-10.32,2.64-15.57,3.56a182.09,182.09,0,0,1-31.8,2.93,181.13,181.13,0,0,1-31.8-2.93,153.23,153.23,0,0,1-30.65-8.7,157.79,157.79,0,0,0,15.32,4.19c5.16,1.18,10.36,2.2,15.58,3s10.47,1.46,15.74,1.82,10.54.6,15.81.65,10.55-.19,15.81-.65,10.51-1.05,15.74-1.82,10.42-1.8,15.58-3S276.41,144.14,281.45,142.48Z" style="fill:#455d69"/><path d="M280.24,101.33h-123c-25.15,0-10.51,29.85,61.79,31.07C291.32,131.18,305.39,101.33,280.24,101.33Z" style="fill:#1a2b32"/><path d="M294.39,39.77,219,41l-75.39-1.3c5,17.18,6.18,50.68,5.81,61s4.5,15,18.77,21.4,43.65,7.76,50.81,7.76,36.54-1.37,50.81-7.76S289,111,288.59,100.67,289.38,56.94,294.39,39.77Z" style="fill:#263a45"/><path d="M294.48,38.82c0,10.59-33.79,24.91-75.47,24.91s-75.46-14.32-75.46-24.91S177.33,18.2,219,18.2,294.48,28.22,294.48,38.82Z" style="fill:#263a45"/><path d="M212,102.89s-24.46-2.44-44.83-9.22c-9.67-3.23-17.12-9.15-18.23-15.42l.32,6.5s13.43,15.92,33.14,17.43S212,102.89,212,102.89Z" style="fill:#1a2b32"/><path d="M226.05,102.89s24.47-2.44,44.83-9.22c9.67-3.23,17.12-9.15,18.23-15.42l-.32,6.5s-13.43,15.92-33.14,17.43S226.05,102.89,226.05,102.89Z" style="fill:#1a2b32"/><path d="M218.82,103c-36.91,0-66.69-9-69.68-20.35.36,7.75.42,14.35.29,18-.38,10.33,4.5,15,18.77,21.4s43.65,7.76,50.81,7.76,36.54-1.37,50.81-7.76S289,111,288.59,100.67c-.13-3.61-.07-10.06.27-17.65C285.78,94.21,255.34,103,218.82,103Z" style="fill:#455d69"/><path d="M247.54,105.52c-2.35.45-4.72.77-7.08,1.11s-4.75.53-7.13.74c-4.77.41-9.56.57-14.34.56s-9.57-.25-14.33-.71q-3.57-.36-7.12-.82c-2.37-.36-4.73-.71-7.07-1.18,2.38.17,4.75.39,7.14.53s4.75.34,7.12.45c4.76.22,9.51.39,14.27.4s9.51-.08,14.26-.25c2.38-.08,4.76-.21,7.14-.37S245.15,105.67,247.54,105.52Z" style="fill:#293b47"/><path d="M248.2,124.87c-2.35.45-4.72.77-7.08,1.11s-4.75.53-7.14.74c-4.76.41-9.55.57-14.33.56s-9.57-.25-14.33-.71q-3.57-.36-7.12-.82c-2.37-.36-4.73-.71-7.07-1.18,2.38.17,4.75.39,7.13.53s4.76.34,7.13.45c4.76.22,9.51.39,14.27.4s9.51-.07,14.26-.25c2.38-.08,4.76-.21,7.14-.37S245.81,125,248.2,124.87Z" style="fill:#293b47"/><path d="M263.34,103.49a68.63,68.63,0,0,0,7.2-2.62,71.2,71.2,0,0,0,6.85-3.36,55.85,55.85,0,0,0,6.33-4.12,42.44,42.44,0,0,0,5.52-5l0,0a1.33,1.33,0,0,1,1.94,1.82l-.08.08A45.65,45.65,0,0,1,284.86,95,58.27,58.27,0,0,1,278,98.7a73.3,73.3,0,0,1-7.2,2.79A67,67,0,0,1,263.34,103.49Z" style="fill:#293b47"/><path d="M174.83,103.49a66.81,66.81,0,0,1-7.43-2,73.47,73.47,0,0,1-7.21-2.79A57.36,57.36,0,0,1,153.32,95,45.65,45.65,0,0,1,147,90.25a1.33,1.33,0,0,1,1.78-2l.08.08,0,0a43.1,43.1,0,0,0,5.52,5,56,56,0,0,0,6.34,4.12,71,71,0,0,0,6.84,3.36A70.31,70.31,0,0,0,174.83,103.49Z" style="fill:#293b47"/><path d="M280.33,52a113.39,113.39,0,0,1-29.94,9.79,169.4,169.4,0,0,1-31.46,3,170.38,170.38,0,0,1-31.47-3,113,113,0,0,1-29.92-9.84,109.71,109.71,0,0,0,14.87,5c5.05,1.37,10.18,2.43,15.33,3.29a196.34,196.34,0,0,0,31.19,2.53,196.31,196.31,0,0,0,31.19-2.5c5.15-.85,10.28-1.91,15.33-3.27A111.15,111.15,0,0,0,280.33,52Z" style="fill:#465c67"/><path d="M218.73,22.71c33,0,61.45,5.36,74.35,12.38C286.35,26,255.75,18.2,219,18.2c-36,0-66.17,7.5-73.66,16.38C158.67,27.81,186.52,22.71,218.73,22.71Z" style="fill:#1a2b32"/><path d="M219,57.86c-31.61,0-59.12-6.67-73.41-14.28,7.88,9.67,37.74,20.15,73.41,20.15s65.53-10.48,73.41-20.15C278.14,51.19,250.62,57.86,219,57.86Z" style="fill:#1a2b32"/><path d="M267.44,36.49a58,58,0,0,0-12.16.56,108.54,108.54,0,0,0-11.89,2.56c-3.94,1-7.91,2.11-12,3A65.16,65.16,0,0,1,219,43.93a65.16,65.16,0,0,1-12.42-1.37c-4.05-.84-8-1.89-12-2.94a111.31,111.31,0,0,0-11.88-2.57,58.86,58.86,0,0,0-12.17-.56,46.89,46.89,0,0,1,12.3-.74,88,88,0,0,1,12.23,1.85c8,1.7,15.9,3.73,23.9,3.67s15.89-2,23.9-3.67a88,88,0,0,1,12.23-1.84A46.89,46.89,0,0,1,267.44,36.49Z" style="fill:#1a2b32"/><path d="M318.5,122.73A84,84,0,0,1,298,139a130.1,130.1,0,0,1-24.15,10.51,182.32,182.32,0,0,1-51.9,8.39,199.4,199.4,0,0,1-26.32-1.54,184.75,184.75,0,0,1-25.84-5.1,147.71,147.71,0,0,1-24.69-9.11,97.31,97.31,0,0,1-21.91-14.4A103.18,103.18,0,0,0,145.62,141a148.15,148.15,0,0,0,24.66,8.33,206.23,206.23,0,0,0,25.63,4.57,201.64,201.64,0,0,0,26,1.37,194,194,0,0,0,25.92-2.16,187.31,187.31,0,0,0,25.42-5.55,128.67,128.67,0,0,0,24.12-9.69A88,88,0,0,0,318.5,122.73Z" style="fill:#1a2b32"/><path d="M308.74,79.27a24.49,24.49,0,0,1,7.76.61,18.07,18.07,0,0,1,7.17,3.35,12.74,12.74,0,0,1,2.68,3A11.27,11.27,0,0,1,327.78,90,15,15,0,0,1,327,97.8a24.78,24.78,0,0,0,.24-3.83,14.17,14.17,0,0,0-.48-3.7,11.26,11.26,0,0,0-3.94-6,20.12,20.12,0,0,0-6.61-3.39A41.28,41.28,0,0,0,308.74,79.27Z" style="fill:#455d69"/><path d="M128.63,79.27a41.46,41.46,0,0,0-7.48,1.6,20.17,20.17,0,0,0-6.6,3.39,11.2,11.2,0,0,0-3.94,6,13.76,13.76,0,0,0-.48,3.7,24.77,24.77,0,0,0,.23,3.83A15.12,15.12,0,0,1,109.6,90,11.07,11.07,0,0,1,111,86.26a12.31,12.31,0,0,1,2.68-3,18,18,0,0,1,7.17-3.35A24.43,24.43,0,0,1,128.63,79.27Z" style="fill:#455d69"/><path d="M287.62,78.25s-2.5-10.43-1.56-18.12A34,34,0,0,1,291.74,46a95.44,95.44,0,0,0-2.63,12.74C288.22,65.6,287.78,73.21,287.62,78.25Z" style="fill:#465c67"/><path d="M150.68,78.25s2.5-10.43,1.57-18.12A34,34,0,0,0,146.57,46a96.37,96.37,0,0,1,2.62,12.74C150.09,65.6,150.53,73.21,150.68,78.25Z" style="fill:#465c67"/><path d="M201.83,43.17a82.53,82.53,0,0,0,17.26,2.21,59.56,59.56,0,0,0,8.64-.52A69.5,69.5,0,0,0,236.27,43a36.49,36.49,0,0,1-8.36,2.84,42.3,42.3,0,0,1-8.84.82A46.19,46.19,0,0,1,201.83,43.17Z" style="fill:#455d69"/><path d="M251.05,26c-2.92-.26-5.83-.42-8.75-.53s-5.84-.23-8.76-.27c-5.83-.08-11.67-.12-17.51,0s-11.67.23-17.5.47c-2.92.12-5.84.27-8.75.47s-5.83.41-8.75.59c2.88-.48,5.78-.88,8.69-1.23,1.46-.18,2.91-.32,4.37-.46s2.91-.28,4.38-.39c5.83-.48,11.69-.69,17.55-.78s11.71,0,17.56.36A144.05,144.05,0,0,1,251.05,26Z" style="fill:#455d69"/><path d="M197,231c1.81,1.16,3.54,2.41,5.35,3.53a34.93,34.93,0,0,0,5.57,3,15.13,15.13,0,0,0,2.93.94,25.62,25.62,0,0,0,3.1.31,33.19,33.19,0,0,0,6.24-.27l.11,0h.09c1.65.2,3.33.36,5,.42a16.38,16.38,0,0,0,2.44-.07,23.07,23.07,0,0,0,7.11-2.13,32.31,32.31,0,0,0,4.35-2.55,26,26,0,0,1-4.07,3.07,21,21,0,0,1-4.71,2.06,25.8,25.8,0,0,1-2.52.64,15.51,15.51,0,0,1-2.62.17,43.85,43.85,0,0,1-5.12-.32h.2a28.84,28.84,0,0,1-6.55.27,21,21,0,0,1-3.28-.4,16,16,0,0,1-3.13-1.12A36.93,36.93,0,0,1,202,235.1C200.23,233.79,198.6,232.4,197,231Z" style="fill:#f3fdfe"/><g style="clip-path:url(#clip-path-5)"><path d="M269,253.87c-23.42-6-49.12,12.81-50.08,13.33-1-.52-26.57-19.28-50-13.33-23.88,6.05-29.59,135.37-27.77,151.92,1.78,16.23,75,31.93,77.76,32.53v0h.09v0c2.81-.6,76-16.3,77.76-32.53C298.63,389.24,292.92,259.92,269,253.87Z" style="fill:#f7fdfd"/><path d="M224.12,303H212c-5.58,8.36-17.46,24.49-17.34,60.37s17.34,59,17.34,59h12.12s17.21-23.16,17.33-59S229.7,311.35,224.12,303Z" style="fill:#1a2b33"/><path d="M218.06,264.32s-26.67-3-22.19,17.33,20.08,26.79,22.28,26.79,17.61-6.42,22.09-26.79S218.06,264.32,218.06,264.32Z" style="fill:#1a2b33"/><path d="M239,355.42c.3-6.35-.46-16.45-2-26.26a83,83,0,0,0-11-23.21,5.38,5.38,0,0,0-2.8,1.89,19.45,19.45,0,0,1-4.25,3.63,56.85,56.85,0,0,0-3.65,24.86c1.08,14.06,11.75,43.52,9,63.15C224.36,399.48,237.94,378.27,239,355.42Z" style="fill:#263a45"/><path d="M219.05,303.69c3.43-1.19,12.4-8.28,13.65-12.64s-9.31-20.55-11.58-22,1.8,6.63,1.31,7.72-5.58,3.55-5,12.19S219.05,303.69,219.05,303.69Z" style="fill:#263a45"/><path d="M210.7,304.92a59.54,59.54,0,0,0-3.64,6.59c-1.09,2.26-2.11,4.54-3,6.88a115.5,115.5,0,0,0-4.53,14.28,140,140,0,0,0-4,29.6,177,177,0,0,0,1.63,29.89A261,261,0,0,0,203,421.7a165.9,165.9,0,0,1-7.85-29.23l-.63-3.74-.49-3.77c-.36-2.51-.52-5-.77-7.56-.31-5.06-.51-10.14-.32-15.22A137.48,137.48,0,0,1,194.34,347a119.42,119.42,0,0,1,3.26-14.87,98.31,98.31,0,0,1,5.31-14.25c1.07-2.3,2.24-4.55,3.52-6.73A49.59,49.59,0,0,1,210.7,304.92Z" style="fill:#263a45"/><path d="M225.36,304.92a49.59,49.59,0,0,1,4.27,6.25c1.28,2.18,2.45,4.43,3.52,6.73a97.15,97.15,0,0,1,5.31,14.25A119.42,119.42,0,0,1,241.72,347a137.48,137.48,0,0,1,1.37,15.16,151.48,151.48,0,0,1-.32,15.22c-.25,2.52-.41,5.05-.77,7.56l-.48,3.77-.64,3.74A165.88,165.88,0,0,1,233,421.7a263.21,263.21,0,0,0,5.85-29.54,177,177,0,0,0,1.63-29.89,140,140,0,0,0-4-29.6A115.5,115.5,0,0,0,232,318.39c-.89-2.34-1.91-4.62-3-6.88A59.54,59.54,0,0,0,225.36,304.92Z" style="fill:#455d69"/><path d="M264.7,228.08s7.21,24.11-3.7,72.12-42,131.54-42,131.54h8.09s83.5,6.66,155.75-76c0,0-3.63-54.31-8.72-66-3-6.92-27.41-22.2-57.21-35.1l-13-5.35s-12.94-10-18.48-13A101.94,101.94,0,0,0,264.7,228.08Z" style="fill:#263a45"/><path d="M264.7,228.08a83.67,83.67,0,0,1,22.51,8.86,111.49,111.49,0,0,1,19.63,14.32,144.74,144.74,0,0,1,16.59,17.79c2.53,3.17,4.92,6.46,7.18,9.83s4.41,6.79,6.38,10.43l1,1.87h-2.17c-2.85,0-5.78.07-8.67.26s-5.79.43-8.68.73q-2.16.24-4.32.57c-1.44.18-2.87.45-4.31.7-2.87.51-5.69,1.22-8.54,2a54.23,54.23,0,0,1,8.24-3.24,82,82,0,0,1,8.63-2c2.92-.53,5.86-.88,8.8-1.16s5.89-.39,8.9-.35l-1.16,1.86a153.6,153.6,0,0,0-13.17-20,155.9,155.9,0,0,0-16-17.83A118.24,118.24,0,0,0,286.59,238,90.82,90.82,0,0,0,264.7,228.08Z" style="fill:#1a2b33"/><path d="M369.71,290.74c-5.19,7-8.57,15.05-11.41,23.18A194.11,194.11,0,0,0,351.84,339c-1.78,8.46-2.9,17.05-4.1,25.64l-1.47,12.94c-.41,4.32-.81,8.65-1.33,13-.05-4.35,0-8.71.07-13.07s.43-8.7.74-13.05c.2-2.18.41-4.35.65-6.52s.43-4.34.77-6.5l1-6.48c.31-2.16.78-4.3,1.18-6.45a150.17,150.17,0,0,1,7.11-25.25,93.38,93.38,0,0,1,5.58-11.9A53.22,53.22,0,0,1,369.71,290.74Z" style="fill:#1a2b33"/><path d="M276.15,268.08a87.17,87.17,0,0,1,14,12,103.48,103.48,0,0,1,11.62,14.49,99.13,99.13,0,0,1,8.8,16.45A95.3,95.3,0,0,1,316.1,329l.26,1.3-1.26.74a85.09,85.09,0,0,0-7.4,5c-2.42,1.8-4.81,3.64-7.13,5.58-4.65,3.87-9.05,8-13.36,12.28a249.24,249.24,0,0,0-23.63,27.63,311.58,311.58,0,0,0-20,30.5c-6.16,10.53-11.76,21.41-17.11,32.48a248.67,248.67,0,0,1,14.1-34.11c2.74-5.53,5.78-10.9,8.89-16.25s6.57-10.48,10.17-15.52,7.4-9.93,11.41-14.67,8.26-9.25,12.68-13.61a161.8,161.8,0,0,1,14-12.29q3.68-2.89,7.54-5.52a87.41,87.41,0,0,1,8.1-4.89l-1,2a101.92,101.92,0,0,0-4.67-17.45c-1.07-2.82-2.24-5.62-3.56-8.35s-2.74-5.4-4.29-8A109.62,109.62,0,0,0,289.21,281q-3-3.51-6.22-6.75A75.1,75.1,0,0,0,276.15,268.08Z" style="fill:#1a2b33"/><path d="M329.91,286.83S319.7,269.66,312.67,264c0,0,8.53,17.83,10.89,19.63A27.64,27.64,0,0,0,329.91,286.83Z" style="fill:#455d69"/><path d="M264.7,280.65c-.88,7-2.2,14-3.53,21q-1.05,5.22-2.23,10.41c-.75,3.47-1.57,6.92-2.4,10.37-3.31,13.8-7.22,27.46-11.41,41l-3.3,10.12q-1.62,5.07-3.41,10.09l-3.55,10c-1.23,3.33-2.5,6.64-3.77,10l-1.9,5-2,4.93-4,9.87c-1.33,3.28-2.83,6.5-4.23,9.76s-2.87,6.49-4.33,9.71c4.9-13.31,9.94-26.54,14.58-39.92q1.72-5,3.5-10l3.37-10.07,1.7-5,1.63-5.05,3.24-10.11q6.36-20.25,11.95-40.74c.94-3.41,1.87-6.83,2.74-10.26l1.32-5.14,1.26-5.16Q262.55,291.07,264.7,280.65Z" style="fill:#7e9ca6"/><path d="M291.39,286.83c1.55,2.22,11.73,15.76,16.92,40.13,0,0-5.54-3.54-6.46-8.09C299.85,309,294.19,292.31,291.39,286.83Z" style="fill:#455d69"/><path d="M173.26,228.08s-7.21,24.11,3.7,72.12,42,131.54,42,131.54h-8.09s-83.5,6.66-155.75-76c0,0,3.63-54.31,8.72-66,3-6.92,27.41-22.2,57.21-35.1l13-5.35s12.94-10,18.48-13A101.94,101.94,0,0,1,173.26,228.08Z" style="fill:#263a45"/><path d="M173.26,228.08A90.82,90.82,0,0,0,151.37,238a118.76,118.76,0,0,0-18.93,14.7,155.82,155.82,0,0,0-16,17.83,153.6,153.6,0,0,0-13.17,20l-1.17-1.86c3-.07,6,.1,9,.32s5.92.64,8.85,1.2a69.48,69.48,0,0,1,8.66,2.19,43.66,43.66,0,0,1,8.15,3.59,68.91,68.91,0,0,0-8.49-2.33c-2.85-.62-5.74-1.07-8.63-1.43s-5.8-.62-8.72-.76-5.84-.26-8.71-.23l-2.19,0,1-1.88c2-3.64,4.12-7.05,6.38-10.43s4.65-6.66,7.18-9.83a144.74,144.74,0,0,1,16.59-17.79,111.49,111.49,0,0,1,19.63-14.32A83.67,83.67,0,0,1,173.26,228.08Z" style="fill:#1a2b33"/><path d="M68.25,290.74A53.22,53.22,0,0,1,76,301.33a93.38,93.38,0,0,1,5.58,11.9,150.17,150.17,0,0,1,7.11,25.25c.39,2.15.87,4.29,1.18,6.45l1,6.48c.34,2.16.54,4.33.77,6.5s.45,4.34.65,6.52c.31,4.35.54,8.7.74,13.05s.12,8.72.07,13.07c-.52-4.33-.92-8.66-1.33-13l-1.47-12.94C89,356,87.9,347.45,86.12,339a192.53,192.53,0,0,0-6.47-25.07C76.82,305.79,73.44,297.76,68.25,290.74Z" style="fill:#1a2b33"/><path d="M161.81,268.08a73.78,73.78,0,0,0-6.84,6.14q-3.25,3.24-6.22,6.75a109.62,109.62,0,0,0-10.6,14.86c-1.55,2.61-3,5.29-4.3,8s-2.48,5.53-3.55,8.35a101.92,101.92,0,0,0-4.67,17.45l-1-2a87.41,87.41,0,0,1,8.1,4.89q3.87,2.63,7.53,5.52a160.46,160.46,0,0,1,14,12.29c4.42,4.36,8.69,8.87,12.68,13.61s7.78,9.66,11.41,14.67,6.92,10.27,10.17,15.52,6.15,10.72,8.89,16.25a248.67,248.67,0,0,1,14.1,34.11c-5.35-11.07-10.95-21.95-17.11-32.48a309.86,309.86,0,0,0-20-30.5,249.15,249.15,0,0,0-23.62-27.63c-4.31-4.25-8.71-8.41-13.36-12.28-2.32-1.94-4.71-3.78-7.13-5.58a85.09,85.09,0,0,0-7.4-5l-1.26-.74.26-1.3A96,96,0,0,1,127.34,311a99.92,99.92,0,0,1,8.81-16.45,103.48,103.48,0,0,1,11.62-14.49A87.17,87.17,0,0,1,161.81,268.08Z" style="fill:#1a2b33"/><path d="M108.05,286.83s10.21-17.17,17.24-22.83c0,0-8.53,17.83-10.89,19.63A27.64,27.64,0,0,1,108.05,286.83Z" style="fill:#455d69"/><path d="M173.26,280.65q2.18,10.41,4.75,20.72l1.26,5.16,1.32,5.14c.87,3.43,1.8,6.85,2.74,10.26q5.63,20.47,11.95,40.74l3.24,10.11,1.63,5.05,1.7,5,3.37,10.07q1.78,5,3.5,10c4.64,13.38,9.68,26.61,14.58,39.92q-2.19-4.83-4.33-9.71c-1.4-3.26-2.9-6.48-4.23-9.76l-4-9.87-2-4.93-1.9-5c-1.27-3.32-2.54-6.63-3.77-10l-3.55-10q-1.78-5-3.41-10.09l-3.3-10.12c-4.19-13.56-8.1-27.22-11.41-41-.83-3.45-1.65-6.9-2.4-10.37s-1.53-6.93-2.23-10.41C175.46,294.67,174.14,287.69,173.26,280.65Z" style="fill:#7e9ca6"/><path d="M146.56,286.83c-1.54,2.22-11.72,15.76-16.91,40.13,0,0,5.54-3.54,6.46-8.09C138.11,309,143.77,292.31,146.56,286.83Z" style="fill:#455d69"/><path d="M218.06,264.32s-36-18.33-43.45-38.68l-5.06,9.1s-8.35,47.88,25.72,73.7C195.27,308.44,208.36,267.23,218.06,264.32Z" style="fill:#f7fdfd"/><path d="M220.17,264.32s35.82-18,43.3-38.37l5.21,8.79S277,282.62,243,308.44C243,308.44,229.87,267.23,220.17,264.32Z" style="fill:#f7fdfd"/><path d="M225.15,268.49c1.06,1.51,2.2,3,3.15,4.58.49.78,1,1.56,1.48,2.36l1.4,2.4a110.27,110.27,0,0,1,4.92,10c1.5,3.41,2.81,6.89,4,10.4s2.27,7.07,3.17,10.72l-1.63-.53a101,101,0,0,0,7.51-7.55c2.41-2.63,4.65-5.4,6.8-8.24a89.91,89.91,0,0,0,5.82-9,58.91,58.91,0,0,0,4.3-9.82,50.12,50.12,0,0,1-3.44,10.26,73.41,73.41,0,0,1-5.42,9.42,95.24,95.24,0,0,1-6.65,8.6,98.13,98.13,0,0,1-7.6,7.81l-1.23,1.12-.4-1.65c-.86-3.53-1.9-7.08-3-10.57s-2.37-7-3.68-10.4-2.78-6.81-4.35-10.14S227,271.72,225.15,268.49Z" style="fill:#455d69"/><path d="M213.26,268.27c-1.91,3.15-3.85,6.26-5.44,9.57s-3.18,6.58-4.55,10-2.64,6.81-3.71,10.3a106.84,106.84,0,0,0-2.82,10.52l-.36,1.73-1.28-1.16a96.11,96.11,0,0,1-7.6-7.78,94.93,94.93,0,0,1-6.66-8.57,72.44,72.44,0,0,1-5.41-9.4A50.53,50.53,0,0,1,172,273.21a58.25,58.25,0,0,0,4.3,9.8,87.67,87.67,0,0,0,5.81,8.94c2.15,2.83,4.39,5.6,6.79,8.22a102.47,102.47,0,0,0,7.51,7.52l-1.63.57a96.78,96.78,0,0,1,3-10.74,108,108,0,0,1,4.07-10.33c.75-1.69,1.59-3.34,2.42-5s1.73-3.27,2.71-4.84l1.46-2.35,1.55-2.3C211,271.16,212.15,269.74,213.26,268.27Z" style="fill:#455d69"/><path d="M164.56,230.89a88.78,88.78,0,0,0-12,5.4c-5.54,3.06-18.48,13-18.48,13l-13,5.35c-29.8,12.9-54.18,28.18-57.21,35.1-5.09,11.64-8.72,66-8.72,66,30.89,35.35,63.83,54.37,91.43,64.55A448.23,448.23,0,0,0,219,423.61,439.93,439.93,0,0,0,217,378.44c-2.46-22.51-10.19-41.12-5-57.62,1.43-4.52,3.36-8.87,3.86-13.92,1.19-12.24-7.08-28.79,1.61-31.49,2.76-3.82.63-11.09.63-11.09s-36-18.33-43.45-38.68l-1.35,2.44A81.81,81.81,0,0,0,164.56,230.89Z" style="opacity:0.5;mix-blend-mode:multiply;fill:url(#linear-gradient)"/></g><path d="M143.62,39.67v0A6.84,6.84,0,0,0,144,40.9c2.81,10.41,4.34,26,5,39.07-1.72-.28-2.66-.45-2.66-.45-17.59-4-31.59-2.88-37.06,5.23a43.68,43.68,0,0,0-2,4.7,18.55,18.55,0,0,0-.48,4.34c0,16.34,7.81,28.93,19.45,38.54,7.44,5.47,17.3,11.07,30.26,16.68,23.78,8.91,49.78,11.86,62.5,11.86a154.55,154.55,0,0,0,18.74-1.36c27.11-2.9-4.29-11.71-11.69-27.33-3.4-20.29-1.46-74.37-1.46-74.37s-36.5-9.54-32.87-20.16c2.27-6.63,47.1.28,62.52-9.9,9.16-6.05-1.7-7.23-1.67-7.26h0c-1.16-.1-37.62-3-68.08.15-20.87,3.1-36.07,8.81-39.93,15.07a10.15,10.15,0,0,0-1,3.11,5,5,0,0,0,.08.85Z" style="fill:#1a2b33;opacity:0.15;mix-blend-mode:multiply"/></g></g></svg>