<svg id="Layer_1" data-name="Layer 1" xmlns="http://www.w3.org/2000/svg" viewBox="0 0 357.1 59.25"><title>dead</title><path d="M521.48,500c0-.29,0-.56,0-.85l156-23-.68-4.54-156,23a21.46,21.46,0,0,0-41.55,0l-156-23.09-.68,4.54,156,23.1c0,.28,0,.56,0,.85s0,.56,0,.85l-156,23,.68,4.54,156-23a21.46,21.46,0,0,0,41.55,0l156,23.09.68-4.54-156-23.1C521.45,500.57,521.48,500.29,521.48,500Z" transform="translate(-321.45 -470.38)" style="fill:#ef4c45;stroke:#000;stroke-miterlimit:10;stroke-width:2px"/><path d="M500,485.25A13.37,13.37,0,0,0,491.4,509v4.53a1.23,1.23,0,0,0,1.23,1.23h3.69v-5.47a1.23,1.23,0,1,1,2.46,0v5.48h2.48v-5.48a1.22,1.22,0,0,1,1.21-1.24,1.24,1.24,0,0,1,1.25,1.24l0,4.9v.57l3.71,0a1.23,1.23,0,0,0,1.23-1.23V509a13.37,13.37,0,0,0-8.6-23.72Zm-4.91,8.62a2.46,2.46,0,1,1-2.46,2.46A2.46,2.46,0,0,1,495.09,493.87Zm9.82,0a2.46,2.46,0,1,1-2.45,2.46A2.46,2.46,0,0,1,504.91,493.87ZM500,501.22l3.69,3.69h-7.38Z" transform="translate(-321.45 -470.38)" style="fill:#fff"/></svg>