<svg id="Layer_1" data-name="Layer 1" xmlns="http://www.w3.org/2000/svg" viewBox="0 0 64 48"><title>english</title><g id="surface1470"><path d="M3,5H61a2,2,0,0,1,2,2V49a2,2,0,0,1-2,2H3a2,2,0,0,1-2-2V7A2,2,0,0,1,3,5Z" transform="translate(0 -4)" style="fill:#85cbf8"/><path d="M63,23H44.24L63,9l-.27-3-4.35-.84L37,19.63V6H27V19.85L6,5l-4.3.52L1,9,20.38,23H0V33H20L1.51,46.41l.08,4.2L6,51,27,36.31V51H37V35.8L57.46,50.88l4.89-.25,1.06-3.09L44.33,33H63Z" transform="translate(0 -4)" style="fill:#fff"/><path d="M63,24H38a2,2,0,0,1-2-2V6H28V22a2,2,0,0,1-2,2H0v8H26a2,2,0,0,1,2,2V51h8V34a2,2,0,0,1,2-2H63Z" transform="translate(0 -4)" style="fill:#f283a5"/><path d="M61.3,4H2.65A3,3,0,0,0,0,7V49a3,3,0,0,0,2.7,3H61.35A3,3,0,0,0,64,49V7A3,3,0,0,0,61.3,4ZM55.24,6,38,18.64V6ZM26,6V18.64L8.76,6ZM2,11,17.05,22H2ZM2,34H17.05L2,45ZM8.76,50,26,37.36V50ZM38,50V37.36L55.24,50Zm24-5L47,34H62Zm0-23H47L62,11ZM40.84,24H62v2a1,1,0,0,0-1,1v2a1,1,0,0,0,1,1v2H40.84L62,47.52V49a1,1,0,0,1-1,1H58.62L36,33.41V50H28V33.41L5.38,50H3a1,1,0,0,1-1-1V47.52L23.16,32H2V30a1,1,0,0,0,1-1V27a1,1,0,0,0-1-1V24H23.16L2,8.48V7A1,1,0,0,1,3,6H5.38L28,22.59V6h8V22.59L58.62,6H61a1,1,0,0,1,1,1V8.48Z" transform="translate(0 -4)" style="fill:#8d6c9f"/><path d="M7,26a1,1,0,0,0-1,1v2a1,1,0,0,0,2,0V27A1,1,0,0,0,7,26Zm5,0a1,1,0,0,0-1,1v2a1,1,0,0,0,2,0V27A1,1,0,0,0,12,26Zm5,0a1,1,0,0,0-1,1v2a1,1,0,0,0,2,0V27A1,1,0,0,0,17,26Zm5,0a1,1,0,0,0-1,1v2a1,1,0,0,0,2,0V27A1,1,0,0,0,22,26Zm5,0a1,1,0,0,0-1,1v2a1,1,0,0,0,2,0V27A1,1,0,0,0,27,26Zm6,3V27a1,1,0,0,0-2,0v2a1,1,0,0,0,2,0Zm4-3a1,1,0,0,0-1,1v2a1,1,0,0,0,2,0V27A1,1,0,0,0,37,26Zm5,4a1,1,0,0,0,1-1V27a1,1,0,0,0-2,0v2A1,1,0,0,0,42,30Zm5,0a1,1,0,0,0,1-1V27a1,1,0,0,0-2,0v2A1,1,0,0,0,47,30Zm5,0a1,1,0,0,0,1-1V27a1,1,0,0,0-2,0v2A1,1,0,0,0,52,30Zm5,0a1,1,0,0,0,1-1V27a1,1,0,0,0-2,0v2A1,1,0,0,0,57,30ZM33,22H31a1,1,0,0,0,0,2h2a1,1,0,0,0,0-2Zm0-5H31a1,1,0,0,0,0,2h2a1,1,0,0,0,0-2Zm0-5H31a1,1,0,0,0,0,2h2a1,1,0,0,0,0-2Zm0-5H31a1,1,0,0,0,0,2h2a1,1,0,0,0,0-2Zm0,40H31a1,1,0,0,0,0,2h2a1,1,0,0,0,0-2Zm0-5H31a1,1,0,0,0,0,2h2a1,1,0,0,0,0-2Zm0-5H31a1,1,0,0,0,0,2h2a1,1,0,0,0,0-2Zm0-5H31a1,1,0,0,0,0,2h2a1,1,0,0,0,0-2Z" transform="translate(0 -4)" style="fill:#8d6c9f"/></g></svg>