<svg xmlns="http://www.w3.org/2000/svg" viewBox="0 0 221.62 221.5"><title>floppy_disk</title><g id="Layer_2" data-name="Layer 2"><g id="Layer_1-2" data-name="Layer 1"><path id="_Path_" data-name="&lt;Path&gt;" d="M126.25,5.7,17.67,78.3a6,6,0,0,0-2.6,3.93l-4,20.17A6.1,6.1,0,0,0,12,107L84.56,215.61A9.7,9.7,0,0,0,98,218.27l117.77-78.74a9.7,9.7,0,0,0,2.66-13.4L139.65,8.36A9.7,9.7,0,0,0,126.25,5.7Z" style="stroke:#000;stroke-linecap:round;stroke-linejoin:round;stroke-width:3.21965539407208px"/><path id="_Path_2" data-name="&lt;Path&gt;" d="M116.91,3.23,8.34,75.83a6,6,0,0,0-2.6,3.93l-4,20.17a6.19,6.19,0,0,0,.9,4.63l72.6,108.58a9.7,9.7,0,0,0,13.4,2.66l117.76-78.75a9.67,9.67,0,0,0,2.66-13.39L130.31,5.89A9.69,9.69,0,0,0,116.91,3.23Z" style="fill:#747178"/><circle id="_Path_3" data-name="&lt;Path&gt;" cx="104.26" cy="111.74" r="67.99" style="fill:#514e55;stroke:#464349;stroke-miterlimit:10;stroke-width:2.14643692938139px;opacity:0.430000007152557;isolation:isolate"/><path id="_Path_4" data-name="&lt;Path&gt;" d="M116.91,3.23,8.34,75.83a6,6,0,0,0-2.6,3.93l-4,20.17a6.19,6.19,0,0,0,.9,4.63l72.6,108.58a9.7,9.7,0,0,0,13.4,2.66l117.76-78.75a9.67,9.67,0,0,0,2.66-13.39L130.31,5.89A9.69,9.69,0,0,0,116.91,3.23Z" style="fill:none;stroke:#413e51;stroke-linecap:round;stroke-linejoin:round;stroke-width:3.21965539407208px"/><path id="_Path_5" data-name="&lt;Path&gt;" d="M116.91,3.23,8.34,75.83a6,6,0,0,0-2.6,3.93l-4,20.17a6.19,6.19,0,0,0,.9,4.63l72.6,108.58a9.7,9.7,0,0,0,13.4,2.66l117.76-78.75a9.67,9.67,0,0,0,2.66-13.39L130.31,5.89A9.69,9.69,0,0,0,116.91,3.23Z" style="fill:none;stroke:#413e51;stroke-linecap:round;stroke-linejoin:round;stroke-width:3.21965539407208px"/><circle id="_Path_6" data-name="&lt;Path&gt;" cx="104.26" cy="111.74" r="22.54" transform="translate(-41.13 64.65) rotate(-29.04)" style="fill:#c9c9c9"/><circle id="_Path_7" data-name="&lt;Path&gt;" cx="104.26" cy="111.74" r="22.54" transform="translate(-41.13 64.65) rotate(-29.04)" style="fill:none;stroke:#413e51;stroke-linecap:round;stroke-linejoin:round;stroke-width:3.21965539407208px"/><path id="_Path_8" data-name="&lt;Path&gt;" d="M193.9,145.41l-92.78,62-7.46-11.15a9.7,9.7,0,0,1,2.66-13.4l76.73-51.3a9.7,9.7,0,0,1,13.4,2.66Z" style="fill:#413e51"/><path id="_Path_9" data-name="&lt;Path&gt;" d="M193.9,145.41l-92.78,62-7.46-11.15a9.7,9.7,0,0,1,2.66-13.4l76.73-51.3a9.7,9.7,0,0,1,13.4,2.66Z" style="fill:none;stroke:#413e51;stroke-linecap:round;stroke-linejoin:round;stroke-width:3.21965539407208px"/><rect id="_Path_10" data-name="&lt;Path&gt;" x="188.55" y="119.48" width="7.51" height="7.51" transform="translate(-36.05 127.68) rotate(-33.77)" style="fill:#413e51"/><rect id="_Path_11" data-name="&lt;Path&gt;" x="188.55" y="119.48" width="7.51" height="7.51" transform="translate(-36.05 127.68) rotate(-33.77)" style="fill:none;stroke:#413e51;stroke-linecap:round;stroke-linejoin:round;stroke-width:3.21965539407208px"/><line id="_Path_12" data-name="&lt;Path&gt;" x1="149.45" y1="138.78" x2="179.34" y2="118.8" style="fill:none;stroke:#413e51;stroke-linecap:round;stroke-linejoin:round;stroke-width:4.29287385876278px"/><rect id="_Path_13" data-name="&lt;Path&gt;" x="100.95" y="108.96" width="4.83" height="4.83" transform="translate(-44.47 76.24) rotate(-33.77)" style="fill:#413e51"/><rect id="_Path_14" data-name="&lt;Path&gt;" x="100.95" y="108.96" width="4.83" height="4.83" transform="translate(-44.47 76.24) rotate(-33.77)" style="fill:none;stroke:#413e51;stroke-linecap:round;stroke-linejoin:round;stroke-width:3.21965539407208px"/><rect id="_Path_15" data-name="&lt;Path&gt;" x="109.43" y="113.32" width="10.73" height="5.37" transform="translate(-46.9 138.13) rotate(-53.09)" style="fill:#413e51"/><rect id="_Path_16" data-name="&lt;Path&gt;" x="109.43" y="113.32" width="10.73" height="5.37" transform="translate(-46.9 138.13) rotate(-53.09)" style="fill:none;stroke:#413e51;stroke-linecap:round;stroke-linejoin:round;stroke-width:3.21965539407208px"/><path id="_Path_17" data-name="&lt;Path&gt;" d="M143.44,25.52a6.44,6.44,0,1,1-7.16-10.71Z" style="fill:#413e51"/><path id="_Path_18" data-name="&lt;Path&gt;" d="M143.44,25.52a6.44,6.44,0,1,1-7.16-10.71Z" style="fill:none;stroke:#413e51;stroke-linecap:round;stroke-linejoin:round;stroke-width:3.21965539407208px"/><path id="_Path_19" data-name="&lt;Path&gt;" d="M9.61,115a6.44,6.44,0,0,0-7.16-10.71Z" style="fill:#413e51"/><path id="_Path_20" data-name="&lt;Path&gt;" d="M9.61,115a6.44,6.44,0,0,0-7.16-10.71Z" style="fill:none;stroke:#413e51;stroke-linecap:round;stroke-linejoin:round;stroke-width:3.21965539407208px"/><g id="_Group_" data-name="&lt;Group&gt;"><circle id="_Path_21" data-name="&lt;Path&gt;" cx="23.91" cy="115.44" r="4.56" style="fill:#413e51"/><circle id="_Path_22" data-name="&lt;Path&gt;" cx="135.66" cy="40.72" r="4.56" style="fill:#413e51"/></g><path id="_Path_23" data-name="&lt;Path&gt;" d="M126.06,56.5,64.51,97.66A9.7,9.7,0,0,1,51.11,95L29,62l77.61-51.9,22.08,33A9.66,9.66,0,0,1,126.06,56.5Z" style="fill:#514e55"/><path id="_Path_24" data-name="&lt;Path&gt;" d="M106.44,69.62,67.18,95.87a9.7,9.7,0,0,1-13.4-2.66l-22.07-33L87,23.21l22.07,33A9.66,9.66,0,0,1,106.44,69.62Z" style="fill:none;stroke:#413e51;stroke-linecap:round;stroke-linejoin:round;stroke-width:3.21965539407208px;opacity:0.479999989271164;isolation:isolate"/><path id="_Path_25" data-name="&lt;Path&gt;" d="M126.06,56.5,64.51,97.66A9.7,9.7,0,0,1,51.11,95L29,62l77.61-51.9,22.08,33A9.66,9.66,0,0,1,126.06,56.5Z" style="fill:none;stroke:#413e51;stroke-linecap:round;stroke-linejoin:round;stroke-width:3.21965539407208px"/><line id="_Path_26" data-name="&lt;Path&gt;" x1="88.23" y1="30.8" x2="103.17" y2="20.81" style="fill:none;stroke:#413e51;stroke-linecap:round;stroke-linejoin:round;stroke-width:4.29287385876278px"/><path id="_Path_27" data-name="&lt;Path&gt;" d="M103.76,71.41,64.51,97.66A9.7,9.7,0,0,1,51.11,95L29,62,84.35,25l22.07,33A9.65,9.65,0,0,1,103.76,71.41Z" style="fill:#bfc1c0"/><polygon id="_Path_28" data-name="&lt;Path&gt;" points="88.82 81.4 90.58 34.33 85.72 27.05 82.84 85.4 88.82 81.4" style="fill:#ddd;opacity:0.519999980926514;isolation:isolate"/><path id="_Path_29" data-name="&lt;Path&gt;" d="M65.89,96.54c.59-.27-1.93,1.55-1.35,1.16l13.29-8.88L81,27.28l-12,8Z" style="fill:#ddd;opacity:0.519999980926514;isolation:isolate"/><path id="_Path_30" data-name="&lt;Path&gt;" d="M103.76,71.41,64.51,97.66A9.7,9.7,0,0,1,51.11,95L29,62,84.35,25l22.07,33A9.65,9.65,0,0,1,103.76,71.41Z" style="fill:none;stroke:#413e51;stroke-linecap:round;stroke-linejoin:round;stroke-width:3.21965539407208px"/><rect id="_Path_31" data-name="&lt;Path&gt;" x="49.96" y="53.95" width="12.88" height="31.12" transform="translate(-29.12 43.08) rotate(-33.77)" style="fill:#514e55"/><rect id="_Path_32" data-name="&lt;Path&gt;" x="50.44" y="55.53" width="7.19" height="31.12" transform="translate(-30.4 42.03) rotate(-33.77)" style="fill:#413e51;opacity:0.479999989271164;isolation:isolate"/><rect id="_Path_33" data-name="&lt;Path&gt;" x="49.96" y="53.95" width="12.88" height="31.12" transform="translate(-29.12 43.08) rotate(-33.77)" style="fill:none;stroke:#413e51;stroke-linecap:round;stroke-linejoin:round;stroke-width:3.21965539407208px"/><rect id="_Path_34" data-name="&lt;Path&gt;" x="76.87" y="35.28" width="6.44" height="3.22" transform="matrix(0.83, -0.56, 0.56, 0.83, -6.99, 50.74)" style="fill:none;stroke:#413e51;stroke-linecap:round;stroke-linejoin:round;stroke-width:3.21965539407208px"/><line id="_Path_35" data-name="&lt;Path&gt;" x1="90.99" y1="214.22" x2="83.83" y2="203.51" style="fill:none;stroke:#413e51;stroke-linecap:round;stroke-linejoin:round;stroke-width:3.21965539407208px"/></g></g></svg>