<svg id="Layer_1" data-name="Layer 1" xmlns="http://www.w3.org/2000/svg" viewBox="0 0 64 48"><title>french</title><g id="surface1076"><path d="M3.1,1.1H60.9A2.23,2.23,0,0,1,63,3.4V44.5a2.16,2.16,0,0,1-2.1,2.3H3.1A2.23,2.23,0,0,1,1,44.5V3.4A2.3,2.3,0,0,1,3.1,1.1Z" style="fill:#ed7899"/><path d="M3.1,1.1H21.7V46.8H3.1A2.23,2.23,0,0,1,1,44.5V3.4A2.3,2.3,0,0,1,3.1,1.1Z" style="fill:#85cbf8"/><path d="M21.7,1.1H42.3V46.8H21.7Z" style="fill:#fff"/><path d="M3.1,1.1H6.2V46.8H3.1A2.23,2.23,0,0,1,1,44.5V3.4A2.3,2.3,0,0,1,3.1,1.1Z" style="fill:#6fc6f0"/><path d="M60.9,46.9H57.8V1.1h3.1A2.23,2.23,0,0,1,63,3.4V44.5A2.32,2.32,0,0,1,60.9,46.9Z" style="fill:#f283a5"/><path d="M60.9,0H3.1A3.25,3.25,0,0,0,0,3.4V44.5A3.28,3.28,0,0,0,3.1,48H60.9A3.25,3.25,0,0,0,64,44.6V3.4A3.25,3.25,0,0,0,60.9,0ZM2.1,44.6V3.4a1.1,1.1,0,0,1,1-1.1H20.6V45.7H3.1A1,1,0,0,1,2.1,44.6Zm59.8,0a1.1,1.1,0,0,1-1,1.1H22.7V2.3H41.3V33.2a1.1,1.1,0,0,0,1,1.1,1,1,0,0,0,1-1.1V2.3H60.8a1,1,0,0,1,1,1.1V44.6Z" style="fill:#8d6c9f"/><path d="M7.2,28.6h-2a1,1,0,0,0-1,1.1,1.1,1.1,0,0,0,1,1.1H7.3a1,1,0,0,0,1-1.1A1.11,1.11,0,0,0,7.2,28.6Zm0,5.7h-2a1,1,0,0,0-1,1.1,1.1,1.1,0,0,0,1,1.1H7.3a1,1,0,0,0,1-1.1A1.11,1.11,0,0,0,7.2,34.3Zm0,5.7h-2a1,1,0,0,0-1,1.1,1.1,1.1,0,0,0,1,1.1H7.3a1,1,0,0,0,1-1.1A1.11,1.11,0,0,0,7.2,40Zm0-28.6h-2a1,1,0,0,0-1,1.1,1.1,1.1,0,0,0,1,1.1H7.3a1,1,0,0,0,1-1.1A1.11,1.11,0,0,0,7.2,11.4ZM5.2,8H7.3a1,1,0,0,0,1-1.1,1.1,1.1,0,0,0-1-1.1H5.2a1,1,0,0,0-1,1.1A1,1,0,0,0,5.2,8Zm2,14.9h-2a1,1,0,0,0-1,1.1,1.1,1.1,0,0,0,1,1.1H7.3a1,1,0,0,0,1-1.1A1.11,1.11,0,0,0,7.2,22.9Zm0-5.8h-2a1,1,0,0,0-1,1.1,1.1,1.1,0,0,0,1,1.1H7.3a1,1,0,0,0,1-1.1A1.18,1.18,0,0,0,7.2,17.1ZM42.3,36.6a1,1,0,0,0-1,1.1v4.6a1.1,1.1,0,0,0,1,1.1,1,1,0,0,0,1-1.1V37.7A1,1,0,0,0,42.3,36.6Z" style="fill:#8d6c9f"/></g></svg>