<svg xmlns="http://www.w3.org/2000/svg" viewBox="0 0 143.76 237.2"><title>glasses</title><g id="Layer_2" data-name="Layer 2"><g id="Layer_1-2" data-name="Layer 1"><g id="_Group_" data-name="&lt;Group&gt;"><path id="_Path_" data-name="&lt;Path&gt;" d="M69.18,153.43l6.75-8.8A25.84,25.84,0,0,1,64,100l-12.1-1.89a36.17,36.17,0,0,0,17.29,55.29Z" style="stroke:#000;stroke-linecap:round;stroke-linejoin:round;stroke-width:2.76895236968994px"/><path id="_Path_2" data-name="&lt;Path&gt;" d="M139.24,173.33l-38.43-7.69L34.65,12.19a3.92,3.92,0,0,0-5.17-2l-2,.9a3.93,3.93,0,0,0-2,5.17L93.63,174.51h0l43.61,8.73a3.93,3.93,0,0,0,4.6-3.05l.44-2.16A3.89,3.89,0,0,0,139.24,173.33Z" style="stroke:#000;stroke-linecap:round;stroke-linejoin:round;stroke-width:2.76895236968994px"/><path id="_Path_3" data-name="&lt;Path&gt;" d="M97.45,39.11,72.29,69.19l44.55,161.05a3.93,3.93,0,0,1-2.71,4.84l-2.14.59a3.93,3.93,0,0,1-4.84-2.71l-46-166.15h0L89.72,32.68a3.92,3.92,0,0,1,5.51-.48l1.7,1.41A3.88,3.88,0,0,1,97.45,39.11Z" style="stroke:#000;stroke-linecap:round;stroke-linejoin:round;stroke-width:2.76895236968994px"/><circle id="_Path_4" data-name="&lt;Path&gt;" cx="51" cy="60.21" r="46.06" style="stroke:#000;stroke-linecap:round;stroke-linejoin:round;stroke-width:2.76895236968994px"/></g><path id="_Path_5" data-name="&lt;Path&gt;" d="M123.21,175.48l-37.4-11.73L36.25,4.14a3.94,3.94,0,0,0-4.93-2.58l-2.12.65a3.92,3.92,0,0,0-2.58,4.92l51.12,164.6h0L120.2,185a3.88,3.88,0,0,0,4.89-2.58l.64-2.1A3.78,3.78,0,0,0,123.21,175.48Z" style="fill:#823017"/><path id="_Path_6" data-name="&lt;Path&gt;" d="M55.63,148.28l7.68-8a25.83,25.83,0,0,1-7.19-45.59L44.27,91.49a36.14,36.14,0,0,0,11.36,56.79Z" style="fill:#9d401e"/><path id="_Path_7" data-name="&lt;Path&gt;" d="M39.12,123.21A36,36,0,0,1,46.34,92l-2-.56a36.17,36.17,0,0,0,11.37,56.83l1.52-1.6A36,36,0,0,1,39.12,123.21Z" style="fill:#9d401e;opacity:0.46000000834465;isolation:isolate"/><path id="_Path_8" data-name="&lt;Path&gt;" d="M37.51,102.39a47.22,47.22,0,0,0,10.9,1,26.48,26.48,0,0,1,7.69-8.8L44.25,91.4A38.18,38.18,0,0,0,37.51,102.39Z" style="fill:#823017"/><path id="_Path_9" data-name="&lt;Path&gt;" d="M55.63,148.28l7.68-8a27.48,27.48,0,0,1-7-3.47,49.36,49.36,0,0,0-9.3,5.76A38.25,38.25,0,0,0,55.63,148.28Z" style="fill:#823017"/><path id="_Path_10" data-name="&lt;Path&gt;" d="M55.63,148.28l7.68-8a25.83,25.83,0,0,1-7.19-45.59L44.27,91.49a36.14,36.14,0,0,0,11.36,56.79Z" style="fill:none;stroke:#2d2d2d;stroke-linecap:round;stroke-linejoin:round;stroke-width:2.76895236968994px"/><path id="_Path_11" data-name="&lt;Path&gt;" d="M123.21,175.48l-37.4-11.73L36.25,4.14a3.94,3.94,0,0,0-4.93-2.58l-2.12.65a3.92,3.92,0,0,0-2.58,4.92l51.12,164.6h0L120.2,185a3.88,3.88,0,0,0,4.89-2.58l.64-2.1A3.78,3.78,0,0,0,123.21,175.48Z" style="fill:none;stroke:#2d2d2d;stroke-linecap:round;stroke-linejoin:round;stroke-width:2.76895236968994px"/><path id="_Path_12" data-name="&lt;Path&gt;" d="M95.81,37.56,67.64,64.81,94.93,229.7a3.93,3.93,0,0,1-3.25,4.51l-2.19.38A3.93,3.93,0,0,1,85,231.34L56.84,61.25h0l32-30.91a3.89,3.89,0,0,1,5.53.11L95.88,32A3.87,3.87,0,0,1,95.81,37.56Z" style="fill:#823017"/><path id="_Path_13" data-name="&lt;Path&gt;" d="M95.81,37.56,67.64,64.81,94.93,229.7a3.93,3.93,0,0,1-3.25,4.51l-2.19.38A3.93,3.93,0,0,1,85,231.34L56.84,61.25h0l32-30.91a3.89,3.89,0,0,1,5.53.11L95.88,32A3.87,3.87,0,0,1,95.81,37.56Z" style="fill:none;stroke:#2d2d2d;stroke-linecap:round;stroke-linejoin:round;stroke-width:2.76895236968994px"/><path id="_Compound_Path_" data-name="&lt;Compound Path&gt;" d="M36.84,8.84A46.05,46.05,0,1,0,92.27,43,46.06,46.06,0,0,0,36.84,8.84ZM55.63,88.19A35.51,35.51,0,1,1,82,45.43,35.47,35.47,0,0,1,55.63,88.19Z" style="fill:#9d401e"/><g id="_Group_2" data-name="&lt;Group&gt;" style="opacity:0.600000023841858"><path id="_Path_14" data-name="&lt;Path&gt;" d="M6.23,63.42a46,46,0,0,1,32.42-55c-.6.09-1.23.24-1.81.38A46.05,46.05,0,1,0,58.07,98.47c.58-.14,1.21-.29,1.78-.47A46.05,46.05,0,0,1,6.23,63.42Z" style="fill:#9d401e"/><path id="_Path_15" data-name="&lt;Path&gt;" d="M57.42,87.72c.59-.1,1.22-.24,1.8-.38A35.51,35.51,0,0,0,42.86,18.23a18.1,18.1,0,0,0-1.79.47,35.51,35.51,0,0,1,16.35,69Z" style="fill:#9d401e"/></g><path id="_Compound_Path_2" data-name="&lt;Compound Path&gt;" d="M36.84,8.84A46.05,46.05,0,1,0,92.27,43,46.06,46.06,0,0,0,36.84,8.84ZM55.63,88.19A35.51,35.51,0,1,1,82,45.43,35.47,35.47,0,0,1,55.63,88.19Z" style="fill:none;stroke:#2d2d2d;stroke-linecap:round;stroke-linejoin:round;stroke-width:2.76895236968994px"/><circle id="_Path_16" data-name="&lt;Path&gt;" cx="47.45" cy="53.65" r="46.06" style="fill:none;stroke:#2d2d2d;stroke-linecap:round;stroke-linejoin:round;stroke-width:2.76895236968994px"/><circle id="_Path_17" data-name="&lt;Path&gt;" cx="47.45" cy="53.65" r="35.49" transform="translate(-3.72 3.54) rotate(-4.11)" style="fill:#a4ecff;opacity:0.810000002384186;isolation:isolate"/><circle id="_Path_18" data-name="&lt;Path&gt;" cx="47.45" cy="53.65" r="35.49" transform="translate(-3.72 3.54) rotate(-4.11)" style="fill:none;stroke:#2d2d2d;stroke-linecap:round;stroke-linejoin:round;stroke-width:2.76895236968994px"/><path id="_Compound_Path_3" data-name="&lt;Compound Path&gt;" d="M67.15,136.82A46.06,46.06,0,1,0,122.58,171,46.07,46.07,0,0,0,67.15,136.82Zm18.79,79.35a35.49,35.49,0,1,1,26.35-42.71A35.47,35.47,0,0,1,85.94,216.17Z" style="fill:#9d401e"/><g id="_Group_3" data-name="&lt;Group&gt;" style="opacity:0.600000023841858"><g id="_Group_4" data-name="&lt;Group&gt;"><path d="M87.73,215.7c.59-.09,1.22-.24,1.8-.38a35.51,35.51,0,0,0-16.36-69.11c-.59.14-1.22.29-1.79.47a35.51,35.51,0,0,1,16.35,69Z" style="fill:#9d401e"/></g><g id="_Group_5" data-name="&lt;Group&gt;"><path d="M36.54,191.4a46,46,0,0,1,32.41-55c-.59.1-1.22.24-1.8.38a46.06,46.06,0,1,0,21.23,89.64c.58-.14,1.21-.29,1.78-.47A46.06,46.06,0,0,1,36.54,191.4Z" style="fill:#9d401e"/></g></g><path id="_Compound_Path_4" data-name="&lt;Compound Path&gt;" d="M67.15,136.82A46.06,46.06,0,1,0,122.58,171,46.07,46.07,0,0,0,67.15,136.82Zm18.79,79.35a35.49,35.49,0,1,1,26.35-42.71A35.47,35.47,0,0,1,85.94,216.17Z" style="fill:none;stroke:#2d2d2d;stroke-linecap:round;stroke-linejoin:round;stroke-width:2.76895236968994px"/><circle id="_Path_19" data-name="&lt;Path&gt;" cx="77.76" cy="181.64" r="35.49" style="fill:#a4ecff;opacity:0.810000002384186;isolation:isolate"/><circle id="_Path_20" data-name="&lt;Path&gt;" cx="77.76" cy="181.64" r="35.49" style="fill:none;stroke:#2d2d2d;stroke-linecap:round;stroke-linejoin:round;stroke-width:2.76895236968994px"/><g id="_Group_6" data-name="&lt;Group&gt;" style="opacity:0.709999978542328"><path d="M29.89,58.19c1.94,8.41,4.94,14.25,2,14.89-2.78.71-10.44-4-12.34-12.44S22.21,44.6,25,44C27.9,43.2,27.8,49.77,29.89,58.19Z" style="fill:#fff"/></g><g id="_Group_7" data-name="&lt;Group&gt;" style="opacity:0.709999978542328"><path d="M62.4,185.28c1.95,8.41,4.94,14.24,2,14.89-2.77.7-10.44-4-12.34-12.45s2.66-16,5.45-16.65S60.36,176.85,62.4,185.28Z" style="fill:#fff"/></g></g></g></svg>