<svg xmlns="http://www.w3.org/2000/svg" viewBox="0 0 438 438"><title>Mentalist</title><g id="OBJECTS"><circle cx="219" cy="253.87" r="165.93" style="fill:#2f4d85"/><path d="M64,290.9c7.88-16.34,35.25-29.91,53.19-37.33,17-26.35,37.53-38.08,46.43-41.69,9.64,21.81,50.09,41.94,50.09,41.94l5.26,9.84,5.16-9.84s40.45-20.13,50.09-41.94c8.69,3.53,28.47,14.82,45.25,39.92,17.49,6.88,49,21.35,57.59,39.1.85,1.75,1.64,3.53,2.38,5.32a165.93,165.93,0,1,0-319.64,4.66C61.06,297.52,62.45,294.17,64,290.9Z" style="fill:none"/><path d="M155.35,315.4,99.46,292.61a153.19,153.19,0,0,1,17.76-39C99.28,261,71.91,274.56,64,290.9c-1.58,3.27-3,6.62-4.2,10,1,3.47,2.15,6.9,3.39,10.27a68.32,68.32,0,0,1,5.26-15.06A56.32,56.32,0,0,1,103.6,267.3C87.72,282.11,74.66,301.44,67.66,322a166.47,166.47,0,0,0,42.83,57.39A255.64,255.64,0,0,1,94.68,354C116.32,321.61,155.35,315.4,155.35,315.4Zm-29-1.52a77.94,77.94,0,0,1-9.87-8.57q11.35,4.67,23,8.46a155.92,155.92,0,0,0-18.93,9.76A52.06,52.06,0,0,0,105,337.82,43.45,43.45,0,0,1,126.3,313.88Z" style="fill:#264261"/><path d="M319.5,251.8a151.86,151.86,0,0,1,18.94,40.81L282.55,315.4s39,6.21,60.67,38.61a255.48,255.48,0,0,1-16,25.6A166.17,166.17,0,0,0,373,315.67a138.53,138.53,0,0,0-33.57-48.37,56.32,56.32,0,0,1,35.12,28.79,61.75,61.75,0,0,1,2.94,7c.7-2.26,1.34-4.55,2-6.85-.74-1.79-1.53-3.57-2.38-5.32C368.53,273.15,337,258.68,319.5,251.8Zm-4.91,71.73a155.92,155.92,0,0,0-18.93-9.76q11.67-3.78,23-8.46a77.17,77.17,0,0,1-9.86,8.57,43.45,43.45,0,0,1,21.26,23.94A52.06,52.06,0,0,0,314.59,323.53Z" style="fill:#264261"/><polygon points="167.19 299.02 167.19 299.02 167.19 299.01 167.19 299.02" style="fill:#fff"/><path d="M259.47,308.4s-3.92-44.13-35.31-54.58L219,263.66l-5.26-9.84c-31.39,10.45-35.31,54.58-35.31,54.58a54.1,54.1,0,0,1-8.29-6.4l29.25,116.64q2.76.33,5.55.56l-4.17-26,10.72-86.14s1.48-6.18-6.44-11.88-7.78-18.27-7.78-18.27c3.82-7.88,13-8.77,18.18-8.58,2.36.08,4.74.08,7.1,0,5.21-.19,14.36.7,18.18,8.58,0,0,.14,12.58-7.78,18.27s-6.44,11.88-6.44,11.88l11.09,86.14-4.3,26c1.74-.15,3.47-.32,5.2-.53L267.76,302A54,54,0,0,1,259.47,308.4Z" style="fill:#fff"/><polygon points="270.71 299.01 270.71 299.02 270.71 299.02 242.81 418.09 242.81 418.09 270.71 299.02 270.71 299.01" style="fill:#fff"/><path d="M167.19,299c-21.57-23.52-18.93-60.64-18.93-60.64a48.84,48.84,0,0,0,15.39-26.49c-8.9,3.61-29.41,15.34-46.43,41.69a153.19,153.19,0,0,0-17.76,39l55.89,22.79s-39,6.21-60.67,38.61a255.64,255.64,0,0,0,15.81,25.39,165.2,165.2,0,0,0,19.13,14.29c-10.31-13.16-19.94-27-29.53-40.68a109.38,109.38,0,0,1,35.15-24.14c-9.63,5.78-18.63,14.43-24.22,24.18,7.36,16.64,17.08,31.86,28.05,46.26a165.13,165.13,0,0,0,56,18.77L167.19,299ZM105,290.28a171.59,171.59,0,0,1,16.48-36.86c-2.62,11.56-5.49,22.66-8.78,34.05a76.74,76.74,0,0,1,31.65,19.18C131.38,300.92,118.17,295.52,105,290.28Z" style="fill:#1b2f45"/><path d="M167.19,299h0l27.89,119.06c1.43.2,2.87.39,4.31.56L170.14,302C169.11,301,168.13,300,167.19,299Z" style="fill:#ababab"/><path d="M270.71,299c-.94,1-1.92,2-2.95,3L238.5,418.65c1.44-.17,2.88-.35,4.31-.56L270.71,299Z" style="fill:#ababab"/><path d="M148.26,238.37s-2.64,37.12,18.93,60.64h0c.94,1,1.92,2,2.95,3a54.1,54.1,0,0,0,8.29,6.4s3.92-44.13,35.31-54.58c0,0-40.45-20.13-50.09-41.94A48.84,48.84,0,0,1,148.26,238.37Zm21.55,38.1a78,78,0,0,1-14.35-32.53C159.53,255.16,165.12,265.5,169.81,276.47Zm1.35,6.13a21.25,21.25,0,0,1,17.31-14.53c-9.06,7.69-14.51,19.13-13.8,31a99.29,99.29,0,0,1-22.93-58.65A79.15,79.15,0,0,0,171.16,282.6Z" style="fill:#142333"/><path d="M282.55,315.4l55.89-22.79A151.86,151.86,0,0,0,319.5,251.8c-16.78-25.1-36.56-36.39-45.25-39.92a48.76,48.76,0,0,0,15.39,26.49s2.63,37.12-18.93,60.64h0l-27.9,119.07a164.83,164.83,0,0,0,53.6-17.43c11.4-14.79,21.51-30.44,29.1-47.61-5.59-9.75-14.59-18.4-24.22-24.18A109.53,109.53,0,0,1,336.45,353c-10.05,14.35-20.12,28.79-31,42.5a165.54,165.54,0,0,0,21.79-15.9,255.48,255.48,0,0,0,16-25.6C321.58,321.61,282.55,315.4,282.55,315.4Zm9.63-8.75a76.74,76.74,0,0,1,31.65-19.18c-3.29-11.39-6.15-22.49-8.78-34.05a171.59,171.59,0,0,1,16.48,36.86C318.36,295.52,305.15,300.92,292.18,306.65Z" style="fill:#1b2f45"/><path d="M259.47,308.4a54,54,0,0,0,8.29-6.4c1-1,2-2,2.95-3h0c21.56-23.52,18.93-60.64,18.93-60.64a48.76,48.76,0,0,1-15.39-26.49c-9.64,21.81-50.09,41.94-50.09,41.94C255.55,264.27,259.47,308.4,259.47,308.4Zm27-68a99.34,99.34,0,0,1-22.92,58.65c.7-11.86-4.75-23.3-13.81-31a21.25,21.25,0,0,1,17.31,14.53A79.07,79.07,0,0,0,286.49,240.41ZM273.93,216a70.94,70.94,0,0,1-11.33,19,32.8,32.8,0,0,1-18.69,11.13A79.32,79.32,0,0,0,273.93,216Z" style="fill:#142333"/><path d="M226.51,307.07S225,300.89,233,295.19s7.78-18.27,7.78-18.27c-3.82-7.88-13-8.77-18.18-8.58-2.36.08-4.74.08-7.1,0-5.21-.19-14.36.7-18.18,8.58,0,0-.14,12.58,7.78,18.27s6.44,11.88,6.44,11.88l-10.72,86.14,4.17,26c4.64.39,9.32.6,14.06.6,2.14,0,4.26-.05,6.38-.13.83-5.09,1.61-10.19,2.13-15.33,2.84-28.07-4.71-54.43-3-82.59q5,35.85,10,71.68c1.2,8.6.16,17.2-1.76,25.81l.63-.06,4.3-26ZM214.76,304l-.16.65c.06-.27.11-.53.15-.8-.05-3-1.63-5.84-3.56-8.18s-4.34-4.39-6.29-6.77-3.54-5.27-3.51-8.35a8.83,8.83,0,0,1,10.94-8.5c-2.2-.53-4.54,2-5.26,4.16a8.75,8.75,0,0,0,.85,6.56c1,2,2.45,3.8,3.64,5.73a22.2,22.2,0,0,1,3.19,15.35A.76.76,0,0,1,214.76,304Z" style="fill:#1b2f45"/><path d="M121.48,253.42A171.59,171.59,0,0,0,105,290.28c13.17,5.24,26.38,10.64,39.35,16.37a76.74,76.74,0,0,0-31.65-19.18C116,276.08,118.86,265,121.48,253.42Z" style="fill:#264261"/><path d="M135.24,328.87A109.38,109.38,0,0,0,100.09,353c9.59,13.72,19.22,27.52,29.53,40.68,3.08,2,6.24,3.85,9.45,5.62-11-14.4-20.69-29.62-28-46.26C116.61,343.3,125.61,334.65,135.24,328.87Z" style="fill:#142333"/><path d="M323.83,287.47a76.74,76.74,0,0,0-31.65,19.18c13-5.73,26.18-11.13,39.35-16.37a171.59,171.59,0,0,0-16.48-36.86C317.68,265,320.54,276.08,323.83,287.47Z" style="fill:#264261"/><path d="M301.29,328.87c9.63,5.78,18.63,14.43,24.22,24.18-7.59,17.17-17.7,32.82-29.1,47.61q4.62-2.45,9.06-5.15c10.86-13.71,20.93-28.15,31-42.5A109.53,109.53,0,0,0,301.29,328.87Z" style="fill:#142333"/><path d="M211.56,288.51c-1.19-1.93-2.62-3.71-3.64-5.73a8.75,8.75,0,0,1-.85-6.56c.72-2.15,3.06-4.69,5.26-4.16a8.83,8.83,0,0,0-10.94,8.5c0,3.08,1.55,6,3.51,8.35s4.32,4.4,6.29,6.77,3.51,5.16,3.56,8.18A22.2,22.2,0,0,0,211.56,288.51Z" style="fill:#142333"/><path d="M214.76,304a.76.76,0,0,0,0-.15c0,.27-.09.53-.15.8Z" style="fill:#142333"/><path d="M234.43,393.43q-5-35.83-10-71.68c-1.68,28.16,5.87,54.52,3,82.59-.52,5.14-1.3,10.24-2.13,15.33q3.66-.15,7.29-.43C234.59,410.63,235.63,402,234.43,393.43Z" style="fill:#264261"/><path d="M174.67,299.06c-.71-11.86,4.74-23.3,13.8-31a21.25,21.25,0,0,0-17.31,14.53,79.15,79.15,0,0,1-19.42-42.19A99.29,99.29,0,0,0,174.67,299.06Z" style="fill:#1b2f45"/><path d="M267.07,282.6a21.25,21.25,0,0,0-17.31-14.53c9.06,7.69,14.51,19.13,13.81,31a99.34,99.34,0,0,0,22.92-58.65A79.07,79.07,0,0,1,267.07,282.6Z" style="fill:#1b2f45"/><path d="M103.6,267.3a56.32,56.32,0,0,0-35.12,28.79,68.32,68.32,0,0,0-5.26,15.06q2,5.53,4.44,10.86C74.66,301.44,87.72,282.11,103.6,267.3Z" style="fill:#1b2f45"/><path d="M339.46,267.3A138.53,138.53,0,0,1,373,315.67q2.49-6.18,4.49-12.6a61.75,61.75,0,0,0-2.94-7A56.32,56.32,0,0,0,339.46,267.3Z" style="fill:#1b2f45"/><path d="M169.81,276.47c-4.69-11-10.28-21.31-14.35-32.53A78,78,0,0,0,169.81,276.47Z" style="fill:#1b2f45"/><path d="M262.6,235a70.94,70.94,0,0,0,11.33-19,79.32,79.32,0,0,1-30,30.1A32.8,32.8,0,0,0,262.6,235Z" style="fill:#1b2f45"/><path d="M120.55,323.53a155.92,155.92,0,0,1,18.93-9.76q-11.68-3.78-23-8.46a77.94,77.94,0,0,0,9.87,8.57A43.45,43.45,0,0,0,105,337.82,52.06,52.06,0,0,1,120.55,323.53Z" style="fill:#1b2f45"/><path d="M308.84,313.88a77.17,77.17,0,0,0,9.86-8.57q-11.35,4.67-23,8.46a155.92,155.92,0,0,1,18.93,9.76,52.06,52.06,0,0,1,15.51,14.29A43.45,43.45,0,0,0,308.84,313.88Z" style="fill:#1b2f45"/><path d="M219,194.4l-55.91,6.93s2.84,10.55,6.28,28L219,272.78l49.63-43.46c3.93-16.57,6.28-28,6.28-28Z" style="fill:#1b2f45"/><path d="M286.54,133.77,219,141.65,165.43,158S114.38,176,89,142.07c0,0,43.11,20.82,129.51-19.92,86-40.56,121-29.88,121-29.88S342.18,115.84,286.54,133.77Z" style="fill:#142333"/><path d="M303.83,143.1c-1.78,5.81-6.81,10.15-8.7,15.93-1,3.1-1.07,6.5-2.53,9.42a11.13,11.13,0,0,1-10.24,5.92h-.06c-.47,3.28-3.55,24.95-3.79,25.48-3.61,7.8-24,25.66-24,25.66s-14.91,11-20.17,15.43a17.16,17.16,0,0,1-6.53,3.14,35.89,35.89,0,0,1-8.85,1.17s-10.13.12-15.39-4.31-20.15-15.43-20.15-15.43-20.37-17.86-24-25.66c-.25-.53-3.33-22.2-3.8-25.48h0a11.17,11.17,0,0,1-10.26-5.92c-1.45-2.92-1.52-6.32-2.53-9.42-1.87-5.78-6.9-10.12-8.7-15.93a15.55,15.55,0,0,1,11-19.62,15.13,15.13,0,0,1,11.72,2,13.78,13.78,0,0,1,3.14,2.91l58.13-23.66-2.5-7.11,32-5.78,30.11-5.44c6,9.79,7.54,26.63,7.88,37.1a14.63,14.63,0,0,1,7.08,0,15.51,15.51,0,0,1,11,19.62Z" style="fill:#365b85"/><path d="M284.51,128.57l-.54-1.78a4.73,4.73,0,0,0-3.42-3.24c-34.4-8.18-57.38,2.86-57.38,2.86h-8.34s-23-11-57.38-2.86a4.73,4.73,0,0,0-3.42,3.24l-.54,1.77a4.12,4.12,0,0,0,1.54,4.56l0,0a7.75,7.75,0,0,1,3.17,5.64c.74,8.54,4.87,29.89,27.69,29.89,28.52,0,28.71-28.57,28.71-28.57v-.57a4.12,4.12,0,0,1,4.12-4.12h.48a4.12,4.12,0,0,1,4.12,4.12v.57s.19,28.57,28.71,28.57c22.82,0,26.95-21.35,27.69-29.89a7.75,7.75,0,0,1,3.17-5.64l0,0A4.11,4.11,0,0,0,284.51,128.57Z" style="fill:#142333"/><path d="M224.8,139.36c1.28,6.67,3.22,13.46,7.53,18.72a25,25,0,0,0,21.89,8.84,40.6,40.6,0,0,1-18.48-10A39.52,39.52,0,0,1,224.8,139.36Z" style="fill:#1b2f45"/><path d="M159.91,139.36c1.28,6.67,3.22,13.46,7.53,18.72a25,25,0,0,0,21.89,8.84,40.6,40.6,0,0,1-18.48-10A39.52,39.52,0,0,1,159.91,139.36Z" style="fill:#1b2f45"/><path d="M263.84,123.49a35.12,35.12,0,0,1,14.07,2.63,4.06,4.06,0,0,1,2.53,2.06c.41,1.16-.22,2.39-.72,3.52-1.42,3.19-1.82,6.73-2.37,10.18s-1.34,7-3.38,9.84c1.06-6.34,1.76-12.38,2.81-18.72a7.12,7.12,0,0,0-.09-3.94c-.64-1.52-2.22-2.39-3.74-3A28.79,28.79,0,0,0,263.84,123.49Z" style="fill:#1b2f45"/><path d="M197.27,125a35.19,35.19,0,0,1,14.07,2.63,4.12,4.12,0,0,1,2.53,2.06c.41,1.16-.23,2.4-.73,3.52-1.41,3.2-1.81,6.73-2.37,10.19s-1.33,7-3.37,9.83c1.06-6.34,1.75-12.38,2.81-18.72a7.12,7.12,0,0,0-.09-3.94c-.64-1.52-2.22-2.39-3.74-3A28.94,28.94,0,0,0,197.27,125Z" style="fill:#1b2f45"/><path d="M277.62,132.41a15.05,15.05,0,0,0-1.37,5.15.17.17,0,0,1,0,.07c-.34,3.86-1.46,11.16-5.2,17.17-4.14,6.67-10.33,9.91-18.94,9.91-1,0-1.92,0-2.83-.1h0a23.46,23.46,0,0,1-13-4.61,20,20,0,0,1-2.72-2.57,24.42,24.42,0,0,1-3.12-4.6l-.37-.74a33.41,33.41,0,0,1-3.16-12.54V139a11.18,11.18,0,0,0-1-4.59,4.47,4.47,0,0,1,2.81-6.09,94.64,94.64,0,0,1,27.11-3.79l1.79,0c2.77,0,5.57.2,8.37.46,1.58.15,3.16.33,4.74.55,1.19.15,2.38.33,3.57.53A4.52,4.52,0,0,1,277.62,132.41Z" style="fill:#264261"/><path d="M212,133.13a4.42,4.42,0,0,1-.35,1.25,11.18,11.18,0,0,0-1,4.59v.58a33.48,33.48,0,0,1-3.53,13.28c-4.19,8-11.3,11.88-21.73,11.88a29.83,29.83,0,0,1-4.64-.35,19.52,19.52,0,0,1-11.62-6,23.17,23.17,0,0,1-2.32-3c-.11-.19-.23-.37-.35-.56a30.44,30.44,0,0,1-2.59-5.33,45.68,45.68,0,0,1-2.62-11.91,15.52,15.52,0,0,0-1.37-5.15,4.52,4.52,0,0,1,3.35-6.35,113,113,0,0,1,18.48-1.56q3.61,0,6.89.23c2.86.19,5.53.49,8,.86,1.59.23,3.09.5,4.5.78,3.06.61,5.66,1.29,7.74,1.92A4.48,4.48,0,0,1,212,133.13Z" style="fill:#264261"/><path d="M277.62,132.41a15.05,15.05,0,0,0-1.37,5.15.17.17,0,0,1,0,.07l-27,27h0a23.46,23.46,0,0,1-13-4.61l34.47-34.47c1.19.15,2.38.33,3.57.53A4.52,4.52,0,0,1,277.62,132.41Z" style="fill:#4778b0"/><path d="M266,125,233.5,157.43a24.42,24.42,0,0,1-3.12-4.6l-.37-.74,27.57-27.57C260.35,124.56,263.15,124.72,266,125Z" style="fill:#4778b0"/><path d="M212,133.13l-31.23,31.23a19.52,19.52,0,0,1-11.62-6l32-31.95c3.06.61,5.66,1.29,7.74,1.92A4.48,4.48,0,0,1,212,133.13Z" style="fill:#4778b0"/><path d="M196.58,125.59l-29.77,29.77c-.11-.19-.23-.37-.35-.56a30.44,30.44,0,0,1-2.59-5.33l24.73-24.74C191.46,124.92,194.13,125.22,196.58,125.59Z" style="fill:#4778b0"/><path d="M339.44,92.27s-34.95-10.68-121,29.88C132.07,162.89,89,142.07,89,142.07s26.85-12.64,44.35-26.84v.61s9.92-15.33,62.4-21.93,94.69-14.4,99.55-17.12C339.38,76.79,339.44,92.27,339.44,92.27Z" style="fill:#1b2f45"/><path d="M295.26,76.79c-4.86,2.72-47,10.49-99.55,17.12s-62.4,21.93-62.4,21.93V90.21c.29-.23.57-.45.86-.66,41-31.21,69.66-30,89-28.9,17.6,1.06,58,1.31,65.47,1.35h1.22Z" style="fill:#264261"/><path d="M288.6,62c-7.51,0-47.87-.29-65.47-1.35-19.3-1.15-48-2.31-89,28.9,0,0,7-27.65,6.3-45.5,0,0,7.38-16.49,30-32.23,0,0,17.47.36,20.06-1.12S202,4.06,204.83,3.94s38.76,8.49,47.37,9,16.36,7.38,21.89,20.68C279.53,46.63,288.28,61.44,288.6,62Z" style="fill:#1b2f45"/><path d="M157.51,39.23a26.91,26.91,0,0,1,5.36-5.07,11.57,11.57,0,0,1,3.49-1.7,4.52,4.52,0,0,1,2.24-.06,2.19,2.19,0,0,1,1.23.86,2.76,2.76,0,0,1,.46,1.34,9.5,9.5,0,0,1-.94,4c-.5,1.17-1.06,2.28-1.63,3.37-1.19,2.17-2.43,4.23-3.68,6.35s-2.6,4.1-3.7,6.16A18.31,18.31,0,0,0,159,57.6a13.67,13.67,0,0,0-.4,1.62c-.11.62-.24,1.25-.4,1.86A20.14,20.14,0,0,1,155,67.94a11.31,11.31,0,0,1-5.91,4.4A12.34,12.34,0,0,0,154,67.28a21.94,21.94,0,0,0,2.23-6.62c.1-.57.17-1.15.23-1.73a12.77,12.77,0,0,1,.37-1.94,20.54,20.54,0,0,1,1.37-3.61c1.13-2.26,2.45-4.31,3.68-6.39s2.54-4.15,3.75-6.2c.61-1,1.2-2.06,1.7-3.11a9,9,0,0,0,1-3c0-.41,0-.42-.27-.57a3.35,3.35,0,0,0-1.37-.05,10.6,10.6,0,0,0-3.18,1.14A39.37,39.37,0,0,0,157.51,39.23Z" style="fill:#264261"/><path d="M221.64,21.14a28.7,28.7,0,0,0-7.1,1.83,7.88,7.88,0,0,0-4.46,4.76,4.57,4.57,0,0,0,.15,2.95,6.12,6.12,0,0,0,2,2.4c1.71,1.38,4,2,6.39,2.84a22.73,22.73,0,0,1,3.59,1.59,26.13,26.13,0,0,1,3.24,2.17c2,1.6,3.83,3.29,5.68,4.87a22.22,22.22,0,0,0,6.06,3.82,10.92,10.92,0,0,0,7.1.6,10.33,10.33,0,0,1-7.49.58,20.76,20.76,0,0,1-6.88-3.43c-4.13-3-7.58-6.45-12.14-7.81-2.25-.83-4.9-1.54-7.06-3.38a8.18,8.18,0,0,1-2.5-3.47,6.26,6.26,0,0,1,0-4.35,9.06,9.06,0,0,1,5.88-5.3A22.33,22.33,0,0,1,221.64,21.14Z" style="fill:#264261"/><path d="M245,209s-1.89,6.18-10.2,6.87-12-2.17-16.5-2.27-22.05-1-25.11-4.6Z" style="fill:#142333"/><path d="M245,209s-6.86,3.24-25.9,2.74-25.64-2.64-25.64-2.64Z" style="fill:#e3e3e3"/><path d="M245,209s-6.39.78-10.34-.72-11.5-2.33-15.56,0v1.83S237.67,211.79,245,209Z" style="fill:#142333"/><path d="M193.14,209a60.4,60.4,0,0,0,10.34-.72c4.14-.83,11.51-2.33,15.57,0v1.83S200.43,211.79,193.14,209Z" style="fill:#142333"/><path d="M237,214.1s27.52-12.81,35.29-16.41l-6.71-11.53-40,25.75Z" style="fill:#142333"/><path d="M272.36,197.64c-1.79.94-4.64-.95-6.37-4.22s-1.69-6.7.1-7.65,4.65.94,6.38,4.22S274.15,196.69,272.36,197.64Z" style="fill:#fff"/><path d="M350.43,112.68c-3.1,4.33-8.57,6.26-13.81,7.22s-10.7,1.26-15.59,3.38-9.22,6.78-8.88,12.1c.22,3.44,2.32,6.49,4.73,9s5.21,4.58,7.36,7.28,3.63,6.24,2.81,9.6c-.71,2.93-3,5.2-5.5,6.94a31.66,31.66,0,0,1-18.07,5.72c-6.62,0-13.33-2.09-19.77-.55a18,18,0,0,0-13.21,22.15c.41-4.24,4-7.32,7.9-9.09s8.31-1.93,12.54-1.47,8.38,1.54,12.6,2.13c14.67,2.06,30.74-2.3,40.4-13.53,2.52-2.93,4.65-6.65,4.07-10.46-.47-3.08-2.63-5.62-4.95-7.7s-4.93-3.88-6.8-6.37-2.91-5.92-1.58-8.74c2-4.25,7.71-4.76,11.8-7.07A13.37,13.37,0,0,0,353,123.8C353.66,119.91,353.08,115.6,350.43,112.68Z" style="fill:#fff"/><path d="M307.54,136.19c-2.2,1.62-2.78,4.83-1.87,7.39a12,12,0,0,0,5.38,5.92,78.91,78.91,0,0,0,7.4,3.44c2.23,1,4.48,2.34,5.67,4.49a8.48,8.48,0,0,1-.63,8.51,15.84,15.84,0,0,1-6.91,5.52c-8.12,3.73-17.48,3.44-26.33,2.27a33.68,33.68,0,0,0,22.91-6.67c1.8-1.39,3.56-3.2,3.72-5.46a6.56,6.56,0,0,0-3.05-5.48,30.19,30.19,0,0,0-5.89-2.84,11.35,11.35,0,0,1-5.21-3.8,8.23,8.23,0,0,1-.54-7.38C303.1,139.71,305.52,137.77,307.54,136.19Z" style="fill:#fff"/><path d="M360.12,124.41a10.89,10.89,0,0,1-2.82,8.72,26,26,0,0,1-7.58,5.59,61,61,0,0,0-8.16,4.8,9.76,9.76,0,0,0-3.39,4,4.65,4.65,0,0,0,.85,5,5.58,5.58,0,0,1-3-5.8,9.33,9.33,0,0,1,3.72-5.93,24.25,24.25,0,0,1,6.37-3.25,37.74,37.74,0,0,0,6.56-2.91A15.32,15.32,0,0,0,360.12,124.41Z" style="fill:#fff"/><path d="M234.43,183.34a3.23,3.23,0,0,1,.45,2.41,3.34,3.34,0,0,1-1.68,2,9.36,9.36,0,0,1-4.94,1.07,22.14,22.14,0,0,0-2.3,0,6.47,6.47,0,0,0-2.07.5c-.7.28-1.44.61-2.25.9a7.6,7.6,0,0,1-2.64.46,7.3,7.3,0,0,1-2.64-.46c-.82-.29-1.55-.62-2.25-.9a6.59,6.59,0,0,0-2.08-.5,22,22,0,0,0-2.29,0,9.37,9.37,0,0,1-5-1.07,3.37,3.37,0,0,1-1.68-2,3.19,3.19,0,0,1,.46-2.41,3.19,3.19,0,0,0,0,2.24,2.76,2.76,0,0,0,1.61,1.34,9.21,9.21,0,0,0,4.42.45,15.22,15.22,0,0,1,2.49-.2,8.48,8.48,0,0,1,2.6.48c1.6.57,2.9,1.25,4.29,1.16,1.39.09,2.68-.59,4.29-1.16a8.42,8.42,0,0,1,2.6-.47,15.25,15.25,0,0,1,2.49.19,9.21,9.21,0,0,0,4.42-.45,2.76,2.76,0,0,0,1.61-1.34A3.24,3.24,0,0,0,234.43,183.34Z" style="fill:#142333"/><path d="M201.73,189.56a31.19,31.19,0,0,0-3.17,3.55,28.32,28.32,0,0,0-4.32,8.36,31,31,0,0,0-1.07,4.64,17.71,17.71,0,0,1,.51-4.8,19.88,19.88,0,0,1,1.7-4.54,20.78,20.78,0,0,1,2.73-4A17.71,17.71,0,0,1,201.73,189.56Z" style="fill:#142333"/><path d="M236.27,189.56a17.66,17.66,0,0,1,3.61,3.19,20.42,20.42,0,0,1,4.43,8.56,17.71,17.71,0,0,1,.52,4.8,31,31,0,0,0-1.07-4.64,28.21,28.21,0,0,0-1.81-4.36,29.15,29.15,0,0,0-2.51-4A31.19,31.19,0,0,0,236.27,189.56Z" style="fill:#142333"/><path d="M140.2,150.06c2.1,2.44,4.26,5,5.15,8.08a39.75,39.75,0,0,1,.84,5.55,9.72,9.72,0,0,0,2,5.17c1.79,2,4.75,2.64,7.48,2.62-2.24-.11-3.95-1.88-5.1-3.8a21.65,21.65,0,0,1-2.14-6.32,18.78,18.78,0,0,0-2.3-6.26C144.61,152.8,142.54,151.51,140.2,150.06Z" style="fill:#4778b0"/><path d="M160.37,184.17c.09,5.4.23,11,2.64,15.85a33.6,33.6,0,0,0,6,7.89c7,7.34,13.75,15.05,21.87,21.15a208.66,208.66,0,0,1-18.29-20.57A69.08,69.08,0,0,1,160.37,184.17Z" style="fill:#4778b0"/><path d="M228.3,65.6a101.77,101.77,0,0,0-56.42,7.8c-11.14,5-21.29,12-32.24,17.44,7.87,1.12,15.8-1.42,23-4.89S176.4,78,183.67,74.8C197.7,68.62,213,66.77,228.3,65.6Z" style="fill:#1b2f45"/><path d="M245.23,83.76c11.94-3.37,24.75-3.23,36.42-7.47A9,9,0,0,0,286,73.56c1.63-2.21,1.62-5.35.64-7.91L290,72.51a3.71,3.71,0,0,1,.53,2.86c-.42,1.1-1.73,1.51-2.87,1.78-13.73,3.2-27.73,5-41.71,6.84" style="fill:#1b2f45"/><path d="M244.05,15.63a38.41,38.41,0,0,1,8.9.56A18.55,18.55,0,0,1,261,19.8c3.67,3,5.68,7.48,7.56,11.81l6.87,15.83c-4.1-4.42-6.85-9.51-10-14.65s-6.81-10.22-12-13.34A37.33,37.33,0,0,0,244.05,15.63Z" style="fill:#264261"/><path d="M151.21,33.53A31.09,31.09,0,0,1,147,37.89a13.21,13.21,0,0,0-3.59,4.84c-.89,2.39-.55,5.05-.24,7.59s.53,5.24-.56,7.55c2.1-1.43,2.89-4.25,3-6.79s-.27-5.12.19-7.62C146.47,39.64,148.75,36.53,151.21,33.53Z" style="fill:#264261"/><path d="M203.47,8.35a9.62,9.62,0,0,0-5.75,1.18c-1.78.89-3.41,2.05-5.2,2.94a25.4,25.4,0,0,1-10.35,2.37,73.46,73.46,0,0,1-10.68-.66,32.41,32.41,0,0,0,5.68,3.34,14.74,14.74,0,0,0,6.56,1.32c3.91-.19,7.44-2.34,10.57-4.69S199.86,9.88,203.47,8.35Z" style="fill:#264261"/><path d="M189.82,127.79c-14,5.18-28.1,10.38-42.73,13.42s-29.94,3.86-44.44.28c5.47-5.68,13.8-7.75,21.62-8.8s15.74-.54,23.63-.6C162.28,132,176,131.74,189.82,127.79Z" style="fill:#264261"/><path d="M291.32,82.16c-6.61,1.36-13.11,3.78-19.87,3.64,8.12,2,16.54-.9,24.88-1.4,10.24-.62,20.22,2.33,30.35,3.15.72,0,2.08.48,2.49-.3.3-.58-.28-1.36-.7-1.68-1.63-1.26-4.75-1.75-6.71-2.3a65,65,0,0,0-30.44-1.11Z" style="fill:#264261"/><path d="M191.59,171.51a33.83,33.83,0,0,1-16.65-1.44,22.23,22.23,0,0,1-12.37-10.87,9.88,9.88,0,0,0,2.11,6.5,17,17,0,0,0,5.39,4.22C176.83,173.5,184.52,174.43,191.59,171.51Z" style="fill:#4778b0"/><path d="M218.86,187.6a14.81,14.81,0,0,0-5.71-1.65c-1.61,0-3.19.5-4.79.49a2.81,2.81,0,0,1-3.05-3.65c.95,1.37,2.62,1.81,4.28,2s3.35,0,5,.34S218.18,186.07,218.86,187.6Z" style="fill:#4778b0"/><path d="M262.16,190.7a219.42,219.42,0,0,0-28.49,18.89C244.83,206.11,255.42,197.83,262.16,190.7Z" style="fill:#1b2f45"/><path d="M278.72,94.87a71.47,71.47,0,0,1,3.8,26.23,48.46,48.46,0,0,1-2.51-7.76c-.73-2.65-2.08-5.37-4.56-6.58a8.83,8.83,0,0,0-5-.61c-1.69.22-3.34.72-5,1.07a16.22,16.22,0,0,1-5.24.35,8.68,8.68,0,0,1-4.77-2A49.73,49.73,0,0,1,276.2,94.08C277.25,93.8,278.37,93.84,278.72,94.87Z" style="fill:#1b2f45"/><path d="M299.57,130.16a11.26,11.26,0,0,1,0,12.72,14.47,14.47,0,0,0-7.47-14.3c-.84-.46-3.9-1.27-2.25-2.74,1.05-.93,4.07.24,5.16.71A10.8,10.8,0,0,1,299.57,130.16Z" style="fill:#1b2f45"/><path d="M278.38,190.27c-.63,3.63-.11,7.57-2.18,10.62a50.75,50.75,0,0,1-8.46,9.58A67.45,67.45,0,0,0,274.5,201,32.65,32.65,0,0,0,278.38,190.27Z" style="fill:#1b2f45"/><path d="M64,290.9c7.88-16.34,35.25-29.91,53.19-37.33,17-26.35,37.53-38.08,46.43-41.7,9.64,21.82,50.09,41.95,50.09,41.95l5.26,9.84,5.16-9.84s40.45-20.13,50.09-41.95c8.69,3.54,28.48,14.83,45.25,39.93,17.49,6.88,49,21.35,57.59,39.1.85,1.75,1.64,3.53,2.38,5.32a165.93,165.93,0,1,0-319.64,4.66C61.06,297.52,62.45,294.17,64,290.9Z" style="fill:none"/><path d="M155.35,315.4,99.46,292.61a153.19,153.19,0,0,1,17.76-39C99.28,261,71.91,274.56,64,290.9c-1.58,3.27-3,6.62-4.2,10,1,3.47,2.15,6.9,3.39,10.27a68.32,68.32,0,0,1,5.26-15.06A56.32,56.32,0,0,1,103.6,267.3C87.72,282.11,74.66,301.44,67.66,322a166.47,166.47,0,0,0,42.83,57.39A255.64,255.64,0,0,1,94.68,354C116.32,321.61,155.35,315.4,155.35,315.4Zm-29-1.52a77.17,77.17,0,0,1-9.86-8.57q11.34,4.67,23,8.46a155.92,155.92,0,0,0-18.93,9.76A52.06,52.06,0,0,0,105,337.82,43.45,43.45,0,0,1,126.3,313.88Z" style="fill:#455d68"/><path d="M319.5,251.8a151.86,151.86,0,0,1,18.94,40.81L282.55,315.4s39,6.21,60.67,38.61a255.48,255.48,0,0,1-16,25.6A166.17,166.17,0,0,0,373,315.67a138.53,138.53,0,0,0-33.57-48.37,56.32,56.32,0,0,1,35.12,28.79,61.75,61.75,0,0,1,2.94,7c.7-2.26,1.34-4.55,2-6.85-.74-1.79-1.53-3.57-2.38-5.32C368.53,273.15,337,258.68,319.5,251.8Zm-4.91,71.73a155.92,155.92,0,0,0-18.93-9.76q11.67-3.78,23-8.46a77.17,77.17,0,0,1-9.86,8.57,43.45,43.45,0,0,1,21.26,23.94A52.06,52.06,0,0,0,314.59,323.53Z" style="fill:#455d68"/><polygon points="167.19 299.02 167.19 299.02 167.19 299.01 167.19 299.02" style="fill:#fff"/><path d="M259.47,308.4s-3.92-44.13-35.31-54.58L219,263.66l-5.26-9.84c-31.39,10.45-35.31,54.58-35.31,54.58a54.6,54.6,0,0,1-8.29-6.4l29.25,116.64c1.84.22,3.69.4,5.55.56l-4.17-26,10.72-86.14s1.48-6.18-6.44-11.88-7.78-18.27-7.78-18.27c3.82-7.88,13-8.77,18.18-8.58q3.56.12,7.1,0c5.21-.19,14.36.7,18.18,8.58,0,0,.14,12.58-7.78,18.27s-6.44,11.88-6.44,11.88l11.09,86.14-4.3,26c1.74-.15,3.47-.32,5.2-.53L267.76,302A54,54,0,0,1,259.47,308.4Z" style="fill:#fff"/><polygon points="270.71 299.01 270.71 299.02 270.71 299.02 242.81 418.09 242.81 418.09 270.71 299.02 270.71 299.01" style="fill:#fff"/><path d="M167.19,299c-21.57-23.52-18.93-60.64-18.93-60.64a48.85,48.85,0,0,0,15.39-26.5c-8.9,3.62-29.41,15.35-46.43,41.7a153.19,153.19,0,0,0-17.76,39l55.89,22.79s-39,6.21-60.67,38.61a255.64,255.64,0,0,0,15.81,25.39,165.2,165.2,0,0,0,19.13,14.29c-10.31-13.16-19.94-27-29.53-40.68a109.38,109.38,0,0,1,35.15-24.14c-9.63,5.78-18.63,14.43-24.22,24.18,7.36,16.64,17.08,31.86,28.05,46.26a165.13,165.13,0,0,0,56,18.77L167.19,299ZM105,290.28a171.59,171.59,0,0,1,16.48-36.86c-2.62,11.56-5.49,22.66-8.78,34.05a76.68,76.68,0,0,1,31.65,19.18C131.38,300.92,118.17,295.52,105,290.28Z" style="fill:#1a2b32"/><path d="M167.19,299h0l27.89,119.06c1.43.2,2.87.39,4.31.56L170.14,302C169.11,301,168.13,300,167.19,299Z" style="fill:#f9f8f7"/><path d="M270.71,299c-.94,1-1.92,2-2.95,3L238.5,418.65c1.44-.17,2.88-.35,4.31-.56L270.71,299Z" style="fill:#f9f8f7"/><path d="M148.26,238.37s-2.64,37.12,18.93,60.64h0c.94,1,1.92,2,2.95,3a54.6,54.6,0,0,0,8.29,6.4s3.92-44.13,35.31-54.58c0,0-40.45-20.13-50.09-41.95A48.85,48.85,0,0,1,148.26,238.37Zm21.55,38.1a78,78,0,0,1-14.35-32.53C159.53,255.16,165.12,265.5,169.81,276.47Zm1.35,6.13a21.25,21.25,0,0,1,17.31-14.53c-9.06,7.69-14.51,19.13-13.8,31a99.29,99.29,0,0,1-22.93-58.65A79.15,79.15,0,0,0,171.16,282.6Z" style="fill:#253a45"/><path d="M282.55,315.4l55.89-22.79A151.86,151.86,0,0,0,319.5,251.8c-16.77-25.1-36.56-36.39-45.25-39.93a48.77,48.77,0,0,0,15.39,26.5s2.63,37.12-18.93,60.64h0l-27.9,119.07a164.76,164.76,0,0,0,53.6-17.43c11.4-14.79,21.51-30.44,29.1-47.61-5.59-9.75-14.59-18.4-24.22-24.18A109.53,109.53,0,0,1,336.45,353c-10.05,14.35-20.12,28.79-31,42.5a165.54,165.54,0,0,0,21.79-15.9,255.48,255.48,0,0,0,16-25.6C321.58,321.61,282.55,315.4,282.55,315.4Zm9.63-8.75a76.8,76.8,0,0,1,31.65-19.18c-3.29-11.39-6.15-22.49-8.78-34.05a171.59,171.59,0,0,1,16.48,36.86C318.36,295.52,305.15,300.92,292.18,306.65Z" style="fill:#1a2b32"/><path d="M259.47,308.4a54,54,0,0,0,8.29-6.4c1-1,2-2,2.95-3h0c21.56-23.52,18.93-60.64,18.93-60.64a48.77,48.77,0,0,1-15.39-26.5c-9.64,21.82-50.09,41.95-50.09,41.95C255.55,264.27,259.47,308.4,259.47,308.4Zm27-68a99.34,99.34,0,0,1-22.92,58.65c.7-11.86-4.75-23.3-13.81-31a21.25,21.25,0,0,1,17.31,14.53A79.07,79.07,0,0,0,286.49,240.41ZM273.93,216a70.94,70.94,0,0,1-11.33,19,32.8,32.8,0,0,1-18.69,11.13A79.32,79.32,0,0,0,273.93,216Z" style="fill:#253a45"/><path d="M226.51,307.07S225,300.89,233,295.19s7.78-18.27,7.78-18.27c-3.82-7.88-13-8.77-18.18-8.58q-3.54.12-7.1,0c-5.21-.19-14.36.7-18.18,8.58,0,0-.14,12.58,7.78,18.27s6.44,11.88,6.44,11.88l-10.72,86.14,4.17,26c4.64.39,9.32.6,14.06.6,2.14,0,4.26-.05,6.38-.13.83-5.09,1.61-10.19,2.13-15.33,2.84-28.07-4.71-54.43-3-82.59q5,35.85,10,71.68c1.2,8.6.16,17.2-1.76,25.81l.63-.06,4.3-26ZM214.76,304l-.16.65c.06-.27.11-.53.15-.8-.05-3-1.63-5.84-3.56-8.18s-4.33-4.39-6.29-6.77-3.54-5.27-3.51-8.35a8.83,8.83,0,0,1,10.94-8.5c-2.2-.53-4.54,2-5.26,4.16a8.8,8.8,0,0,0,.85,6.56c1,2,2.45,3.8,3.64,5.73a22.2,22.2,0,0,1,3.19,15.35A.76.76,0,0,1,214.76,304Z" style="fill:#1a2b32"/><path d="M121.48,253.42A171.59,171.59,0,0,0,105,290.28c13.17,5.24,26.38,10.64,39.35,16.37a76.68,76.68,0,0,0-31.65-19.18C116,276.08,118.86,265,121.48,253.42Z" style="fill:#455d68"/><path d="M135.24,328.87A109.38,109.38,0,0,0,100.09,353c9.59,13.72,19.22,27.52,29.53,40.68,3.08,2,6.24,3.85,9.45,5.62-11-14.4-20.69-29.62-28-46.26C116.61,343.3,125.61,334.65,135.24,328.87Z" style="fill:#253a45"/><path d="M323.83,287.47a76.8,76.8,0,0,0-31.65,19.18c13-5.73,26.18-11.13,39.35-16.37a171.59,171.59,0,0,0-16.48-36.86C317.68,265,320.54,276.08,323.83,287.47Z" style="fill:#455d68"/><path d="M301.29,328.87c9.63,5.78,18.63,14.43,24.22,24.18-7.59,17.17-17.7,32.82-29.1,47.61,3.08-1.63,6.11-3.34,9.06-5.15,10.86-13.71,20.93-28.15,31-42.5A109.53,109.53,0,0,0,301.29,328.87Z" style="fill:#253a45"/><path d="M211.56,288.51c-1.19-1.93-2.62-3.71-3.64-5.73a8.8,8.8,0,0,1-.85-6.56c.72-2.15,3.06-4.69,5.26-4.16a8.83,8.83,0,0,0-10.94,8.5c0,3.08,1.55,6,3.51,8.35s4.32,4.4,6.29,6.77,3.51,5.16,3.56,8.18A22.2,22.2,0,0,0,211.56,288.51Z" style="fill:#253a45"/><path d="M214.76,304a.76.76,0,0,0,0-.15c0,.27-.09.53-.15.8Z" style="fill:#253a45"/><path d="M234.43,393.43q-5-35.83-10-71.68c-1.68,28.16,5.87,54.52,3,82.59-.52,5.14-1.3,10.24-2.13,15.33q3.66-.15,7.29-.43C234.59,410.63,235.63,402,234.43,393.43Z" style="fill:#455d68"/><path d="M174.67,299.06c-.71-11.86,4.74-23.3,13.8-31a21.25,21.25,0,0,0-17.31,14.53,79.15,79.15,0,0,1-19.42-42.19A99.29,99.29,0,0,0,174.67,299.06Z" style="fill:#1a2b32"/><path d="M267.07,282.6a21.25,21.25,0,0,0-17.31-14.53c9.06,7.69,14.51,19.13,13.81,31a99.34,99.34,0,0,0,22.92-58.65A79.07,79.07,0,0,1,267.07,282.6Z" style="fill:#1a2b32"/><path d="M103.6,267.3a56.32,56.32,0,0,0-35.12,28.79,68.32,68.32,0,0,0-5.26,15.06q2,5.53,4.44,10.86C74.66,301.44,87.72,282.11,103.6,267.3Z" style="fill:#1a2b32"/><path d="M339.46,267.3A138.53,138.53,0,0,1,373,315.67q2.49-6.18,4.49-12.6a61.75,61.75,0,0,0-2.94-7A56.32,56.32,0,0,0,339.46,267.3Z" style="fill:#1a2b32"/><path d="M169.81,276.47c-4.69-11-10.28-21.31-14.35-32.53A78,78,0,0,0,169.81,276.47Z" style="fill:#1a2b32"/><path d="M262.6,235a70.94,70.94,0,0,0,11.33-19,79.32,79.32,0,0,1-30,30.1A32.8,32.8,0,0,0,262.6,235Z" style="fill:#1a2b32"/><path d="M120.55,323.53a155.92,155.92,0,0,1,18.93-9.76q-11.68-3.78-23-8.46a77.17,77.17,0,0,0,9.86,8.57A43.45,43.45,0,0,0,105,337.82,52.06,52.06,0,0,1,120.55,323.53Z" style="fill:#1a2b32"/><path d="M308.84,313.88a77.17,77.17,0,0,0,9.86-8.57q-11.35,4.67-23,8.46a155.92,155.92,0,0,1,18.93,9.76,52.06,52.06,0,0,1,15.51,14.29A43.45,43.45,0,0,0,308.84,313.88Z" style="fill:#1a2b32"/><path d="M219,194.4l-55.91,6.93s2.84,10.54,6.28,28L219,272.78l49.63-43.46c3.93-16.57,6.28-28,6.28-28Z" style="fill:#1a2b32"/><path d="M286.54,133.77,219,141.65,165.43,158S114.38,176,89,142.07c0,0,43.11,20.82,129.51-19.92,86-40.56,121-29.88,121-29.88S342.18,115.84,286.54,133.77Z" style="fill:#253a45"/><path d="M303.83,143.1c-1.78,5.81-6.81,10.15-8.7,15.93-1,3.1-1.07,6.5-2.53,9.42a11.13,11.13,0,0,1-10.24,5.92h-.06c-.47,3.28-3.55,24.95-3.79,25.48-3.61,7.8-24,25.66-24,25.66s-14.91,11-20.17,15.43a17.16,17.16,0,0,1-6.53,3.14,36.46,36.46,0,0,1-8.85,1.17s-10.13.12-15.39-4.31-20.15-15.43-20.15-15.43-20.36-17.86-24-25.66c-.25-.53-3.33-22.2-3.8-25.48h0a11.17,11.17,0,0,1-10.26-5.92c-1.45-2.92-1.52-6.32-2.53-9.42-1.87-5.78-6.9-10.12-8.7-15.93a15.55,15.55,0,0,1,11-19.62,15.13,15.13,0,0,1,11.72,2,13.78,13.78,0,0,1,3.14,2.91l58.13-23.66-2.5-7.11,32-5.78,30.11-5.44c6,9.79,7.54,26.63,7.88,37.1a14.63,14.63,0,0,1,7.08,0,15.51,15.51,0,0,1,11,19.62Z" style="fill:#7c9ba5"/><path d="M284.51,128.57l-.54-1.78a4.73,4.73,0,0,0-3.42-3.24c-34.4-8.18-57.38,2.86-57.38,2.86h-8.34s-23-11-57.38-2.86a4.73,4.73,0,0,0-3.42,3.24l-.54,1.77a4.12,4.12,0,0,0,1.54,4.56l0,0a7.75,7.75,0,0,1,3.17,5.64c.74,8.54,4.87,29.89,27.69,29.89,28.52,0,28.71-28.57,28.71-28.57v-.57a4.12,4.12,0,0,1,4.12-4.12h.48a4.12,4.12,0,0,1,4.12,4.12v.57s.19,28.57,28.71,28.57c22.82,0,26.95-21.35,27.69-29.89a7.75,7.75,0,0,1,3.17-5.64l0,0A4.11,4.11,0,0,0,284.51,128.57Z" style="fill:#253a45"/><path d="M224.8,139.36c1.28,6.67,3.22,13.46,7.53,18.72a25,25,0,0,0,21.89,8.84,40.65,40.65,0,0,1-18.48-10A39.52,39.52,0,0,1,224.8,139.36Z" style="fill:#1a2b32"/><path d="M159.91,139.36c1.28,6.67,3.22,13.46,7.53,18.72a25,25,0,0,0,21.89,8.84,40.65,40.65,0,0,1-18.48-10A39.52,39.52,0,0,1,159.91,139.36Z" style="fill:#1a2b32"/><path d="M263.84,123.49a35.12,35.12,0,0,1,14.07,2.63,4.06,4.06,0,0,1,2.53,2.06c.41,1.16-.22,2.39-.72,3.52-1.42,3.19-1.82,6.73-2.37,10.18s-1.34,7-3.38,9.84c1.06-6.34,1.76-12.38,2.81-18.72a7.12,7.12,0,0,0-.09-3.94c-.64-1.52-2.22-2.39-3.74-3A28.53,28.53,0,0,0,263.84,123.49Z" style="fill:#1a2b32"/><path d="M197.27,125a35.19,35.19,0,0,1,14.07,2.63,4.12,4.12,0,0,1,2.53,2.06c.41,1.16-.23,2.4-.73,3.52-1.41,3.2-1.81,6.73-2.36,10.19s-1.34,7-3.38,9.83c1.06-6.34,1.75-12.38,2.81-18.72a7.12,7.12,0,0,0-.09-3.94c-.64-1.52-2.22-2.39-3.74-3A28.94,28.94,0,0,0,197.27,125Z" style="fill:#1a2b32"/><path d="M277.62,132.41a15.05,15.05,0,0,0-1.37,5.15.17.17,0,0,1,0,.07c-.34,3.86-1.46,11.16-5.2,17.17-4.14,6.67-10.33,9.91-18.94,9.91-1,0-1.92,0-2.83-.1h0a23.46,23.46,0,0,1-13-4.61,20,20,0,0,1-2.72-2.57,24.42,24.42,0,0,1-3.12-4.6l-.37-.74a33.41,33.41,0,0,1-3.16-12.54V139a11.18,11.18,0,0,0-1-4.59,4.47,4.47,0,0,1,2.81-6.09,94.64,94.64,0,0,1,27.11-3.79l1.79,0c2.77,0,5.57.2,8.37.46,1.58.15,3.16.33,4.74.55,1.19.15,2.38.33,3.57.53A4.52,4.52,0,0,1,277.62,132.41Z" style="fill:#455d68"/><path d="M212,133.13a4.42,4.42,0,0,1-.35,1.25,11.18,11.18,0,0,0-1,4.59v.58a33.48,33.48,0,0,1-3.53,13.28c-4.19,8-11.3,11.88-21.73,11.88a29.83,29.83,0,0,1-4.64-.35,19.52,19.52,0,0,1-11.62-6,23.17,23.17,0,0,1-2.32-3c-.11-.19-.23-.37-.35-.56a30.44,30.44,0,0,1-2.59-5.33,45.68,45.68,0,0,1-2.62-11.91,15.52,15.52,0,0,0-1.37-5.15,4.52,4.52,0,0,1,3.35-6.35,113,113,0,0,1,18.48-1.56q3.61,0,6.89.23c2.86.19,5.53.49,8,.86,1.59.23,3.09.5,4.5.78,3.06.61,5.66,1.29,7.74,1.92A4.48,4.48,0,0,1,212,133.13Z" style="fill:#455d68"/><path d="M277.62,132.41a15.05,15.05,0,0,0-1.37,5.15.17.17,0,0,1,0,.07l-27,27h0a23.46,23.46,0,0,1-13-4.61l34.47-34.47c1.19.15,2.38.33,3.57.53A4.52,4.52,0,0,1,277.62,132.41Z" style="fill:#253a45"/><path d="M266,125,233.5,157.43a24.42,24.42,0,0,1-3.12-4.6l-.37-.74,27.57-27.57C260.35,124.56,263.15,124.72,266,125Z" style="fill:#253a45"/><path d="M212,133.13l-31.23,31.23a19.52,19.52,0,0,1-11.62-6l32-31.95c3.06.61,5.66,1.29,7.74,1.92A4.48,4.48,0,0,1,212,133.13Z" style="fill:#253a45"/><path d="M196.58,125.59l-29.77,29.77c-.11-.19-.23-.37-.35-.56a30.44,30.44,0,0,1-2.59-5.33l24.73-24.74C191.46,124.92,194.13,125.22,196.58,125.59Z" style="fill:#253a45"/><path d="M339.44,92.27s-34.95-10.68-121,29.88C132.07,162.89,89,142.07,89,142.07s26.85-12.64,44.35-26.84v.61s9.92-15.33,62.4-21.93,94.69-14.4,99.55-17.12C339.38,76.79,339.44,92.27,339.44,92.27Z" style="fill:#1a2b32"/><path d="M295.26,76.79c-4.86,2.72-47,10.49-99.55,17.12s-62.4,21.93-62.4,21.93V90.21c.3-.23.57-.45.86-.66,41-31.21,69.66-30,89-28.9,17.6,1.06,58,1.31,65.47,1.35h1.22Z" style="fill:#455d68"/><path d="M288.6,62c-7.51,0-47.87-.29-65.47-1.35-19.3-1.15-48-2.31-89,28.9,0,0,7.05-27.65,6.3-45.5,0,0,7.38-16.49,30-32.23,0,0,17.47.36,20.06-1.12S202,4.06,204.83,3.94s38.76,8.49,47.37,9,16.36,7.38,21.89,20.68C279.53,46.63,288.28,61.44,288.6,62Z" style="fill:#1a2b32"/><path d="M157.51,39.23a26.91,26.91,0,0,1,5.36-5.07,11.57,11.57,0,0,1,3.49-1.7,4.4,4.4,0,0,1,2.24-.06,2.19,2.19,0,0,1,1.23.86,2.76,2.76,0,0,1,.46,1.34,9.5,9.5,0,0,1-.94,4c-.49,1.17-1.06,2.28-1.63,3.37-1.19,2.17-2.43,4.23-3.68,6.35s-2.6,4.1-3.7,6.16A18.31,18.31,0,0,0,159,57.6a13.67,13.67,0,0,0-.4,1.62c-.11.62-.24,1.25-.4,1.86A20.14,20.14,0,0,1,155,67.94a11.31,11.31,0,0,1-5.91,4.4A12.34,12.34,0,0,0,154,67.28a21.94,21.94,0,0,0,2.23-6.62c.1-.57.17-1.15.23-1.73a12.77,12.77,0,0,1,.37-1.94,21.36,21.36,0,0,1,1.37-3.61c1.13-2.26,2.45-4.31,3.68-6.39s2.54-4.15,3.75-6.2c.61-1,1.2-2.06,1.7-3.11a9,9,0,0,0,1-3c0-.41,0-.42-.27-.57a3.35,3.35,0,0,0-1.37-.05,10.69,10.69,0,0,0-3.18,1.14A39.37,39.37,0,0,0,157.51,39.23Z" style="fill:#455d68"/><path d="M221.64,21.14a28.7,28.7,0,0,0-7.1,1.83,7.88,7.88,0,0,0-4.46,4.76,4.57,4.57,0,0,0,.15,2.95,6.12,6.12,0,0,0,2,2.4c1.71,1.38,4,2,6.39,2.84a22.73,22.73,0,0,1,3.59,1.59,26.13,26.13,0,0,1,3.24,2.17c2,1.6,3.83,3.29,5.68,4.87a22.22,22.22,0,0,0,6.06,3.82,10.92,10.92,0,0,0,7.1.6,10.33,10.33,0,0,1-7.49.58,20.86,20.86,0,0,1-6.88-3.43c-4.13-3-7.58-6.45-12.14-7.81-2.25-.83-4.9-1.54-7.06-3.38a8.18,8.18,0,0,1-2.5-3.47,6.26,6.26,0,0,1,0-4.35,9.06,9.06,0,0,1,5.88-5.3A22.33,22.33,0,0,1,221.64,21.14Z" style="fill:#455d68"/><path d="M245,209s-1.89,6.18-10.19,6.87-12-2.17-16.51-2.27-22.05-1-25.11-4.6Z" style="fill:#253a45"/><path d="M245,209s-6.86,3.24-25.9,2.74-25.64-2.64-25.64-2.64Z" style="fill:#f9fbfc"/><path d="M245,209s-6.39.78-10.34-.72-11.5-2.33-15.56,0v1.83S237.67,211.79,245,209Z" style="fill:#253a45"/><path d="M193.14,209a60.4,60.4,0,0,0,10.34-.72c4.14-.83,11.51-2.33,15.57,0v1.83S200.43,211.79,193.14,209Z" style="fill:#253a45"/><path d="M237,214.1s27.52-12.81,35.29-16.41l-6.71-11.53-40,25.75Z" style="fill:#253a45"/><path d="M272.36,197.64c-1.79.94-4.64-.95-6.37-4.22s-1.69-6.7.11-7.65,4.64.94,6.37,4.22S274.16,196.69,272.36,197.64Z" style="fill:#fff"/><path d="M350.43,112.68c-3.1,4.33-8.57,6.26-13.81,7.22s-10.7,1.26-15.59,3.38-9.22,6.78-8.88,12.1c.22,3.44,2.32,6.49,4.73,9s5.21,4.58,7.36,7.28,3.63,6.24,2.81,9.6c-.71,2.93-3,5.2-5.5,6.94a31.66,31.66,0,0,1-18.07,5.72c-6.62,0-13.33-2.09-19.77-.55a18,18,0,0,0-13.21,22.15c.41-4.24,4-7.32,7.9-9.09s8.31-1.93,12.54-1.47,8.38,1.54,12.6,2.13c14.67,2.06,30.74-2.3,40.4-13.53,2.52-2.93,4.65-6.65,4.07-10.46-.47-3.08-2.63-5.63-4.95-7.7s-4.93-3.88-6.8-6.37-2.91-5.92-1.58-8.74c2-4.25,7.71-4.76,11.8-7.07A13.37,13.37,0,0,0,353,123.8C353.66,119.91,353.08,115.6,350.43,112.68Z" style="fill:#fff"/><path d="M307.54,136.19c-2.2,1.62-2.78,4.83-1.87,7.39a12,12,0,0,0,5.38,5.92,78.91,78.91,0,0,0,7.4,3.44c2.23,1,4.48,2.34,5.67,4.49a8.48,8.48,0,0,1-.63,8.51,15.84,15.84,0,0,1-6.91,5.52c-8.12,3.73-17.48,3.44-26.33,2.27a33.68,33.68,0,0,0,22.91-6.67c1.8-1.39,3.56-3.2,3.72-5.46a6.56,6.56,0,0,0-3.05-5.48,30.38,30.38,0,0,0-5.88-2.84,11.33,11.33,0,0,1-5.22-3.8,8.23,8.23,0,0,1-.54-7.38C303.1,139.71,305.52,137.77,307.54,136.19Z" style="fill:#fff"/><path d="M360.12,124.41a10.89,10.89,0,0,1-2.82,8.72,26,26,0,0,1-7.58,5.59,61,61,0,0,0-8.16,4.8,9.76,9.76,0,0,0-3.39,4,4.65,4.65,0,0,0,.85,5,5.58,5.58,0,0,1-3-5.8,9.33,9.33,0,0,1,3.72-5.93,24.25,24.25,0,0,1,6.37-3.25,37.74,37.74,0,0,0,6.56-2.91A15.32,15.32,0,0,0,360.12,124.41Z" style="fill:#fff"/><path d="M234.43,183.34a3.18,3.18,0,0,1,.45,2.41,3.34,3.34,0,0,1-1.68,2,9.34,9.34,0,0,1-4.94,1.07,22.14,22.14,0,0,0-2.3,0,6.47,6.47,0,0,0-2.07.5c-.7.28-1.44.61-2.25.9a7.6,7.6,0,0,1-2.64.46,7.52,7.52,0,0,1-2.64-.46c-.82-.29-1.55-.62-2.25-.9a6.59,6.59,0,0,0-2.08-.5,22,22,0,0,0-2.29,0,9.37,9.37,0,0,1-5-1.07,3.37,3.37,0,0,1-1.68-2,3.19,3.19,0,0,1,.46-2.41,3.19,3.19,0,0,0,0,2.24,2.76,2.76,0,0,0,1.61,1.34,9.21,9.21,0,0,0,4.42.45,15.22,15.22,0,0,1,2.49-.2,8.48,8.48,0,0,1,2.6.48c1.6.57,2.9,1.25,4.29,1.16,1.39.09,2.68-.59,4.29-1.16a8.42,8.42,0,0,1,2.6-.47,15.25,15.25,0,0,1,2.49.19,9.21,9.21,0,0,0,4.42-.45,2.76,2.76,0,0,0,1.61-1.34A3.24,3.24,0,0,0,234.43,183.34Z" style="fill:#253a45"/><path d="M201.73,189.56a31.19,31.19,0,0,0-3.17,3.55,28.32,28.32,0,0,0-4.32,8.36,31,31,0,0,0-1.07,4.64,18.11,18.11,0,0,1,.51-4.8,20.36,20.36,0,0,1,1.7-4.54,20.78,20.78,0,0,1,2.73-4A17.71,17.71,0,0,1,201.73,189.56Z" style="fill:#253a45"/><path d="M236.27,189.56a17.66,17.66,0,0,1,3.61,3.19,20.42,20.42,0,0,1,4.43,8.56,17.71,17.71,0,0,1,.52,4.8,31,31,0,0,0-1.07-4.64,28.21,28.21,0,0,0-1.81-4.36,29.15,29.15,0,0,0-2.51-4A31.19,31.19,0,0,0,236.27,189.56Z" style="fill:#253a45"/><path d="M140.2,150.06c2.1,2.44,4.26,5,5.15,8.08a39.75,39.75,0,0,1,.84,5.55,9.72,9.72,0,0,0,2,5.17c1.79,2,4.75,2.64,7.48,2.62-2.24-.11-3.95-1.88-5.1-3.8a21.65,21.65,0,0,1-2.14-6.32,19,19,0,0,0-2.29-6.26C144.61,152.8,142.54,151.51,140.2,150.06Z" style="fill:#9fc0cc"/><path d="M160.37,184.17c.09,5.4.23,11,2.64,15.85a33.6,33.6,0,0,0,6,7.89c7,7.34,13.75,15.05,21.87,21.15a208.66,208.66,0,0,1-18.29-20.57A69.08,69.08,0,0,1,160.37,184.17Z" style="fill:#9fc0cc"/><path d="M228.3,65.6a101.77,101.77,0,0,0-56.42,7.8c-11.14,5-21.29,12-32.24,17.44,7.87,1.12,15.8-1.42,23-4.89S176.4,78,183.67,74.8C197.7,68.62,213,66.77,228.3,65.6Z" style="fill:#1a2b32"/><path d="M245.23,83.76c11.94-3.37,24.75-3.23,36.42-7.47A9,9,0,0,0,286,73.56c1.63-2.21,1.62-5.35.64-7.91L290,72.51a3.71,3.71,0,0,1,.53,2.86c-.42,1.1-1.73,1.51-2.87,1.78-13.73,3.2-27.73,5-41.71,6.84" style="fill:#1a2b32"/><path d="M244.05,15.63a38.41,38.41,0,0,1,8.9.56A18.55,18.55,0,0,1,261,19.8c3.67,3,5.68,7.48,7.56,11.81l6.87,15.83c-4.1-4.42-6.85-9.51-10-14.65s-6.81-10.22-12-13.34A37.33,37.33,0,0,0,244.05,15.63Z" style="fill:#455d68"/><path d="M151.21,33.53A31.09,31.09,0,0,1,147,37.89a13.21,13.21,0,0,0-3.59,4.84c-.89,2.39-.55,5.05-.24,7.59s.53,5.23-.56,7.55c2.1-1.44,2.89-4.25,3-6.79s-.27-5.12.19-7.62C146.47,39.64,148.75,36.53,151.21,33.53Z" style="fill:#455d68"/><path d="M203.47,8.35a9.62,9.62,0,0,0-5.75,1.18c-1.78.89-3.41,2.05-5.19,2.94a25.48,25.48,0,0,1-10.36,2.37,73.46,73.46,0,0,1-10.68-.66,32.41,32.41,0,0,0,5.68,3.34,14.74,14.74,0,0,0,6.56,1.32c3.91-.19,7.44-2.34,10.57-4.69S199.86,9.88,203.47,8.35Z" style="fill:#455d68"/><path d="M189.82,127.79c-14,5.18-28.1,10.38-42.72,13.42s-29.95,3.86-44.45.28c5.47-5.68,13.8-7.75,21.62-8.8s15.74-.54,23.63-.6C162.28,132,176,131.74,189.82,127.79Z" style="fill:#455d68"/><path d="M291.32,82.16c-6.61,1.36-13.11,3.78-19.86,3.64,8.11,2,16.53-.9,24.87-1.4,10.24-.62,20.22,2.33,30.35,3.15.72,0,2.08.48,2.49-.3.3-.58-.28-1.36-.7-1.68-1.63-1.26-4.75-1.75-6.71-2.3a65,65,0,0,0-30.44-1.11Z" style="fill:#455d68"/><path d="M191.59,171.51a33.83,33.83,0,0,1-16.65-1.44,22.23,22.23,0,0,1-12.37-10.87,9.88,9.88,0,0,0,2.11,6.5,17,17,0,0,0,5.39,4.22C176.83,173.5,184.52,174.43,191.59,171.51Z" style="fill:#9fc0cc"/><path d="M218.86,187.6a14.81,14.81,0,0,0-5.71-1.65c-1.61,0-3.19.5-4.79.49a2.81,2.81,0,0,1-3.05-3.65c.95,1.37,2.62,1.81,4.28,2s3.35,0,5,.34S218.18,186.07,218.86,187.6Z" style="fill:#9fc0cc"/><path d="M262.16,190.7a219.42,219.42,0,0,0-28.49,18.89C244.83,206.11,255.42,197.83,262.16,190.7Z" style="fill:#1a2b32"/><path d="M278.72,94.87a71.47,71.47,0,0,1,3.8,26.23,48.46,48.46,0,0,1-2.51-7.76c-.73-2.65-2.08-5.37-4.56-6.58a8.83,8.83,0,0,0-5-.61c-1.69.22-3.34.72-5,1.07a16.22,16.22,0,0,1-5.24.35,8.71,8.71,0,0,1-4.77-2A49.73,49.73,0,0,1,276.2,94.08C277.25,93.8,278.37,93.84,278.72,94.87Z" style="fill:#1a2b32"/><path d="M299.57,130.16a11.26,11.26,0,0,1,0,12.72,14.47,14.47,0,0,0-7.47-14.3c-.84-.46-3.89-1.27-2.25-2.74,1.05-.93,4.07.24,5.16.71A10.8,10.8,0,0,1,299.57,130.16Z" style="fill:#1a2b32"/><path d="M278.38,190.27c-.63,3.63-.11,7.57-2.18,10.62a50.75,50.75,0,0,1-8.46,9.58A67.45,67.45,0,0,0,274.5,201,32.65,32.65,0,0,0,278.38,190.27Z" style="fill:#1a2b32"/></g></svg>