<svg id="Layer_1" data-name="Layer 1" xmlns="http://www.w3.org/2000/svg" viewBox="0 0 417 417"><title>microphone</title><path d="M232.23,202v8.13H209.38a2.54,2.54,0,0,1-2.55-2.53v-3a2.55,2.55,0,0,1,2.54-2.55h22.86Z" style="fill:#fff"/><path d="M232.55,209.84l-21.32,0a4.06,4.06,0,0,1-4.06-4.06h25.38Z" style="fill:#cad0d8"/><path d="M205.82,205.76a5.76,5.76,0,0,1,5.75-5.75h23v11.51h-23A5.75,5.75,0,0,1,205.82,205.76Zm25.37-2.35H211.57a2.37,2.37,0,0,0,0,4.74h19.62Z" style="fill:#0b0c0c"/><path d="M267.87,157.58a6.87,6.87,0,0,1,6.82-6.85l45.92,0a6.8,6.8,0,0,1,4.95,11.46l-15.37,16.35a1.69,1.69,0,0,1-2.47-2.31l15.38-16.36a3.41,3.41,0,0,0-2.49-5.75l-45.92,0a3.42,3.42,0,0,0-2.42,5.83l16.17,16.18a1.69,1.69,0,1,1-2.34,2.44l-.06,0-16.16-16.18A6.71,6.71,0,0,1,267.87,157.58Z" style="fill:#0b0c0c"/><path d="M267.83,254.25a6.73,6.73,0,0,1,2-4.76L286,233.33a1.68,1.68,0,0,1,2.39,0,1.7,1.7,0,0,1,0,2.34l-16.19,16.17a3.42,3.42,0,0,0,2.42,5.83h45.92a3.41,3.41,0,0,0,2.5-5.73l-15.35-16.38a1.69,1.69,0,0,1,2.47-2.31h0l15.35,16.37a6.8,6.8,0,0,1-5,11.45l-45.93,0a6.69,6.69,0,0,1-6.28-4.2A7.09,7.09,0,0,1,267.83,254.25Z" style="fill:#0b0c0c"/><path d="M307.24,234.42a1.7,1.7,0,0,1,.84-1.47L354.77,206l-46.66-27a1.69,1.69,0,0,1,1.69-2.93L361.54,206l-51.75,29.84a1.7,1.7,0,0,1-2.54-1.47Z" style="fill:#0b0c0c"/><path d="M234.75,206l51.75-29.86a1.69,1.69,0,0,1,1.7,2.93L241.51,206l46.67,27a1.7,1.7,0,0,1-1.7,2.94Z" style="fill:#0b0c0c"/><path d="M341.19,233.5l-89.2,0a15.25,15.25,0,0,1-1.66-.09c-.27,0-.54-.06-.81-.1a14.39,14.39,0,0,1-2-.43l-.78-.23-.38-.13a17.09,17.09,0,0,1-2.48-1.19l-.66-.4c-.33-.22-.66-.44-1-.67s-.62-.48-.93-.73a16.22,16.22,0,0,1-5.6-12.27V194.5c0-.14,0-.28,0-.42a1.62,1.62,0,0,1,0-.22,2.72,2.72,0,0,1,0-.28c0-.33,0-.65.08-1l.06-.44c0-.14,0-.28.07-.42.07-.43.16-.87.27-1.29,0-.13.07-.27.11-.39s0-.15.06-.22.08-.24.11-.35.09-.27.14-.4.11-.3.16-.45c.17-.42.35-.82.55-1.22a3.68,3.68,0,0,1,.23-.44l.19-.35c.07-.13.14-.26.22-.39l.23-.37.25-.38c.16-.23.33-.45.49-.69l0,0c.17-.23.35-.46.53-.68s.2-.24.31-.35l.29-.32.31-.32.31-.31.33-.3.33-.3.34-.28A16.14,16.14,0,0,1,252,178.29l89.2,0Z" style="fill:#fff"/><rect x="231.88" y="188.62" width="5.08" height="34.81" rx="2.54" ry="2.54" style="fill:#fff"/><path d="M233.19,223.42a2.57,2.57,0,0,1-.73-.1,2.53,2.53,0,0,0,1.81-2.43l0-29.75a2.54,2.54,0,0,0-1.81-2.43,2.53,2.53,0,0,1,3.14,1.74,2.44,2.44,0,0,1,.1.71v29.72a2.54,2.54,0,0,1-2.54,2.54Z" style="fill:#cad0d8"/><path d="M230.69,220.88V191.16a3.73,3.73,0,0,1,7.45-.14V220.9a3.73,3.73,0,0,1-7.45,0Zm5.09-29.73a1.36,1.36,0,1,0-2.71,0h0v29.74a1.36,1.36,0,0,0,2.71,0Z" style="fill:#0b0c0c"/><path d="M272,234.86a2.24,2.24,0,0,0,.52.16,1.87,1.87,0,0,1-.43-2.2L281.69,213a1.84,1.84,0,0,1,1.07-1,1.88,1.88,0,0,1,.91-.08,1.88,1.88,0,0,0-2.65.12,2.21,2.21,0,0,0-.3.45l-9.56,19.78a1.87,1.87,0,0,0,.87,2.5Z" style="fill:#cad0d8"/><path d="M264.27,234.84a1.87,1.87,0,0,0,.52.17,1.87,1.87,0,0,1-.43-2.2L273.92,213a1.84,1.84,0,0,1,1.07-1,1.88,1.88,0,0,1,.91-.08,1.88,1.88,0,0,0-2.65.12,2.21,2.21,0,0,0-.3.45l-9.56,19.78a1.87,1.87,0,0,0,.87,2.5Z" style="fill:#cad0d8"/><path d="M256.49,234.86a1.85,1.85,0,0,0,.52.16,1.87,1.87,0,0,1-.43-2.2L266.14,213a1.86,1.86,0,0,1,2-1,1.88,1.88,0,0,0-2.65.13,1.9,1.9,0,0,0-.3.44l-9.54,19.77a1.86,1.86,0,0,0,.84,2.51Z" style="fill:#cad0d8"/><path d="M296.08,234.86a2,2,0,0,0,.52.16,1.86,1.86,0,0,1-.42-2.2L305.73,213a1.84,1.84,0,0,1,1.07-1,1.88,1.88,0,0,1,.91-.08,1.88,1.88,0,0,0-2.65.12,2.21,2.21,0,0,0-.3.45l-9.55,19.78a1.86,1.86,0,0,0,.86,2.5Z" style="fill:#cad0d8"/><path d="M288.3,234.86a1.85,1.85,0,0,0,.52.16,1.88,1.88,0,0,1-.43-2.2L298,213a1.88,1.88,0,0,1,1.07-.95,1.8,1.8,0,0,1,.92-.08,1.87,1.87,0,0,0-2.65.12,1.77,1.77,0,0,0-.3.45l-9.56,19.78a1.87,1.87,0,0,0,.86,2.5Z" style="fill:#cad0d8"/><path d="M280.52,234.85a1.8,1.8,0,0,0,.51.17,1.88,1.88,0,0,1-.42-2.2L290.16,213a1.87,1.87,0,0,1,1.07-1,1.92,1.92,0,0,1,.92-.08,1.88,1.88,0,0,0-2.65.12,1.86,1.86,0,0,0-.3.45l-9.56,19.78a1.87,1.87,0,0,0,.87,2.5Z" style="fill:#cad0d8"/><path d="M295.77,175.8a1.56,1.56,0,0,1,.52-.15,1.88,1.88,0,0,0-.43,2.2l9.54,19.79a1.91,1.91,0,0,0,1.08,1,1.87,1.87,0,0,0,.91.1,1.89,1.89,0,0,1-2.65-.13,2,2,0,0,1-.3-.46l-9.54-19.79a1.87,1.87,0,0,1,.85-2.51Z" style="fill:#cad0d8"/><path d="M288,175.79a1.82,1.82,0,0,1,.52-.14,1.88,1.88,0,0,0-.43,2.2l9.54,19.78a1.91,1.91,0,0,0,1.07,1,1.81,1.81,0,0,0,.92.09,1.87,1.87,0,0,1-2.65-.13,1.68,1.68,0,0,1-.3-.45l-9.54-19.79a1.87,1.87,0,0,1,.85-2.51Z" style="fill:#cad0d8"/><path d="M280.2,175.79a1.56,1.56,0,0,1,.52-.15,1.88,1.88,0,0,0-.42,2.2l9.54,19.79a1.83,1.83,0,0,0,1.07,1,1.92,1.92,0,0,0,.92.1,1.89,1.89,0,0,1-2.66-.13,2,2,0,0,1-.3-.46l-9.54-19.79a1.86,1.86,0,0,1,.85-2.5Z" style="fill:#cad0d8"/><path d="M398.08,233.52l-55.87,0,0-55.17,55.87,0a5.22,5.22,0,0,1,5.22,5.22h0l0,44.72A5.23,5.23,0,0,1,398.08,233.52Z" style="fill:#566366"/><path d="M398.41,233.52l-55.86,0,0-55.18h2.63l3.5,35.36a15.57,15.57,0,0,0,14.46,14l40.07,2.63A5.25,5.25,0,0,1,398.41,233.52Z" style="fill:#4b5b5e;opacity:0.6000000238418579;isolation:isolate"/><path d="M327.32,232.89a5.63,5.63,0,0,1-1.36-.17,4.16,4.16,0,0,0,3.39-3.81l0-46.68a3.66,3.66,0,0,0-1.39-2.81,5,5,0,0,0-2-1,5.54,5.54,0,0,1,1.35-.16,5.22,5.22,0,0,1,3.35,1.17,3.68,3.68,0,0,1,1.39,2.82V228.9C332.05,231.11,329.93,232.89,327.32,232.89Z" style="fill:#cad0d8"/><path d="M272.07,176.8a2.46,2.46,0,0,1,.53-.15,1.87,1.87,0,0,0-.43,2.2l9.54,19.79a1.9,1.9,0,0,0,2,1.05,1.87,1.87,0,0,1-2.65-.13,2,2,0,0,1-.31-.45l-9.54-19.79a1.88,1.88,0,0,1,.86-2.51Z" style="fill:#cad0d8"/><path d="M264.29,176.8a1.63,1.63,0,0,1,.52-.15,1.88,1.88,0,0,0-.42,2.2l9.54,19.79a1.85,1.85,0,0,0,1.07,1,1.92,1.92,0,0,0,.92.1,1.87,1.87,0,0,1-2.65-.13,1.77,1.77,0,0,1-.31-.46l-9.54-19.78a1.88,1.88,0,0,1,.86-2.51Z" style="fill:#cad0d8"/><path d="M256.51,176.8a1.56,1.56,0,0,1,.52-.15,1.88,1.88,0,0,0-.43,2.2l9.54,19.79a1.89,1.89,0,0,0,1.07,1,1.93,1.93,0,0,0,.92.1,1.89,1.89,0,0,1-2.65-.13,2,2,0,0,1-.3-.46l-9.54-19.79a1.87,1.87,0,0,1,.85-2.51Z" style="fill:#cad0d8"/><path d="M342.21,233.5l-89.2,0a16.22,16.22,0,0,1-16.22-16.23h0V194.51a16.18,16.18,0,0,1,6-12.6,16,16,0,0,0-1.43,6.68v22.72a16.21,16.21,0,0,0,16.21,16.23h0l84.63,0Z" style="fill:#cad0d8"/><path d="M299.84,179.29V180h.36Zm-11.64-.23-.57.32-.5.29-.57.33h2.13l-.46-1Zm11.61,53.09.17-.36h-.17Zm-12.12-.36h-1.54l.73.42.48.28.62.36.18.1.13.09a1,1,0,0,1,.09-.21l.5-1h-1.19Zm110.39-55.13-27.68,0h-2l-1,0H296.22l-.5,0h-5l-1.3,0h-5.27l-.06,0h-31a17.64,17.64,0,0,0-6.84,1.35,18,18,0,0,0-9.84,10c-.16.37-.29.76-.42,1.14s-.23.8-.33,1.21l0,.12a18.11,18.11,0,0,0-.47,4.08V217.3a17.66,17.66,0,0,0,.5,4.29l0,.07L236,223a11.72,11.72,0,0,0,.42,1.14A17.94,17.94,0,0,0,253,235.23h15.09l1.15-.08H398.09a6.93,6.93,0,0,0,6.92-6.92l0-44.54v-.18a6.92,6.92,0,0,0-6.93-6.91Zm3.54,6.92v44.7a3.49,3.49,0,0,1-.56,1.9,3.55,3.55,0,0,1-3,1.63h-111l-.94,0H253a14.54,14.54,0,0,1-14.53-14.54v-9.09h0V194.51a14.41,14.41,0,0,1,3.18-9.06h0A14.51,14.51,0,0,1,253.06,180h145a3.53,3.53,0,0,1,3.53,3.47Zm-113.11,48.2h-2.36l.73.42.48.28.62.36.18.1a.6.6,0,0,1,.13.09,2.2,2.2,0,0,1,.09-.21l.5-1Zm11.31,0v.36l.17-.36ZM288.23,179h0l-.56.33-.51.29-.56.32h2.13Zm11.61.25V180h.36Z" style="fill:#0b0c0c"/><path d="M340.51,233.49l0-55.17a1.69,1.69,0,0,1,3.38,0l0,55.18a1.7,1.7,0,1,1-3.39,0Z" style="fill:#0b0c0c"/><rect x="332.75" y="173.43" width="9.48" height="64.98" rx="4.74" ry="4.74" style="fill:#fff"/><path d="M336.45,238.4a4.8,4.8,0,0,1-1.35-.2,4.74,4.74,0,0,0,3.39-4.53l0-55.5a4.75,4.75,0,0,0-1.39-3.36,4.82,4.82,0,0,0-2-1.19,4.75,4.75,0,0,1,5.89,3.19,5.13,5.13,0,0,1,.2,1.35l0,55.49a4.74,4.74,0,0,1-4.73,4.75Z" style="fill:#cad0d8"/><path d="M331,233.66l0-55.51a6.43,6.43,0,0,1,12.85-.65q0,.33,0,.66v55.51a6.43,6.43,0,0,1-12.85,0Zm9.5-55.5a3.05,3.05,0,0,0-6.1,0h0l0,55.51a3,3,0,0,0,6.09,0Z" style="fill:#0b0c0c"/><rect x="266.31" y="222.34" width="25.72" height="3.75" rx="1.87" ry="1.87" transform="translate(-44.16 378.06) rotate(-64.21)" style="fill:#fff"/><path d="M284.4,212.46a1.78,1.78,0,0,0-.51-.16,1.88,1.88,0,0,1,.42,2.2l-9.55,19.78a1.87,1.87,0,0,1-2,1,1.87,1.87,0,0,0,2.65-.13,1.9,1.9,0,0,0,.3-.44L285.28,215a1.89,1.89,0,0,0-.87-2.51Z" style="fill:#cad0d8"/><path d="M271.5,234.1a2.86,2.86,0,0,1,.29-1.25l9.56-19.78a2.89,2.89,0,0,1,5.25,2.41l-.05.11L277,235.37a2.89,2.89,0,0,1-5.49-1.27Zm13.3-19.77a.86.86,0,0,0-1.63-.38l-9.56,19.78a.86.86,0,1,0,1.52.82l0-.07,9.57-19.77a.92.92,0,0,0,.08-.38Z" style="fill:#0b0c0c"/><rect x="258.48" y="222.35" width="25.72" height="3.75" rx="1.87" ry="1.87" transform="translate(-48.59 371) rotate(-64.21)" style="fill:#fff"/><path d="M276.57,212.46a2,2,0,0,0-.52-.16,1.88,1.88,0,0,1,.43,2.2l-9.56,19.78a1.85,1.85,0,0,1-1.07.95,1.91,1.91,0,0,1-.92.09,1.89,1.89,0,0,0,3-.57L277.45,215a1.87,1.87,0,0,0-.88-2.5Z" style="fill:#cad0d8"/><path d="M263.67,234.1a2.86,2.86,0,0,1,.29-1.25l9.55-19.78a2.89,2.89,0,0,1,5.21,2.51l-9.56,19.78a2.89,2.89,0,0,1-5.49-1.26ZM277,214.33a.88.88,0,0,0-.87-.86.89.89,0,0,0-.77.48l-9.55,19.78a.86.86,0,1,0,1.51.82.25.25,0,0,0,0-.07l9.55-19.78a1,1,0,0,0,.1-.38Z" style="fill:#0b0c0c"/><rect x="250.65" y="222.34" width="25.72" height="3.75" rx="1.87" ry="1.87" transform="translate(-53.01 363.95) rotate(-64.21)" style="fill:#fff"/><path d="M268.74,212.47a1.85,1.85,0,0,0-.52-.16,1.87,1.87,0,0,1,.43,2.2l-9.56,19.78a1.86,1.86,0,0,1-2,1,1.87,1.87,0,0,0,2.65-.13,1.9,1.9,0,0,0,.3-.44L269.6,215A1.87,1.87,0,0,0,268.74,212.47Z" style="fill:#cad0d8"/><path d="M255.83,234.1a2.87,2.87,0,0,1,.29-1.26l9.56-19.78a2.89,2.89,0,1,1,5.2,2.52l-9.55,19.78a2.9,2.9,0,0,1-5.5-1.26Zm13.3-19.78a.86.86,0,0,0-1.63-.37L258,233.73a.86.86,0,0,0,1.52.82l0-.07,9.56-19.78a1,1,0,0,0,.08-.38Z" style="fill:#0b0c0c"/><rect x="290.35" y="222.36" width="25.72" height="3.75" rx="1.87" ry="1.87" transform="translate(-30.6 399.7) rotate(-64.21)" style="fill:#fff"/><path d="M308.44,212.47a2,2,0,0,0-.52-.16,1.88,1.88,0,0,1,.42,2.2l-9.55,19.78a1.87,1.87,0,0,1-1.07,1,1.92,1.92,0,0,1-.92.08,1.87,1.87,0,0,0,2.65-.13,1.63,1.63,0,0,0,.3-.44L309.31,215a1.87,1.87,0,0,0-.87-2.5Z" style="fill:#cad0d8"/><path d="M295.54,234.12a2.86,2.86,0,0,1,.29-1.25l9.55-19.78a2.89,2.89,0,1,1,5.38,2.12,2.53,2.53,0,0,1-.18.37L301,235.36a2.89,2.89,0,0,1-5.48-1.24Zm13.3-19.77a.87.87,0,0,0-1.64-.37l-9.55,19.78a.86.86,0,0,0,1.51.81.16.16,0,0,0,0-.07l9.55-19.78a.85.85,0,0,0,.09-.38Z" style="fill:#0b0c0c"/><rect x="282.51" y="222.35" width="25.72" height="3.75" rx="1.87" ry="1.87" transform="translate(-35.02 392.64) rotate(-64.21)" style="fill:#fff"/><path d="M300.6,212.47a1.85,1.85,0,0,0-.52-.16,1.87,1.87,0,0,1,.44,2.2L291,234.29a1.87,1.87,0,0,1-1.07,1,1.91,1.91,0,0,1-.92.08,1.89,1.89,0,0,0,2.66-.12,2.21,2.21,0,0,0,.3-.45l9.54-19.8A1.88,1.88,0,0,0,300.6,212.47Z" style="fill:#cad0d8"/><path d="M287.7,234.11a2.83,2.83,0,0,1,.29-1.25l9.55-19.78a2.89,2.89,0,0,1,5.21,2.51h0l-9.56,19.78a2.89,2.89,0,0,1-5.49-1.26ZM301,214.34a.87.87,0,0,0-1.64-.38l-9.55,19.78a.86.86,0,1,0,1.51.82l0-.07,9.57-19.79a.91.91,0,0,0,.08-.37Z" style="fill:#0b0c0c"/><rect x="274.68" y="222.35" width="25.72" height="3.75" rx="1.87" ry="1.87" transform="translate(-39.44 385.59) rotate(-64.21)" style="fill:#fff"/><path d="M292.77,212.47a2,2,0,0,0-.52-.17,1.89,1.89,0,0,1,.43,2.21l-9.56,19.78a1.89,1.89,0,0,1-1.07,1,1.91,1.91,0,0,1-.92.08,1.88,1.88,0,0,0,2.66-.12,1.77,1.77,0,0,0,.3-.45L293.64,215a1.87,1.87,0,0,0-.87-2.5Z" style="fill:#cad0d8"/><path d="M279.86,234.11a3,3,0,0,1,.29-1.26l9.56-19.78a2.89,2.89,0,0,1,5.21,2.52h0l-9.56,19.78a2.9,2.9,0,0,1-5.5-1.26Zm13.3-19.78a.86.86,0,0,0-1.63-.37L282,233.74a.86.86,0,0,0,1.52.81l0-.06,9.56-19.78a.85.85,0,0,0,.09-.38Z" style="fill:#0b0c0c"/><rect x="277.32" y="174.65" width="3.75" height="25.72" rx="1.87" ry="1.87" transform="translate(-53.73 139.88) rotate(-25.74)" style="fill:#fff"/><path d="M284.42,199.27a2.46,2.46,0,0,1-.53.15,1.87,1.87,0,0,0,.43-2.2l-9.54-19.79a1.9,1.9,0,0,0-2-1.05,1.87,1.87,0,0,1,2.65.13,2.06,2.06,0,0,1,.31.46l9.54,19.78a1.88,1.88,0,0,1-.86,2.51Z" style="fill:#cad0d8"/><path d="M271.52,177.62a2.9,2.9,0,0,1,5.5-1.26l9.54,19.79a2.89,2.89,0,0,1-1.35,3.86h0a2.89,2.89,0,0,1-3.86-1.35l-9.54-19.79A2.86,2.86,0,0,1,271.52,177.62Zm13.29,19.77a1,1,0,0,0-.08-.37l-9.54-19.78a.86.86,0,0,0-1.17-.35.85.85,0,0,0-.38,1.09l9.54,19.79a.86.86,0,0,0,1.14.39h0a.83.83,0,0,0,.44-.48,1.31,1.31,0,0,0,.06-.27Z" style="fill:#0b0c0c"/><rect x="269.48" y="174.64" width="3.75" height="25.72" rx="1.87" ry="1.87" transform="translate(-54.51 136.48) rotate(-25.74)" style="fill:#fff"/><path d="M276.57,199.27a2.38,2.38,0,0,1-.52.15,1.88,1.88,0,0,0,.42-2.2l-9.54-19.79a1.85,1.85,0,0,0-1.07-1,1.92,1.92,0,0,0-.92-.1,1.87,1.87,0,0,1,2.65.13,1.77,1.77,0,0,1,.31.46l9.54,19.78a1.88,1.88,0,0,1-.86,2.51Z" style="fill:#cad0d8"/><path d="M263.69,177.62a2.9,2.9,0,0,1,5.5-1.26l9.54,19.79a2.88,2.88,0,0,1-1.35,3.85h0a2.88,2.88,0,0,1-3.86-1.35L264,178.87A2.86,2.86,0,0,1,263.69,177.62ZM277,197.39a1,1,0,0,0-.08-.37l-9.55-19.79a.84.84,0,0,0-1.16-.34.86.86,0,0,0-.39,1.09l9.54,19.79a.86.86,0,0,0,1.15.38h0a.83.83,0,0,0,.44-.48.76.76,0,0,0,.05-.27Z" style="fill:#0b0c0c"/><rect x="261.65" y="174.64" width="3.75" height="25.72" rx="1.87" ry="1.87" transform="translate(-55.28 133.08) rotate(-25.74)" style="fill:#fff"/><path d="M268.74,199.27a1.56,1.56,0,0,1-.52.15,1.88,1.88,0,0,0,.43-2.2l-9.54-19.79a1.85,1.85,0,0,0-1.07-1,1.93,1.93,0,0,0-.92-.1,1.88,1.88,0,0,1,2.65.13,2,2,0,0,1,.3.46l9.54,19.79a1.86,1.86,0,0,1-.85,2.5Z" style="fill:#cad0d8"/><path d="M255.85,177.6a2.89,2.89,0,0,1,5.49-1.26l9.54,19.79a2.89,2.89,0,0,1-1.34,3.86h0a2.89,2.89,0,0,1-3.86-1.35l-9.54-19.79A2.86,2.86,0,0,1,255.85,177.6Zm13.29,19.78a1,1,0,0,0-.08-.38l-9.54-19.78a.86.86,0,0,0-1.17-.35A.85.85,0,0,0,258,178l9.54,19.79a.85.85,0,0,0,1.14.39h0a.86.86,0,0,0,.44-.48,1.1,1.1,0,0,0,.06-.26Z" style="fill:#0b0c0c"/><rect x="301.01" y="173.63" width="3.75" height="25.72" rx="1.87" ry="1.87" transform="translate(-50.94 150.07) rotate(-25.74)" style="fill:#fff"/><path d="M308.1,198.26a1.56,1.56,0,0,1-.52.15,1.88,1.88,0,0,0,.42-2.2l-9.54-19.79a1.86,1.86,0,0,0-1.07-.95,1.92,1.92,0,0,0-.92-.1,1.89,1.89,0,0,1,2.66.13,2,2,0,0,1,.3.46L309,195.75a1.86,1.86,0,0,1-.85,2.5Z" style="fill:#cad0d8"/><path d="M295.21,176.61a2.89,2.89,0,0,1,5.5-1.25l9.54,19.78A2.88,2.88,0,0,1,308.9,199h0a2.88,2.88,0,0,1-3.85-1.35l-9.54-19.78A3,3,0,0,1,295.21,176.61Zm13.29,19.78a.77.77,0,0,0-.08-.37l-9.54-19.79a.86.86,0,0,0-1.55.75l9.54,19.78a.84.84,0,0,0,1.14.39h0a.85.85,0,0,0,.45-.48,1.28,1.28,0,0,0,.05-.27Z" style="fill:#0b0c0c"/><rect x="293.17" y="173.64" width="3.75" height="25.72" rx="1.87" ry="1.87" transform="translate(-51.72 146.67) rotate(-25.74)" style="fill:#fff"/><path d="M300.27,198.26a2.46,2.46,0,0,1-.53.15,1.87,1.87,0,0,0,.43-2.2l-9.54-19.79a1.85,1.85,0,0,0-1.07-.95,1.81,1.81,0,0,0-.92-.1,1.87,1.87,0,0,1,2.65.13,2.06,2.06,0,0,1,.31.46l9.54,19.78a1.88,1.88,0,0,1-.86,2.51Z" style="fill:#cad0d8"/><path d="M287.38,176.61a2.9,2.9,0,0,1,5.5-1.26l9.54,19.79a2.89,2.89,0,0,1-1.35,3.86h0a2.89,2.89,0,0,1-3.86-1.35l-9.54-19.79A2.86,2.86,0,0,1,287.38,176.61Zm13.29,19.78a1,1,0,0,0-.08-.38l-9.54-19.78a.87.87,0,0,0-1.19-.29.89.89,0,0,0-.36,1L299,196.76a.86.86,0,0,0,1.15.38h0a.87.87,0,0,0,.44-.48,1.09,1.09,0,0,0,.05-.26Z" style="fill:#0b0c0c"/><rect x="285.34" y="173.63" width="3.75" height="25.72" rx="1.87" ry="1.87" transform="translate(-52.49 143.27) rotate(-25.74)" style="fill:#fff"/><path d="M292.43,198.26a1.82,1.82,0,0,1-.52.14,1.88,1.88,0,0,0,.43-2.2l-9.54-19.78a1.91,1.91,0,0,0-1.07-1,1.81,1.81,0,0,0-.92-.09,1.87,1.87,0,0,1,2.65.13,2,2,0,0,1,.3.45l9.54,19.79a1.87,1.87,0,0,1-.85,2.51Z" style="fill:#cad0d8"/><path d="M279.55,176.61a2.89,2.89,0,0,1,5.49-1.26l9.54,19.79a2.89,2.89,0,0,1-1.35,3.86h0a2.89,2.89,0,0,1-3.86-1.35l-9.54-19.79A3,3,0,0,1,279.55,176.61Zm13.29,19.77a.92.92,0,0,0-.07-.36l-9.54-19.79a.86.86,0,0,0-1.55.75l9.54,19.79a.86.86,0,0,0,1.14.39h0a.87.87,0,0,0,.45-.49,1.27,1.27,0,0,0,0-.28Z" style="fill:#0b0c0c"/><path d="M359.14,233.68l0-55.5a4.74,4.74,0,0,1,4.74-4.74h0a4.74,4.74,0,0,1,4.73,4.74l0,55.5a4.74,4.74,0,0,1-4.74,4.74h0A4.74,4.74,0,0,1,359.14,233.68Z" style="fill:#fff"/><path d="M362.85,238.41a4.46,4.46,0,0,1-1.35-.2,4.74,4.74,0,0,0,3.39-4.53l0-55.51a4.75,4.75,0,0,0-1.39-3.36,4.86,4.86,0,0,0-2-1.19,4.75,4.75,0,0,1,6.1,4.54l0,55.51A4.74,4.74,0,0,1,362.85,238.41Z" style="fill:#cad0d8"/><path d="M366.93,200.88v27.05l.68,0V203l-.68-2.39Zm-7.78,6.53v19.46a14.7,14.7,0,0,0,1.69.48V206.43Zm10.05-32.87a5.7,5.7,0,0,0-.42-.55l-.11-.13a6.42,6.42,0,0,0-9.07-.48l-.31.3-.05.06a6.38,6.38,0,0,0-1.59,2.9,6.51,6.51,0,0,0-.18,1.52v.17l0,1.7v53.65a6.44,6.44,0,0,0,11.44,4,6.35,6.35,0,0,0,1.42-4V178.17a6.35,6.35,0,0,0-1.12-3.63Zm-8.38,59.13v-55.5a3.06,3.06,0,0,1,3-3h.09a3,3,0,0,1,3.05,3v55.5a2.9,2.9,0,0,1-.42,1.52,3,3,0,0,1-2.63,1.53h-.09a3,3,0,0,1-2.95-3Z" style="fill:#0b0c0c"/><rect x="394.21" y="184.93" width="1.82" height="5.42" rx="0.57" ry="0.57" style="fill:#0b0c0c"/><rect x="394.21" y="192.32" width="1.82" height="5.42" rx="0.57" ry="0.57" style="fill:#0b0c0c"/><rect x="394.21" y="199.69" width="1.82" height="5.42" rx="0.57" ry="0.57" style="fill:#0b0c0c"/><rect x="395.27" y="207.1" width="1.81" height="5.4" rx="0.57" ry="0.57" transform="translate(-0.5 0.94) rotate(-0.14)" style="fill:#0b0c0c"/><rect x="394.2" y="214.45" width="1.82" height="5.42" rx="0.57" ry="0.57" style="fill:#0b0c0c"/><rect x="394.2" y="221.83" width="1.82" height="5.42" rx="0.57" ry="0.57" style="fill:#0b0c0c"/><rect x="391.35" y="184.93" width="1.82" height="5.42" rx="0.57" ry="0.57" style="fill:#0b0c0c"/><rect x="391.35" y="192.31" width="1.82" height="5.42" rx="0.57" ry="0.57" style="fill:#0b0c0c"/><rect x="391.35" y="199.69" width="1.82" height="5.42" rx="0.57" ry="0.57" style="fill:#0b0c0c"/><rect x="391.35" y="207.07" width="1.82" height="5.42" rx="0.57" ry="0.57" style="fill:#0b0c0c"/><rect x="392.41" y="214.5" width="1.81" height="5.4" rx="0.57" ry="0.57" transform="matrix(1, 0, 0, 1, -0.51, 0.93)" style="fill:#0b0c0c"/><rect x="391.34" y="221.82" width="1.82" height="5.42" rx="0.57" ry="0.57" style="fill:#0b0c0c"/><rect x="388.49" y="184.93" width="1.82" height="5.42" rx="0.57" ry="0.57" style="fill:#0b0c0c"/><rect x="388.49" y="192.31" width="1.82" height="5.42" rx="0.57" ry="0.57" style="fill:#0b0c0c"/><rect x="388.49" y="199.69" width="1.82" height="5.42" rx="0.57" ry="0.57" style="fill:#0b0c0c"/><rect x="389.52" y="207.1" width="1.81" height="5.4" rx="0.57" ry="0.57" transform="translate(-0.5 0.93) rotate(-0.14)" style="fill:#0b0c0c"/><rect x="388.48" y="214.45" width="1.82" height="5.42" rx="0.57" ry="0.57" style="fill:#0b0c0c"/><rect x="388.48" y="221.83" width="1.82" height="5.42" rx="0.57" ry="0.57" style="fill:#0b0c0c"/><rect x="385.63" y="184.93" width="1.82" height="5.42" rx="0.57" ry="0.57" style="fill:#0b0c0c"/><rect x="385.63" y="192.31" width="1.82" height="5.42" rx="0.57" ry="0.57" style="fill:#0b0c0c"/><rect x="385.63" y="199.69" width="1.82" height="5.42" rx="0.57" ry="0.57" style="fill:#0b0c0c"/><rect x="385.62" y="207.06" width="1.82" height="5.42" rx="0.57" ry="0.57" style="fill:#0b0c0c"/><rect x="385.62" y="214.45" width="1.82" height="5.42" rx="0.57" ry="0.57" style="fill:#0b0c0c"/><rect x="385.62" y="221.82" width="1.82" height="5.42" rx="0.57" ry="0.57" style="fill:#0b0c0c"/><rect x="382.77" y="184.93" width="1.82" height="5.42" rx="0.57" ry="0.57" style="fill:#0b0c0c"/><rect x="382.77" y="192.31" width="1.82" height="5.42" rx="0.57" ry="0.57" style="fill:#0b0c0c"/><rect x="382.77" y="199.69" width="1.82" height="5.42" rx="0.57" ry="0.57" style="fill:#0b0c0c"/><rect x="382.76" y="207.07" width="1.82" height="5.42" rx="0.57" ry="0.57" style="fill:#0b0c0c"/><rect x="382.76" y="214.44" width="1.82" height="5.42" rx="0.57" ry="0.57" style="fill:#0b0c0c"/><rect x="382.76" y="221.82" width="1.82" height="5.42" rx="0.57" ry="0.57" style="fill:#0b0c0c"/><rect x="379.91" y="184.93" width="1.82" height="5.42" rx="0.57" ry="0.57" style="fill:#0b0c0c"/><rect x="379.9" y="192.31" width="1.82" height="5.42" rx="0.57" ry="0.57" style="fill:#0b0c0c"/><rect x="380.9" y="199.71" width="1.81" height="5.4" rx="0.57" ry="0.57" transform="translate(-0.48 0.91) rotate(-0.14)" style="fill:#0b0c0c"/><rect x="379.9" y="207.06" width="1.82" height="5.42" rx="0.57" ry="0.57" style="fill:#0b0c0c"/><rect x="379.9" y="214.44" width="1.82" height="5.42" rx="0.57" ry="0.57" style="fill:#0b0c0c"/><rect x="379.89" y="221.82" width="1.82" height="5.42" rx="0.57" ry="0.57" style="fill:#0b0c0c"/><rect x="377.04" y="184.93" width="1.82" height="5.42" rx="0.57" ry="0.57" style="fill:#0b0c0c"/><rect x="377.04" y="192.31" width="1.82" height="5.42" rx="0.57" ry="0.57" style="fill:#0b0c0c"/><rect x="377.04" y="199.68" width="1.82" height="5.42" rx="0.57" ry="0.57" style="fill:#0b0c0c"/><rect x="378.04" y="207.12" width="1.81" height="5.4" rx="0.57" ry="0.57" transform="translate(-0.5 0.9) rotate(-0.14)" style="fill:#0b0c0c"/><rect x="377.04" y="214.44" width="1.82" height="5.42" rx="0.57" ry="0.57" style="fill:#0b0c0c"/><rect x="377.03" y="221.82" width="1.82" height="5.42" rx="0.57" ry="0.57" style="fill:#0b0c0c"/><rect x="374.18" y="184.93" width="1.82" height="5.42" rx="0.57" ry="0.57" style="fill:#0b0c0c"/><rect x="374.18" y="192.31" width="1.82" height="5.42" rx="0.57" ry="0.57" style="fill:#0b0c0c"/><rect x="374.18" y="199.68" width="1.82" height="5.42" rx="0.57" ry="0.57" style="fill:#0b0c0c"/><rect x="374.18" y="207.06" width="1.82" height="5.42" rx="0.57" ry="0.57" style="fill:#0b0c0c"/><rect x="374.18" y="214.44" width="1.82" height="5.42" rx="0.57" ry="0.57" style="fill:#0b0c0c"/><rect x="374.17" y="221.82" width="1.82" height="5.42" rx="0.57" ry="0.57" style="fill:#0b0c0c"/><rect x="371.32" y="184.93" width="1.82" height="5.42" rx="0.57" ry="0.57" style="fill:#0b0c0c"/><rect x="371.32" y="192.31" width="1.82" height="5.42" rx="0.57" ry="0.57" style="fill:#0b0c0c"/><rect x="371.32" y="199.68" width="1.82" height="5.42" rx="0.57" ry="0.57" style="fill:#0b0c0c"/><rect x="372.3" y="207.13" width="1.81" height="5.4" rx="0.57" ry="0.57" transform="translate(-0.5 0.89) rotate(-0.14)" style="fill:#0b0c0c"/><rect x="371.31" y="214.44" width="1.82" height="5.42" rx="0.57" ry="0.57" style="fill:#0b0c0c"/><rect x="371.31" y="221.82" width="1.82" height="5.42" rx="0.57" ry="0.57" style="fill:#0b0c0c"/><rect x="354.28" y="184.92" width="1.82" height="5.42" rx="0.57" ry="0.57" style="fill:#0b0c0c"/><rect x="354.27" y="192.3" width="1.82" height="5.42" rx="0.57" ry="0.57" style="fill:#0b0c0c"/><rect x="354.27" y="199.68" width="1.82" height="5.42" rx="0.57" ry="0.57" style="fill:#0b0c0c"/><rect x="354.27" y="207.06" width="1.82" height="5.42" rx="0.57" ry="0.57" style="fill:#0b0c0c"/><rect x="354.26" y="214.43" width="1.82" height="5.42" rx="0.57" ry="0.57" style="fill:#0b0c0c"/><rect x="354.27" y="221.81" width="1.82" height="5.42" rx="0.57" ry="0.57" style="fill:#0b0c0c"/><rect x="352.29" y="184.95" width="1.81" height="5.4" rx="0.57" ry="0.57" transform="translate(-0.44 0.84) rotate(-0.14)" style="fill:#0b0c0c"/><rect x="351.41" y="192.3" width="1.82" height="5.42" rx="0.57" ry="0.57" style="fill:#0b0c0c"/><rect x="351.41" y="199.68" width="1.82" height="5.42" rx="0.57" ry="0.57" style="fill:#0b0c0c"/><rect x="351.41" y="207.05" width="1.82" height="5.42" rx="0.57" ry="0.57" style="fill:#0b0c0c"/><rect x="351.41" y="214.43" width="1.82" height="5.42" rx="0.57" ry="0.57" style="fill:#0b0c0c"/><rect x="351.4" y="221.81" width="1.82" height="5.42" rx="0.57" ry="0.57" style="fill:#0b0c0c"/><rect x="348.55" y="184.92" width="1.82" height="5.42" rx="0.57" ry="0.57" style="fill:#0b0c0c"/><rect x="349.43" y="192.36" width="1.81" height="5.4" rx="0.57" ry="0.57" transform="translate(-0.46 0.83) rotate(-0.14)" style="fill:#0b0c0c"/><rect x="349.44" y="199.76" width="1.81" height="5.4" rx="0.57" ry="0.57" transform="translate(-0.48 0.83) rotate(-0.14)" style="fill:#0b0c0c"/><rect x="348.54" y="207.05" width="1.82" height="5.42" rx="0.57" ry="0.57" style="fill:#0b0c0c"/><rect x="348.54" y="214.43" width="1.82" height="5.42" rx="0.57" ry="0.57" style="fill:#0b0c0c"/><rect x="348.54" y="221.81" width="1.82" height="5.42" rx="0.57" ry="0.57" style="fill:#0b0c0c"/><rect x="345.69" y="184.92" width="1.82" height="5.42" rx="0.57" ry="0.57" style="fill:#0b0c0c"/><rect x="345.69" y="192.29" width="1.82" height="5.42" rx="0.57" ry="0.57" style="fill:#0b0c0c"/><rect x="345.69" y="199.68" width="1.82" height="5.42" rx="0.57" ry="0.57" style="fill:#0b0c0c"/><rect x="345.68" y="207.05" width="1.82" height="5.42" rx="0.57" ry="0.57" style="fill:#0b0c0c"/><rect x="345.68" y="214.43" width="1.82" height="5.42" rx="0.57" ry="0.57" style="fill:#0b0c0c"/><rect x="345.68" y="221.81" width="1.82" height="5.42" rx="0.57" ry="0.57" style="fill:#0b0c0c"/><path d="M310.74,205.9a7.11,7.11,0,1,1,7.11,7.11h0A7.12,7.12,0,0,1,310.74,205.9Zm10.83,0a3.72,3.72,0,1,0-3.72,3.72h0a3.72,3.72,0,0,0,3.72-3.73Z" style="fill:#0b0c0c"/></svg>