<svg xmlns="http://www.w3.org/2000/svg" xmlns:xlink="http://www.w3.org/1999/xlink" viewBox="0 0 150 186"><defs><linearGradient id="linear-gradient" x1="-30365.96" y1="11531.48" x2="-30355.08" y2="11510.12" gradientTransform="matrix(1, 0, 0, -1, 30452, 11693)" gradientUnits="userSpaceOnUse"><stop offset="0" stop-color="#d7b875"/><stop offset="0.15" stop-color="#e3ca83"/><stop offset="0.34" stop-color="#efdb90"/><stop offset="0.48" stop-color="#f3e195"/><stop offset="0.63" stop-color="#f0db91"/><stop offset="0.83" stop-color="#e6cb84"/><stop offset="1" stop-color="#dbb775"/></linearGradient><linearGradient id="linear-gradient-2" x1="-30365.96" y1="11624.48" x2="-30355.08" y2="11603.12" xlink:href="#linear-gradient"/><linearGradient id="linear-gradient-3" x1="-30440.96" y1="-43990.52" x2="-30430.08" y2="-44011.88" gradientTransform="translate(30452 44032)" xlink:href="#linear-gradient"/><linearGradient id="linear-gradient-4" x1="-30440.96" y1="-43897.52" x2="-30430.08" y2="-43918.88" gradientTransform="translate(30452 44032)" xlink:href="#linear-gradient"/><pattern id="New_Pattern_Swatch_2" data-name="New Pattern Swatch 2" width="150" height="187" patternTransform="matrix(1, 0, 0, -1, 124, 1032)" patternUnits="userSpaceOnUse" viewBox="0 0 150 187"><rect width="150" height="187" style="fill:none"/><rect width="150" height="187" style="fill:none"/><path d="M0,187H88.83L75.29,167h27.08L88.83,187H150V1H0ZM75.29,74h27.08L88.83,94Zm-75,55,13.54-20,13.54,20Zm0-93L13.83,16,27.37,36Z" style="fill:none"/><polygon points="102.37 167 88.83 187 75.29 167 102.37 167" style="fill:#2b3f5e"/><polygon points="102.37 167 88.83 187 75.29 167 102.37 167" style="fill:url(#linear-gradient)"/><polygon points="88.83 94 75.29 74 102.37 74 88.83 94" style="fill:#2b3f5e"/><polygon points="88.83 94 75.29 74 102.37 74 88.83 94" style="fill:url(#linear-gradient-2)"/><polygon points="27.37 36 0.29 36 13.83 16 27.37 36" style="fill:#2b3f5e"/><polygon points="27.37 36 0.29 36 13.83 16 27.37 36" style="fill:url(#linear-gradient-3)"/><polygon points="27.37 129 0.29 129 13.83 109 27.37 129" style="fill:#2b3f5e"/><polygon points="27.37 129 0.29 129 13.83 109 27.37 129" style="fill:url(#linear-gradient-4)"/><path d="M0,186H88.83L75.29,166h27.08L88.83,186H150V0H0ZM75.29,73h27.08L88.83,93Zm-75,55,13.54-20,13.54,20Zm0-93L13.83,15,27.37,35Z" style="fill:none"/></pattern></defs><title>pattern</title><g id="Layer_2" data-name="Layer 2"><g id="Layer_1-2" data-name="Layer 1"><g id="Layer_2-2" data-name="Layer 2" style="opacity:0.1"><g id="Layer_1-2-2" data-name="Layer 1-2"><rect width="150" height="186" style="fill:url(#New_Pattern_Swatch_2)"/></g></g></g></g></svg>