<svg xmlns="http://www.w3.org/2000/svg" viewBox="0 0 121.39 255.17"><title>talky_wakly</title><g id="Layer_2" data-name="Layer 2"><g id="Layer_1-2" data-name="Layer 1"><rect id="_Path_" data-name="&lt;Path&gt;" x="75.66" y="58.34" width="11.47" height="13.56" transform="translate(-8.15 11.77) rotate(-7.87)" style="stroke:#000;stroke-linecap:round;stroke-linejoin:round;stroke-width:3.12934374114552px"/><path id="_Path_2" data-name="&lt;Path&gt;" d="M85.83,58.72,75.45,60.15a3.13,3.13,0,0,1-3.63-2.6L70.73,47.38a3.08,3.08,0,0,1,2.81-3.28l9.82-1.36a3.16,3.16,0,0,1,3.6,2.4l1.71,10.08A3.24,3.24,0,0,1,85.83,58.72Z" style="stroke:#000;stroke-linecap:round;stroke-linejoin:round;stroke-width:3.12934374114552px"/><path id="_Path_3" data-name="&lt;Path&gt;" d="M63.51,61.81,53.13,63.24a3.11,3.11,0,0,1-3.62-2.6l-1.1-10.17a3.1,3.1,0,0,1,2.81-3.29L61,45.83a3.16,3.16,0,0,1,3.6,2.39l1.71,10.09A3.21,3.21,0,0,1,63.51,61.81Z" style="stroke:#000;stroke-linecap:round;stroke-linejoin:round;stroke-width:3.12934374114552px"/><path id="_Path_4" data-name="&lt;Path&gt;" d="M34.67,66.85,18.14,69.13,11.29,7.43a4.85,4.85,0,0,1,4.16-5.32l3.62-.5a4.85,4.85,0,0,1,5.45,4Z" style="stroke:#000;stroke-linecap:round;stroke-linejoin:round;stroke-width:3.12934374114552px"/><rect id="_Path_5" data-name="&lt;Path&gt;" x="16.62" y="65.86" width="20.86" height="13.56" transform="translate(-9.7 4.39) rotate(-7.87)" style="stroke:#000;stroke-linecap:round;stroke-linejoin:round;stroke-width:3.12934374114552px"/><rect id="_Path_6" data-name="&lt;Path&gt;" x="53.6" y="61.39" width="11.47" height="13.56" transform="translate(-8.78 8.77) rotate(-7.87)" style="stroke:#000;stroke-linecap:round;stroke-linejoin:round;stroke-width:3.12934374114552px"/><path id="_Path_7" data-name="&lt;Path&gt;" d="M13.75,112.39a5.79,5.79,0,0,1-.78-2.26L10.32,91a11.59,11.59,0,0,1,7.4-12.39,165.9,165.9,0,0,1,71-9.82,11.49,11.49,0,0,1,10.48,9.92l2.65,19.12a6,6,0,0,1-.15,2.39Z" style="stroke:#000;stroke-linecap:round;stroke-linejoin:round;stroke-width:3.12934374114552px"/><path id="_Path_8" data-name="&lt;Path&gt;" d="M13.9,120.69,30.79,242.82c.72,5.17,4.37,8.77,9.28,9.2a143.13,143.13,0,0,0,18,.41,4.81,4.81,0,0,0,4-2.66,18.87,18.87,0,0,1,31.39-4.5A4.8,4.8,0,0,0,98,246.74,129.4,129.4,0,0,0,113.18,242a10.3,10.3,0,0,0,6.53-11.44l-16.9-122.13C73.79,104.14,40.68,108.72,13.9,120.69Z" style="stroke:#000;stroke-linecap:round;stroke-linejoin:round;stroke-width:3.12934374114552px"/><path id="_Path_9" data-name="&lt;Path&gt;" d="M105.36,111.93l-3-21.75a9.41,9.41,0,0,0-9.08-8.11A251.27,251.27,0,0,0,15.93,92.76,9.39,9.39,0,0,0,9.4,103l3,21.75a8.38,8.38,0,0,0,2.65,5.06,21.81,21.81,0,0,1,7.29,13.47l5.71,41.33a21.84,21.84,0,0,1-3.35,14.94,8,8,0,0,0-1.18,5.59l3,21.75a9.42,9.42,0,0,0,9.07,8.12A251.49,251.49,0,0,0,113,224.35a9.37,9.37,0,0,0,6.53-10.28l-3-21.75a8.43,8.43,0,0,0-2.65-5,21.86,21.86,0,0,1-7.29-13.47l-5.72-41.34a21.85,21.85,0,0,1,3.36-14.94A8.29,8.29,0,0,0,105.36,111.93Z" style="stroke:#000;stroke-linecap:round;stroke-linejoin:round;stroke-width:3.12934374114552px"/><path id="_Path_10" data-name="&lt;Path&gt;" d="M9.37,148.85l-.41.06a2.82,2.82,0,0,1-3.18-2.41h0a2.8,2.8,0,0,1,2.41-3.17l.41-.06a2.8,2.8,0,0,1,3.17,2.41h0A2.79,2.79,0,0,1,9.37,148.85Z" style="fill:#404041;stroke:#404041;stroke-linecap:round;stroke-linejoin:round;stroke-width:3.12934374114552px"/><path id="_Path_11" data-name="&lt;Path&gt;" d="M10.86,159.6l-.42.05a2.79,2.79,0,0,1-3.17-2.4h0a2.79,2.79,0,0,1,2.4-3.17l.41-.06a2.8,2.8,0,0,1,3.18,2.4h0A2.81,2.81,0,0,1,10.86,159.6Z" style="fill:#404041;stroke:#404041;stroke-linecap:round;stroke-linejoin:round;stroke-width:3.12934374114552px"/><rect id="_Path_12" data-name="&lt;Path&gt;" x="67.91" y="59.41" width="11.47" height="13.56" transform="translate(-8.37 10.72) rotate(-7.87)" style="fill:#635142"/><rect id="_Path_13" data-name="&lt;Path&gt;" x="73.62" y="59.02" width="5.74" height="13.56" transform="translate(-8.29 11.1) rotate(-7.87)" style="fill:#404041"/><rect id="_Path_14" data-name="&lt;Path&gt;" x="67.91" y="59.41" width="11.47" height="13.56" transform="translate(-8.37 10.72) rotate(-7.87)" style="fill:none;stroke:#404041;stroke-linecap:round;stroke-linejoin:round;stroke-width:3.12934374114552px"/><path id="_Path_15" data-name="&lt;Path&gt;" d="M78.08,59.79,67.7,61.23a3.13,3.13,0,0,1-3.63-2.61L63,48.45a3.08,3.08,0,0,1,2.81-3.28l9.82-1.36a3.16,3.16,0,0,1,3.6,2.4l1.71,10.08A3.24,3.24,0,0,1,78.08,59.79Z" style="fill:#705d4c"/><path id="_Path_16" data-name="&lt;Path&gt;" d="M66.55,59.38l-.78.06L64.5,47.24l.78-.05a1.88,1.88,0,0,1,2,1.61l.87,8.57A1.85,1.85,0,0,1,66.55,59.38Z" style="fill:#897160"/><path id="_Path_17" data-name="&lt;Path&gt;" d="M79.16,46.27a3.08,3.08,0,0,0-3.59-2.4L69,44.78a3.17,3.17,0,0,1,3.6,2.4l1.71,10.09a3.12,3.12,0,0,1-2.78,3.49l6.61-.92a3.11,3.11,0,0,0,2.78-3.49Z" style="fill:#635142;opacity:0.810000002384186;isolation:isolate"/><path id="_Path_18" data-name="&lt;Path&gt;" d="M78.08,59.79,67.7,61.23a3.13,3.13,0,0,1-3.63-2.61L63,48.45a3.08,3.08,0,0,1,2.81-3.28l9.82-1.36a3.16,3.16,0,0,1,3.6,2.4l1.71,10.08A3.24,3.24,0,0,1,78.08,59.79Z" style="fill:none;stroke:#404041;stroke-linecap:round;stroke-linejoin:round;stroke-width:3.12934374114552px"/><path id="_Path_19" data-name="&lt;Path&gt;" d="M55.77,62.88,45.38,64.31a3.11,3.11,0,0,1-3.62-2.6L40.67,51.54a3.09,3.09,0,0,1,2.81-3.29l9.81-1.35a3.15,3.15,0,0,1,3.6,2.4L58.6,59.38A3.21,3.21,0,0,1,55.77,62.88Z" style="fill:#705d4c"/><path id="_Path_20" data-name="&lt;Path&gt;" d="M44.23,62.47l-.78.06-1.27-12.2.78-.06a1.9,1.9,0,0,1,2,1.62l.87,8.57A1.85,1.85,0,0,1,44.23,62.47Z" style="fill:#897160"/><path id="_Path_21" data-name="&lt;Path&gt;" d="M56.84,49.35A3.07,3.07,0,0,0,53.25,47l-6.62.91a3.16,3.16,0,0,1,3.6,2.4l1.71,10.08a3.11,3.11,0,0,1-2.78,3.49l6.61-.91a3.12,3.12,0,0,0,2.78-3.49Z" style="fill:#635142;opacity:0.810000002384186;isolation:isolate"/><path id="_Path_22" data-name="&lt;Path&gt;" d="M55.77,62.88,45.38,64.31a3.11,3.11,0,0,1-3.62-2.6L40.67,51.54a3.09,3.09,0,0,1,2.81-3.29l9.81-1.35a3.15,3.15,0,0,1,3.6,2.4L58.6,59.38A3.21,3.21,0,0,1,55.77,62.88Z" style="fill:none;stroke:#404041;stroke-linecap:round;stroke-linejoin:round;stroke-width:3.12934374114552px"/><path id="_Path_23" data-name="&lt;Path&gt;" d="M26.92,67.92,10.39,70.21,3.54,8.5A4.86,4.86,0,0,1,7.7,3.18l3.62-.5a4.85,4.85,0,0,1,5.45,4Z" style="fill:#705d4c"/><path id="_Path_24" data-name="&lt;Path&gt;" d="M3.43,6.51a5.28,5.28,0,0,0,0,.89l7,62.8,4.29-.59s-5-45.07-6.53-59.39A4.23,4.23,0,0,0,3.43,6.51Z" style="fill:#897160"/><path id="_Path_25" data-name="&lt;Path&gt;" d="M5.45,4.81a4.84,4.84,0,0,1,5.45,4L21,68.73l6.51-.9L17.18,6.61a4.87,4.87,0,0,0-5.45-4l-3.61.5A4.89,4.89,0,0,0,5,4.87Z" style="fill:#635142;opacity:0.810000002384186;isolation:isolate"/><path id="_Path_26" data-name="&lt;Path&gt;" d="M26.92,67.92,10.39,70.21,3.54,8.5A4.86,4.86,0,0,1,7.7,3.18l3.62-.5a4.85,4.85,0,0,1,5.45,4Z" style="fill:none;stroke:#404041;stroke-linecap:round;stroke-linejoin:round;stroke-width:3.12934374114552px"/><rect id="_Path_27" data-name="&lt;Path&gt;" x="8.87" y="66.93" width="20.86" height="13.56" transform="translate(-9.92 3.34) rotate(-7.87)" style="fill:#635142"/><path id="_Path_28" data-name="&lt;Path&gt;" d="M11.47,78h0A1.93,1.93,0,0,1,9.3,76.36l-.76-5.48a1.92,1.92,0,0,1,1.64-2.17h0a1.92,1.92,0,0,1,2.18,1.64l.76,5.48A1.87,1.87,0,0,1,11.47,78Z" style="fill:#897160;opacity:0.75;isolation:isolate"/><rect id="_Path_29" data-name="&lt;Path&gt;" x="21.33" y="66.07" width="8.34" height="13.56" transform="matrix(0.99, -0.14, 0.14, 0.99, -9.74, 4.18)" style="fill:#404041"/><rect id="_Path_30" data-name="&lt;Path&gt;" x="8.87" y="66.93" width="20.86" height="13.56" transform="translate(-9.92 3.34) rotate(-7.87)" style="fill:none;stroke:#404041;stroke-linecap:round;stroke-linejoin:round;stroke-width:3.12934374114552px"/><rect id="_Path_31" data-name="&lt;Path&gt;" x="45.85" y="62.47" width="11.47" height="13.56" transform="translate(-9 7.72) rotate(-7.87)" style="fill:#635142"/><rect id="_Path_32" data-name="&lt;Path&gt;" x="51.56" y="62.07" width="5.74" height="13.56" transform="translate(-8.92 8.11) rotate(-7.87)" style="fill:#404041"/><rect id="_Path_33" data-name="&lt;Path&gt;" x="45.85" y="62.47" width="11.47" height="13.56" transform="translate(-9 7.72) rotate(-7.87)" style="fill:none;stroke:#404041;stroke-linecap:round;stroke-linejoin:round;stroke-width:3.12934374114552px"/><path id="_Path_34" data-name="&lt;Path&gt;" d="M6,113.46a5.79,5.79,0,0,1-.78-2.26L2.57,92.08A11.59,11.59,0,0,1,10,79.69a166.08,166.08,0,0,1,71-9.82,11.5,11.5,0,0,1,10.48,9.92l2.65,19.12a6,6,0,0,1-.15,2.39Z" style="fill:#705d4c"/><path id="_Path_35" data-name="&lt;Path&gt;" d="M11.15,90.9a11.6,11.6,0,0,1,7.39-12.4,170.57,170.57,0,0,1,30.68-8.14A165.75,165.75,0,0,0,10,79.69a11.51,11.51,0,0,0-7.4,12.39L5.22,111.2A5.79,5.79,0,0,0,6,113.46l8.58-1.19a6,6,0,0,1-.79-2.26Z" style="fill:#897160"/><path id="_Path_36" data-name="&lt;Path&gt;" d="M7.62,124a5.79,5.79,0,0,1-.78-2.26L4.19,102.65a11.59,11.59,0,0,1,7.4-12.39,166.08,166.08,0,0,1,71-9.82,11.5,11.5,0,0,1,10.48,9.92l2.65,19.12a6,6,0,0,1-.15,2.39Z" style="fill:#635142"/><path id="_Path_37" data-name="&lt;Path&gt;" d="M81,69.92a168.62,168.62,0,0,0-40.67,1.73,166.41,166.41,0,0,1,31.42-.45,11.5,11.5,0,0,1,10.48,9.92l2.65,19.12a6,6,0,0,1-.15,2.39l9.25-1.28A5.8,5.8,0,0,0,94.08,99L91.44,79.85A11.51,11.51,0,0,0,81,69.92Z" style="fill:#635142"/><path id="_Path_38" data-name="&lt;Path&gt;" d="M6,113.46a5.79,5.79,0,0,1-.78-2.26L2.57,92.08A11.59,11.59,0,0,1,10,79.69a166.08,166.08,0,0,1,71-9.82,11.5,11.5,0,0,1,10.48,9.92l2.65,19.12a6,6,0,0,1-.15,2.39Z" style="fill:none;stroke:#404041;stroke-linecap:round;stroke-linejoin:round;stroke-width:3.12934374114552px"/><path id="_Path_39" data-name="&lt;Path&gt;" d="M6.15,121.76,23,243.89c.72,5.17,4.37,8.77,9.28,9.2a143.13,143.13,0,0,0,18,.41,4.79,4.79,0,0,0,4-2.66,18.88,18.88,0,0,1,31.39-4.5,4.8,4.8,0,0,0,4.62,1.47A128.8,128.8,0,0,0,105.43,243,10.29,10.29,0,0,0,112,231.6L95.06,109.46C66,105.21,32.93,109.79,6.15,121.76Z" style="fill:#705d4c"/><path id="_Path_40" data-name="&lt;Path&gt;" d="M51.1,249.91a76.42,76.42,0,0,1-9.91,0,16.57,16.57,0,0,1-1.67-.29,3.44,3.44,0,0,0-4.21,3.84h0c4.94.32,10,.36,15,.19,1.68-.08,2.24.21,3-1.31a.34.34,0,0,1,0-.16A2.21,2.21,0,0,0,51.1,249.91Z" style="fill:#635142"/><path id="_Path_41" data-name="&lt;Path&gt;" d="M30.13,251.76c3.06.79,3.56-2.86,3-4.32a35.67,35.67,0,0,1-1.27-6.88L15,118.43c1.28-.6,2.58-1.15,3.88-1.64-4.38,1.5-8.62,3.14-12.69,5L23.09,243.89c.72,5.16.77,7.05,5.67,7.48A9.63,9.63,0,0,0,30.13,251.76Z" style="fill:#897160"/><path id="_Path_42" data-name="&lt;Path&gt;" d="M15.33,195.36l6.18,44.69a11.86,11.86,0,0,0,5.5,1.29A251.38,251.38,0,0,0,66.65,239a252.2,252.2,0,0,0,38.78-8.52,14,14,0,0,0,4.94-2.74l-6.18-44.69a17.66,17.66,0,0,1-2.56-7.12l-5.72-41.33a18,18,0,0,1,.54-7.55L94,109.5c-29-4.3-62.1.27-88.87,12.29l2.43,17.57a17.82,17.82,0,0,1,2.57,7.12l5.71,41.33A18.19,18.19,0,0,1,15.33,195.36Z" style="fill:#635142"/><g id="_Group_" data-name="&lt;Group&gt;"><g id="_Group_2" data-name="&lt;Group&gt;"><path id="_Path_43" data-name="&lt;Path&gt;" d="M83.12,108.74l2.95.39L103,231.26a10.32,10.32,0,0,1-6.53,11.43,39,39,0,0,1-8,2.31,2.2,2.2,0,0,0-1.79,2.62s0,.1.06.1c1.13,1.26,1.93,1,3.56.61a129.4,129.4,0,0,0,15.14-4.78A10.28,10.28,0,0,0,112,232.12L95.08,110C91.16,109.42,87.16,109,83.12,108.74Z" style="fill:#635142"/></g></g><path id="_Path_44" data-name="&lt;Path&gt;" d="M6.15,121.76,23,243.89c.72,5.17,4.37,8.77,9.28,9.2a143.13,143.13,0,0,0,18,.41,4.79,4.79,0,0,0,4-2.66,18.88,18.88,0,0,1,31.39-4.5,4.8,4.8,0,0,0,4.62,1.47A128.8,128.8,0,0,0,105.43,243,10.29,10.29,0,0,0,112,231.6L95.06,109.46C66,105.21,32.93,109.79,6.15,121.76Z" style="fill:none;stroke:#404041;stroke-linecap:round;stroke-linejoin:round;stroke-width:3.12934374114552px"/><path id="_Path_45" data-name="&lt;Path&gt;" d="M97.61,113l-3-21.75a9.41,9.41,0,0,0-9.07-8.12A251,251,0,0,0,8.18,93.84a9.35,9.35,0,0,0-6.52,10.27l3,21.75a8.43,8.43,0,0,0,2.65,5.06,21.83,21.83,0,0,1,7.29,13.47l5.71,41.33A21.83,21.83,0,0,1,17,200.66a8,8,0,0,0-1.18,5.59l3,21.75a9.41,9.41,0,0,0,9.07,8.12,251.19,251.19,0,0,0,77.34-10.7,9.36,9.36,0,0,0,6.53-10.27l-3-21.75a8.41,8.41,0,0,0-2.65-5.06,21.86,21.86,0,0,1-7.29-13.47l-5.71-41.33a21.8,21.8,0,0,1,3.35-14.95A8.27,8.27,0,0,0,97.61,113Z" style="fill:#fec556"/><g id="_Group_3" data-name="&lt;Group&gt;"><path id="_Path_46" data-name="&lt;Path&gt;" d="M76.64,83.21A251.39,251.39,0,0,0,43.06,86a249.53,249.53,0,0,1,33.7-1.92Z" style="fill:#f8a342"/><path id="_Path_47" data-name="&lt;Path&gt;" d="M96.43,118.59A8,8,0,0,0,97.61,113l-3-21.75A9.66,9.66,0,0,0,93,87.21a3.05,3.05,0,0,0-5.55,2.13l.39,2.79.4,3,2.6,18.75a8.41,8.41,0,0,1-1.18,5.59,21.85,21.85,0,0,0-3.36,14.94l5.72,41.33a21.81,21.81,0,0,0,7.29,13.47,8.07,8.07,0,0,1,2.65,5.06L105,216V216a5.72,5.72,0,0,1-4.19,6.22,282.6,282.6,0,0,1-68.93,9.9,3.75,3.75,0,0,0-3.68,4.19,289.93,289.93,0,0,0,41.88-3.26c-2.16.4-4.32.75-6.48,1.11a251.63,251.63,0,0,0,41.59-8.81,9.43,9.43,0,0,0,6.58-10.28l-.57-4.14-2.44-17.61a8.35,8.35,0,0,0-2.65-5.06,21.9,21.9,0,0,1-7.28-13.47l-5.72-41.33A21.48,21.48,0,0,1,96.43,118.59Z" style="fill:#f8a342"/></g><path id="_Path_48" data-name="&lt;Path&gt;" d="M57.17,155.25c-3.53-25.53-9.73-49-17.51-68.72A247.24,247.24,0,0,0,8.19,93.89a9.37,9.37,0,0,0-6.53,10.27l3,21.75A8.35,8.35,0,0,0,7.32,131a21.9,21.9,0,0,1,7.28,13.47l5.72,41.33A21.91,21.91,0,0,1,17,200.72a8,8,0,0,0-1.18,5.58l3,21.75a9.41,9.41,0,0,0,9.07,8.12,251.19,251.19,0,0,0,30.05-1.26C61.22,211.92,61.2,184.38,57.17,155.25Z" style="fill:#fdd08a;opacity:0.389999985694885;isolation:isolate"/><path id="_Path_49" data-name="&lt;Path&gt;" d="M10.76,125l-3-21.75v0A6.11,6.11,0,0,1,12.2,96.6a5.86,5.86,0,0,1,.86-.23c21.64-6.1,47.66-9.06,70.32-9.3A4.87,4.87,0,0,0,88,83.53h0c-12.54,0-31.27.43-43.65,2.25l-.36,0-2.17.3c-1,.19-2,.33-3,.53-1.49.25-3,.52-4.52.83a3.55,3.55,0,0,0-.71.15c-1.44.25-2.82.55-4.2.85-.31,0-.67.14-1,.18-1.33.29-2.6.58-3.93.86-.41.11-.82.17-1.23.28-1.22.27-2.49.61-3.71.93l-1.38.35-3.7,1-1.32.34c-1.58.43-3.19.91-4.76,1.39l-.16,0h0a9.34,9.34,0,0,0-6.62,9.23l0,.16c0,.25,0,.57.06.83l3,21.75a4.57,4.57,0,0,0,.16.82v.05a8.26,8.26,0,0,0,2.47,4.14,21.84,21.84,0,0,1,7.28,13.47l.14,1,5.58,40.35.14,1a21.32,21.32,0,0,1-.28,5.94c-.09.48-.23,1-.32,1.52a18,18,0,0,1-1,2.87c-.15.44-.36.84-.56,1.29-.42.79-.83,1.59-1.31,2.34a8.71,8.71,0,0,0-.94,2c-.1.38-.16.71-.27,1.09a10.44,10.44,0,0,0-.12,1.75c0,.26,0,.48.05.73l3,21.75a5.47,5.47,0,0,0,.18.88v.05c.08.25.13.56.21.81h0A9.4,9.4,0,0,0,27.53,236a21.14,21.14,0,0,0-1.92-6.26,9.52,9.52,0,0,1-.79-2.63l-3-21.75A8.39,8.39,0,0,1,23,199.73a21.87,21.87,0,0,0,3.35-14.95l-5.71-41.33A21.83,21.83,0,0,0,13.34,130,8,8,0,0,1,10.76,125Z" style="fill:#fdd08a;opacity:0.879999995231628;isolation:isolate"/><path id="_Path_50" data-name="&lt;Path&gt;" d="M97.61,113l-3-21.75a9.41,9.41,0,0,0-9.07-8.12A251,251,0,0,0,8.18,93.84a9.35,9.35,0,0,0-6.52,10.27l3,21.75a8.43,8.43,0,0,0,2.65,5.06,21.83,21.83,0,0,1,7.29,13.47l5.71,41.33A21.83,21.83,0,0,1,17,200.66a8,8,0,0,0-1.18,5.59l3,21.75a9.41,9.41,0,0,0,9.07,8.12,251.19,251.19,0,0,0,77.34-10.7,9.36,9.36,0,0,0,6.53-10.27l-3-21.75a8.41,8.41,0,0,0-2.65-5.06,21.86,21.86,0,0,1-7.29-13.47l-5.71-41.33a21.8,21.8,0,0,1,3.35-14.95A8.27,8.27,0,0,0,97.61,113Z" style="fill:none;stroke:#404041;stroke-linecap:round;stroke-linejoin:round;stroke-width:3.12934374114552px"/><path id="_Path_51" data-name="&lt;Path&gt;" d="M77.2,157.32l-40.3,5.57a6.28,6.28,0,0,1-7.06-5.34L25,122.42a6.27,6.27,0,0,1,5.34-7.06l40.3-5.57a6.27,6.27,0,0,1,7.05,5.34l4.86,35.13A6.25,6.25,0,0,1,77.2,157.32Z" style="fill:#f48b34;stroke:#f48b34;stroke-linecap:round;stroke-linejoin:round;stroke-width:3.12934374114552px;opacity:0.589999973773956;isolation:isolate"/><path id="_Path_52" data-name="&lt;Path&gt;" d="M77,155.77l-40.29,5.57A6.28,6.28,0,0,1,29.63,156l-4.86-35.13a6.28,6.28,0,0,1,5.34-7.06l40.3-5.57a6.28,6.28,0,0,1,7.06,5.34l4.86,35.13A6.25,6.25,0,0,1,77,155.77Z" style="fill:#705d4c"/><path id="_Path_53" data-name="&lt;Path&gt;" d="M32.73,155.57l-4.86-35.13a6.28,6.28,0,0,1,5.34-7.06l-2.74.38a6.28,6.28,0,0,0-5.34,7.06L30,156a6.28,6.28,0,0,0,7.06,5.34l2.74-.38A6.27,6.27,0,0,1,32.73,155.57Z" style="fill:#635142"/><path id="_Path_54" data-name="&lt;Path&gt;" d="M70.41,108.24l-3.1.43A6.28,6.28,0,0,1,74.37,114l4.86,35.13a6.29,6.29,0,0,1-5.35,7.06l3.1-.43a6.29,6.29,0,0,0,5.35-7.06l-4.86-35.13A6.24,6.24,0,0,0,70.41,108.24Z" style="fill:#635142"/><path id="_Path_55" data-name="&lt;Path&gt;" d="M77,155.77l-40.29,5.57A6.28,6.28,0,0,1,29.63,156l-4.86-35.13a6.28,6.28,0,0,1,5.34-7.06l40.3-5.57a6.28,6.28,0,0,1,7.06,5.34l4.86,35.13A6.25,6.25,0,0,1,77,155.77Z" style="fill:none;stroke:#404041;stroke-linecap:round;stroke-linejoin:round;stroke-width:3.12934374114552px"/><circle id="_Path_56" data-name="&lt;Path&gt;" cx="36.66" cy="138.34" r="2.09" style="fill:#404041"/><circle id="_Path_57" data-name="&lt;Path&gt;" cx="42.61" cy="137.52" r="2.09" style="fill:#404041"/><circle id="_Path_58" data-name="&lt;Path&gt;" cx="48.55" cy="136.69" r="2.09" style="fill:#404041"/><circle id="_Path_59" data-name="&lt;Path&gt;" cx="54.49" cy="135.87" r="2.09" style="fill:#404041"/><circle id="_Path_60" data-name="&lt;Path&gt;" cx="60.43" cy="135.05" r="2.09" style="fill:#404041"/><circle id="_Path_61" data-name="&lt;Path&gt;" cx="66.37" cy="134.23" r="2.09" style="fill:#404041"/><circle id="_Path_62" data-name="&lt;Path&gt;" cx="72.36" cy="133.4" r="2.09" style="fill:#404041"/><circle id="_Path_63" data-name="&lt;Path&gt;" cx="38.79" cy="132.04" r="2.09" style="fill:#404041"/><circle id="_Path_64" data-name="&lt;Path&gt;" cx="44.79" cy="131.21" r="2.09" style="fill:#404041"/><circle id="_Path_65" data-name="&lt;Path&gt;" cx="50.73" cy="130.39" r="2.09" style="fill:#404041"/><circle id="_Path_66" data-name="&lt;Path&gt;" cx="56.67" cy="129.57" r="2.09" style="fill:#404041"/><circle id="_Path_67" data-name="&lt;Path&gt;" cx="62.61" cy="128.75" r="2.09" transform="translate(-67.57 188.32) rotate(-88.66)" style="fill:#404041"/><circle id="_Path_68" data-name="&lt;Path&gt;" cx="68.55" cy="127.92" r="2.09" style="fill:#404041"/><circle id="_Path_69" data-name="&lt;Path&gt;" cx="40.98" cy="125.74" r="2.09" style="fill:#404041"/><circle id="_Path_70" data-name="&lt;Path&gt;" cx="46.92" cy="124.91" r="2.09" style="fill:#404041"/><circle id="_Path_71" data-name="&lt;Path&gt;" cx="52.86" cy="124.09" r="2.09" style="fill:#404041"/><circle id="_Path_72" data-name="&lt;Path&gt;" cx="58.8" cy="123.27" r="2.09" style="fill:#404041"/><circle id="_Path_73" data-name="&lt;Path&gt;" cx="64.74" cy="122.45" r="2.09" style="fill:#404041"/><circle id="_Path_74" data-name="&lt;Path&gt;" cx="40.42" cy="143.82" r="2.09" style="fill:#404041"/><circle id="_Path_75" data-name="&lt;Path&gt;" cx="46.42" cy="142.99" r="2.09" style="fill:#404041"/><circle id="_Path_76" data-name="&lt;Path&gt;" cx="52.36" cy="142.17" r="2.09" style="fill:#404041"/><circle id="_Path_77" data-name="&lt;Path&gt;" cx="58.3" cy="141.35" r="2.09" style="fill:#404041"/><circle id="_Path_78" data-name="&lt;Path&gt;" cx="64.24" cy="140.53" r="2.09" transform="translate(-77.75 201.46) rotate(-88.66)" style="fill:#404041"/><circle id="_Path_79" data-name="&lt;Path&gt;" cx="70.18" cy="139.7" r="2.09" style="fill:#404041"/><circle id="_Path_80" data-name="&lt;Path&gt;" cx="44.23" cy="149.29" r="2.09" style="fill:#404041"/><circle id="_Path_81" data-name="&lt;Path&gt;" cx="38.29" cy="150.12" r="2.09" style="fill:#404041;opacity:0.349999994039536;isolation:isolate"/><circle id="_Path_82" data-name="&lt;Path&gt;" cx="35.03" cy="126.56" r="2.09" style="fill:#404041;opacity:0.349999994039536;isolation:isolate"/><circle id="_Path_83" data-name="&lt;Path&gt;" cx="43.28" cy="120.31" r="2.09" style="fill:#404041;opacity:0.349999994039536;isolation:isolate"/><circle id="_Path_84" data-name="&lt;Path&gt;" cx="49.22" cy="119.49" r="2.09" style="fill:#404041;opacity:0.349999994039536;isolation:isolate"/><circle id="_Path_85" data-name="&lt;Path&gt;" cx="55.16" cy="118.67" r="2.09" style="fill:#404041;opacity:0.349999994039536;isolation:isolate"/><circle id="_Path_86" data-name="&lt;Path&gt;" cx="61.1" cy="117.84" r="2.09" transform="translate(-58.14 176.17) rotate(-88.66)" style="fill:#404041;opacity:0.349999994039536;isolation:isolate"/><circle id="_Path_87" data-name="&lt;Path&gt;" cx="50.18" cy="148.47" r="2.09" style="fill:#404041"/><circle id="_Path_88" data-name="&lt;Path&gt;" cx="56.12" cy="147.65" r="2.09" style="fill:#404041"/><circle id="_Path_89" data-name="&lt;Path&gt;" cx="62.02" cy="146.52" r="2.09" style="fill:#404041"/><circle id="_Path_90" data-name="&lt;Path&gt;" cx="68" cy="146.01" r="2.09" style="fill:#404041"/><circle id="_Path_91" data-name="&lt;Path&gt;" cx="73.99" cy="145.18" r="2.09" style="fill:#404041;opacity:0.349999994039536;isolation:isolate"/><circle id="_Path_92" data-name="&lt;Path&gt;" cx="70.73" cy="121.62" r="2.09" style="fill:#404041;opacity:0.349999994039536;isolation:isolate"/><path id="_Path_93" data-name="&lt;Path&gt;" d="M70,203,59.65,204.4a3.15,3.15,0,0,1-3.53-2.68l-1.43-10.33a3.14,3.14,0,0,1,2.67-3.53l10.33-1.43a3.14,3.14,0,0,1,3.53,2.68l1.43,10.33A3.14,3.14,0,0,1,70,203Z" style="fill:#f48b34;stroke:#f48b34;stroke-linecap:round;stroke-linejoin:round;stroke-width:2.08622916076368px;opacity:0.589999973773956;isolation:isolate"/><path id="_Path_94" data-name="&lt;Path&gt;" d="M68.53,203.17,58.2,204.6a3.15,3.15,0,0,1-3.53-2.68l-1.43-10.33a3.15,3.15,0,0,1,2.68-3.53l10.33-1.43a3.15,3.15,0,0,1,3.53,2.68l1.43,10.33A3.15,3.15,0,0,1,68.53,203.17Z" style="fill:#dd3748"/><path id="_Path_95" data-name="&lt;Path&gt;" d="M56.84,194.78l-.35-2.58a1,1,0,0,1,.89-1.18l6.2-.86" style="fill:none;stroke:#404041;stroke-linecap:round;stroke-linejoin:round;stroke-width:1.56467187057276px;opacity:0.300000011920929;isolation:isolate"/><path id="_Path_96" data-name="&lt;Path&gt;" d="M68.53,203.17,58.2,204.6a3.15,3.15,0,0,1-3.53-2.68l-1.43-10.33a3.15,3.15,0,0,1,2.68-3.53l10.33-1.43a3.15,3.15,0,0,1,3.53,2.68l1.43,10.33A3.15,3.15,0,0,1,68.53,203.17Z" style="fill:none;stroke:#404041;stroke-linecap:round;stroke-linejoin:round;stroke-width:2.08622916076368px"/><path id="_Path_97" data-name="&lt;Path&gt;" d="M93.33,199.74,83,201.17a3.15,3.15,0,0,1-3.53-2.68L78,188.16a3.15,3.15,0,0,1,2.67-3.53l10.34-1.43a3.15,3.15,0,0,1,3.53,2.68L96,196.21A3.14,3.14,0,0,1,93.33,199.74Z" style="fill:#f48b34;stroke:#f48b34;stroke-linecap:round;stroke-linejoin:round;stroke-width:2.08622916076368px;opacity:0.589999973773956;isolation:isolate"/><g id="_Group_4" data-name="&lt;Group&gt;"><path id="_Path_98" data-name="&lt;Path&gt;" d="M63.47,193.55l.2,1.44a2.44,2.44,0,0,0-.64-.38,1.12,1.12,0,0,0-.59-.08,1.31,1.31,0,0,0-.87.54,1,1,0,0,0-.16.34.74.74,0,0,0-.06.38c0,.1,0,.26,0,.42a1.29,1.29,0,0,0,.5.93,1.25,1.25,0,0,0,1,.23,1.1,1.1,0,0,0,.54-.23,4.61,4.61,0,0,0,.51-.54l.2,1.44a2.76,2.76,0,0,1-1.21.43,3,3,0,0,1-.73,0,1.2,1.2,0,0,1-.67-.23,2.77,2.77,0,0,1-.95-.81,2.48,2.48,0,0,1-.48-1.2,2.36,2.36,0,0,1,.06-1.06,1,1,0,0,1,.15-.44c.08-.17.17-.29.25-.46a2.25,2.25,0,0,1,.71-.62,2.84,2.84,0,0,1,1-.29,2.56,2.56,0,0,1,.62,0A3.54,3.54,0,0,0,63.47,193.55Z" style="fill:#fec556"/></g><path id="_Path_99" data-name="&lt;Path&gt;" d="M92.4,199.87l-10.33,1.42a3.14,3.14,0,0,1-3.53-2.67l-1.43-10.33a3.15,3.15,0,0,1,2.67-3.53l10.34-1.43A3.15,3.15,0,0,1,93.65,186l1.42,10.34A3.14,3.14,0,0,1,92.4,199.87Z" style="fill:#514c4c"/><path id="_Path_100" data-name="&lt;Path&gt;" d="M80.2,191.55,79.84,189a1,1,0,0,1,.89-1.18l6.2-.86" style="fill:none;stroke:#404041;stroke-linecap:round;stroke-linejoin:round;stroke-width:1.56467187057276px"/><path id="_Path_101" data-name="&lt;Path&gt;" d="M91.89,199.94l-10.34,1.43A3.14,3.14,0,0,1,78,198.69L76.6,188.36a3.14,3.14,0,0,1,2.67-3.53L89.6,183.4a3.15,3.15,0,0,1,3.53,2.68l1.43,10.33A3.15,3.15,0,0,1,91.89,199.94Z" style="fill:none;stroke:#404041;stroke-linecap:round;stroke-linejoin:round;stroke-width:2.08622916076368px"/><path id="_Path_102" data-name="&lt;Path&gt;" d="M85.39,194.1l-2.53-1.92a.86.86,0,0,1,.42-1.53l4.39-.61a.86.86,0,0,1,.82,1.36l-1.91,2.53A.79.79,0,0,1,85.39,194.1Z" style="fill:#fec556"/><path id="_Path_103" data-name="&lt;Path&gt;" d="M47.15,206.12l-10.34,1.43a3.14,3.14,0,0,1-3.53-2.67l-1.42-10.33A3.14,3.14,0,0,1,34.53,191l10.33-1.43a3.15,3.15,0,0,1,3.53,2.67l1.43,10.34A3.11,3.11,0,0,1,47.15,206.12Z" style="fill:#f48b34;stroke:#f48b34;stroke-linecap:round;stroke-linejoin:round;stroke-width:2.08622916076368px;opacity:0.589999973773956;isolation:isolate"/><path id="_Path_104" data-name="&lt;Path&gt;" d="M45.23,206.39,34.9,207.82a3.15,3.15,0,0,1-3.53-2.67l-1.43-10.34a3.14,3.14,0,0,1,2.67-3.52L43,189.86a3.14,3.14,0,0,1,3.53,2.67l1.43,10.33A3.15,3.15,0,0,1,45.23,206.39Z" style="fill:#514c4c"/><path id="_Path_105" data-name="&lt;Path&gt;" d="M33.54,198l-.35-2.58a1,1,0,0,1,.89-1.18l6.2-.85" style="fill:none;stroke:#404041;stroke-linecap:round;stroke-linejoin:round;stroke-width:1.56467187057276px"/><path id="_Path_106" data-name="&lt;Path&gt;" d="M45.75,206.32l-10.33,1.43a3.15,3.15,0,0,1-3.53-2.67l-1.43-10.34a3.14,3.14,0,0,1,2.67-3.53l10.33-1.42A3.13,3.13,0,0,1,47,192.46l1.43,10.33A3.14,3.14,0,0,1,45.75,206.32Z" style="fill:none;stroke:#404041;stroke-linecap:round;stroke-linejoin:round;stroke-width:2.08622916076368px"/><path id="_Path_107" data-name="&lt;Path&gt;" d="M38.28,197.19l-1.92,2.53a.86.86,0,0,0,.82,1.36l4.39-.61a.86.86,0,0,0,.42-1.53L39.46,197A.78.78,0,0,0,38.28,197.19Z" style="fill:#fec556"/><path id="_Path_108" data-name="&lt;Path&gt;" d="M58.79,98.42l-8.68,1.2a1.16,1.16,0,0,1-1.3-1h0a1.16,1.16,0,0,1,1-1.29l8.68-1.2a1.16,1.16,0,0,1,1.3,1h0A1.16,1.16,0,0,1,58.79,98.42Z" style="fill:#f48b34;opacity:0.360000014305115;isolation:isolate"/><path id="_Path_109" data-name="&lt;Path&gt;" d="M59.22,101.57l-19.11,2.65a1.17,1.17,0,0,1-1.3-1h0a1.17,1.17,0,0,1,1-1.3L58.91,99.3a1.15,1.15,0,0,1,1.29,1h0A1.15,1.15,0,0,1,59.22,101.57Z" style="fill:#f48b34;opacity:0.360000014305115;isolation:isolate"/></g></g></svg>