<svg id="Layer_1" data-name="Layer 1" xmlns="http://www.w3.org/2000/svg" viewBox="0 0 333 421.33"><title>timer</title><g id="Layer_2" data-name="Layer 2"><g id="Layer_1-2" data-name="Layer 1-2"><rect x="55.69" y="100.9" width="12.4" height="25.67" transform="translate(-54.65 57.29) rotate(-35.6)" style="fill:#020202"/><rect x="32.96" y="79.47" width="37.57" height="32.62" rx="15.07" ry="15.07" transform="translate(-46.22 48.3) rotate(-35.76)" style="fill:#e7e7e7"/><path d="M68,88.81a15,15,0,0,0-16.77.56l-6,4.35a15.07,15.07,0,0,0-3.42,21l.72,1a14.91,14.91,0,0,1-4.26-4l-1.46-2a15.07,15.07,0,0,1,3.42-21l6-4.35a15.08,15.08,0,0,1,21,3.42Z" style="fill:#fff"/><path d="M48.17,119.79a18.55,18.55,0,0,1-15.09-7.71l-1.45-2a18.57,18.57,0,0,1,4.22-25.92l6-4.34A18.56,18.56,0,0,1,67.78,84h0l1.45,2a18.56,18.56,0,0,1-4.15,25.93L65,112l-6,4.34A18.46,18.46,0,0,1,48.17,119.79ZM52.7,83.3A11.51,11.51,0,0,0,46,85.48l-6,4.34A11.57,11.57,0,0,0,37.27,106l0,0,1.45,2a11.58,11.58,0,0,0,16.15,2.63h0l6-4.34a11.57,11.57,0,0,0,2.63-16.15h0l-1.45-2A12,12,0,0,0,52.7,83.3Z" style="fill:#020202"/><rect x="258.33" y="107.62" width="25.77" height="12.45" transform="translate(20.34 267.4) rotate(-54.24)" style="fill:#020202"/><rect x="264.45" y="76.99" width="32.62" height="37.57" rx="15.07" ry="15.07" transform="translate(38.97 267.63) rotate(-54.24)" style="fill:#e7e7e7"/><path d="M264.5,88.81a15,15,0,0,1,16.77.56l6,4.35a15.07,15.07,0,0,1,3.42,21l-.72,1a14.91,14.91,0,0,0,4.26-4l1.46-2a15.07,15.07,0,0,0-3.42-21l-6-4.35a15.08,15.08,0,0,0-21,3.42Z" style="fill:#fff"/><path d="M284.33,119.79a18.46,18.46,0,0,1-10.83-3.5l-6-4.34A18.58,18.58,0,0,1,263.23,86l0,0,1.45-2a18.57,18.57,0,0,1,25.92-4.21l6,4.34a18.57,18.57,0,0,1,4.22,25.92l-1.45,2A18.53,18.53,0,0,1,284.33,119.79Zm-6.74-9.17A11.57,11.57,0,0,0,293.74,108l1.45-2a11.57,11.57,0,0,0-2.63-16.15h0l-6-4.34a11.57,11.57,0,0,0-16.15,2.63h0l-1.45,2a11.57,11.57,0,0,0,2.63,16.15h0Z" style="fill:#020202"/><rect x="151.28" y="65.08" width="28.95" height="33" style="fill:#ced0d0"/><path d="M189.22,107.08H148.28v-45h40.95Zm-28.95-12h16.95v-21H160.28Z" style="fill:#020202"/><rect x="127.75" y="6" width="78" height="67.74" rx="15.07" ry="15.07" style="fill:#e7e7e7"/><path d="M207.79,15.86c-2.12-1.13-13.54-5.78-16.11-5.78l-36.86,7a15.07,15.07,0,0,0-15.07,15.07v37.6a15,15,0,0,0,1,5.29,15,15,0,0,1-8-13.29V24.15A15.07,15.07,0,0,1,147.82,9.08h47.86C202.14,9.08,205.65,10.15,207.79,15.86Z" style="fill:#fff"/><circle cx="165.25" cy="254.58" r="160.5" style="fill:#e7e7e7"/><path d="M327.75,256.58a160.62,160.62,0,0,1-185.89,158.5,160.51,160.51,0,0,0,24.78-319h.61A160.5,160.5,0,0,1,327.75,256.58Z" style="fill:#ced0d0"/><path d="M166.5,421.33C74.69,421.33,0,346.64,0,254.83S74.69,88.33,166.5,88.33,333,163,333,254.83,258.31,421.33,166.5,421.33Zm0-321C81.31,100.33,12,169.64,12,254.83s69.31,154.5,154.5,154.5S321,340,321,254.83s-69.31-154.5-154.5-154.5Z" style="fill:#020202"/><circle cx="168.75" cy="248.95" r="127.75" style="fill:#e3fcff"/><path d="M166.63,388.7c-73.75,0-133.75-60-133.75-133.75s60-133.75,133.75-133.75,133.75,60,133.75,133.8S240.38,388.7,166.63,388.7Zm0-255.5A121.75,121.75,0,1,0,288.38,255,121.75,121.75,0,0,0,166.63,133.2Z" style="fill:#020202"/><path d="M203.75,20.07v37.6a15.08,15.08,0,0,1-10.62,14.4c-3.75-8.52-6.31-17.35-6.53-26.68-.3-13.32,4.23-25.86,10.75-37.63A15,15,0,0,1,203.75,20.07Z" style="fill:#ced0d0"/><path d="M191.68,79.74H143.82a21.09,21.09,0,0,1-21.07-21.07V21.07A21.09,21.09,0,0,1,143.82,0h47.86a21.09,21.09,0,0,1,21.07,21.07v37.6A21.09,21.09,0,0,1,191.68,79.74ZM143.82,12a9.08,9.08,0,0,0-9.07,9.07v37.6a9.08,9.08,0,0,0,9.07,9.07h47.86a9.08,9.08,0,0,0,9.07-9.07V21.07A9.08,9.08,0,0,0,191.68,12Z" style="fill:#020202"/><path d="M157.22,108.08c-9.91.28-20,2.57-29.49,5.31A157,157,0,0,0,67.92,146a160.68,160.68,0,0,0-32.28,39.57c-2,3.34,3.22,6.36,5.18,3C63.79,149.47,103,121.88,148,115a75.43,75.43,0,0,1,9.24-1c3.85-.11,3.87-6.11,0-6Z" style="fill:#fff"/></g></g></svg>