<svg xmlns="http://www.w3.org/2000/svg" viewBox="0 0 92.03 122.7"><title>bin</title><g id="Layer_2" data-name="Layer 2"><g id="Layer_1-2" data-name="Layer 1"><path id="base_color" data-name="base color" d="M92,38.34a2.56,2.56,0,0,0-2.56-2.55h-3a40.81,40.81,0,0,0-81,0h-3A2.55,2.55,0,0,0,0,38.34V51.13H5.45l9,62.79a10.27,10.27,0,0,0,10.12,8.78H67.48a10.27,10.27,0,0,0,10.12-8.78l9-62.79H92Z" style="fill:#666"/><g id="light_foil" data-name="light foil"><path d="M5.45,51.13l9,62.79a10.27,10.27,0,0,0,10.12,8.78H67.48a10.27,10.27,0,0,0,10.12-8.78l9-62.79ZM28.12,84.36A17.89,17.89,0,0,1,46,66.46a17.67,17.67,0,0,1,13.6,6.42L55.5,76a12.57,12.57,0,0,0-19.69.76,13.08,13.08,0,0,0-.75,1.18l3.28,3.89L28.79,89A17.88,17.88,0,0,1,28.12,84.36ZM46,102.25a17.71,17.71,0,0,1-13.6-6.41l4.12-3.09A12.6,12.6,0,0,0,46,97.14,12.73,12.73,0,0,0,56.22,92c.27-.37.51-.78.75-1.18l-3.29-3.89,9.55-7.16a17.53,17.53,0,0,1,.68,4.61A17.89,17.89,0,0,1,46,102.25Z" style="fill:#fff;opacity:0.100000001490116;isolation:isolate"/><path d="M38.34,81.8l-3.28-3.88a12,12,0,0,1,.75-1.19A12.57,12.57,0,0,1,55.5,76l4.12-3.09A17.7,17.7,0,0,0,46,66.46,17.68,17.68,0,0,0,28.79,89Z" style="fill:#fff;opacity:0.800000011920929;isolation:isolate"/><path d="M53.68,86.91,57,90.8A13.94,13.94,0,0,1,56.22,92,12.74,12.74,0,0,1,46,97.14a12.58,12.58,0,0,1-9.48-4.4l-4.12,3.1A17.67,17.67,0,0,0,46,102.25a17.89,17.89,0,0,0,17.9-17.89,17.53,17.53,0,0,0-.68-4.61Z" style="fill:#fff;opacity:0.800000011920929;isolation:isolate"/><path d="M86.47,35.79a40.81,40.81,0,0,0-20-30.17V20.45A10.23,10.23,0,0,1,56.24,30.68H35.79A10.24,10.24,0,0,1,25.56,20.45V5.62a40.77,40.77,0,0,0-20,30.17Z" style="fill:#fff;opacity:0.200000002980232;isolation:isolate"/><path d="M35.79,30.68H56.24A10.23,10.23,0,0,0,66.46,20.45V5.57a40.33,40.33,0,0,0-40.9,0V20.45A10.24,10.24,0,0,0,35.79,30.68Z" style="fill:#fff;opacity:0.400000005960465;isolation:isolate"/></g></g></g></svg>