<svg xmlns="http://www.w3.org/2000/svg" viewBox="0 0 80 80" width="16px" height="16px"><path fill="#99c99e" d="M34.316 39.5L16.79 2.5 29.685 2.5 47.35 39.5z"/><path fill="#5e9c76" d="M29.369,3l17.188,36H34.633L17.58,3H29.369 M30,2H16l18,38h14.143L30,2L30,2z"/><path fill="#99c99e" d="M32.65 39.5L50.315 2.5 63.21 2.5 45.684 39.5z"/><path fill="#5e9c76" d="M62.42,3L45.367,39H33.443L50.631,3H62.42 M64,2H50L31.857,40H46L64,2L64,2z"/><path fill="#ffc49c" d="M40,76.5c-11.855,0-21.5-9.645-21.5-21.5S28.145,33.5,40,33.5S61.5,43.145,61.5,55 S51.855,76.5,40,76.5z"/><path fill="#b08159" d="M40,34c11.579,0,21,9.421,21,21s-9.421,21-21,21s-21-9.421-21-21S28.421,34,40,34 M40,33 c-12.15,0-22,9.85-22,22s9.85,22,22,22s22-9.85,22-22S52.15,33,40,33L40,33z"/><path fill="#b08159" d="M34.287,62.961v-2.942c1.261,0.999,2.68,1.498,4.265,1.498c1.288,0,2.313-0.292,3.085-0.877	c0.767-0.585,1.153-1.377,1.153-2.375c0-2.195-1.677-3.293-5.034-3.293h-1.498v-2.51h1.431c2.977,0,4.467-1.034,4.467-3.104	c0-1.908-1.161-2.861-3.482-2.861c-1.296,0-2.516,0.464-3.657,1.39v-2.78C36.33,44.369,37.88,44,39.671,44	c1.718,0,3.094,0.432,4.13,1.296c1.035,0.864,1.552,1.97,1.552,3.32c0,2.546-1.296,4.184-3.887,4.912v0.054	c1.396,0.135,2.497,0.623,3.306,1.464c0.81,0.842,1.215,1.891,1.215,3.151c0,1.736-0.654,3.138-1.957,4.204	C42.727,63.467,41.007,64,38.875,64C36.959,64,35.428,63.654,34.287,62.961z"/><path fill="#b08159" d="M55,55c0,8.284-6.716,15-15,15s-15-6.716-15-15h-1c0,8.837,7.163,16,16,16s16-7.163,16-16H55z"/></svg>