<svg xmlns="http://www.w3.org/2000/svg" viewBox="0 0 622.14 354.58"><title>fireplace</title><g style="isolation:isolate"><g id="Layer_2" data-name="Layer 2"><g id="Layer_1-2" data-name="Layer 1"><rect x="45.58" y="69.74" width="531.97" height="266.08" style="fill:#593c43"/><rect x="43.6" y="69.74" width="53.33" height="265.78" rx="6.56" ry="6.56" style="fill:#a8745d"/><path d="M79.22,87.45V317.81H61.3V87.45Zm8-17.71h-34a9.68,9.68,0,0,0-9.68,9.69v246.4a9.68,9.68,0,0,0,9.68,9.69h34a9.68,9.68,0,0,0,9.68-9.69V79.43a9.68,9.68,0,0,0-9.68-9.69Z" style="fill:#8f6253"/><path d="M88.07,335.82H52.45A8.85,8.85,0,0,1,43.6,327h0a8.85,8.85,0,0,1,8.85-8.85H88.07A8.85,8.85,0,0,1,96.92,327h0A8.85,8.85,0,0,1,88.07,335.82Z" style="fill:#cf9d72"/><g style="opacity:0.2;mix-blend-mode:screen"><path d="M511,225.89h0a6.89,6.89,0,0,0-6.89,6.9v60.35A6.88,6.88,0,0,0,511,300h0a6.88,6.88,0,0,0,6.89-6.89V232.79A6.89,6.89,0,0,0,511,225.89Z" style="fill:#f45500"/></g><g style="opacity:0.2;mix-blend-mode:screen"><path d="M107.28,238.28h0a6.9,6.9,0,0,0-6.9,6.89v31.3a6.9,6.9,0,0,0,6.9,6.89h0a6.9,6.9,0,0,0,6.89-6.89v-31.3A6.9,6.9,0,0,0,107.28,238.28Z" style="fill:#f45500"/></g><rect x="525.24" y="69.74" width="53.33" height="265.78" rx="6.56" ry="6.56" style="fill:#a8745d"/><path d="M560.86,87.45V317.81H543V87.45Zm8-17.71h-34a9.69,9.69,0,0,0-9.69,9.69v246.4a9.69,9.69,0,0,0,9.69,9.69h34a9.69,9.69,0,0,0,9.69-9.69V79.43a9.69,9.69,0,0,0-9.69-9.69Z" style="fill:#8f6253"/><path d="M569.72,335.82H534.09a8.85,8.85,0,0,1-8.85-8.85h0a8.85,8.85,0,0,1,8.85-8.85h35.63a8.85,8.85,0,0,1,8.85,8.85h0A8.85,8.85,0,0,1,569.72,335.82Z" style="fill:#cf9d72"/><path d="M529.67,147h44.47a9.59,9.59,0,0,0,9.59-9.59h0a9.59,9.59,0,0,0-9.59-9.59H529.67a9.59,9.59,0,0,0-9.59,9.59h0A9.59,9.59,0,0,0,529.67,147Z" style="fill:#7b534c"/><path d="M529.67,88.92h44.47a9.59,9.59,0,0,0,9.59-9.59h0a9.59,9.59,0,0,0-9.59-9.59H529.67a9.59,9.59,0,0,0-9.59,9.59h0A9.59,9.59,0,0,0,529.67,88.92Z" style="fill:#7b534c"/><path d="M551.9,193h0a6.17,6.17,0,0,0,6.18-6.18V168.56a6.17,6.17,0,0,0-6.18-6.18h0a6.18,6.18,0,0,0-6.18,6.18V186.8A6.18,6.18,0,0,0,551.9,193Z" style="fill:#8f6253"/><path d="M551.9,289.42h0a6.18,6.18,0,0,0,6.18-6.18V265a6.17,6.17,0,0,0-6.18-6.18h0a6.18,6.18,0,0,0-6.18,6.18v18.24A6.18,6.18,0,0,0,551.9,289.42Z" style="fill:#8f6253"/><path d="M551.9,236.13h0a6.17,6.17,0,0,0,6.18-6.18V227a6.18,6.18,0,0,0-6.18-6.18h0a6.18,6.18,0,0,0-6.18,6.18V230A6.18,6.18,0,0,0,551.9,236.13Z" style="fill:#8f6253"/><g style="opacity:0.2;mix-blend-mode:screen"><path d="M107.28,199.49h0a6.9,6.9,0,0,0-6.9,6.89v18a6.9,6.9,0,0,0,6.9,6.89h0a6.9,6.9,0,0,0,6.89-6.89v-18A6.9,6.9,0,0,0,107.28,199.49Z" style="fill:#f45500"/></g><rect x="26.52" y="330.18" width="570.09" height="12" rx="2.6" ry="2.6" style="fill:#7b534c"/><rect x="26.52" y="60.15" width="570.09" height="12" rx="2.6" ry="2.6" style="fill:#8f6253"/><rect x="0.99" y="342.18" width="621.15" height="12.4" rx="2.79" ry="2.79" style="fill:#684644"/><rect y="47.71" width="621.15" height="12.44" rx="2.79" ry="2.79" style="fill:#7b534c"/><path d="M48,147H92.5a9.59,9.59,0,0,0,9.59-9.59h0a9.6,9.6,0,0,0-9.59-9.59H48a9.6,9.6,0,0,0-9.59,9.59h0A9.59,9.59,0,0,0,48,147Z" style="fill:#7b534c"/><path d="M48,88.92H92.5a9.59,9.59,0,0,0,9.59-9.59h0a9.59,9.59,0,0,0-9.59-9.59H48a9.59,9.59,0,0,0-9.59,9.59h0A9.59,9.59,0,0,0,48,88.92Z" style="fill:#7b534c"/><path d="M70.26,193h0a6.18,6.18,0,0,0,6.18-6.18V168.56a6.18,6.18,0,0,0-6.18-6.18h0a6.18,6.18,0,0,0-6.18,6.18V186.8A6.18,6.18,0,0,0,70.26,193Z" style="fill:#8f6253"/><path d="M70.26,289.42h0a6.18,6.18,0,0,0,6.18-6.18V265a6.18,6.18,0,0,0-6.18-6.18h0A6.18,6.18,0,0,0,64.08,265v18.24A6.18,6.18,0,0,0,70.26,289.42Z" style="fill:#8f6253"/><path d="M70.26,236.13h0A6.18,6.18,0,0,0,76.44,230V227a6.18,6.18,0,0,0-6.18-6.18h0A6.18,6.18,0,0,0,64.08,227V230A6.18,6.18,0,0,0,70.26,236.13Z" style="fill:#8f6253"/><path d="M571.18,231.1h14a8.65,8.65,0,0,1,8.77,8.16,8.43,8.43,0,0,1-8.42,8.69h-.35a5.57,5.57,0,0,0-5.57,5.56h0a8.66,8.66,0,0,1-8.16,8.78,8.43,8.43,0,0,1-8.68-8.42V239.52A8.42,8.42,0,0,1,571.18,231.1Z" style="fill:#63444c"/><path d="M495.68,78.65h-14a8.66,8.66,0,0,0-8.77,8.17,8.42,8.42,0,0,0,8.42,8.68h.35a5.57,5.57,0,0,1,5.57,5.57h0a8.66,8.66,0,0,0,8.17,8.77,8.42,8.42,0,0,0,8.68-8.42V87.08A8.42,8.42,0,0,0,495.68,78.65Z" style="fill:#63444c"/><path d="M128.07,78.65h14a8.66,8.66,0,0,1,8.77,8.17,8.42,8.42,0,0,1-8.42,8.68h-.35a5.57,5.57,0,0,0-5.57,5.57h0a8.65,8.65,0,0,1-8.16,8.77,8.43,8.43,0,0,1-8.69-8.42V87.08A8.42,8.42,0,0,1,128.07,78.65Z" style="fill:#63444c"/><path d="M118.62,315.82V202.59c0-62.68,75.42-113.67,168.13-113.67h43.76c92.72,0,168.14,51,168.14,113.67V315.82Z" style="fill:#473339"/><path d="M38.43,8A5.87,5.87,0,1,1,26.7,8c0-2.5,3.48-6.11,5.08-7.64a1.13,1.13,0,0,1,1.58,0C35,1.85,38.43,5.46,38.43,8Z" style="fill:#ffbe55"/><path d="M35.79,10a3.23,3.23,0,0,1-6.45,0c0-1.37,1.92-3.36,2.79-4.2a.62.62,0,0,1,.87,0C33.88,6.61,35.79,8.6,35.79,10Z" style="fill:#f0ddaa"/><path d="M28.13,13.81H37a5.48,5.48,0,0,1,5.48,5.48V45a3.17,3.17,0,0,1-3.17,3.17H25.81A3.17,3.17,0,0,1,22.64,45V19.3A5.48,5.48,0,0,1,28.13,13.81Z" style="fill:#ed913e"/><path d="M41.79,13.81H23.34a2.75,2.75,0,0,0-2.74,2.75h0V21a3,3,0,0,0,3,3h0a3,3,0,0,0,3-3v-.34A1.37,1.37,0,0,1,27.9,19.3h0a1.37,1.37,0,0,1,1.37,1.37v4a2.56,2.56,0,0,0,2.56,2.55h0a2.56,2.56,0,0,0,2.56-2.55v-4a1.37,1.37,0,0,1,1.36-1.37h6a2.74,2.74,0,0,0,2.75-2.74h0A2.75,2.75,0,0,0,41.79,13.81Z" style="fill:#ffbe55"/><path d="M32.57,15.63a.83.83,0,0,1-.83-.82V11.17a.83.83,0,1,1,1.65,0v3.64A.82.82,0,0,1,32.57,15.63Z" style="fill:#70575c"/><path d="M36.05,42.44h0a2.65,2.65,0,0,1-2.66-2.65V33.63A2.66,2.66,0,0,1,36.05,31h0a2.66,2.66,0,0,1,2.66,2.65v6.16A2.65,2.65,0,0,1,36.05,42.44Z" style="fill:#f4a845"/><path d="M137.49,13.66a5.87,5.87,0,1,0,11.73,0c0-2.49-3.48-6.11-5.08-7.64a1.15,1.15,0,0,0-1.58,0C141,7.55,137.49,11.17,137.49,13.66Z" style="fill:#ffbe55"/><path d="M140.13,15.67a3.23,3.23,0,1,0,6.45,0c0-1.37-1.92-3.36-2.79-4.2a.63.63,0,0,0-.87,0C142,12.31,140.13,14.3,140.13,15.67Z" style="fill:#f0ddaa"/><path d="M136.6,19.52h13.51a3.17,3.17,0,0,1,3.17,3.17V43.36a5.48,5.48,0,0,1-5.48,5.48h-8.88a5.48,5.48,0,0,1-5.48-5.48V22.68A3.17,3.17,0,0,1,136.6,19.52Z" transform="translate(286.71 68.36) rotate(180)" style="fill:#ed913e"/><path d="M134.13,19.52h18.45a2.74,2.74,0,0,1,2.74,2.74h0v4.46a3,3,0,0,1-3,3h0a3,3,0,0,1-3-3v-.35A1.36,1.36,0,0,0,148,25h0a1.36,1.36,0,0,0-1.37,1.36v.05A2.56,2.56,0,0,1,144.09,29h0a2.55,2.55,0,0,1-2.55-2.55v-.05A1.37,1.37,0,0,0,140.17,25h-6a2.75,2.75,0,0,1-2.75-2.75h0A2.74,2.74,0,0,1,134.13,19.52Z" style="fill:#ffbe55"/><path d="M143.35,21.34a.83.83,0,0,0,.83-.83V16.87a.83.83,0,1,0-1.65,0v3.64A.83.83,0,0,0,143.35,21.34Z" style="fill:#70575c"/><path d="M146.73,43.15h0a2.66,2.66,0,0,1-2.66-2.66V35.81a2.66,2.66,0,0,1,2.66-2.66h0a2.66,2.66,0,0,1,2.66,2.66v4.68A2.66,2.66,0,0,1,146.73,43.15Z" style="fill:#f4a845"/><path d="M562.24,13a5.87,5.87,0,1,1-11.73,0c0-2.5,3.47-6.11,5.07-7.64a1.13,1.13,0,0,1,1.58,0C558.76,6.85,562.24,10.46,562.24,13Z" style="fill:#ffbe55"/><path d="M559.6,15a3.23,3.23,0,0,1-6.45,0c0-1.37,1.91-3.36,2.79-4.2a.6.6,0,0,1,.86,0C557.68,11.61,559.6,13.6,559.6,15Z" style="fill:#f0ddaa"/><path d="M551.93,18.81h8.88a5.48,5.48,0,0,1,5.48,5.48V45a3.17,3.17,0,0,1-3.17,3.17H549.62A3.17,3.17,0,0,1,546.45,45V24.3A5.48,5.48,0,0,1,551.93,18.81Z" style="fill:#ed913e"/><path d="M565.6,18.81H547.15a2.75,2.75,0,0,0-2.75,2.75h0V29a3,3,0,0,0,3,3h0a3,3,0,0,0,3-3V25.67a1.38,1.38,0,0,1,1.37-1.37h0a1.37,1.37,0,0,1,1.37,1.37v0a2.55,2.55,0,0,0,2.56,2.56h0a2.55,2.55,0,0,0,2.55-2.56v0a1.37,1.37,0,0,1,1.37-1.37h6a2.74,2.74,0,0,0,2.74-2.74h0A2.75,2.75,0,0,0,565.6,18.81Z" style="fill:#ffbe55"/><path d="M556.37,20.63a.82.82,0,0,1-.82-.82V16.17a.83.83,0,1,1,1.65,0v3.64A.83.83,0,0,1,556.37,20.63Z" style="fill:#70575c"/><path d="M552.6,43.84h0a2.66,2.66,0,0,1-2.66-2.66V36.43a2.66,2.66,0,0,1,2.66-2.65h0a2.65,2.65,0,0,1,2.65,2.65v4.75A2.66,2.66,0,0,1,552.6,43.84Z" style="fill:#f4a845"/></g></g></g></svg>