<svg xmlns="http://www.w3.org/2000/svg" viewBox="0 0 80 80" width="16px" height="16px"><path fill="#99c99e" d="M34.316 39.5L16.79 2.5 29.685 2.5 47.35 39.5z"/><path fill="#5e9c76" d="M29.369,3l17.188,36H34.633L17.58,3H29.369 M30,2H16l18,38h14.143L30,2L30,2z"/><path fill="#99c99e" d="M32.65 39.5L50.315 2.5 63.21 2.5 45.684 39.5z"/><path fill="#5e9c76" d="M62.42,3L45.367,39H33.443L50.631,3H62.42 M64,2H50L31.857,40H46L64,2L64,2z"/><path fill="#ffeea3" d="M40,77.5c-11.855,0-21.5-9.645-21.5-21.5S28.145,34.5,40,34.5S61.5,44.145,61.5,56 S51.855,77.5,40,77.5z"/><path fill="#f5c276" d="M40,35c11.579,0,21,9.421,21,21s-9.421,21-21,21s-21-9.421-21-21S28.421,35,40,35 M40,34 c-12.15,0-22,9.85-22,22s9.85,22,22,22s22-9.85,22-22S52.15,34,40,34L40,34z"/><path fill="#f5c276" d="M41.172,43.957V64H38V47.84c-0.574,0.41-1.191,0.759-1.853,1.046s-1.3,0.54-2.147,0.759v-2.707	c0.528-0.173,0.924-0.355,1.416-0.547s0.978-0.405,1.456-0.643s0.962-0.501,1.449-0.793s0.991-0.624,1.511-0.998H41.172z"/><path fill="#f5c276" d="M55,56c0,2.071-0.42,4.044-1.179,5.839c-0.38,0.897-0.844,1.75-1.383,2.548	c-1.078,1.596-2.456,2.973-4.052,4.052c-0.798,0.539-1.651,1.003-2.548,1.383C44.044,70.58,42.071,71,40,71	c-3.107,0-5.993-0.944-8.387-2.562c-1.197-0.809-2.271-1.786-3.188-2.897c-0.917-1.111-1.677-2.357-2.247-3.703	C25.42,60.044,25,58.071,25,56h-1c0,8.837,7.163,16,16,16s16-7.163,16-16H55z"/></svg>