<svg xmlns="http://www.w3.org/2000/svg" viewBox="0 0 149.4 112.94"><title>painting_3</title><g id="Layer_2" data-name="Layer 2"><g id="Layer_1-2" data-name="Layer 1"><rect x="29.2" y="-7.26" width="91" height="127.46" transform="translate(131.17 -18.23) rotate(90)" style="fill:#fec578"/><path d="M149.4,11v91a11,11,0,0,1-11,11H11A11,11,0,0,1,0,102V11A11,11,0,0,1,11,0H138.43A11,11,0,0,1,149.4,11ZM127.46,91V21.94H21.94V91Z" style="fill:#b26655"/><path d="M84.54,101.37c0,.25,0,.51,0,.76a10.77,10.77,0,0,0,10.86,10.81h15.74a10.87,10.87,0,0,0,10.62-13.18l0-.22A10.88,10.88,0,0,0,111.09,91H95.4A10.83,10.83,0,0,0,84.54,101.37Z" style="fill:#cf815a"/><path d="M67.58,102a11,11,0,0,1-11,11H11A11,11,0,0,1,0,102V66.82a11,11,0,0,1,21.94,0V91H56.61A11,11,0,0,1,67.58,102Z" style="fill:#cf815a"/><path d="M80.07,57.77H41.74a8.43,8.43,0,0,1-8.43-8.43h0a8.42,8.42,0,0,1,8.43-8.43H80.07a8.43,8.43,0,0,1,8.43,8.43h0A8.44,8.44,0,0,1,80.07,57.77Z" style="fill:#fde1aa"/><path d="M107.66,49.34H69.33a8.44,8.44,0,0,1-8.43-8.43h0a8.43,8.43,0,0,1,8.43-8.43h38.33a8.42,8.42,0,0,1,8.43,8.43h0A8.43,8.43,0,0,1,107.66,49.34Z" style="fill:#fde1aa"/><path d="M116.1,62.69h-3.9a4,4,0,0,1-4-4h0a4,4,0,0,1,4-4h3.9a4,4,0,0,1,4.05,4h0A4,4,0,0,1,116.1,62.69Z" style="fill:#fde1aa"/><path d="M127.41,91,92.85,48.53a6.14,6.14,0,0,0-9.53,0l-14,17.26a6.14,6.14,0,0,1-9.53,0l-1.81-2.23a6.14,6.14,0,0,0-9.53,0L26.08,91H127.41Z" style="fill:#726574"/><path d="M75.2,65.79a6.14,6.14,0,0,0,9.53,0l8.12-10a5.75,5.75,0,0,0,0-7.28h0a6.14,6.14,0,0,0-9.53,0l-8.2,10.08a5.63,5.63,0,0,0,0,7.09Z" style="fill:#a497a4"/><path d="M57.94,63.56a6.14,6.14,0,0,0-9.53,0L26.08,91H41.53L58,70.74a5.62,5.62,0,0,0,0-7.08Z" style="fill:#a497a4"/><path d="M55.58,84.39H47.9A3.36,3.36,0,0,1,44.53,81h0a3.37,3.37,0,0,1,3.37-3.37h7.68A3.37,3.37,0,0,1,59,81h0A3.36,3.36,0,0,1,55.58,84.39Z" style="fill:#a497a4"/><path d="M91.58,80.38H83.89A3.37,3.37,0,0,1,80.53,77h0a3.36,3.36,0,0,1,3.36-3.36h7.69A3.35,3.35,0,0,1,94.94,77h0A3.36,3.36,0,0,1,91.58,80.38Z" style="fill:#a497a4"/></g></g></svg>