<svg xmlns="http://www.w3.org/2000/svg" viewBox="0 0 340.11 209.49"><title>painting_info</title><g id="Layer_2" data-name="Layer 2"><g id="Layer_1-2" data-name="Layer 1"><rect x="76.28" y="-54.34" width="187.56" height="318.17" transform="translate(274.8 -65.31) rotate(90)" style="fill:#6d4a4e"/><path d="M318.17,187.56V21.94H21.94V187.56ZM340.11,11V198.52a11,11,0,0,1-11,11H11a11,11,0,0,1-11-11V11A11,11,0,0,1,11,0H329.14A11,11,0,0,1,340.11,11Z" style="fill:#b26655"/><path d="M84.54,197.93c0,.25,0,.5,0,.76a10.77,10.77,0,0,0,10.86,10.8h15.74a10.86,10.86,0,0,0,10.62-13.17l0-.23a10.87,10.87,0,0,0-10.61-8.53H95.4A10.82,10.82,0,0,0,84.54,197.93Z" style="fill:#cf815a"/><path d="M67.58,198.52a11,11,0,0,1-11,11H11a11,11,0,0,1-11-11V163.37a11,11,0,0,1,21.94,0v24.19H56.61A11,11,0,0,1,67.58,198.52Z" style="fill:#cf815a"/><path d="M328.14,86l.22,0a10.82,10.82,0,0,1,11.75,10.78v5.62a10.78,10.78,0,0,1-13.46,10.49l-.6-.16a10.73,10.73,0,0,1-7.78-10.38V96.8A10.83,10.83,0,0,1,328.14,86Z" style="fill:#cf815a"/><path d="M329.19,67.28a10.92,10.92,0,0,0,10.92-10.92V10.92A10.92,10.92,0,0,0,329.19,0h-35a10.92,10.92,0,0,0,0,21.84h24.08V56.36A10.92,10.92,0,0,0,329.19,67.28Z" style="fill:#cf815a"/><path d="M300.61,198.52h0a11,11,0,0,1-11,11H225.15a11,11,0,0,1-11-11h0a11,11,0,0,1,11-11h64.49A11,11,0,0,1,300.61,198.52Z" style="fill:#cf815a"/></g></g></svg>