<svg xmlns="http://www.w3.org/2000/svg" viewBox="0 0 103.84 137.37"><title>painting_1</title><g id="Layer_2" data-name="Layer 2"><g id="Layer_1-2" data-name="Layer 1"><rect x="10.09" y="10.09" width="83.67" height="117.2" style="fill:#fec578"/><path d="M54.81,64.54a5.16,5.16,0,0,0-9.89,0L26,127.55H73.75Z" style="fill:#a497a4"/><path d="M73.23,71.53a4,4,0,0,0-7.65,0L50.92,120.28h37Z" style="fill:#837684"/><path d="M35.36,78.72a3.59,3.59,0,0,0-6.87,0L15.33,122.49H48.52Z" style="fill:#726574"/><path d="M10.08,0H93.76a10.08,10.08,0,0,1,10.08,10.09V127.28a10.08,10.08,0,0,1-10.08,10.09H10.08A10.09,10.09,0,0,1,0,127.28V10.09A10.09,10.09,0,0,1,10.08,0ZM83.67,20.17H20.17v97h63.5Z" style="fill:#b26655"/><path d="M92.79,57.93,93,58a10,10,0,0,0,10.84-10V42.8a10,10,0,0,0-12.42-9.68l-.56.15a9.9,9.9,0,0,0-7.19,9.58V48A10,10,0,0,0,92.79,57.93Z" style="fill:#cf815a"/><path d="M93.76,75.24a10.08,10.08,0,0,1,10.08,10.08v42a10.08,10.08,0,0,1-10.08,10.09H61.44a10.09,10.09,0,1,1,0-20.17H83.67V85.32A10.08,10.08,0,0,1,93.76,75.24Z" style="fill:#cf815a"/><circle cx="52.1" cy="42.8" r="10.02" style="fill:#fde1aa"/></g></g></svg>