<svg xmlns="http://www.w3.org/2000/svg" viewBox="0 0 92.98 121.97"><title>painting_2</title><g id="Layer_2" data-name="Layer 2"><g id="Layer_1-2" data-name="Layer 1"><path d="M46.49,112.28h0a36.8,36.8,0,0,1-36.8-36.8v-29a36.79,36.79,0,0,1,36.8-36.8h0a36.79,36.79,0,0,1,36.8,36.8v29A36.8,36.8,0,0,1,46.49,112.28Z" style="fill:#fec578"/><rect x="11.35" y="75.16" width="73.61" height="13.38" rx="2.03" ry="2.03" style="fill:#fde1aa"/><path d="M78.27,47.29h-20a6.7,6.7,0,0,1-6.69-6.69h0a6.69,6.69,0,0,1,6.69-6.69h20A6.68,6.68,0,0,1,85,40.6h0A6.69,6.69,0,0,1,78.27,47.29Z" style="fill:#fde1aa"/><path d="M46.49,111.49h0A16.77,16.77,0,0,1,29.72,94.72V87.18A16.77,16.77,0,0,1,46.49,70.41h0A16.77,16.77,0,0,1,63.26,87.18v7.54A16.77,16.77,0,0,1,46.49,111.49Z" style="fill:#726574"/><path d="M46.49,72.42h0a13,13,0,0,1-13-13V53.54a13,13,0,0,1,13-13h0a13,13,0,0,1,13,13v5.85A13,13,0,0,1,46.49,72.42Z" style="fill:#a497a4"/><path d="M37.13,39.61H56a2,2,0,0,1,2,2v8.89a1.22,1.22,0,0,1-1.22,1.22H36.37a1.22,1.22,0,0,1-1.22-1.22V41.58A2,2,0,0,1,37.13,39.61Z" style="fill:#726574"/><path d="M60.38,54.11H32.6a3.28,3.28,0,0,1-3.28-3.28h0a3.28,3.28,0,0,1,3.28-3.28H60.38a3.28,3.28,0,0,1,3.28,3.28h0A3.28,3.28,0,0,1,60.38,54.11Z" style="fill:#837684"/><path d="M46.49,122A46.55,46.55,0,0,1,0,75.48v-29a46.49,46.49,0,0,1,93,0v29A46.55,46.55,0,0,1,46.49,122Zm0-102.6A27.16,27.16,0,0,0,19.37,46.49v29a27.12,27.12,0,0,0,54.24,0v-29A27.16,27.16,0,0,0,46.49,19.37Z" style="fill:#b26655"/><path d="M73,24.62l-.79.94a9.29,9.29,0,0,0-1.07,9.76,26.77,26.77,0,0,1,2.43,11.17v29a27.13,27.13,0,0,1-18.39,25.64,9.48,9.48,0,0,0-6.52,9.5l0,.58A9.35,9.35,0,0,0,61,119.64,46.58,46.58,0,0,0,93,75.48v-29a46.15,46.15,0,0,0-4.4-19.71A9.33,9.33,0,0,0,73,24.62Z" style="fill:#cf815a"/></g></g></svg>