<svg xmlns="http://www.w3.org/2000/svg" viewBox="0 0 208.62 373.47"><title>shelf</title><g id="Layer_2" data-name="Layer 2"><g id="Layer_1-2" data-name="Layer 1"><path d="M178.68,373.47h7.13a7.35,7.35,0,0,0,7.34-7.35V173.46H171.33V366.12A7.35,7.35,0,0,0,178.68,373.47Z" style="fill:#895551"/><rect x="15.47" y="141.04" width="177.69" height="202.72" rx="9.28" ry="9.28" style="fill:#b26655"/><path d="M29.94,373.47H22.81a7.34,7.34,0,0,1-7.34-7.35V173.46H37.28V366.12A7.35,7.35,0,0,1,29.94,373.47Z" style="fill:#975952"/><rect x="6.52" y="140.92" width="195.57" height="32.71" rx="5.04" ry="5.04" style="fill:#7a504f"/><path d="M191.68,140.92H135a10.42,10.42,0,0,1,10.42,10.42v11.87A10.42,10.42,0,0,1,135,173.63h56.72a10.42,10.42,0,0,0,10.42-10.42V151.34A10.42,10.42,0,0,0,191.68,140.92Z" style="fill:#6d4a4e"/><path d="M197.52,161.17H11.1A11.1,11.1,0,0,1,0,150.07H0A11.1,11.1,0,0,1,11.1,139H197.52a11.1,11.1,0,0,1,11.1,11.1h0A11.1,11.1,0,0,1,197.52,161.17Z" style="fill:#975952"/><path d="M69.3,161.17H11.1A11.1,11.1,0,0,1,0,150.07H0A11.1,11.1,0,0,1,11.1,139H69.3a11.1,11.1,0,0,1,11.1,11.1h0A11.1,11.1,0,0,1,69.3,161.17Z" style="fill:#b26655"/><path d="M124.08,161.17h-18A11.1,11.1,0,0,1,95,150.07h0a11.1,11.1,0,0,1,11.1-11.1h18a11.1,11.1,0,0,1,11.1,11.1h0A11.1,11.1,0,0,1,124.08,161.17Z" style="fill:#b26655"/><rect x="37.28" y="259.95" width="134.05" height="66.16" rx="3.96" ry="3.96" style="fill:#6d4a4e"/><path d="M52.4,303.73a25.89,25.89,0,0,1,25.88-25.89h83.33a9.72,9.72,0,0,0,9.72-9.72h0a8.17,8.17,0,0,0-8.17-8.17H45.46a8.17,8.17,0,0,0-8.18,8.17v49.81a8.17,8.17,0,0,0,8.18,8.17h0a6.94,6.94,0,0,0,6.94-6.94Z" style="fill:#5c424b"/><rect x="41.23" y="194.16" width="126.16" height="45.1" rx="4.23" ry="4.23" style="fill:#b26655"/><path d="M163.16,198.1a.29.29,0,0,1,.28.28V235a.28.28,0,0,1-.28.28H45.46a.27.27,0,0,1-.28-.28V198.38a.28.28,0,0,1,.28-.28Zm0-7.89H45.46a8.17,8.17,0,0,0-8.18,8.17V235a8.18,8.18,0,0,0,8.18,8.18h117.7a8.17,8.17,0,0,0,8.17-8.18V198.38a8.17,8.17,0,0,0-8.17-8.17Z" style="fill:#895551"/><path d="M191.68,173.63H178.75a11.4,11.4,0,0,0-10.85,7.88c-.23.72-.43,1.43-.61,2.15a11.47,11.47,0,0,0,2.34,9.73,8.11,8.11,0,0,1,1.7,5V235a8.17,8.17,0,0,1-8.17,8.18h-4.88a8.27,8.27,0,0,0-8.27,8.92c0,.06,0,.12,0,.17a8.33,8.33,0,0,0,8.27,7.66h4.87a8.17,8.17,0,0,1,8.17,8.17v49.81a8.17,8.17,0,0,1-8.17,8.17H150.54A8.71,8.71,0,0,0,142,333a1.16,1.16,0,0,0,0,.18,8.77,8.77,0,0,0,8.56,10.54h33.37a9.27,9.27,0,0,0,9.28-9.28v-161A11.82,11.82,0,0,1,191.68,173.63Z" style="fill:#895551"/><path d="M81.14,173.63H16.94a11.82,11.82,0,0,1-1.47-.11V300.4a10.8,10.8,0,0,0,12.66,10.65l.22,0a10.81,10.81,0,0,0,8.93-10.64V268.12A8.17,8.17,0,0,1,45.46,260H57.35a8.3,8.3,0,0,0,8.28-8.08v-.16a8.29,8.29,0,0,0-8.29-8.51H45.46A8.18,8.18,0,0,1,37.28,235V198.38a8.17,8.17,0,0,1,8.18-8.17H81.14a8.19,8.19,0,0,0,8.18-7.78v-.19A8.2,8.2,0,0,0,81.14,173.63Z" style="fill:#cf815a"/><path d="M81.29,249.51a2.7,2.7,0,0,0,0,.28,5.53,5.53,0,0,0,5.49,4.66h5.06a5.57,5.57,0,0,0,5.53-6.24l0-.11a5.57,5.57,0,0,0-5.52-4.9H86.81A5.55,5.55,0,0,0,81.29,249.51Z" style="fill:#cf815a"/><path d="M117.14,219.82H91.47a4.6,4.6,0,0,1-4.6-4.61h0a4.6,4.6,0,0,1,4.6-4.6h25.67a4.61,4.61,0,0,1,4.61,4.6h0A4.61,4.61,0,0,1,117.14,219.82Z" style="fill:#7a504f"/><path d="M58.9,156.14H53.63A4.11,4.11,0,0,1,49.52,152h0a4.11,4.11,0,0,1,4.11-4.11H58.9A4.11,4.11,0,0,1,63,152h0A4.11,4.11,0,0,1,58.9,156.14Z" style="fill:#975952"/><rect x="143.92" y="173.63" width="13.5" height="8.23" rx="4.11" ry="4.11" style="fill:#975952"/><g style="opacity:0.8"><path d="M179.71,153.45h-5.28a4.11,4.11,0,0,1-4.11-4.11h0a4.11,4.11,0,0,1,4.11-4.11h5.28a4.11,4.11,0,0,1,4.11,4.11h0A4.11,4.11,0,0,1,179.71,153.45Z" style="fill:#7a504f"/></g><path d="M178.13,242.83V221.51a4.11,4.11,0,0,1,4.11-4.11h0a4.12,4.12,0,0,1,4.12,4.11v21.32a4.12,4.12,0,0,1-4.12,4.11h0A4.11,4.11,0,0,1,178.13,242.83Z" style="fill:#7a504f"/><path d="M178.13,277.78V273.1a4.11,4.11,0,0,1,4.11-4.11h0a4.12,4.12,0,0,1,4.12,4.11v4.68a4.12,4.12,0,0,1-4.12,4.11h0A4.11,4.11,0,0,1,178.13,277.78Z" style="fill:#7a504f"/><path d="M22.26,320.43v-1.1a4.11,4.11,0,0,1,4.11-4.11h0a4.12,4.12,0,0,1,4.12,4.11v1.1a4.13,4.13,0,0,1-4.12,4.12h0A4.12,4.12,0,0,1,22.26,320.43Z" style="fill:#b26655"/><path d="M22.26,211.1v-4.68a4.11,4.11,0,0,1,4.11-4.11h0a4.12,4.12,0,0,1,4.12,4.11v4.68a4.12,4.12,0,0,1-4.12,4.11h0A4.11,4.11,0,0,1,22.26,211.1Z" style="fill:#df9760"/><path d="M22.26,293.72V280a4.11,4.11,0,0,1,4.11-4.11h0A4.12,4.12,0,0,1,30.49,280v13.72a4.12,4.12,0,0,1-4.12,4.11h0A4.11,4.11,0,0,1,22.26,293.72Z" style="fill:#b26655"/><path d="M127.14,331.6h3.11a4.11,4.11,0,0,1,4.11,4.11h0a4.11,4.11,0,0,1-4.11,4.12h-3.11a4.11,4.11,0,0,1-4.11-4.12h0A4.11,4.11,0,0,1,127.14,331.6Z" style="fill:#975952"/><path d="M157.59,115.91h0a2.71,2.71,0,0,0,2.71-2.72V14.6a2.71,2.71,0,0,0-2.71-2.71h0a2.71,2.71,0,0,0-2.71,2.71v98.59A2.71,2.71,0,0,0,157.59,115.91Z" style="fill:#6f8e67"/><path d="M157.59,116.46a3.27,3.27,0,0,1-3.27-3.27V14.61a3.27,3.27,0,0,1,6.54,0v98.58A3.27,3.27,0,0,1,157.59,116.46Zm0-104a2.16,2.16,0,0,0-2.16,2.16v98.58a2.16,2.16,0,0,0,4.32,0V14.61A2.16,2.16,0,0,0,157.59,12.45Z" style="fill:#6f8e67"/><path d="M157.59,23.78h0a5.09,5.09,0,0,0,5.09-5.08V5.09A5.09,5.09,0,0,0,157.59,0h0a5.08,5.08,0,0,0-5.08,5.09V18.7A5.08,5.08,0,0,0,157.59,23.78Z" style="fill:#91ae66"/><path d="M154,25.11h0a5.09,5.09,0,0,1,0-7.19l9.63-9.63a5.09,5.09,0,0,1,7.19,0h0a5.09,5.09,0,0,1,0,7.2l-9.62,9.62A5.09,5.09,0,0,1,154,25.11Z" style="fill:#6f8e67"/><path d="M161.19,25.11h0a5.09,5.09,0,0,0,0-7.19l-9.63-9.63a5.09,5.09,0,0,0-7.19,0h0a5.09,5.09,0,0,0,0,7.2L154,25.11A5.09,5.09,0,0,0,161.19,25.11Z" style="fill:#91ae66"/><path d="M152,16h0a5.08,5.08,0,0,0,0-7.19l-.48-.48a5.09,5.09,0,0,0-7.19,0h0a5.09,5.09,0,0,0,0,7.2l.48.47A5.08,5.08,0,0,0,152,16Z" style="fill:#b6c65d"/><path d="M152.65,47.81h0a7,7,0,0,1,0-9.87l13.22-13.21a7,7,0,0,1,9.87,0h0a7,7,0,0,1,0,9.87L162.53,47.81A7,7,0,0,1,152.65,47.81Z" style="fill:#6f8e67"/><path d="M162.53,47.81h0a7,7,0,0,0,0-9.87L149.32,24.73a7,7,0,0,0-9.88,0h0a7,7,0,0,0,0,9.87l13.21,13.21A7,7,0,0,0,162.53,47.81Z" style="fill:#90ae67"/><path d="M150.92,36.21h0a7,7,0,0,0,0-9.87l-1.6-1.61a7,7,0,0,0-9.88,0h0a7,7,0,0,0,0,9.87l1.61,1.61A7,7,0,0,0,150.92,36.21Z" style="fill:#b6c65d"/><path d="M156.66,91.13h0a2.72,2.72,0,0,0,3.84,0l34.59-34.6a2.7,2.7,0,0,0,0-3.83h0a2.72,2.72,0,0,0-3.84,0L156.66,87.29A2.72,2.72,0,0,0,156.66,91.13Z" style="fill:#6f8e67"/><path d="M158.58,92.48a3.27,3.27,0,0,1-2.32-5.58l34.6-34.6a3.27,3.27,0,1,1,4.62,4.63L160.89,91.52A3.25,3.25,0,0,1,158.58,92.48Zm34.59-40a2.17,2.17,0,0,0-1.53.63L157.05,87.68a2.14,2.14,0,0,0-.63,1.53,2.1,2.1,0,0,0,.63,1.52,2.2,2.2,0,0,0,3,0l34.6-34.59a2.16,2.16,0,0,0-1.53-3.68Z" style="fill:#6f8e67"/><path d="M186.68,61.1h0a5.08,5.08,0,0,0,7.19,0l9.63-9.62a5.09,5.09,0,0,0,0-7.19h0a5.08,5.08,0,0,0-7.19,0l-9.63,9.62A5.09,5.09,0,0,0,186.68,61.1Z" style="fill:#91ae66"/><path d="M183.2,59.5h0a5.08,5.08,0,0,1,5.08-5.08h13.61A5.08,5.08,0,0,1,207,59.5h0a5.09,5.09,0,0,1-5.09,5.09H188.28A5.09,5.09,0,0,1,183.2,59.5Z" style="fill:#6f8e67"/><rect x="183.2" y="40.81" width="10.17" height="23.78" rx="5.09" ry="5.09" style="fill:#91ae66"/><rect x="183.2" y="40.81" width="10.17" height="10.85" rx="5.09" ry="5.09" style="fill:#91ae66"/><path d="M166.2,74.61h0a7,7,0,0,1,7-7h18.68a7,7,0,0,1,7,7h0a7,7,0,0,1-7,7H173.18A7,7,0,0,1,166.2,74.61Z" style="fill:#6f8e67"/><path d="M173.18,81.59h0a7,7,0,0,0,7-7V55.92a7,7,0,0,0-7-7h0a7,7,0,0,0-7,7V74.61A7,7,0,0,0,173.18,81.59Z" style="fill:#91ae66"/><path d="M173.18,65.18h0a7,7,0,0,0,7-7V55.92a7,7,0,0,0-7-7h0a7,7,0,0,0-7,7V58.2A7,7,0,0,0,173.18,65.18Z" style="fill:#b6c65d"/><path d="M159.11,91.71h0a2.72,2.72,0,0,0,0-3.84L123.93,52.7a2.72,2.72,0,0,0-3.84,0h0a2.7,2.7,0,0,0,0,3.83l35.18,35.18A2.72,2.72,0,0,0,159.11,91.71Z" style="fill:#6f8e67"/><path d="M157.19,93.06a3.26,3.26,0,0,1-2.31-1L119.7,56.93a3.27,3.27,0,1,1,4.62-4.63L159.5,87.48a3.27,3.27,0,0,1-2.31,5.58ZM122,52.46a2.1,2.1,0,0,0-1.52.63,2.14,2.14,0,0,0,0,3l35.17,35.18a2.22,2.22,0,0,0,3.06,0,2.16,2.16,0,0,0,0-3L123.54,53.09A2.14,2.14,0,0,0,122,52.46Z" style="fill:#6f8e67"/><path d="M128.5,61.1h0a5.08,5.08,0,0,0,0-7.19l-9.62-9.62a5.09,5.09,0,0,0-7.2,0h0a5.09,5.09,0,0,0,0,7.19l9.63,9.62A5.08,5.08,0,0,0,128.5,61.1Z" style="fill:#91ae66"/><path d="M126.9,64.59h0a5.09,5.09,0,0,1-5.09-5.09V45.89a5.08,5.08,0,0,1,5.09-5.08h0A5.07,5.07,0,0,1,132,45.89V59.5A5.08,5.08,0,0,1,126.9,64.59Z" style="fill:#6f8e67"/><path d="M132,59.5h0a5.07,5.07,0,0,0-5.08-5.08H113.29a5.08,5.08,0,0,0-5.09,5.08h0a5.09,5.09,0,0,0,5.09,5.09H126.9A5.08,5.08,0,0,0,132,59.5Z" style="fill:#91ae66"/><path d="M119.05,59.5h0A5.08,5.08,0,0,0,114,54.42h-.67a5.08,5.08,0,0,0-5.09,5.08h0a5.09,5.09,0,0,0,5.09,5.09H114A5.09,5.09,0,0,0,119.05,59.5Z" style="fill:#91ae66"/><path d="M142,81.59h0a7,7,0,0,1-7-7V55.92a7,7,0,0,1,7-7h0a7,7,0,0,1,7,7V74.61A7,7,0,0,1,142,81.59Z" style="fill:#6f8e67"/><path d="M149,74.61h0a7,7,0,0,0-7-7H123.32a7,7,0,0,0-7,7h0a7,7,0,0,0,7,7H142A7,7,0,0,0,149,74.61Z" style="fill:#90ae67"/><path d="M132.57,74.61h0a7,7,0,0,0-7-7h-2.27a7,7,0,0,0-7,7h0a7,7,0,0,0,7,7h2.27A7,7,0,0,0,132.57,74.61Z" style="fill:#7fa069"/><path d="M178.7,139H135.9a4.7,4.7,0,0,1-4.67-4.06l-6.62-48.2a4.7,4.7,0,0,1,4.66-5.34h56A4.7,4.7,0,0,1,190,86.71l-6.62,48.2A4.7,4.7,0,0,1,178.7,139Z" style="fill:#a497a4"/><path d="M185.32,81.37h-56a4.7,4.7,0,0,0-4.66,5.34l3.58,7.87h11a31.71,31.71,0,0,1,31.42,36l-.72,5.23h0a2.74,2.74,0,0,0,2.71,3.13h6.12a4.7,4.7,0,0,0,4.66-4.06L190,86.71A4.7,4.7,0,0,0,185.32,81.37Z" style="fill:#948895"/><path d="M186.6,94.58H128a6.6,6.6,0,0,1-6.61-6.6h0A6.61,6.61,0,0,1,128,81.37h58.6A6.61,6.61,0,0,1,193.21,88h0A6.6,6.6,0,0,1,186.6,94.58Z" style="fill:#b6abb6"/><path d="M141.65,94.58H128a6.6,6.6,0,0,1-6.61-6.6h0A6.61,6.61,0,0,1,128,81.37h13.65A6.61,6.61,0,0,1,148.26,88h0A6.6,6.6,0,0,1,141.65,94.58Z" style="fill:#d6ccd6"/><path d="M133.41,100.45h0a6.85,6.85,0,0,0-5.85,7.72l2.31,16.8a6.84,6.84,0,0,0,7.71,5.85h0a6.84,6.84,0,0,0,5.85-7.71l-2.31-16.81A6.85,6.85,0,0,0,133.41,100.45Z" style="fill:#d6ccd6"/><path d="M148.34,326.1H69.54V295.41h78.8a15.35,15.35,0,0,1,15.35,15.35h0A15.34,15.34,0,0,1,148.34,326.1Z" style="fill:#948895"/><path d="M63.3,299H96.61a11.75,11.75,0,0,1,11.75,11.75h0A11.75,11.75,0,0,1,96.61,322.5H63.3Z" style="fill:#ffd07d"/><path d="M96.61,326.1H60.74a3.6,3.6,0,1,1,0-7.2H96.61a8.14,8.14,0,1,0,0-16.28H60.74a3.61,3.61,0,0,1,0-7.21H96.61a15.35,15.35,0,1,1,0,30.69Z" style="fill:#b6abb6"/><path d="M121.05,318.74a3.6,3.6,0,0,1-3.6-3.6v-9.08a3.6,3.6,0,0,1,7.2,0v9.08A3.6,3.6,0,0,1,121.05,318.74Z" style="fill:#726574"/><path d="M132,318.74a3.6,3.6,0,0,1-3.6-3.6v-9.08a3.6,3.6,0,0,1,7.2,0v9.08A3.6,3.6,0,0,1,132,318.74Z" style="fill:#726574"/></g></g></svg>