<svg xmlns="http://www.w3.org/2000/svg" viewBox="0 0 80 80" width="16px" height="16px"><path fill="#99c99e" d="M34.316 39.5L16.79 2.5 29.685 2.5 47.35 39.5z"/><path fill="#5e9c76" d="M29.369,3l17.188,36H34.633L17.58,3H29.369 M30,2H16l18,38h14.143L30,2L30,2z"/><path fill="#99c99e" d="M32.65 39.5L50.315 2.5 63.21 2.5 45.684 39.5z"/><path fill="#5e9c76" d="M62.42,3L45.367,39H33.443L50.631,3H62.42 M64,2H50L31.857,40H46L64,2L64,2z"/><path fill="#e1ebf2" d="M40,77.5c-11.855,0-21.5-9.645-21.5-21.5S28.145,34.5,40,34.5S61.5,44.145,61.5,56 S51.855,77.5,40,77.5z"/><path fill="#a3b7cc" d="M40,35c11.579,0,21,9.421,21,21s-9.421,21-21,21s-21-9.421-21-21S28.421,35,40,35 M40,34 c-12.15,0-22,9.85-22,22s9.85,22,22,22s22-9.85,22-22S52.15,34,40,34L40,34z"/><path fill="#a3b7cc" d="M45.996,64h-12v-1.584c0-0.62,0.088-1.201,0.26-1.743s0.406-1.053,0.697-1.531	c0.291-0.479,0.635-0.93,1.025-1.354s0.813-0.834,1.258-1.23s0.902-0.779,1.367-1.148s0.922-0.74,1.367-1.114	c0.418-0.355,0.801-0.704,1.148-1.046s0.643-0.695,0.889-1.06s0.438-0.75,0.574-1.155s0.205-0.846,0.205-1.319	c0-0.52-0.08-0.973-0.238-1.36c-0.16-0.388-0.383-0.711-0.672-0.971c-0.285-0.26-0.625-0.456-1.018-0.588s-0.82-0.198-1.285-0.198	c-0.803,0-1.619,0.187-2.447,0.561s-1.627,0.935-2.393,1.682v-3.049c0.4-0.301,0.807-0.563,1.217-0.786s0.834-0.41,1.271-0.561	s0.896-0.262,1.381-0.335S39.602,44,40.148,44c0.885,0,1.686,0.116,2.406,0.349s1.334,0.574,1.846,1.025	c0.512,0.451,0.904,1.014,1.184,1.688C45.861,47.737,46,48.512,46,49.387c0,0.793-0.098,1.506-0.295,2.14	c-0.195,0.634-0.473,1.224-0.832,1.771c-0.361,0.547-0.797,1.066-1.307,1.559s-1.08,0.998-1.709,1.518	c-0.527,0.429-1.055,0.846-1.578,1.251c-0.525,0.405-0.996,0.802-1.416,1.189s-0.76,0.774-1.018,1.162	c-0.262,0.388-0.391,0.777-0.391,1.169v0.068h8.541V64z"/><path fill="#a3b7cc" d="M55,56c0,2.071-0.42,4.044-1.179,5.839c-0.38,0.897-0.844,1.75-1.383,2.548	c-1.078,1.596-2.456,2.973-4.052,4.052c-0.798,0.539-1.651,1.003-2.548,1.383C44.044,70.58,42.071,71,40,71	c-3.107,0-5.993-0.944-8.387-2.562c-1.197-0.809-2.271-1.786-3.188-2.897c-0.917-1.111-1.677-2.357-2.247-3.703	C25.42,60.044,25,58.071,25,56h-1c0,8.837,7.163,16,16,16s16-7.163,16-16H55z"/></svg>