<svg id="Layer_1" data-name="Layer 1" xmlns="http://www.w3.org/2000/svg" viewBox="0 0 611.05 591.67"><title>sofa</title><rect x="43.68" y="10.92" width="250.58" height="382.37" style="fill:#6d4a4e"/><path d="M297.75,0H39.82a7.55,7.55,0,0,0-7.55,7.54V400.09a7.55,7.55,0,0,0,7.55,7.55H297.75a7.55,7.55,0,0,0,7.55-7.55V7.55A7.55,7.55,0,0,0,297.75,0ZM51.34,381V258.68a7.54,7.54,0,0,1,7.55-7.54H278.7a7.54,7.54,0,0,1,7.54,7.54V381a7.55,7.55,0,0,1-7.54,7.55H58.89A7.55,7.55,0,0,1,51.34,381Zm0-156.5v-88A7.55,7.55,0,0,1,58.89,129H278.7a7.55,7.55,0,0,1,7.54,7.55v88a7.55,7.55,0,0,1-7.54,7.55H58.89A7.55,7.55,0,0,1,51.34,224.53Zm0-122.14V26.61a7.54,7.54,0,0,1,7.55-7.54H278.7a7.54,7.54,0,0,1,7.54,7.54v75.78a7.55,7.55,0,0,1-7.54,7.54H58.89A7.55,7.55,0,0,1,51.34,102.39Z" style="fill:#b26655"/><path d="M159.48,388.58H58.89A7.55,7.55,0,0,1,51.34,381V290.74a9.42,9.42,0,0,0-8.88-9.43h-.19a9.48,9.48,0,0,0-10,9.43V400.09a7.55,7.55,0,0,0,7.55,7.55H159A89.3,89.3,0,0,0,159.48,388.58Z" style="fill:#975952"/><path d="M297.75,0H258.57a52.59,52.59,0,0,1-.2,10.31,22.63,22.63,0,0,1-4.34,6.5,19.76,19.76,0,0,0-.93,2.25h25.6a7.54,7.54,0,0,1,7.54,7.54v75.78a7.55,7.55,0,0,1-7.54,7.54H241.83a9.53,9.53,0,0,0-9.24,11.85h0a9.53,9.53,0,0,0,9.24,7.21H278.7a7.55,7.55,0,0,1,7.54,7.55v30.94a9.45,9.45,0,0,0,8.9,9.42l.19,0a9.44,9.44,0,0,0,10-9.43V7.55A7.55,7.55,0,0,0,297.75,0Z" style="fill:#cf815a"/><path d="M278.7,129H58.88a7.56,7.56,0,0,0-7.54,7.53,14.18,14.18,0,0,0,14.18,14.18H220.71a32.37,32.37,0,0,1,32.37,32.37v49h25.61a7.55,7.55,0,0,0,7.55-7.55v-88A7.54,7.54,0,0,0,278.7,129Z" style="fill:#5c424b"/><path d="M278.7,251.07H58.88a7.57,7.57,0,0,0-7.54,7.54,14.18,14.18,0,0,0,14.18,14.18H220.71a32.37,32.37,0,0,1,32.37,32.37v49h25.61a7.55,7.55,0,0,0,7.55-7.55v-88A7.55,7.55,0,0,0,278.7,251.07Z" style="fill:#5c424b"/><path d="M278.7,19.07H58.89a7.55,7.55,0,0,0-7.55,7.51A14.18,14.18,0,0,0,65.52,40.79H230.09a23,23,0,0,1,23,23v46.15H278.7a7.54,7.54,0,0,0,7.54-7.55V26.6A7.54,7.54,0,0,0,278.7,19.07Z" style="fill:#5c424b"/><rect x="63.19" y="41.28" width="22.73" height="68.95" rx="2.75" ry="2.75" style="fill:#a6be64"/><rect x="85.92" y="34.09" width="25.1" height="76.13" rx="1.51" ry="1.51" transform="translate(196.93 144.32) rotate(180)" style="fill:#c14f4f"/><path d="M142.76,109.56l17.94-6.34a3,3,0,0,0,1.85-3.87L139.2,33.29a3,3,0,0,0-3.87-1.85l-17.94,6.35a3,3,0,0,0-1.85,3.87l23.35,66.05A3,3,0,0,0,142.76,109.56Z" style="fill:#f1a043"/><path d="M155.56,96.85h0a5.74,5.74,0,0,0,3.51-7.34L142.68,43.13a5.77,5.77,0,0,0-7.34-3.51h0A5.76,5.76,0,0,0,131.83,47l16.39,46.38A5.75,5.75,0,0,0,155.56,96.85Z" style="fill:#ffc35f"/><path d="M80.24,101.25h0a5.69,5.69,0,0,0,5.68-5.69V58.07a5.69,5.69,0,0,0-5.68-5.69h0a5.69,5.69,0,0,0-5.69,5.69V95.56A5.69,5.69,0,0,0,80.24,101.25Z" style="fill:#ced66e"/><path d="M105.33,97.2h0A5.69,5.69,0,0,0,111,91.52V54a5.68,5.68,0,0,0-5.69-5.68h0A5.68,5.68,0,0,0,99.65,54v37.5A5.69,5.69,0,0,0,105.33,97.2Z" style="fill:#e06955"/><path d="M92.89,45.29H104a2,2,0,0,0,2-2h0a2,2,0,0,0-2-2H92.89a2,2,0,0,0-2,2h0A2,2,0,0,0,92.89,45.29Z" style="fill:#a34550"/><path d="M92.89,63.49H104a2,2,0,0,0,2-2h0a2,2,0,0,0-2-2H92.89a2,2,0,0,0-2,2h0A2,2,0,0,0,92.89,63.49Z" style="fill:#a34550"/><rect x="90.89" y="47.87" width="15.16" height="9.03" rx="1.06" ry="1.06" transform="translate(196.93 104.77) rotate(180)" style="fill:#a34550"/><rect x="243.09" y="156.09" width="25.04" height="75.95" rx="1.5" ry="1.5" style="fill:#c14f4f"/><path d="M261.87,224.84h0a6.26,6.26,0,0,1-6.26-6.26v-49a6.26,6.26,0,0,1,6.26-6.26h0a6.26,6.26,0,0,1,6.26,6.26v49A6.26,6.26,0,0,1,261.87,224.84Z" style="fill:#e06955"/><rect x="215.44" y="148.18" width="27.65" height="83.86" rx="1.66" ry="1.66" style="fill:#e06955"/><path d="M237.22,225.72h0a5.87,5.87,0,0,1-5.87-5.87V160.38a5.87,5.87,0,0,1,5.87-5.87h0a5.87,5.87,0,0,1,5.87,5.87v59.47A5.87,5.87,0,0,1,237.22,225.72Z" style="fill:#eb8e57"/><path d="M235.4,160.51H223.13a2.21,2.21,0,0,1-2.21-2.21h0a2.21,2.21,0,0,1,2.21-2.21H235.4a2.21,2.21,0,0,1,2.21,2.21h0A2.21,2.21,0,0,1,235.4,160.51Z" style="fill:#c14f4f"/><path d="M235.4,180.57H223.13a2.21,2.21,0,0,1-2.21-2.21h0a2.21,2.21,0,0,1,2.21-2.21H235.4a2.21,2.21,0,0,1,2.21,2.21h0A2.21,2.21,0,0,1,235.4,180.57Z" style="fill:#c14f4f"/><rect x="220.92" y="163.35" width="16.7" height="9.95" rx="1.17" ry="1.17" style="fill:#c14f4f"/><rect x="162.75" y="156.09" width="25.04" height="75.95" rx="1.5" ry="1.5" transform="translate(350.55 388.14) rotate(180)" style="fill:#f1a043"/><path d="M181.22,223.41h0a6.58,6.58,0,0,0,6.57-6.58V171.31a6.58,6.58,0,0,0-6.57-6.58h0a6.58,6.58,0,0,0-6.58,6.58v45.52A6.58,6.58,0,0,0,181.22,223.41Z" style="fill:#ffc35f"/><rect x="187.79" y="160.23" width="27.65" height="71.81" rx="3.09" ry="3.09" style="fill:#a6be64"/><path d="M209.44,222.8h0a6,6,0,0,0,6-6V175.48a6,6,0,0,0-6-6h0a6,6,0,0,0-6,6V216.8A6,6,0,0,0,209.44,222.8Z" style="fill:#ced66e"/><rect x="195.54" y="168.86" width="13.9" height="19" rx="2.73" ry="2.73" style="fill:#7fa069"/><path d="M180.61,174.89H170.17a2.74,2.74,0,0,1-2.74-2.74h0a2.74,2.74,0,0,1,2.74-2.74h10.44a2.74,2.74,0,0,1,2.74,2.74h0A2.74,2.74,0,0,1,180.61,174.89Z" style="fill:#e4813f"/><path d="M180.61,185H170.17a2.74,2.74,0,0,1-2.74-2.74h0a2.74,2.74,0,0,1,2.74-2.74h10.44a2.74,2.74,0,0,1,2.74,2.74h0A2.74,2.74,0,0,1,180.61,185Z" style="fill:#e4813f"/><path d="M223.78,9.53h0a9.54,9.54,0,0,1-9.53,9.54H158.19a9.54,9.54,0,0,1-9.54-9.54h0A9.54,9.54,0,0,1,158.19,0h56.06A9.53,9.53,0,0,1,223.78,9.53Z" style="fill:#cf815a"/><path d="M274,9.53h0a9.54,9.54,0,0,1-9.54,9.54H245.06a9.54,9.54,0,0,1-9.53-9.54h0A9.53,9.53,0,0,1,245.06,0h19.41A9.54,9.54,0,0,1,274,9.53Z" style="fill:#cf815a"/><path d="M295.47,202.93a9.8,9.8,0,0,0-9.24,9.93v20.28a9.54,9.54,0,0,0,9.54,9.53h0a9.53,9.53,0,0,0,9.53-9.53V212.46A9.54,9.54,0,0,0,295.47,202.93Z" style="fill:#cf815a"/><path d="M32.27,7.55V111.7a9.53,9.53,0,0,0,9.53,9.53h0a9.53,9.53,0,0,0,9.53-9.53V26.61a7.54,7.54,0,0,1,7.55-7.54H87.81a9.53,9.53,0,0,0,9.52-9.53h0A9.52,9.52,0,0,0,87.81,0h-48A7.55,7.55,0,0,0,32.27,7.55Z" style="fill:#975952"/><path d="M193.82,125.15h-6.59a5,5,0,0,1-5-5h0a5,5,0,0,1,5-5h6.59a5,5,0,0,1,5,5h0A5,5,0,0,1,193.82,125.15Z" style="fill:#975952"/><path d="M42.2,181.9v6.59a5,5,0,0,1-5,5h0a5,5,0,0,1-5-5V181.9a5,5,0,0,1,5-5h0A5,5,0,0,1,42.2,181.9Z" style="fill:#975952"/><path d="M290.8,93.42V86.83a5,5,0,0,1,5-5h0a5,5,0,0,1,5,5v6.59a5,5,0,0,1-5,5h0A5,5,0,0,1,290.8,93.42Z" style="fill:#b26655"/><path d="M286.24,153.54v-4A4.76,4.76,0,0,1,291,144.8h0a4.77,4.77,0,0,1,4.77,4.76v4A4.77,4.77,0,0,1,291,158.3h0A4.76,4.76,0,0,1,286.24,153.54Z" style="fill:#b26655"/><path d="M141.1,232.1H74.37v-26H141.1a13,13,0,0,1,13,13h0A13,13,0,0,1,141.1,232.1Z" style="fill:#948895"/><path d="M69.1,209.17H97.3a9.94,9.94,0,0,1,9.94,9.94h0a10,10,0,0,1-9.94,9.95H69.1Z" style="fill:#ffd07d"/><path d="M97.3,232.1H66.93a3,3,0,1,1,0-6.09H97.3a6.9,6.9,0,0,0,0-13.79H66.93a3.05,3.05,0,0,1,0-6.1H97.3a13,13,0,1,1,0,26Z" style="fill:#b6abb6"/><path d="M118,225.87a3,3,0,0,1-3-3.05v-7.68a3.05,3.05,0,0,1,6.1,0v7.68A3,3,0,0,1,118,225.87Z" style="fill:#726574"/><path d="M127.27,225.87a3,3,0,0,1-3-3.05v-7.68a3.05,3.05,0,0,1,6.1,0v7.68A3,3,0,0,1,127.27,225.87Z" style="fill:#726574"/><path d="M136.36,180.36H90.47A11.17,11.17,0,0,0,79.3,191.53h0A11.17,11.17,0,0,0,90.47,202.7h45.89Z" style="fill:#ffd07d"/><path d="M90.47,206.12H138.8a3.43,3.43,0,0,0,0-6.85H90.47a7.75,7.75,0,0,1,0-15.49H138.8a3.43,3.43,0,0,0,0-6.85H90.47a14.6,14.6,0,0,0,0,29.19Z" style="fill:#a6be64"/><path d="M138.67,199.27H90.47a7.73,7.73,0,0,1-6.68-3.84A3.42,3.42,0,0,0,80,193.79h-.06a3.41,3.41,0,0,0-2.09,5,14.57,14.57,0,0,0,12.62,7.3H138.8a3.43,3.43,0,0,0,3.36-4.1A3.51,3.51,0,0,0,138.67,199.27Z" style="fill:#90ae67"/><path d="M40.15,548.43H59.91a6.37,6.37,0,0,1,6.37,6.37v36.87a0,0,0,0,1,0,0H33.78a0,0,0,0,1,0,0V554.8A6.37,6.37,0,0,1,40.15,548.43Z" transform="translate(100.06 1140.1) rotate(180)" style="fill:#7a504f"/><path d="M544.77,548.43h32.49a0,0,0,0,1,0,0V585.3a6.37,6.37,0,0,1-6.37,6.37H551.14a6.37,6.37,0,0,1-6.37-6.37V548.43A0,0,0,0,1,544.77,548.43Z" style="fill:#7a504f"/><rect x="33.04" y="372.36" width="544.87" height="163.52" style="fill:#5f7c65"/><rect x="183.38" y="367.9" width="244.18" height="162.75" style="fill:#6f8e67"/><rect x="77.11" y="293.42" width="152.27" height="126.74" rx="14.08" ry="14.08" style="fill:#aabf61"/><path d="M91.27,327.65a63.8,63.8,0,0,0,63.81,63.8H190.2a53,53,0,0,0,26-6.78,8.86,8.86,0,0,1,13.16,7.75v13.66a14.09,14.09,0,0,1-14.08,14.08H91.2a14.09,14.09,0,0,1-14.09-14.08V327.63a7,7,0,0,1,8-6.95l.13,0a7,7,0,0,1,6.06,6.95Z" style="fill:#95b366"/><path d="M138.17,410l-.07-.14a7,7,0,0,0-6.22-3.82h-9.73a31,31,0,0,1-30.95-31v-60.6a7,7,0,0,0-3.77-6.24h0a7,7,0,0,0-10.32,6.24v91.56A14.09,14.09,0,0,0,91.2,420.16H132A7,7,0,0,0,138.17,410Z" style="fill:#7fa069"/><g style="opacity:0.8"><path d="M209.66,307.5h-56a7,7,0,0,1-7-6.79v-.14a7,7,0,0,1,7-7.15H215.3a14.08,14.08,0,0,1,14.09,14.08v18.15a7,7,0,0,1-6.21,6.93H223a7,7,0,0,1-7.74-6.93V313.14A5.64,5.64,0,0,0,209.66,307.5Z" style="fill:#ced66e"/></g><path d="M24.73,535.88H58.64a7.64,7.64,0,0,0,7.64-7.64V396.83a24.59,24.59,0,0,0-24.59-24.6h0a24.59,24.59,0,0,0-24.59,24.6V528.24A7.64,7.64,0,0,0,24.73,535.88Z" style="fill:#aabf61"/><rect x="26.35" y="519.81" width="30.68" height="16.07" style="fill:#6f8e67"/><path d="M0,399.32H0a27.09,27.09,0,0,1,27.08-27.09H39.2a27.08,27.08,0,0,1,27.08,27.09h0A27.08,27.08,0,0,1,39.2,426.4H27.08A27.09,27.09,0,0,1,0,399.32Z" style="fill:#aabf61"/><path d="M24.73,535.88H41.35A7.64,7.64,0,0,0,49,528.24V403.74A13.78,13.78,0,0,0,35.22,390H30.86a13.77,13.77,0,0,0-13.77,13.77v124.5A7.64,7.64,0,0,0,24.73,535.88Z" style="fill:#b26655"/><g style="opacity:0.8"><path d="M0,399.32a27.07,27.07,0,0,0,17.09,25.16V403.73a13.67,13.67,0,0,1,3.79-9.47,9.64,9.64,0,0,0,2.27-8.72c0-.06,0-.13,0-.19A9.33,9.33,0,0,0,7.18,381,26.94,26.94,0,0,0,0,399.32Z" style="fill:#84a669"/></g><path d="M33,503.82h0a16,16,0,0,0,16-15.95v40.37a7.64,7.64,0,0,1-7.64,7.64H24.73a7.64,7.64,0,0,1-7.64-7.64V487.88A16,16,0,0,0,33,503.82Z" style="fill:#975952"/><g style="opacity:0.8"><path d="M66.28,460.49v67.75a7.64,7.64,0,0,1-7.64,7.64h-2A7.64,7.64,0,0,1,49,528.24v-67.7a8.55,8.55,0,0,1,6.24-8.24l.18-.05A8.56,8.56,0,0,1,66.28,460.49Z" style="fill:#84a669"/></g><path d="M33,480.83h0a6.42,6.42,0,0,0,6.42-6.42V433.2A6.43,6.43,0,0,0,33,426.78h0a6.42,6.42,0,0,0-6.42,6.42v41.21A6.41,6.41,0,0,0,33,480.83Z" style="fill:#cf815a"/><rect x="26.62" y="401.92" width="12.84" height="17.03" rx="6.42" ry="6.42" style="fill:#cf815a"/><g style="opacity:0.8"><path d="M66.28,396.83v9.74a8.66,8.66,0,0,1-7.06,8.56l-.22,0a8.66,8.66,0,0,1-10-8.62v-2.81a13.75,13.75,0,0,0-5.91-11.3,8.79,8.79,0,0,1-3.21-10.79c.37-.84.75-1.68,1.12-2.51a8.65,8.65,0,0,1,11.65-4.34A24.59,24.59,0,0,1,66.28,396.83Z" style="fill:#ced66e"/></g><path d="M66.28,506.9v21.34a7.64,7.64,0,0,1-7.64,7.64h-2A7.64,7.64,0,0,1,49,528.24V506.9a8.41,8.41,0,0,1,8.44-8.39h.28A8.43,8.43,0,0,1,66.28,506.9Z" style="fill:#6f8e67"/><path d="M40.44,372.26c.41,0,.83,0,1.25,0h0c-.42,0-.84,0-1.25,0Z" style="fill:#d98d5a"/><path d="M57.33,377.85c-.61-.5-1.24-1-1.89-1.42C56.09,376.87,56.72,377.35,57.33,377.85Z" style="fill:#b6c65d"/><path d="M50.14,373.72c-.75-.27-1.52-.51-2.31-.71C48.62,373.21,49.39,373.45,50.14,373.72Z" style="fill:#b6c65d"/><path d="M62.08,383.08a21.82,21.82,0,0,0-1.42-1.9A21.82,21.82,0,0,1,62.08,383.08Z" style="fill:#b6c65d"/><path d="M47.83,373a23,23,0,0,0-3.63-.65A23,23,0,0,1,47.83,373Z" style="fill:#b6c65d"/><path d="M54.44,375.79a26.45,26.45,0,0,0-3.18-1.63A26.45,26.45,0,0,1,54.44,375.79Z" style="fill:#b6c65d"/><path d="M41.69,372.23a23.31,23.31,0,0,1,2.51.13,23.31,23.31,0,0,0-2.51-.13Z" style="fill:#b6c65d"/><path d="M57.33,377.85a24.37,24.37,0,0,1,3.33,3.33A24.37,24.37,0,0,0,57.33,377.85Z" style="fill:#b6c65d"/><path d="M586.32,535.88H552.41a7.64,7.64,0,0,1-7.64-7.64V396.83a24.59,24.59,0,0,1,24.59-24.6h0a24.6,24.6,0,0,1,24.6,24.6V528.24A7.64,7.64,0,0,1,586.32,535.88Z" style="fill:#b6c65d"/><path d="M611.05,399.32h0A27.09,27.09,0,0,0,584,372.23H571.85a27.08,27.08,0,0,0-27.08,27.09h0a27.08,27.08,0,0,0,27.08,27.08H584A27.09,27.09,0,0,0,611.05,399.32Z" style="fill:#b6c65d"/><path d="M586.32,535.88H569.7a7.64,7.64,0,0,1-7.64-7.64V403.74A13.78,13.78,0,0,1,575.83,390h4.36A13.78,13.78,0,0,1,594,403.74v124.5A7.64,7.64,0,0,1,586.32,535.88Z" style="fill:#b26655"/><path d="M562.72,385.05a8.14,8.14,0,0,1,6.49-12.82h.15c.37,0,.73,0,1.1,0h.17c.41,0,.81,0,1.23,0H584a27,27,0,0,1,17.35,6.3,8.2,8.2,0,0,1-.76,13c-.71.49-1.4,1-2.08,1.49a8,8,0,0,1-9.85-.16,13.66,13.66,0,0,0-8.44-2.9h-4.36a13.67,13.67,0,0,0-3,.32,8.43,8.43,0,0,1-8.9-3.4Z" style="fill:#d9d26f"/><path d="M578,480.83h0a6.41,6.41,0,0,1-6.42-6.42V433.2a6.42,6.42,0,0,1,6.42-6.42h0a6.42,6.42,0,0,1,6.42,6.42v41.21A6.41,6.41,0,0,1,578,480.83Z" style="fill:#d98d5a"/><path d="M578,419h0a6.41,6.41,0,0,1-6.42-6.42v-4.19a6.41,6.41,0,0,1,6.42-6.42h0a6.41,6.41,0,0,1,6.42,6.42v4.19A6.41,6.41,0,0,1,578,419Z" style="fill:#d98d5a"/><g style="opacity:0.8"><path d="M544.77,460.49v67.75a7.64,7.64,0,0,0,7.64,7.64h2a7.64,7.64,0,0,0,7.64-7.64v-67.7a8.54,8.54,0,0,0-6.25-8.24l-.18-.05A8.55,8.55,0,0,0,544.77,460.49Z" style="fill:#ced66e"/></g><path d="M544.77,506.9v21.34a7.64,7.64,0,0,0,7.64,7.64h2a7.64,7.64,0,0,0,7.64-7.64V506.9a8.42,8.42,0,0,0-8.44-8.39h-.29A8.43,8.43,0,0,0,544.77,506.9Z" style="fill:#ced66e"/><path d="M570.61,372.26c-.41,0-.83,0-1.25,0h0c.42,0,.83,0,1.25,0Z" style="fill:#d98d5a"/><path d="M553.72,377.85c.6-.5,1.24-1,1.89-1.42C555,376.87,554.32,377.35,553.72,377.85Z" style="fill:#b6c65d"/><path d="M560.91,373.72c.75-.27,1.52-.51,2.31-.71C562.43,373.21,561.66,373.45,560.91,373.72Z" style="fill:#b6c65d"/><path d="M549,383.08c.44-.66.91-1.29,1.41-1.9C549.88,381.79,549.41,382.42,549,383.08Z" style="fill:#b6c65d"/><path d="M563.22,373a22.77,22.77,0,0,1,3.63-.65A22.77,22.77,0,0,0,563.22,373Z" style="fill:#b6c65d"/><path d="M556.61,375.79a25.73,25.73,0,0,1,3.18-1.63A25.73,25.73,0,0,0,556.61,375.79Z" style="fill:#b6c65d"/><path d="M569.36,372.23a23,23,0,0,0-2.51.13,23,23,0,0,1,2.51-.13Z" style="fill:#b6c65d"/><path d="M553.72,377.85a25,25,0,0,0-3.34,3.33A25,25,0,0,1,553.72,377.85Z" style="fill:#b6c65d"/><path d="M578,503.82h0a16,16,0,0,1-16-15.95v40.37a7.64,7.64,0,0,0,7.64,7.64h16.62a7.64,7.64,0,0,0,7.64-7.64V487.88A16,16,0,0,1,578,503.82Z" style="fill:#975952"/><rect x="229.39" y="293.42" width="152.27" height="126.74" rx="6.99" ry="6.99" transform="translate(611.05 713.57) rotate(180)" style="fill:#b6c65d"/><path d="M243.55,338.1a53.34,53.34,0,0,0,53.35,53.35h45.57a53,53,0,0,0,26-6.78,8.86,8.86,0,0,1,13.16,7.75v13.66a14.08,14.08,0,0,1-14.08,14.08H243.47a14.08,14.08,0,0,1-14.08-14.08V327.63a7,7,0,0,1,8-6.95l.14,0a7,7,0,0,1,6,6.95Z" style="fill:#9bb765"/><path d="M289,413h0a7.08,7.08,0,0,1-7.08,7.08h-.46a7.08,7.08,0,0,1-7.09-7.08h0a7.08,7.08,0,0,1,7.09-7.08h.46A7.08,7.08,0,0,1,289,413Z" style="fill:#8bae6a"/><path d="M367.58,343.15V325.37a17.87,17.87,0,0,0-17.87-17.87H308.83a7,7,0,0,1-6.93-7.59v-.15a7,7,0,0,1,6.95-6.34h58.72a14.08,14.08,0,0,1,14.08,14.08v35.64a7,7,0,0,1-6.77,7h-.15A7,7,0,0,1,367.58,343.15Z" style="fill:#d6db74"/><path d="M283.58,307.5H279.2a7,7,0,0,1-7-7.44,1.79,1.79,0,0,0,0-.23,7,7,0,0,1,6.95-6.41h4.37a7,7,0,0,1,7,7v.15A7,7,0,0,1,283.58,307.5Z" style="fill:#d6db74"/><path d="M258.46,406h0a15,15,0,0,1-15-15V312.4a7,7,0,0,0-5.93-6.89l-.14,0a7,7,0,0,0-8,6.89V406a14.08,14.08,0,0,0,14.08,14.08h15a7,7,0,0,0,6.69-8.94l0-.13A7,7,0,0,0,258.46,406Z" style="fill:#84a669"/><rect x="381.66" y="293.42" width="152.27" height="126.74" rx="14.08" ry="14.08" style="fill:#c9d36b"/><path d="M478.65,307.5h-44a7,7,0,0,1-6.76-5.27l0-.14a7,7,0,0,1,6.76-8.67h85.21a14.08,14.08,0,0,1,14.08,14.08v48.28a7,7,0,0,1-7.59,6.94h-.14a7,7,0,0,1-6.35-6.94V348.7A41.19,41.19,0,0,0,478.65,307.5Z" style="fill:#e1da80"/><path d="M395.82,338.1a53.35,53.35,0,0,0,53.35,53.35h45.57a53,53,0,0,0,26-6.78,8.85,8.85,0,0,1,13.15,7.75v13.66a14.08,14.08,0,0,1-14.08,14.08H395.74a14.09,14.09,0,0,1-14.08-14.08V327.63a7,7,0,0,1,8-6.95l.14,0a7,7,0,0,1,6,6.95Z" style="fill:#a6be64"/><path d="M410.73,406h0a15,15,0,0,1-15-15V312.4a7,7,0,0,0-5.92-6.89l-.15,0a7,7,0,0,0-8,6.89V406a14.08,14.08,0,0,0,14.08,14.08h15a7,7,0,0,0,6.69-8.94l0-.13A7,7,0,0,0,410.73,406Z" style="fill:#8aaa68"/><rect x="66.28" y="488.23" width="478.49" height="47.65" rx="8.59" ry="8.59" style="fill:#84a669"/><path d="M544.77,496.82a8.6,8.6,0,0,0-8.6-8.59H74.87a8.6,8.6,0,0,0-8.59,8.59v4.7A8.81,8.81,0,0,0,70.34,509l.08.05a9,9,0,0,0,9,.37,23.62,23.62,0,0,1,10.71-2.55H520.94a23.62,23.62,0,0,1,13.79,4.42,6.34,6.34,0,0,0,6.77.47l.1-.06a6.17,6.17,0,0,0,3.17-5.4Z" style="fill:#a2bc63"/><path d="M497.75,495.62c0,.14.05.28.08.41a9.11,9.11,0,0,1-8.93,10.79h-51a9.14,9.14,0,0,1-9-7.63l0-.21a9.1,9.1,0,0,1,8.93-10.75h51A9.08,9.08,0,0,1,497.75,495.62Z" style="fill:#b6c65d"/><path d="M260.2,488.23h8.86a9.22,9.22,0,0,1,9,7.17c0,.07,0,.13,0,.2a9.19,9.19,0,0,1-9,11.22h-9a9.19,9.19,0,0,1-8.74-12.05l.08-.24A9.2,9.2,0,0,1,260.2,488.23Z" style="fill:#b6c65d"/><path d="M177.2,517.19h8.85a9.24,9.24,0,0,1,9,7.17c0,.07,0,.13,0,.2a9.19,9.19,0,0,1-9,11.22h-9a9.19,9.19,0,0,1-8.74-12l.08-.24A9.19,9.19,0,0,1,177.2,517.19Z" style="fill:#6f8e67"/><path d="M298.1,512.47h5.47a5.69,5.69,0,0,1,5.53,4.43l0,.12a5.66,5.66,0,0,1-5.54,6.91h-5.52a5.66,5.66,0,0,1-5.39-7.43s0-.09,0-.14A5.68,5.68,0,0,1,298.1,512.47Z" style="fill:#6f8e67"/><path d="M403.62,499l0,.18a9.14,9.14,0,0,1-9,7.66H382.79a9.08,9.08,0,0,1-9.06-8.56l0-.43a9.06,9.06,0,0,1,9.06-9.6H394.7A9.11,9.11,0,0,1,403.62,499Z" style="fill:#b6c65d"/><path d="M309,420.16H541.28a3.49,3.49,0,0,1,3.49,3.49v50.29a14.29,14.29,0,0,1-14.29,14.29H319.82a14.29,14.29,0,0,1-14.29-14.29V423.64A3.49,3.49,0,0,1,309,420.16Z" transform="translate(850.29 908.39) rotate(180)" style="fill:#b6c65d"/><path d="M334.32,420.16h38A28.79,28.79,0,0,0,343.48,449v32.26a7,7,0,0,0,7,7h-38a7,7,0,0,1-7-7V449A28.8,28.8,0,0,1,334.32,420.16Z" style="fill:#a2bc63"/><path d="M314.77,455.14H315a9,9,0,0,1,7.76,5,11.45,11.45,0,0,0,10.15,6.57H518c3.52,0,8-2.39,9.68-5.47a9,9,0,0,1,8.43-4.71h.18a9,9,0,0,1,8.47,9v15.74a7,7,0,0,1-7,7H312.55a7,7,0,0,1-7-7V464.13A9,9,0,0,1,314.77,455.14Z" style="fill:#7fa069"/><path d="M406.66,466.67h6.61a10.71,10.71,0,0,1,10.43,8.41l.05.21a10.66,10.66,0,0,1-10.43,12.94h-6.64a10.67,10.67,0,0,1-10.61-9.5l0-.22A10.69,10.69,0,0,1,406.66,466.67Z" style="fill:#6f8e67"/><path d="M314.77,455.14H315a9,9,0,0,1,7.76,5,11.45,11.45,0,0,0,10.15,6.57h36.48a10.66,10.66,0,0,1,10.55,9.07l0,.21a10.67,10.67,0,0,1-10.55,12.28H312.55a7,7,0,0,1-7-7V464.13A9,9,0,0,1,314.77,455.14Z" style="fill:#6f8e67"/><path d="M324.5,442.49c-9.83,0-13.59-12.95-5.22-18.1a28.73,28.73,0,0,1,15-4.23H516a28.73,28.73,0,0,1,15,4.23c8.37,5.15,4.61,18.1-5.22,18.1Z" style="fill:#ced66e"/><path d="M354.83,466.67H337.42a12.09,12.09,0,0,1-12.09-12.09h0a12.09,12.09,0,0,1,12.09-12.09h17.41a12.09,12.09,0,0,1,12.1,12.09h0A12.09,12.09,0,0,1,354.83,466.67Z" style="fill:#a2bc63"/><path d="M69.77,420.16H302a3.49,3.49,0,0,1,3.49,3.49v50.29a14.29,14.29,0,0,1-14.29,14.29H80.57a14.29,14.29,0,0,1-14.29-14.29V423.64a3.49,3.49,0,0,1,3.49-3.49Z" transform="translate(371.81 908.39) rotate(180)" style="fill:#b6c65d"/><path d="M95.08,420.16h38A28.79,28.79,0,0,0,104.24,449v32.26a7,7,0,0,0,7,7h-38a7,7,0,0,1-7-7V449A28.79,28.79,0,0,1,95.08,420.16Z" style="fill:#a2bc63"/><path d="M75.53,455.14h.18a9,9,0,0,1,7.77,5,11.45,11.45,0,0,0,10.15,6.57H278.77c3.51,0,8-2.39,9.68-5.47a9,9,0,0,1,8.43-4.71h.18a9,9,0,0,1,8.46,9v15.74a7,7,0,0,1-7,7H73.3a7,7,0,0,1-7-7V464.13A9,9,0,0,1,75.53,455.14Z" style="fill:#7fa069"/><path d="M75.53,455.14h.18a9,9,0,0,1,7.77,5,11.45,11.45,0,0,0,10.15,6.57h104a10.63,10.63,0,0,1,9.45,5.59c.07.12.13.25.2.38a10.77,10.77,0,0,1-9.66,15.59H73.3a7,7,0,0,1-7-7V464.13A9,9,0,0,1,75.53,455.14Z" style="fill:#6f8e67"/><path d="M85.26,442.49c-9.83,0-13.59-12.95-5.22-18.1a28.7,28.7,0,0,1,15-4.23H276.73a28.67,28.67,0,0,1,15,4.23c8.38,5.15,4.62,18.1-5.21,18.1Z" style="fill:#ced66e"/><path d="M173.81,466.67H98.18a12.09,12.09,0,0,1-12.1-12.09h0a12.09,12.09,0,0,1,12.1-12.09h75.63a12.09,12.09,0,0,1,12.09,12.09h0A12.09,12.09,0,0,1,173.81,466.67Z" style="fill:#a2bc63"/><path d="M486.26,442.49H509.7a11.16,11.16,0,0,0,11.16-11.17h0a11.16,11.16,0,0,0-11.16-11.17H486.26a11.17,11.17,0,0,0-11.16,11.17h0A11.17,11.17,0,0,0,486.26,442.49Z" style="fill:#dcdf78"/><path d="M260.51,442.49h6.63a11.17,11.17,0,0,0,11.17-11.17h0a11.17,11.17,0,0,0-11.17-11.17h-6.63a11.17,11.17,0,0,0-11.17,11.17h0A11.17,11.17,0,0,0,260.51,442.49Z" style="fill:#dcdf78"/><path d="M77.11,372.23V405a5.42,5.42,0,0,1-5.42,5.42h0A5.42,5.42,0,0,1,66.28,405v-8.19a24.61,24.61,0,0,0-24.59-24.6Z" style="fill:#6f8e67"/><path d="M41.69,372.23a24.57,24.57,0,0,1,20.63,11.21,8,8,0,0,0,6.74,3.68h0a8.05,8.05,0,0,0,8-8.05v-6.84Z" style="fill:#9bb765"/><path d="M533.94,372.23V405a5.42,5.42,0,0,0,5.42,5.42h0a5.42,5.42,0,0,0,5.41-5.42v-8.19a24.58,24.58,0,0,1,24.59-24.6Z" style="fill:#6f8e67"/><path d="M569.36,372.23a24.57,24.57,0,0,0-20.63,11.21,8.05,8.05,0,0,1-6.75,3.68h0a8,8,0,0,1-8-8.05v-6.84Z" style="fill:#9bb765"/><path d="M474.45,368.5h0a5.22,5.22,0,0,1,0-7.37l16.06-16.06a5.22,5.22,0,0,1,7.37,0h0a5.2,5.2,0,0,1,0,7.37L481.82,368.5A5.2,5.2,0,0,1,474.45,368.5Z" style="fill:#a6be64"/><path d="M497.88,368.5h0a5.2,5.2,0,0,0,0-7.37l-16.06-16.06a5.22,5.22,0,0,0-7.37,0h0a5.22,5.22,0,0,0,0,7.37l16.06,16.06A5.2,5.2,0,0,0,497.88,368.5Z" style="fill:#a6be64"/><path d="M441.14,368.5h0a5.2,5.2,0,0,0,0-7.37l-16.06-16.06a5.21,5.21,0,0,0-7.36,0h0a5.2,5.2,0,0,0,0,7.37l16.06,16.06A5.19,5.19,0,0,0,441.14,368.5Z" style="fill:#a6be64"/><path d="M417.72,368.5h0a5.2,5.2,0,0,1,0-7.37l16.06-16.06a5.21,5.21,0,0,1,7.36,0h0a5.2,5.2,0,0,1,0,7.37L425.08,368.5A5.19,5.19,0,0,1,417.72,368.5Z" style="fill:#a6be64"/><path d="M322.18,368.5h0a5.2,5.2,0,0,1,0-7.37l16.06-16.06a5.22,5.22,0,0,1,7.37,0h0a5.22,5.22,0,0,1,0,7.37L329.55,368.5A5.2,5.2,0,0,1,322.18,368.5Z" style="fill:#9bb765"/><path d="M345.61,368.5h0a5.22,5.22,0,0,0,0-7.37l-16.06-16.06a5.22,5.22,0,0,0-7.37,0h0a5.2,5.2,0,0,0,0,7.37l16.06,16.06A5.2,5.2,0,0,0,345.61,368.5Z" style="fill:#9bb765"/><path d="M288.87,368.5h0a5.2,5.2,0,0,0,0-7.37l-16.06-16.06a5.22,5.22,0,0,0-7.37,0h0a5.22,5.22,0,0,0,0,7.37L281.5,368.5A5.2,5.2,0,0,0,288.87,368.5Z" style="fill:#9bb765"/><path d="M265.44,368.5h0a5.22,5.22,0,0,1,0-7.37l16.06-16.06a5.22,5.22,0,0,1,7.37,0h0a5.2,5.2,0,0,1,0,7.37L272.81,368.5A5.2,5.2,0,0,1,265.44,368.5Z" style="fill:#9bb765"/><path d="M169.9,368.5h0a5.22,5.22,0,0,1,0-7.37L186,345.07a5.22,5.22,0,0,1,7.37,0h0a5.2,5.2,0,0,1,0,7.37L177.27,368.5A5.2,5.2,0,0,1,169.9,368.5Z" style="fill:#90ae67"/><path d="M193.33,368.5h0a5.2,5.2,0,0,0,0-7.37l-16.06-16.06a5.22,5.22,0,0,0-7.37,0h0a5.22,5.22,0,0,0,0,7.37L186,368.5A5.2,5.2,0,0,0,193.33,368.5Z" style="fill:#90ae67"/><path d="M136.6,368.5h0a5.22,5.22,0,0,0,0-7.37l-16.06-16.06a5.22,5.22,0,0,0-7.37,0h0a5.2,5.2,0,0,0,0,7.37l16.06,16.06A5.2,5.2,0,0,0,136.6,368.5Z" style="fill:#90ae67"/><path d="M113.17,368.5h0a5.2,5.2,0,0,1,0-7.37l16.06-16.06a5.22,5.22,0,0,1,7.37,0h0a5.22,5.22,0,0,1,0,7.37L120.54,368.5A5.2,5.2,0,0,1,113.17,368.5Z" style="fill:#90ae67"/><path d="M20.31,561H590.74a12.54,12.54,0,0,0,12.54-12.55h0a12.54,12.54,0,0,0-12.54-12.55H20.31A12.55,12.55,0,0,0,7.76,548.43h0A12.55,12.55,0,0,0,20.31,561Z" style="fill:#815250"/><path d="M422.54,561h168.2a12.54,12.54,0,0,0,12.54-12.55h0a12.54,12.54,0,0,0-12.54-12.55H422.54A12.54,12.54,0,0,0,410,548.43h0A12.54,12.54,0,0,0,422.54,561Z" style="fill:#975952"/><path d="M325,561h29.35a12.55,12.55,0,0,0,12.55-12.55h0a12.55,12.55,0,0,0-12.55-12.55H325a12.54,12.54,0,0,0-12.54,12.55h0A12.54,12.54,0,0,0,325,561Z" style="fill:#975952"/><path d="M363.5,430.79l-30.68-24a62.39,62.39,0,0,1,62-55.56h5.39a62.39,62.39,0,0,1,62.39,62.39V419a62.15,62.15,0,0,1-1.13,11.81Z" style="fill:#726574"/><path d="M408.42,351.74v5.1a10.35,10.35,0,0,0,4.91,8.76,58,58,0,0,1,27.19,49.17v5a58.53,58.53,0,0,1-1,11h22A62.15,62.15,0,0,0,462.61,419v-5.4A62.39,62.39,0,0,0,408.42,351.74Z" style="fill:#837684"/><path d="M331.51,403.79v-35.5a16.42,16.42,0,0,1,16.06,16.4v19.1Z" style="fill:#bcb2bc"/><path d="M335.32,372.8a12.61,12.61,0,0,1,8.44,11.89V400h-8.44V372.8Zm-4.15-8.32A3.48,3.48,0,0,0,327.7,368v37.52a2.13,2.13,0,0,0,2.14,2.13h21.54V384.69a20.21,20.21,0,0,0-20.21-20.21Z" style="fill:#847886"/><path d="M375.63,403.79v-19.1a16.42,16.42,0,0,1,16.06-16.4v35.5Z" style="fill:#bcb2bc"/><path d="M387.88,372.8V400h-8.44v-15.3a12.61,12.61,0,0,1,8.44-11.89Zm4.14-8.32a20.2,20.2,0,0,0-20.2,20.21V407.6h21.54a2.13,2.13,0,0,0,2.14-2.13V368a3.48,3.48,0,0,0-3.48-3.47Z" style="fill:#948895"/><path d="M353.39,380h16.42A25.69,25.69,0,0,1,395.5,405.7h0a25.09,25.09,0,0,1-25.1,25.09H352.79A25.09,25.09,0,0,1,327.7,405.7h0A25.69,25.69,0,0,1,353.39,380Z" style="fill:#948895"/><path d="M354.53,411.41a1.91,1.91,0,0,1-1.48-.69l-.67-.82a8.48,8.48,0,0,1-11.33-1.52,1.9,1.9,0,0,1,2.91-2.45,4.68,4.68,0,0,0,7.17,0,1.88,1.88,0,0,1,1.47-.68,1.91,1.91,0,0,1,1.46.69L356,408.3a1.91,1.91,0,0,1-.27,2.68A1.88,1.88,0,0,1,354.53,411.41Z" style="fill:#6c5e6d"/><path d="M368.67,411.41a1.93,1.93,0,0,1-1.21-.43,1.9,1.9,0,0,1-.26-2.68l1.93-2.36a1.93,1.93,0,0,1,1.47-.69h0a1.89,1.89,0,0,1,1.45.68,4.69,4.69,0,0,0,7.18,0,1.9,1.9,0,1,1,2.91,2.45,8.48,8.48,0,0,1-11.33,1.52l-.68.82A1.88,1.88,0,0,1,368.67,411.41Z" style="fill:#6c5e6d"/><path d="M354.27,414.13h14.66a8.31,8.31,0,0,1,8.31,8.31h0a8.31,8.31,0,0,1-8.31,8.31H354.27a8.32,8.32,0,0,1-8.32-8.31h0A8.32,8.32,0,0,1,354.27,414.13Z" style="fill:#b6abb6"/><path d="M361.6,426.25a1.43,1.43,0,0,1-1.43-1.43v-8.63a1.43,1.43,0,1,1,2.86,0v8.63A1.43,1.43,0,0,1,361.6,426.25Z" style="fill:#6c5e6d"/><path d="M361.6,426.82a11.21,11.21,0,0,1-4.48-.93,1.43,1.43,0,1,1,1.13-2.62,8.41,8.41,0,0,0,6.69,0,1.43,1.43,0,0,1,1.15,2.62A11.08,11.08,0,0,1,361.6,426.82Z" style="fill:#6c5e6d"/><path d="M359.44,419.26l-2.63-2.63a2.37,2.37,0,0,1,1.68-4.05h6.22a2.37,2.37,0,0,1,1.68,4.05l-2.63,2.63A3.06,3.06,0,0,1,359.44,419.26Z" style="fill:#6c5e6d"/><path d="M408.34,375.16h42.77A13.81,13.81,0,0,1,464.91,389v28a13.81,13.81,0,0,1-13.81,13.81H417.46A13.81,13.81,0,0,1,403.65,417V379.85a4.69,4.69,0,0,1,4.69-4.69Z" transform="translate(868.56 805.95) rotate(180)" style="fill:#948895"/><path d="M438.15,382.59a6.14,6.14,0,0,0,4.07,5.83A15.44,15.44,0,0,1,452.55,403v.79a6.12,6.12,0,0,0,6.4,6.11h.13a6.1,6.1,0,0,0,5.83-6.11V403a27.81,27.81,0,0,0-18.57-26.23,6.12,6.12,0,0,0-8.19,5.7Z" style="fill:#a497a4"/><path d="M401.78,411.11A18.46,18.46,0,0,0,420.2,430.8h42.05a6.67,6.67,0,0,0,6.67-6.67h0a6.67,6.67,0,0,0-6.67-6.66H420.2a5.13,5.13,0,0,1-5-6.16,5.27,5.27,0,0,1,5.24-4.09H425a6.66,6.66,0,0,0,6.66-6.67h0a6.66,6.66,0,0,0-6.66-6.66h-4.17C411,393.89,402.42,401.3,401.78,411.11Z" style="fill:#b6abb6"/><path d="M418.83,354v10.11a6.58,6.58,0,1,0,13.15,0v-4.25A62.17,62.17,0,0,0,418.83,354Z" style="fill:#726574"/><path d="M397.07,351.2v8.51a6.58,6.58,0,0,0,13.15,0V352a63.45,63.45,0,0,0-10-.79Z" style="fill:#625763"/><path d="M375.32,354.32v1a6.58,6.58,0,0,0,13.15,0v-3.8A60,60,0,0,0,375.32,354.32Z" style="fill:#625763"/><path d="M168.05,398.78,156.61,342a8.71,8.71,0,0,1,1.28-6.55h0a9.61,9.61,0,0,0-1.49-12.61,9.36,9.36,0,0,0-13.87,1.93h0a9.65,9.65,0,0,1-6.14,4.13L79.62,340.35a8.68,8.68,0,0,1-6.54-1.28h0a9.62,9.62,0,0,0-12.61,1.49,9.35,9.35,0,0,0,1.93,13.87h0a9.66,9.66,0,0,1,4.12,6.14L77.89,417a9.66,9.66,0,0,1-1.42,7.25h0a9.36,9.36,0,0,0,2.61,13h0a9.34,9.34,0,0,0,13-2.62h0a9.7,9.7,0,0,1,6.14-4.12l56.39-11.37a9.66,9.66,0,0,1,7.26,1.43h0a9.36,9.36,0,0,0,13-2.62h0a9.35,9.35,0,0,0-2.61-13h0A9.68,9.68,0,0,1,168.05,398.78Z" style="fill:#f1a043"/><path d="M105.63,353.64l2.09-.42a9,9,0,0,0,6.83-11.4l0-.18a9,9,0,0,0-10.39-6.22l-2.07.41A9,9,0,0,0,95,346.38c0,.16.06.32.1.48A8.93,8.93,0,0,0,105.63,353.64Z" style="fill:#ffc35f"/><path d="M150.06,401.45h0l-33.63,6.78a21.34,21.34,0,0,1-25.13-16.7l-3.12-15.48a9.06,9.06,0,0,0-9.4-7.25h-.13a9,9,0,0,0-8.3,10.76l7.53,37.34a9.34,9.34,0,0,1-1.32,7.16,9.35,9.35,0,1,0,15.56,10.37,9.48,9.48,0,0,1,6.17-4l56.18-11.33a9.54,9.54,0,0,1,7.24,1.32,9.36,9.36,0,0,0,13.2-2.7c2.75-4.35,1.18-10-3-13a9.72,9.72,0,0,1-3.85-6h0a8.35,8.35,0,0,0-8.46-6.69l-2,.05A7.77,7.77,0,0,0,150.06,401.45Z" style="fill:#e4813f"/><path d="M140.11,352.11l5.15,25.56a9,9,0,0,0,11.64,6.77l.18-.06a9,9,0,0,0,6-10.3L156.61,342a8.8,8.8,0,0,1,1.31-6.58,9.62,9.62,0,0,0-1.52-12.58,9.36,9.36,0,0,0-14,2,9.47,9.47,0,0,1-6.16,4l-6,1.21a9,9,0,0,0-7.17,9.83l0,.18a9,9,0,0,0,10.72,7.8h0A5.31,5.31,0,0,1,140.11,352.11Z" style="fill:#ffc35f"/><path d="M109.17,393.72l-2.57.52a4.87,4.87,0,0,1-5.73-3.81h0a4.85,4.85,0,0,1,3.8-5.72l2.58-.52A4.86,4.86,0,0,1,113,388h0A4.86,4.86,0,0,1,109.17,393.72Z" style="fill:#e4813f"/><path d="M222.38,414V369.43a6.71,6.71,0,0,1,2-4.74h0a7.4,7.4,0,0,0,.8-9.74,7.21,7.21,0,0,0-10.77-.65h0a7.43,7.43,0,0,1-5.26,2.17H164.53a6.69,6.69,0,0,1-4.74-2h0a7.4,7.4,0,0,0-9.74-.79,7.2,7.2,0,0,0-.66,10.76h0a7.4,7.4,0,0,1,2.18,5.26V414a7.43,7.43,0,0,1-2.18,5.26h0a7.2,7.2,0,0,0,0,10.18h0a7.21,7.21,0,0,0,10.19,0h0a7.39,7.39,0,0,1,5.25-2.18h44.28a7.4,7.4,0,0,1,5.26,2.18h0a7.2,7.2,0,0,0,10.18,0h0a7.18,7.18,0,0,0,0-10.18h0A7.47,7.47,0,0,1,222.38,414Z" style="fill:#c14f4f"/><path d="M180.7,367.43h4.47a5.4,5.4,0,0,0,5.48-6.12h0a5.45,5.45,0,0,0-5.41-4.84H180.7a5.5,5.5,0,0,0-5.49,5.46v.24A5.52,5.52,0,0,0,180.7,367.43Z" style="fill:#e06955"/><path d="M208.39,413.29H182a16.42,16.42,0,0,1-16.42-16.42V384.71a7,7,0,0,0-6-6.9h-.1a6.93,6.93,0,0,0-7.9,6.86V414a7.23,7.23,0,0,1-2.08,5.21,7.2,7.2,0,1,0,10.16,10.19,7.31,7.31,0,0,1,5.27-2.1H209a7.31,7.31,0,0,1,5.27,2.1,7.21,7.21,0,0,0,10.37,0,7.47,7.47,0,0,0-.29-10.25,7.4,7.4,0,0,1-2-5.07h0a6.44,6.44,0,0,0-5.37-6.34l-1.54-.27A6,6,0,0,0,208.39,413.29Z" style="fill:#a03f51"/><path d="M208.39,374.55v20.07a6.93,6.93,0,0,0,7.75,6.88l.14,0a6.91,6.91,0,0,0,6.1-6.86V369.43a6.76,6.76,0,0,1,2-4.76,7.4,7.4,0,0,0,.78-9.72,7.21,7.21,0,0,0-10.84-.58,7.31,7.31,0,0,1-5.27,2.1h-4.71a6.93,6.93,0,0,0-6.9,6.33v.14a6.92,6.92,0,0,0,6.89,7.52h0A4.09,4.09,0,0,1,208.39,374.55Z" style="fill:#e06955"/><path d="M198.39,388.45h-2a3.73,3.73,0,0,1-3.74-3.74h0a3.73,3.73,0,0,1,3.74-3.74h2a3.73,3.73,0,0,1,3.74,3.74h0A3.73,3.73,0,0,1,198.39,388.45Z" style="fill:#e06955"/><path d="M106.84,328.64H104.4a4.74,4.74,0,0,1-4.74-4.74h0a4.74,4.74,0,0,1,4.74-4.74h2.44a4.75,4.75,0,0,1,4.75,4.74h0A4.75,4.75,0,0,1,106.84,328.64Z" style="fill:#90ae67"/><path d="M315.88,384.75h-2.44A4.74,4.74,0,0,1,308.7,380h0a4.74,4.74,0,0,1,4.74-4.74h2.44a4.75,4.75,0,0,1,4.75,4.74h0A4.75,4.75,0,0,1,315.88,384.75Z" style="fill:#9bb765"/><path d="M474.43,326.51H472a4.75,4.75,0,0,1-4.75-4.75h0A4.75,4.75,0,0,1,472,317h2.44a4.74,4.74,0,0,1,4.74,4.74h0A4.75,4.75,0,0,1,474.43,326.51Z" style="fill:#e1da80"/></svg>