<svg xmlns="http://www.w3.org/2000/svg" viewBox="0 0 249.22 282.48"><title>window</title><g id="Layer_2" data-name="Layer 2"><g id="Layer_1-2" data-name="Layer 1"><path d="M16.44,200l3.7-.2a2,2,0,0,1,2.14,1.92h0a12.85,12.85,0,0,1-12.13,13.54l-3.7.2a2,2,0,0,1-2.15-1.92h0A12.86,12.86,0,0,1,16.44,200Z" style="fill:#7fa069"/><path d="M13,247l2.61-.16a1.43,1.43,0,0,1,1.51,1.35h0a9.06,9.06,0,0,1-8.5,9.58l-2.6.15a1.44,1.44,0,0,1-1.52-1.35h0A9,9,0,0,1,13,247Z" style="fill:#90ae67"/><path d="M22.52,234.26l-.18-3.08a1.68,1.68,0,0,1,1.59-1.78h0a10.68,10.68,0,0,1,11.29,10l.18,3.07a1.69,1.69,0,0,1-1.59,1.78h0A10.67,10.67,0,0,1,22.52,234.26Z" style="fill:#b6c65d"/><path d="M20.87,267.24,20,264.77a1.44,1.44,0,0,1,.9-1.82h0a9,9,0,0,1,11.48,5.67l.84,2.47a1.44,1.44,0,0,1-.9,1.82h0A9.06,9.06,0,0,1,20.87,267.24Z" style="fill:#7fa069"/><path d="M15.36,209.35V269a5.71,5.71,0,0,1-5.13,5.77,5.5,5.5,0,0,1-3.86-1.18,3.86,3.86,0,0,0-5,0l-.06.05a3.78,3.78,0,0,0,0,5.66,13.1,13.1,0,0,0,9.65,3.09A13.47,13.47,0,0,0,23,268.87v-59.7A40.75,40.75,0,0,0,15.36,209.35Z" style="fill:#90ae67"/><path d="M23,259.39V199.71a5.71,5.71,0,0,1,5.13-5.77A5.5,5.5,0,0,1,32,195.12a3.86,3.86,0,0,0,5,0l.06-.05a3.78,3.78,0,0,0,0-5.66,13.1,13.1,0,0,0-9.65-3.09,13.47,13.47,0,0,0-12.09,13.56v59.7A40.75,40.75,0,0,0,23,259.39Z" style="fill:#90ae67"/><path d="M15.79,199.6,17,201.93a1.42,1.42,0,0,1-.64,1.92h0a9,9,0,0,1-12.15-4L3,197.47a1.44,1.44,0,0,1,.64-1.93h0A9.06,9.06,0,0,1,15.79,199.6Z" style="fill:#90ae67"/><path d="M231.84,237.31H28.56a3.48,3.48,0,0,0-3.48,3.49h0a18.47,18.47,0,0,0,18.47,18.47h173.3a18.47,18.47,0,0,0,18.47-18.47h0A3.48,3.48,0,0,0,231.84,237.31Z" style="fill:#975952"/><rect x="41.16" y="14.76" width="178.07" height="218.78" rx="5.64" ry="5.64" style="fill:#5c424b"/><path d="M216.39,133.48h0a19.74,19.74,0,0,1-27.89,0l-88-88a19.71,19.71,0,0,1,0-27.88h0a19.71,19.71,0,0,1,27.88,0l88,88A19.72,19.72,0,0,1,216.39,133.48Z" style="fill:#6d4a4e"/><path d="M159.72,134.41h0a9.4,9.4,0,0,1-13.29,0L91.58,79.57a9.41,9.41,0,0,1,0-13.3h0a9.41,9.41,0,0,1,13.3,0l54.84,54.85A9.4,9.4,0,0,1,159.72,134.41Z" style="fill:#6d4a4e"/><rect x="35.66" y="179.62" width="25.27" height="63.86" rx="1.99" ry="1.99" style="fill:#6d4a4e"/><rect x="154.58" y="178.89" width="25.27" height="63.86" rx="2.99" ry="2.99" style="fill:#6d4a4e"/><rect x="99.19" y="187.6" width="25.27" height="58.34" style="fill:#6d4a4e"/><rect x="70.5" y="166.28" width="30.68" height="73.93" rx="2.02" ry="2.02" style="fill:#7a504f"/><rect x="48.93" y="196.23" width="30.68" height="41.08" style="fill:#7a504f"/><rect x="131.77" y="161.78" width="30.68" height="82.94" rx="1.93" ry="1.93" style="fill:#6d4a4e"/><rect x="192.38" y="171.06" width="30.68" height="73.93" rx="2.02" ry="2.02" style="fill:#6d4a4e"/><rect x="167.85" y="191.52" width="30.68" height="41.08" rx="1.93" ry="1.93" style="fill:#7a504f"/><rect x="155.59" y="178.87" width="25.27" height="63.86" rx="1.99" ry="1.99" style="fill:#895551"/><path d="M209.49,24.51V223.8H50.91V24.51ZM213.6,5H46.8A15.39,15.39,0,0,0,31.42,20.4V227.91A15.39,15.39,0,0,0,46.8,243.29H213.6A15.39,15.39,0,0,0,229,227.91V20.4A15.39,15.39,0,0,0,213.6,5Z" style="fill:#b96d56"/><path d="M213.78,80.12H144a3.86,3.86,0,0,1-3.87-3.86V5h-19.9V76.26a3.86,3.86,0,0,1-3.86,3.86H46.62V94.06h69.77a3.86,3.86,0,0,1,3.86,3.86v148h19.9v-148A3.86,3.86,0,0,1,144,94.06h69.76Z" style="fill:#b96d56"/><path d="M213.78,80.12H186.69a6.89,6.89,0,0,0-6.9,6.57v.14a6.92,6.92,0,0,0,6.89,7.23h27.1Z" style="fill:#975952"/><path d="M31.42,108v14.5A9.65,9.65,0,0,0,41,132.13h.19a9.64,9.64,0,0,0,9.77-9.64V108A9.63,9.63,0,0,0,40.6,98.34l-.19,0A9.68,9.68,0,0,0,31.42,108Z" style="fill:#cf815a"/><path d="M82.11,223.8H50.91V161.12a9.64,9.64,0,0,0-11.61-9.44l-.19,0a9.65,9.65,0,0,0-7.69,9.44v66.75A15.39,15.39,0,0,0,46.8,243.29H82.1C82.35,236.8,82.27,230.29,82.11,223.8Z" style="fill:#cf815a"/><path d="M213.6,5h-43a154.12,154.12,0,0,0,1.31,19.49h37.56v93.33a9.66,9.66,0,0,0,11.43,9.48l.19,0A9.62,9.62,0,0,0,229,117.8V20.4A15.39,15.39,0,0,0,213.6,5Z" style="fill:#975952"/><path d="M236.79,221.08H23.61a12.43,12.43,0,0,0-12.43,12.43h0a12.42,12.42,0,0,0,12.43,12.43H236.79a12.42,12.42,0,0,0,12.43-12.43h0A12.43,12.43,0,0,0,236.79,221.08Z" style="fill:#b96d56"/><path d="M105.39,252.47v.13a6.58,6.58,0,0,0,6.6,6.67H216.85a18.47,18.47,0,0,0,17.73-13.33H112A6.62,6.62,0,0,0,105.39,252.47Z" style="fill:#7a504f"/><path d="M111.67,221.08H23.61a12.43,12.43,0,0,0-12.43,12.43h0a12.42,12.42,0,0,0,12.43,12.43h88.06a12.42,12.42,0,0,0,12.43-12.43h0A12.43,12.43,0,0,0,111.67,221.08Z" style="fill:#cf815a"/><path d="M230.09,0H30.31A12.44,12.44,0,0,0,17.87,12.43h0A12.43,12.43,0,0,0,30.31,24.86H230.09a12.43,12.43,0,0,0,12.44-12.43h0A12.44,12.44,0,0,0,230.09,0Z" style="fill:#975952"/><path d="M90.11,19.39H74.37a5.08,5.08,0,0,1-5.08-5.09h0a5.08,5.08,0,0,1,5.08-5.09H90.11A5.09,5.09,0,0,1,95.2,14.3h0A5.09,5.09,0,0,1,90.11,19.39Z" style="fill:#b96d56"/><path d="M119.37,19.39h-2.78a5.09,5.09,0,0,1-5.09-5.09h0a5.09,5.09,0,0,1,5.09-5.09h2.78a5.09,5.09,0,0,1,5.09,5.09h0A5.09,5.09,0,0,1,119.37,19.39Z" style="fill:#b26655"/><path d="M55.45,191.52H42.76a15.08,15.08,0,0,1-15.08-15.08h0a15.08,15.08,0,0,1,15.08-15.08H55.45a15.08,15.08,0,0,1,15.08,15.08h0A15.08,15.08,0,0,1,55.45,191.52Z" style="fill:#6f8e67"/><path d="M86.62,194H26.43A10.14,10.14,0,0,1,16.3,183.85h0a10.14,10.14,0,0,1,10.13-10.14H86.62a10.14,10.14,0,0,1,10.14,10.14h0A10.14,10.14,0,0,1,86.62,194Z" style="fill:#7fa069"/><path d="M87.8,194H79.38a10.14,10.14,0,0,1-10.14-10.14h0a10.14,10.14,0,0,1,10.14-10.14H87.8a10.13,10.13,0,0,1,10.13,10.14h0A10.13,10.13,0,0,1,87.8,194Z" style="fill:#6f8e67"/><g style="opacity:0.8"><path d="M48.14,188.2H40.7a4.35,4.35,0,0,1-4.35-4.35h0a4.35,4.35,0,0,1,4.35-4.35h7.44a4.35,4.35,0,0,1,4.35,4.35h0A4.35,4.35,0,0,1,48.14,188.2Z" style="fill:#b6c65d"/></g><path d="M74.4,185.62H66.67a9.18,9.18,0,0,1-9.19-9.18h0a9.18,9.18,0,0,1,9.19-9.19H74.4a9.18,9.18,0,0,1,9.19,9.19h0A9.18,9.18,0,0,1,74.4,185.62Z" style="fill:#90ae67"/><path d="M70.18,167.62l-3.61.78a2,2,0,0,1-2.42-1.56h0A12.84,12.84,0,0,1,74,151.59l3.61-.77A2,2,0,0,1,80,152.37h0A12.83,12.83,0,0,1,70.18,167.62Z" style="fill:#90ae67"/><path d="M94.46,179.34l-2.1-1.54a1.43,1.43,0,0,1-.31-2h0a9,9,0,0,1,12.65-2l2.11,1.54a1.45,1.45,0,0,1,.31,2h0A9.06,9.06,0,0,1,94.46,179.34Z" style="fill:#7fa069"/><path d="M20.3,164l-.12-3.45a1.9,1.9,0,0,1,1.83-2h0A12,12,0,0,1,34.4,170.18l.12,3.45a1.91,1.91,0,0,1-1.83,2h0A12,12,0,0,1,20.3,164Z" style="fill:#a2bc63"/><path d="M94.07,174.59l-1.85,1.83a1.44,1.44,0,0,1-2,0h0a9.05,9.05,0,0,1,.06-12.8l1.86-1.84a1.44,1.44,0,0,1,2,0h0A9.05,9.05,0,0,1,94.07,174.59Z" style="fill:#90ae67"/><path d="M21.42,175.14l2.1,1.54a1.44,1.44,0,0,1,.31,2h0a9,9,0,0,1-12.65,2l-2.11-1.54a1.43,1.43,0,0,1-.31-2h0A9.06,9.06,0,0,1,21.42,175.14Z" style="fill:#90ae67"/><path d="M39.6,194H77.06A12.72,12.72,0,0,1,89.78,206.7v17.18a2.89,2.89,0,0,1-2.89,2.89H29.76a2.89,2.89,0,0,1-2.89-2.89V206.7A12.72,12.72,0,0,1,39.6,194Z" transform="translate(116.65 420.75) rotate(180)" style="fill:#c14f4f"/><path d="M71.67,200.89v-1A5.87,5.87,0,0,0,65.79,194H83.9a5.87,5.87,0,0,1,5.88,5.87v1A25.88,25.88,0,0,1,63.9,226.77h-.52a3,3,0,0,1-1.86-5.34A25.8,25.8,0,0,0,71.67,200.89Z" style="fill:#a34550"/><path d="M27.59,204.64H89.06a5.32,5.32,0,0,0,5.33-5.33h0A5.33,5.33,0,0,0,89.06,194H27.59a5.33,5.33,0,0,0-5.33,5.33h0A5.33,5.33,0,0,0,27.59,204.64Z" style="fill:#e06955"/><path d="M27.59,204.64H39.83a5.32,5.32,0,0,0,5.33-5.33h0A5.33,5.33,0,0,0,39.83,194H27.59a5.33,5.33,0,0,0-5.33,5.33h0A5.33,5.33,0,0,0,27.59,204.64Z" style="fill:#ec8757"/><g style="opacity:0.925"><path d="M183.38,107.75a24.4,24.4,0,0,0-7.89-3.22.79.79,0,0,0-.56,1.46c.61.35,1.21.72,1.8,1.14a21.8,21.8,0,0,1-23.39,36.74l0,0a.79.79,0,0,0-1,1.21,24.75,24.75,0,0,0,5.86,4.67,24.49,24.49,0,0,0,25.22-42Z" style="fill:#fed892"/><path d="M183.81,134.4a21.8,21.8,0,0,1-30.47,9.47l0,0a.8.8,0,0,0-1,1.22,24.46,24.46,0,0,0,42.39-14.51,4.6,4.6,0,0,0-5.34-4.91h-.09a4.59,4.59,0,0,0-3.73,3.62A21.11,21.11,0,0,1,183.81,134.4Z" style="fill:#ffc35f"/></g><path d="M97.07,39.56,98,42.89a2.76,2.76,0,0,0,1.93,1.93l3.34.91a.66.66,0,0,1,0,1.28l-3.34.91A2.76,2.76,0,0,0,98,49.85l-.91,3.34a.66.66,0,0,1-1.28,0l-.91-3.34A2.76,2.76,0,0,0,93,47.92L89.62,47a.66.66,0,0,1,0-1.28L93,44.82a2.76,2.76,0,0,0,1.93-1.93l.91-3.33A.66.66,0,0,1,97.07,39.56Z" style="fill:#df9760"/><path d="M91.22,113.14l.71,2.61a2.15,2.15,0,0,0,1.51,1.51l2.61.72a.51.51,0,0,1,0,1l-2.61.72a2.15,2.15,0,0,0-1.51,1.51l-.71,2.61a.52.52,0,0,1-1,0l-.71-2.61A2.15,2.15,0,0,0,88,119.69L85.39,119a.51.51,0,0,1,0-1l2.61-.72a2.15,2.15,0,0,0,1.51-1.51l.71-2.61A.52.52,0,0,1,91.22,113.14Z" style="fill:#ffc35f"/><path d="M182.13,48.17l.82,3a2.47,2.47,0,0,0,1.73,1.73l3,.82a.59.59,0,0,1,0,1.14l-3,.82A2.47,2.47,0,0,0,183,57.4l-.82,3a.59.59,0,0,1-1.14,0l-.82-3a2.46,2.46,0,0,0-1.73-1.73l-3-.82a.59.59,0,0,1,0-1.14l3-.82a2.46,2.46,0,0,0,1.73-1.73l.82-3A.59.59,0,0,1,182.13,48.17Z" style="fill:#df9760"/><path d="M69.78,59.06l.72,2.61A2.17,2.17,0,0,0,72,63.18l2.61.71a.52.52,0,0,1,0,1L72,65.6a2.15,2.15,0,0,0-1.51,1.51l-.72,2.61a.51.51,0,0,1-1,0l-.72-2.61a2.15,2.15,0,0,0-1.51-1.51L64,64.89a.52.52,0,0,1,0-1l2.61-.71a2.17,2.17,0,0,0,1.51-1.51l.72-2.61A.51.51,0,0,1,69.78,59.06Z" style="fill:#df9760"/></g></g></svg>