<svg id="Layer_1" data-name="Layer 1" xmlns="http://www.w3.org/2000/svg" viewBox="0 0 548 382.4"><title>cassette</title><path id="_Path_" data-name="&lt;Path&gt;" d="M233.8,641.2l-7.1-6.7a9.8,9.8,0,0,1-2.9-7.1V533.6a9.3,9.3,0,0,1,3.8-7.8l6.2-4.2Z" transform="translate(-220.8 -296.8)" style="fill:none;stroke:#1f3250;stroke-linecap:round;stroke-linejoin:round;stroke-width:6px"/><path id="_Path_2" data-name="&lt;Path&gt;" d="M753.8,662.8h-508a12,12,0,0,1-12-12v-330a12,12,0,0,1,12-12h508a12,12,0,0,1,12,12v330A12,12,0,0,1,753.8,662.8Z" transform="translate(-220.8 -296.8)" style="fill:#1f3250;stroke:#1f3250;stroke-linecap:round;stroke-linejoin:round;stroke-width:6px"/><path id="_Path_3" data-name="&lt;Path&gt;" d="M659.9,676.2H339.6a8,8,0,0,1-7.8-9.7l17.3-82a7.93,7.93,0,0,1,7.8-6.3H642.6a7.93,7.93,0,0,1,7.8,6.3l17.3,82A8,8,0,0,1,659.9,676.2Z" transform="translate(-220.8 -296.8)" style="fill:#1f3250;stroke:#1f3250;stroke-linecap:round;stroke-linejoin:round;stroke-width:6px"/><path id="_Path_4" data-name="&lt;Path&gt;" d="M753.8,653.8h-508a12,12,0,0,1-12-12v-330a12,12,0,0,1,12-12h508a12,12,0,0,1,12,12v330A12,12,0,0,1,753.8,653.8Z" transform="translate(-220.8 -296.8)" style="fill:none;stroke:#5c290c;stroke-linecap:round;stroke-linejoin:round;stroke-width:6px"/><path id="_Path_5" data-name="&lt;Path&gt;" d="M753.8,653.8h-508a12,12,0,0,1-12-12v-330a12,12,0,0,1,12-12h508a12,12,0,0,1,12,12v330A12,12,0,0,1,753.8,653.8Z" transform="translate(-220.8 -296.8)" style="fill:#0f8e85"/><g id="_Group_" data-name="&lt;Group&gt;"><circle id="_Path_6" data-name="&lt;Path&gt;" cx="44.6" cy="31.7" r="15.2" style="fill:#0c776d"/><circle id="_Path_7" data-name="&lt;Path&gt;" cx="44.6" cy="31.7" r="10.5" style="fill:#beedc4"/><circle id="_Path_8" data-name="&lt;Path&gt;" cx="44.6" cy="31.7" r="10.5" style="fill:none;stroke:#1f3250;stroke-linecap:round;stroke-linejoin:round;stroke-width:4px"/><line id="_Path_9" data-name="&lt;Path&gt;" x1="40.8" y1="27.9" x2="48.4" y2="35.5" style="fill:none;stroke:#1f3250;stroke-linecap:round;stroke-linejoin:round;stroke-width:4px"/><line id="_Path_10" data-name="&lt;Path&gt;" x1="48.4" y1="27.9" x2="40.8" y2="35.5" style="fill:none;stroke:#1f3250;stroke-linecap:round;stroke-linejoin:round;stroke-width:4px"/></g><g id="_Group_2" data-name="&lt;Group&gt;"><circle id="_Path_11" data-name="&lt;Path&gt;" cx="513.3" cy="31.7" r="15.2" style="fill:#0c776d"/><circle id="_Path_12" data-name="&lt;Path&gt;" cx="513.3" cy="31.7" r="10.5" style="fill:#beedc4"/><circle id="_Path_13" data-name="&lt;Path&gt;" cx="513.3" cy="31.7" r="10.5" style="fill:none;stroke:#1f3250;stroke-linecap:round;stroke-linejoin:round;stroke-width:4px"/><line id="_Path_14" data-name="&lt;Path&gt;" x1="509.5" y1="27.9" x2="517.1" y2="35.5" style="fill:none;stroke:#1f3250;stroke-linecap:round;stroke-linejoin:round;stroke-width:4px"/><line id="_Path_15" data-name="&lt;Path&gt;" x1="517.1" y1="27.9" x2="509.5" y2="35.5" style="fill:none;stroke:#1f3250;stroke-linecap:round;stroke-linejoin:round;stroke-width:4px"/></g><path id="_Path_16" data-name="&lt;Path&gt;" d="M677.4,632.2l-12.6-60a18.88,18.88,0,0,0-18.1-15H352.8a18.88,18.88,0,0,0-18.1,15l-12.6,60Z" transform="translate(-220.8 -296.8)" style="fill:#0c776d"/><path id="_Path_17" data-name="&lt;Path&gt;" d="M711.9,565.3h-424a6,6,0,0,1-6-6v-182a20.06,20.06,0,0,1,20-20h396a20.06,20.06,0,0,1,20,20v182A6,6,0,0,1,711.9,565.3Z" transform="translate(-220.8 -296.8)" style="fill:#0c776d;stroke:#0c776d;stroke-linecap:round;stroke-linejoin:round;stroke-width:6px"/><path id="_Path_18" data-name="&lt;Path&gt;" d="M753.8,653.8h-508a12,12,0,0,1-12-12V627.2h532v14.6A12,12,0,0,1,753.8,653.8Z" transform="translate(-220.8 -296.8)" style="fill:#0c776d"/><path id="_Path_19" data-name="&lt;Path&gt;" d="M765.8,315.8h-532v-4a12,12,0,0,1,12-12h508a12,12,0,0,1,12,12Z" transform="translate(-220.8 -296.8)" style="fill:#36b2a0;opacity:0.8600000143051147;isolation:isolate"/><path id="_Path_20" data-name="&lt;Path&gt;" d="M753.8,653.8h-508a12,12,0,0,1-12-12v-330a12,12,0,0,1,12-12h508a12,12,0,0,1,12,12v330A12,12,0,0,1,753.8,653.8Z" transform="translate(-220.8 -296.8)" style="fill:none;stroke:#1f3250;stroke-linecap:round;stroke-linejoin:round;stroke-width:6px"/><path id="_Path_21" data-name="&lt;Path&gt;" d="M711.9,555.3h-424a6,6,0,0,1-6-6v-182a20.06,20.06,0,0,1,20-20h396a20.06,20.06,0,0,1,20,20v182A6,6,0,0,1,711.9,555.3Z" transform="translate(-220.8 -296.8)" style="fill:#7dd9d6"/><path id="_Path_22" data-name="&lt;Path&gt;" d="M711.9,555.3h-424a6,6,0,0,1-6-6V407.9h436V549.3A6,6,0,0,1,711.9,555.3Z" transform="translate(-220.8 -296.8)" style="fill:#32b94d;opacity:0.6399999856948853;isolation:isolate"/><path id="_Path_23" data-name="&lt;Path&gt;" d="M711.9,555.3h-424a6,6,0,0,1-6-6v-182a20.06,20.06,0,0,1,20-20h396a20.06,20.06,0,0,1,20,20v182A6,6,0,0,1,711.9,555.3Z" transform="translate(-220.8 -296.8)" style="fill:none;stroke:#1f3250;stroke-linecap:round;stroke-linejoin:round;stroke-width:6px"/><path id="_Path_24" data-name="&lt;Path&gt;" d="M659.9,667.2H339.6a8,8,0,0,1-7.8-9.7l17.3-82a7.93,7.93,0,0,1,7.8-6.3H642.6a7.93,7.93,0,0,1,7.8,6.3l17.3,82A8,8,0,0,1,659.9,667.2Z" transform="translate(-220.8 -296.8)" style="fill:#0f8e85"/><line id="_Path_25" data-name="&lt;Path&gt;" x1="126.2" y1="292.4" x2="126.2" y2="361.8" style="fill:none;stroke:#0c776d;stroke-linecap:round;stroke-linejoin:round;stroke-width:8px"/><line id="_Path_26" data-name="&lt;Path&gt;" x1="431.2" y1="282.9" x2="431.2" y2="365.1" style="fill:none;stroke:#0c776d;stroke-linecap:round;stroke-linejoin:round;stroke-width:8px"/><g id="_Group_3" data-name="&lt;Group&gt;"><line id="_Path_27" data-name="&lt;Path&gt;" x1="144.2" y1="272.4" x2="144.2" y2="365.1" style="fill:none;stroke:#0c776d;stroke-linecap:round;stroke-linejoin:round;stroke-width:8px"/><line x1="161.1" y1="272.4" x2="161.1" y2="365.1" style="fill:none;stroke:#0c776d;stroke-linecap:round;stroke-linejoin:round;stroke-width:8px"/><line x1="178" y1="272.4" x2="178" y2="365.1" style="fill:none;stroke:#0c776d;stroke-linecap:round;stroke-linejoin:round;stroke-width:8px"/><line x1="194.8" y1="272.4" x2="194.8" y2="365.1" style="fill:none;stroke:#0c776d;stroke-linecap:round;stroke-linejoin:round;stroke-width:8px"/><line x1="211.7" y1="272.4" x2="211.7" y2="365.1" style="fill:none;stroke:#0c776d;stroke-linecap:round;stroke-linejoin:round;stroke-width:8px"/><line x1="228.6" y1="272.4" x2="228.6" y2="365.1" style="fill:none;stroke:#0c776d;stroke-linecap:round;stroke-linejoin:round;stroke-width:8px"/><line x1="245.4" y1="272.4" x2="245.4" y2="365.1" style="fill:none;stroke:#0c776d;stroke-linecap:round;stroke-linejoin:round;stroke-width:8px"/><line x1="262.3" y1="272.4" x2="262.3" y2="365.1" style="fill:none;stroke:#0c776d;stroke-linecap:round;stroke-linejoin:round;stroke-width:8px"/><line x1="279.2" y1="272.4" x2="279.2" y2="365.1" style="fill:none;stroke:#0c776d;stroke-linecap:round;stroke-linejoin:round;stroke-width:8px"/><line x1="296.1" y1="272.4" x2="296.1" y2="365.1" style="fill:none;stroke:#0c776d;stroke-linecap:round;stroke-linejoin:round;stroke-width:8px"/><line x1="313" y1="272.4" x2="313" y2="365.1" style="fill:none;stroke:#0c776d;stroke-linecap:round;stroke-linejoin:round;stroke-width:8px"/><line x1="329.8" y1="272.4" x2="329.8" y2="365.1" style="fill:none;stroke:#0c776d;stroke-linecap:round;stroke-linejoin:round;stroke-width:8px"/><line x1="346.7" y1="272.4" x2="346.7" y2="365.1" style="fill:none;stroke:#0c776d;stroke-linecap:round;stroke-linejoin:round;stroke-width:8px"/><line x1="363.6" y1="272.4" x2="363.6" y2="365.1" style="fill:none;stroke:#0c776d;stroke-linecap:round;stroke-linejoin:round;stroke-width:8px"/><line x1="380.4" y1="272.4" x2="380.4" y2="365.1" style="fill:none;stroke:#0c776d;stroke-linecap:round;stroke-linejoin:round;stroke-width:8px"/><line x1="397.3" y1="272.4" x2="397.3" y2="365.1" style="fill:none;stroke:#0c776d;stroke-linecap:round;stroke-linejoin:round;stroke-width:8px"/><line id="_Path_28" data-name="&lt;Path&gt;" x1="414.2" y1="272.4" x2="414.2" y2="365.1" style="fill:none;stroke:#0c776d;stroke-linecap:round;stroke-linejoin:round;stroke-width:8px"/></g><path id="_Path_29" data-name="&lt;Path&gt;" d="M664.8,643.6a8.06,8.06,0,0,1-4.9,1.7H339.6a7.68,7.68,0,0,1-4.9-1.7l-3,14a8,8,0,0,0,7.8,9.7H659.8a8,8,0,0,0,7.8-9.7Z" transform="translate(-220.8 -296.8)" style="fill:#0c776d"/><path id="_Path_30" data-name="&lt;Path&gt;" d="M659.9,667.2H339.6a8,8,0,0,1-7.8-9.7l17.3-82a7.93,7.93,0,0,1,7.8-6.3H642.6a7.93,7.93,0,0,1,7.8,6.3l17.3,82A8,8,0,0,1,659.9,667.2Z" transform="translate(-220.8 -296.8)" style="fill:none;stroke:#1f3250;stroke-linecap:round;stroke-linejoin:round;stroke-width:6px"/><path id="_Path_31" data-name="&lt;Path&gt;" d="M637.9,491.3h-276a12,12,0,0,1-12-12v-56a12,12,0,0,1,12-12h276a12,12,0,0,1,12,12v56A12,12,0,0,1,637.9,491.3Z" transform="translate(-220.8 -296.8)" style="fill:#0f8e85"/><path id="_Path_32" data-name="&lt;Path&gt;" d="M637.9,411.3h-276a12,12,0,0,0-12,12v15a12,12,0,0,1,12-12h276a12,12,0,0,1,12,12v-15A12,12,0,0,0,637.9,411.3Z" transform="translate(-220.8 -296.8)" style="fill:#0c776d"/><path id="_Path_33" data-name="&lt;Path&gt;" d="M637.9,491.3h-276a12,12,0,0,1-12-12v-56a12,12,0,0,1,12-12h276a12,12,0,0,1,12,12v56A12,12,0,0,1,637.9,491.3Z" transform="translate(-220.8 -296.8)" style="fill:none;stroke:#1f3250;stroke-linecap:round;stroke-linejoin:round;stroke-width:6px"/><path id="_Path_34" data-name="&lt;Path&gt;" d="M347,586.2" transform="translate(-220.8 -296.8)" style="fill:none;stroke:#0c776d;stroke-linecap:round;stroke-linejoin:round;stroke-width:6px"/><circle id="_Path_35" data-name="&lt;Path&gt;" cx="170.5" cy="335.1" r="18.2" style="fill:#0c776d"/><circle id="_Path_36" data-name="&lt;Path&gt;" cx="170.5" cy="335.1" r="11.3" style="fill:none;stroke:#1f3250;stroke-linecap:round;stroke-linejoin:round;stroke-width:6px"/><circle id="_Path_37" data-name="&lt;Path&gt;" cx="387.5" cy="335.1" r="18.2" style="fill:#0c776d"/><circle id="_Path_38" data-name="&lt;Path&gt;" cx="387.5" cy="335.1" r="11.3" style="fill:none;stroke:#1f3250;stroke-linecap:round;stroke-linejoin:round;stroke-width:6px"/><circle id="_Path_39" data-name="&lt;Path&gt;" cx="230.1" cy="304.5" r="14.8" style="fill:#0c776d"/><circle id="_Path_40" data-name="&lt;Path&gt;" cx="230.1" cy="304.5" r="9.2" style="fill:none;stroke:#1f3250;stroke-linecap:round;stroke-linejoin:round;stroke-width:6px"/><circle id="_Path_41" data-name="&lt;Path&gt;" cx="327.1" cy="304.5" r="14.8" style="fill:#0c776d"/><circle id="_Path_42" data-name="&lt;Path&gt;" cx="327.1" cy="304.5" r="9.2" style="fill:none;stroke:#1f3250;stroke-linecap:round;stroke-linejoin:round;stroke-width:6px"/><g id="_Group_4" data-name="&lt;Group&gt;"><circle id="_Path_43" data-name="&lt;Path&gt;" cx="183.1" cy="154.5" r="28.7" style="fill:#1f3250"/><g id="_Group_5" data-name="&lt;Group&gt;"><line id="_Path_44" data-name="&lt;Path&gt;" x1="183.1" y1="123.6" x2="183.1" y2="185.4" style="fill:none;stroke:#0c776d;stroke-linecap:round;stroke-linejoin:round;stroke-width:8px"/><line id="_Path_45" data-name="&lt;Path&gt;" x1="214" y1="154.5" x2="152.2" y2="154.5" style="fill:none;stroke:#0c776d;stroke-linecap:round;stroke-linejoin:round;stroke-width:8px"/><line id="_Path_46" data-name="&lt;Path&gt;" x1="204.9" y1="132.7" x2="161.3" y2="176.4" style="fill:none;stroke:#0c776d;stroke-linecap:round;stroke-linejoin:round;stroke-width:8px"/><line id="_Path_47" data-name="&lt;Path&gt;" x1="204.9" y1="176.4" x2="161.3" y2="132.7" style="fill:none;stroke:#0c776d;stroke-linecap:round;stroke-linejoin:round;stroke-width:8px"/></g><circle id="_Path_48" data-name="&lt;Path&gt;" cx="183.1" cy="154.5" r="17.4" style="fill:#0c776d"/><circle id="_Path_49" data-name="&lt;Path&gt;" cx="183.1" cy="154.5" r="28.7" style="fill:none;stroke:#1f3250;stroke-linecap:round;stroke-linejoin:round;stroke-width:8px"/></g><g id="_Group_6" data-name="&lt;Group&gt;"><circle id="_Path_50" data-name="&lt;Path&gt;" cx="374.8" cy="154.5" r="28.7" style="fill:#1f3250"/><g id="_Group_7" data-name="&lt;Group&gt;"><line id="_Path_51" data-name="&lt;Path&gt;" x1="374.8" y1="123.6" x2="374.8" y2="185.4" style="fill:none;stroke:#0c776d;stroke-linecap:round;stroke-linejoin:round;stroke-width:8px"/><line id="_Path_52" data-name="&lt;Path&gt;" x1="405.7" y1="154.5" x2="343.9" y2="154.5" style="fill:none;stroke:#0c776d;stroke-linecap:round;stroke-linejoin:round;stroke-width:8px"/><line id="_Path_53" data-name="&lt;Path&gt;" x1="396.6" y1="132.7" x2="353" y2="176.4" style="fill:none;stroke:#0c776d;stroke-linecap:round;stroke-linejoin:round;stroke-width:8px"/><line id="_Path_54" data-name="&lt;Path&gt;" x1="396.6" y1="176.4" x2="353" y2="132.7" style="fill:none;stroke:#0c776d;stroke-linecap:round;stroke-linejoin:round;stroke-width:8px"/></g><circle id="_Path_55" data-name="&lt;Path&gt;" cx="374.8" cy="154.5" r="17.4" style="fill:#0c776d"/><circle id="_Path_56" data-name="&lt;Path&gt;" cx="374.8" cy="154.5" r="28.7" style="fill:none;stroke:#1f3250;stroke-linecap:round;stroke-linejoin:round;stroke-width:8px"/></g><path id="_Path_57" data-name="&lt;Path&gt;" d="M546.9,473.1H452.7a6,6,0,0,1-6-6v-36a6,6,0,0,1,6-6h94.2a6,6,0,0,1,6,6v36A6,6,0,0,1,546.9,473.1Z" transform="translate(-220.8 -296.8)" style="fill:#f9b978"/><g id="_Group_8" data-name="&lt;Group&gt;"><circle id="_Path_58" data-name="&lt;Path&gt;" cx="44.6" cy="323.8" r="15.2" style="fill:#0c776d"/><circle id="_Path_59" data-name="&lt;Path&gt;" cx="44.6" cy="323.8" r="10.5" style="fill:none;stroke:#1f3250;stroke-linecap:round;stroke-linejoin:round;stroke-width:4px"/><line id="_Path_60" data-name="&lt;Path&gt;" x1="40.8" y1="320" x2="48.4" y2="327.6" style="fill:none;stroke:#1f3250;stroke-linecap:round;stroke-linejoin:round;stroke-width:4px"/><line id="_Path_61" data-name="&lt;Path&gt;" x1="48.4" y1="320" x2="40.8" y2="327.6" style="fill:none;stroke:#1f3250;stroke-linecap:round;stroke-linejoin:round;stroke-width:4px"/></g><g id="_Group_9" data-name="&lt;Group&gt;"><circle id="_Path_62" data-name="&lt;Path&gt;" cx="513.3" cy="323.8" r="15.2" style="fill:#0c776d"/><circle id="_Path_63" data-name="&lt;Path&gt;" cx="513.3" cy="323.8" r="10.5" style="fill:none;stroke:#1f3250;stroke-linecap:round;stroke-linejoin:round;stroke-width:4px"/><line id="_Path_64" data-name="&lt;Path&gt;" x1="509.5" y1="320" x2="517.1" y2="327.6" style="fill:none;stroke:#1f3250;stroke-linecap:round;stroke-linejoin:round;stroke-width:4px"/><line id="_Path_65" data-name="&lt;Path&gt;" x1="517.1" y1="320" x2="509.5" y2="327.6" style="fill:none;stroke:#1f3250;stroke-linecap:round;stroke-linejoin:round;stroke-width:4px"/></g><g id="_Group_10" data-name="&lt;Group&gt;"><circle id="_Path_66" data-name="&lt;Path&gt;" cx="279" cy="297.9" r="10.2" style="fill:#0c776d"/><circle id="_Path_67" data-name="&lt;Path&gt;" cx="279" cy="297.9" r="7.1" style="fill:none;stroke:#1f3250;stroke-linecap:round;stroke-linejoin:round;stroke-width:3px"/><line id="_Path_68" data-name="&lt;Path&gt;" x1="275.8" y1="297.9" x2="282.1" y2="297.9" style="fill:none;stroke:#1f3250;stroke-linecap:round;stroke-linejoin:round;stroke-width:3px"/><line id="_Path_69" data-name="&lt;Path&gt;" x1="279" y1="294.8" x2="279" y2="301" style="fill:none;stroke:#1f3250;stroke-linecap:round;stroke-linejoin:round;stroke-width:3px"/></g><path id="_Path_70" data-name="&lt;Path&gt;" d="M446.6,431.1v36a6,6,0,0,0,6,6h36.1a88.5,88.5,0,0,0-1.3-48H452.5A6,6,0,0,0,446.6,431.1Z" transform="translate(-220.8 -296.8)" style="fill:#1f3250"/><path id="_Path_71" data-name="&lt;Path&gt;" d="M540.1,473.1h6.7a6,6,0,0,0,6-6v-36a6,6,0,0,0-6-6H542a59,59,0,0,0-6.1,26.2A62.61,62.61,0,0,0,540.1,473.1Z" transform="translate(-220.8 -296.8)" style="fill:#1f3250"/><path id="_Path_72" data-name="&lt;Path&gt;" d="M546.9,472.1H452.7a6,6,0,0,1-6-6v-34a6,6,0,0,1,6-6h94.2a6,6,0,0,1,6,6v34A6,6,0,0,1,546.9,472.1Z" transform="translate(-220.8 -296.8)" style="fill:#7db9f9;opacity:0.5099999904632568;isolation:isolate"/><polygon id="_Path_73" data-name="&lt;Path&gt;" points="258.2 175.3 303.9 129.3 285.1 129.3 239.4 175.3 258.2 175.3" style="fill:#fff;opacity:0.4300000071525574;isolation:isolate"/><polygon id="_Path_74" data-name="&lt;Path&gt;" points="277.9 175.3 323.5 129.3 314.2 129.3 268.5 175.3 277.9 175.3" style="fill:#fff;opacity:0.4300000071525574;isolation:isolate"/><path id="_Path_75" data-name="&lt;Path&gt;" d="M546.9,473.1H452.7a6,6,0,0,1-6-6v-36a6,6,0,0,1,6-6h94.2a6,6,0,0,1,6,6v36A6,6,0,0,1,546.9,473.1Z" transform="translate(-220.8 -296.8)" style="fill:none;stroke:#1f3250;stroke-linecap:round;stroke-linejoin:round;stroke-width:6px"/><line id="_Path_76" data-name="&lt;Path&gt;" x1="312.3" y1="213.8" x2="351.7" y2="213.8" style="fill:none;stroke:#1f3250;stroke-linecap:round;stroke-linejoin:round;stroke-width:6px;opacity:0.36000001430511475;isolation:isolate"/><line id="_Path_77" data-name="&lt;Path&gt;" x1="206.2" y1="213.8" x2="300.3" y2="213.8" style="fill:none;stroke:#1f3250;stroke-linecap:round;stroke-linejoin:round;stroke-width:6px;opacity:0.36000001430511475;isolation:isolate"/><line id="_Path_78" data-name="&lt;Path&gt;" x1="206.2" y1="230.4" x2="351.7" y2="230.4" style="fill:none;stroke:#1f3250;stroke-linecap:round;stroke-linejoin:round;stroke-width:6px;opacity:0.36000001430511475;isolation:isolate"/><path id="_Path_79" data-name="&lt;Path&gt;" d="M363.2,401.9H332.7a6.06,6.06,0,0,1-6.1-6.1V365.3a6.06,6.06,0,0,1,6.1-6.1h30.5a6.06,6.06,0,0,1,6.1,6.1v30.5A6.06,6.06,0,0,1,363.2,401.9Z" transform="translate(-220.8 -296.8)" style="fill:#6dd2b9"/><g id="_Group_11" data-name="&lt;Group&gt;"><path d="M352.1,386.5H341.8l-1.8,5h-4.2l8.8-24.6h4.7l8.8,24.6h-4.2Zm-5.2-14.8-4,11.4h8Z" transform="translate(-220.8 -296.8)" style="fill:#32b94d"/></g><path id="_Path_80" data-name="&lt;Path&gt;" d="M233.8,634.2l-7.1-6.7a9.8,9.8,0,0,1-2.9-7.1V526.6a9.3,9.3,0,0,1,3.8-7.8l6.2-4.2Z" transform="translate(-220.8 -296.8)" style="fill:#0c776d"/><line id="_Path_81" data-name="&lt;Path&gt;" x1="144.2" y1="71.8" x2="452.1" y2="71.8" style="fill:none;stroke:#6dd2b9;stroke-linecap:round;stroke-linejoin:round;stroke-width:6px"/><line id="_Path_82" data-name="&lt;Path&gt;" x1="144.2" y1="83.8" x2="452.1" y2="83.8" style="fill:none;stroke:#6dd2b9;stroke-linecap:round;stroke-linejoin:round;stroke-width:6px"/><line id="_Path_83" data-name="&lt;Path&gt;" x1="144.2" y1="95.8" x2="452.1" y2="95.8" style="fill:none;stroke:#6dd2b9;stroke-linecap:round;stroke-linejoin:round;stroke-width:6px"/><path id="_Path_84" data-name="&lt;Path&gt;" d="M233.8,634.2l-7.1-6.7a9.8,9.8,0,0,1-2.9-7.1V526.6a9.3,9.3,0,0,1,3.8-7.8l6.2-4.2Z" transform="translate(-220.8 -296.8)" style="fill:none;stroke:#1f3250;stroke-linecap:round;stroke-linejoin:round;stroke-width:6px"/></svg>