<svg id="Layer_1" data-name="Layer 1" xmlns="http://www.w3.org/2000/svg" viewBox="0 0 69.99 82"><title>time</title><rect x="67.93" y="30.9" width="9.4" height="6.93" transform="translate(-19.02 52.42) rotate(-45)" style="fill:#ceccbe"/><path d="M71.75,40.84l-5.6-5.6,7.35-7.36,5.61,5.6Zm-4.19-5.61,4.19,4.19,5.94-5.94L73.5,29.29Z" transform="translate(-16 -9)" style="fill:#1f212b"/><path d="M84.7,29.18l-6.9-6.9a1,1,0,0,0-1.38,0l-4.13,4.14a1,1,0,0,0,0,1.38l6.89,6.9a1,1,0,0,0,1.38,0l4.14-4.14A1,1,0,0,0,84.7,29.18Z" transform="translate(-16 -9)" style="fill:#e3e3e4"/><path d="M79.87,36a2,2,0,0,1-1.39-.58l-6.9-6.9a2,2,0,0,1,0-2.79l4.14-4.14a2,2,0,0,1,2.79,0l6.9,6.9A2,2,0,0,1,86,29.87a2,2,0,0,1-.58,1.4l-4.14,4.14A2,2,0,0,1,79.87,36ZM77.1,23,73,27.13,79.89,34,84,29.87Z" transform="translate(-16 -9)" style="fill:#1f212b"/><rect x="28.5" y="10.5" width="10" height="9.5" style="fill:#ceccbe"/><path d="M55,29.5H44V19H55Zm-10-1h9V20H45Z" transform="translate(-16 -9)" style="fill:#1f212b"/><path d="M58,20H41a1,1,0,0,1-1-1V11a1,1,0,0,1,1-1H58a1,1,0,0,1,1,1v8A1,1,0,0,1,58,20Z" transform="translate(-16 -9)" style="fill:#e3e3e4"/><path d="M58,21H41a2,2,0,0,1-2-2V11a2,2,0,0,1,2-2H58a2,2,0,0,1,2,2v8A2,2,0,0,1,58,21ZM41,11v8H58V11Z" transform="translate(-16 -9)" style="fill:#1f212b"/><circle cx="33.5" cy="48.5" r="32.5" style="fill:#78a2d2"/><path d="M49.5,91A33.5,33.5,0,1,1,83,57.5,33.54,33.54,0,0,1,49.5,91Zm0-65A31.5,31.5,0,1,0,81,57.5,31.53,31.53,0,0,0,49.5,26Z" transform="translate(-16 -9)" style="fill:#1f212b"/><circle cx="33.5" cy="48.5" r="26.5" style="fill:#fefdef"/><path d="M49.5,34a.5.5,0,0,1-.5-.5v-3a.5.5,0,0,1,1,0v3A.5.5,0,0,1,49.5,34Z" transform="translate(-16 -9)" style="fill:#1f212b"/><path d="M32.53,41a.51.51,0,0,1-.36-.15l-2.12-2.12a.5.5,0,0,1,0-.7.5.5,0,0,1,.71,0l2.12,2.12a.5.5,0,0,1-.35.85Z" transform="translate(-16 -9)" style="fill:#1f212b"/><path d="M25.5,58h-3a.5.5,0,0,1,0-1h3a.5.5,0,0,1,0,1Z" transform="translate(-16 -9)" style="fill:#1f212b"/><path d="M30.41,77.09a.54.54,0,0,1-.36-.14.51.51,0,0,1,0-.71l2.12-2.12a.5.5,0,0,1,.71,0,.48.48,0,0,1,0,.7L30.76,77A.52.52,0,0,1,30.41,77.09Z" transform="translate(-16 -9)" style="fill:#1f212b"/><path d="M49.5,85a.5.5,0,0,1-.5-.5v-3a.5.5,0,0,1,1,0v3A.5.5,0,0,1,49.5,85Z" transform="translate(-16 -9)" style="fill:#1f212b"/><path d="M68.59,77.09a.52.52,0,0,1-.35-.14l-2.12-2.13a.49.49,0,0,1,.7-.7L69,76.24A.51.51,0,0,1,69,77,.54.54,0,0,1,68.59,77.09Z" transform="translate(-16 -9)" style="fill:#1f212b"/><path d="M76.5,58h-3a.5.5,0,0,1,0-1h3a.5.5,0,0,1,0,1Z" transform="translate(-16 -9)" style="fill:#1f212b"/><path d="M66.47,41a.5.5,0,0,1-.35-.85l2.12-2.12a.5.5,0,0,1,.71,0,.5.5,0,0,1,0,.7l-2.13,2.12A.47.47,0,0,1,66.47,41Z" transform="translate(-16 -9)" style="fill:#1f212b"/><path d="M59.77,64.23l-2-2a2.51,2.51,0,0,0-2.68-.56L37.21,43.79a1,1,0,0,0-1.42,1.42L53.67,63.09a2.51,2.51,0,0,0,.56,2.68l2,2a2.5,2.5,0,0,0,3.54-3.54Z" transform="translate(-16 -9)" style="fill:#f37e98"/><path d="M58,69a3,3,0,0,1-2.12-.88l-2-2a3,3,0,0,1-.77-2.89L35.44,45.56a1.49,1.49,0,0,1,0-2.12,1.51,1.51,0,0,1,2.12,0L55.22,61.11a3,3,0,0,1,2.9.77l2,2a3,3,0,0,1,0,4.24A3,3,0,0,1,58,69ZM36.5,44a.47.47,0,0,0-.35.15.48.48,0,0,0,0,.7L54,62.74a.5.5,0,0,1,.11.53,2,2,0,0,0,.44,2.14l2,2a2,2,0,0,0,2.83,0,2,2,0,0,0,0-2.82h0l-2-2a2,2,0,0,0-2.14-.45.51.51,0,0,1-.54-.11L36.85,44.15A.47.47,0,0,0,36.5,44Z" transform="translate(-16 -9)" style="fill:#1f212b"/><circle cx="33.5" cy="48.5" r="3" style="fill:#fef6aa"/><path d="M49.5,61A3.5,3.5,0,1,1,53,57.5,3.5,3.5,0,0,1,49.5,61Zm0-6A2.5,2.5,0,1,0,52,57.5,2.5,2.5,0,0,0,49.5,55Z" transform="translate(-16 -9)" style="fill:#1f212b"/><path d="M43.5,20a.5.5,0,0,1-.5-.5v-2a.5.5,0,0,1,1,0v2A.5.5,0,0,1,43.5,20Z" transform="translate(-16 -9)" style="fill:#1f212b"/><path d="M43.5,15a.5.5,0,0,1-.5-.5v-4a.5.5,0,0,1,1,0v4A.5.5,0,0,1,43.5,15Z" transform="translate(-16 -9)" style="fill:#1f212b"/><path d="M46.5,20a.5.5,0,0,1-.5-.5v-9a.5.5,0,0,1,1,0v9A.5.5,0,0,1,46.5,20Z" transform="translate(-16 -9)" style="fill:#1f212b"/><path d="M49.5,18a.5.5,0,0,1-.5-.5v-7a.5.5,0,0,1,1,0v7A.5.5,0,0,1,49.5,18Z" transform="translate(-16 -9)" style="fill:#1f212b"/><path d="M52.5,20a.5.5,0,0,1-.5-.5v-9a.5.5,0,0,1,1,0v9A.5.5,0,0,1,52.5,20Z" transform="translate(-16 -9)" style="fill:#1f212b"/><path d="M55.5,20a.5.5,0,0,1-.5-.5v-5a.5.5,0,0,1,1,0v5A.5.5,0,0,1,55.5,20Z" transform="translate(-16 -9)" style="fill:#1f212b"/><path d="M55.5,13a.5.5,0,0,1-.5-.5v-2a.5.5,0,0,1,1,0v2A.5.5,0,0,1,55.5,13Z" transform="translate(-16 -9)" style="fill:#1f212b"/><path d="M49.5,85A27.5,27.5,0,1,1,73.6,44.26a.49.49,0,0,1-.19.68.51.51,0,0,1-.68-.2A26.51,26.51,0,1,0,76,57.5c0-.59,0-1.22-.08-2a.5.5,0,0,1,.46-.54.5.5,0,0,1,.54.46c0,.78.08,1.42.08,2A27.54,27.54,0,0,1,49.5,85Z" transform="translate(-16 -9)" style="fill:#1f212b"/><path d="M76,53a.51.51,0,0,1-.49-.41c-.14-.76-.28-1.38-.43-2a.48.48,0,0,1,.35-.61.49.49,0,0,1,.61.35c.16.6.31,1.25.46,2a.5.5,0,0,1-.4.58Z" transform="translate(-16 -9)" style="fill:#1f212b"/></svg>