<svg xmlns="http://www.w3.org/2000/svg" xmlns:xlink="http://www.w3.org/1999/xlink" viewBox="0 0 60.63 65.44"><defs><linearGradient id="linear-gradient" x1="395.51" y1="313.25" x2="395.51" y2="305.9" gradientTransform="matrix(0.05, -1, -1, -0.05, 345.16, 471.8)" gradientUnits="userSpaceOnUse"><stop offset="0" stop-color="#a4a4a4"/><stop offset="0.63" stop-color="#7f7f7f"/><stop offset="1" stop-color="#6f6f6f"/></linearGradient><linearGradient id="linear-gradient-2" x1="417.32" y1="354.5" x2="417.32" y2="308.27" gradientTransform="matrix(0.05, -1, -1, -0.05, 345.16, 471.8)" gradientUnits="userSpaceOnUse"><stop offset="0" stop-color="#42d778"/><stop offset="1" stop-color="#34b171"/></linearGradient><linearGradient id="linear-gradient-3" x1="417.32" y1="321.99" x2="417.32" y2="344.48" gradientTransform="matrix(0.05, -1, -1, -0.05, 345.16, 471.8)" gradientUnits="userSpaceOnUse"><stop offset="0" stop-color="#37ab6a"/><stop offset="0.42" stop-color="#39b66f"/><stop offset="1" stop-color="#3ac074"/></linearGradient><linearGradient id="linear-gradient-4" x1="401.91" y1="307.09" x2="401.91" y2="324.87" gradientTransform="matrix(0.05, -1, -1, -0.05, 345.16, 471.8)" gradientUnits="userSpaceOnUse"><stop offset="0" stop-color="#ffc662"/><stop offset="0" stop-color="#ffc662"/><stop offset="0.61" stop-color="#ffc582"/><stop offset="1" stop-color="#ffc491"/></linearGradient><linearGradient id="linear-gradient-5" x1="442.5" y1="345.61" x2="442.5" y2="367.51" gradientTransform="matrix(0.05, -1, -1, -0.05, 345.16, 471.8)" gradientUnits="userSpaceOnUse"><stop offset="0" stop-color="#ff634d"/><stop offset="0.2" stop-color="#fe6464"/><stop offset="0.52" stop-color="#fc6581"/><stop offset="0.79" stop-color="#fa6694"/><stop offset="0.99" stop-color="#fa669a"/><stop offset="1" stop-color="#fa669a"/></linearGradient><linearGradient id="linear-gradient-6" x1="436.27" y1="362.77" x2="436.27" y2="337.91" gradientTransform="matrix(0.05, -1, -1, -0.05, 345.16, 471.8)" gradientUnits="userSpaceOnUse"><stop offset="0" stop-color="#b2b2b2"/><stop offset="0.59" stop-color="#949494"/><stop offset="1" stop-color="#848484"/></linearGradient></defs><title>pencil</title><g id="Layer_2" data-name="Layer 2"><g id="Ñëîé_1" data-name="Ñëîé 1"><g id="pencil"><path d="M52.54,63.17l5.86,1.49a1.24,1.24,0,0,0,1.09-.27,1.23,1.23,0,0,0,.39-.82.86.86,0,0,0,0-.23l-.88-6Z" style="stroke:#000;stroke-miterlimit:10;stroke-width:1.5px;fill:url(#linear-gradient)"/><path d="M28.31,14.81,13.37,28.29A1.18,1.18,0,0,0,13.29,30L41.36,61.08a1.18,1.18,0,0,0,1.67.09L58,47.69a1.16,1.16,0,0,0,.39-.82,1.15,1.15,0,0,0-.3-.85L30,14.9A1.19,1.19,0,0,0,28.31,14.81Z" style="stroke:#000;stroke-miterlimit:10;stroke-width:1.5px;fill:url(#linear-gradient-2)"/><path d="M23.33,19.3l-5,4.5a1.18,1.18,0,0,0-.08,1.67L46.34,56.59a1.19,1.19,0,0,0,1.67.09l5-4.5a1.16,1.16,0,0,0,.39-.82,1.15,1.15,0,0,0-.3-.85L25,19.39A1.2,1.2,0,0,0,23.33,19.3Z" style="fill:url(#linear-gradient-3)"/><path d="M49.88,46.45a1.19,1.19,0,0,0-1.05,1.12l-.24,4.73-4.74-.24a1.19,1.19,0,0,0-1.22.93l-1.55,7a1.24,1.24,0,0,0,.18.92,1.22,1.22,0,0,0,.79.51l10.59,1.73a1.19,1.19,0,0,0,1-.29l5-4.49a1.23,1.23,0,0,0,.39-.82v-.13l-.64-10.72a1.22,1.22,0,0,0-.42-.84,1.26,1.26,0,0,0-.9-.27Z" style="stroke:#000;stroke-miterlimit:10;stroke-width:1.5px;fill:url(#linear-gradient-4)"/><path d="M11,2.18,2.58,9.8a5.56,5.56,0,0,0-.4,7.84L6,21.87A1.18,1.18,0,0,0,7.66,22L22.6,8.48A1.16,1.16,0,0,0,23,7.66a1.15,1.15,0,0,0-.3-.85L18.87,2.58A5.56,5.56,0,0,0,11,2.18Z" style="stroke:#000;stroke-miterlimit:10;stroke-width:1.5px;fill:url(#linear-gradient-5)"/><path d="M20.7,7,6.39,19.92a4.11,4.11,0,0,0-.3,5.81l2.84,3.15a4.12,4.12,0,0,0,5.81.3L29.06,16.26a4.12,4.12,0,0,0,.3-5.81L26.52,7.3A4.13,4.13,0,0,0,20.7,7Z" style="stroke:#000;stroke-miterlimit:10;stroke-width:1.5px;fill:url(#linear-gradient-6)"/></g></g></g></svg>